<svg width="60" height="61" viewBox="0 0 60 61" fill="none" xmlns="http://www.w3.org/2000/svg">
<rect width="60" height="61" fill="#F5F5F5"/>
<rect width="1920" height="18942" transform="translate(-383 -3984)" fill="black"/>
<rect x="-58.5" y="-62.5" width="1271" height="2211" stroke="url(#paint0_linear_887_2)" stroke-width="3"/>
<path d="M22.5 5.5H12.5V10.5H7.5V15.5H2.5V30.5H7.5V35.5H12.5V40.5H17.5V45.5H22.5V50.5H27.5V55.5H32.5V50.5H37.5V45.5H42.5V40.5H47.5V35.5H52.5V30.5H57.5V15.5H52.5V10.5H47.5V5.5H37.5V10.5H32.5V15.5H27.5V10.5H22.5V5.5ZM22.5 10.5V15.5H27.5V20.5H32.5V15.5H37.5V10.5H47.5V15.5H52.5V30.5H47.5V35.5H42.5V40.5H37.5V45.5H32.5V50.5H27.5V45.5H22.5V40.5H17.5V35.5H12.5V30.5H7.5V15.5H12.5V10.5H22.5Z" fill="#66FFC8"/>
<g filter="url(#filter0_d_887_2)">
<path d="M99.4961 4.00977H99.7695L99.8926 4.06445C99.9382 4.66602 99.6829 5.30404 99.127 5.97852C98.7715 7.12695 98.2975 8.36654 97.7051 9.69727C97.7415 9.69727 97.7598 9.71549 97.7598 9.75195C97.6868 9.75195 97.6549 9.80664 97.6641 9.91602L97.6777 10.0801C97.5046 10.5176 97.2676 10.7363 96.9668 10.7363C96.9759 10.7728 96.9622 10.791 96.9258 10.791L97.0078 11.0645C97.0078 11.1647 96.9121 11.347 96.7207 11.6113L96.748 11.9395L96.666 12.8145H96.7207L98.1562 10.5723C98.6758 9.61523 99.0859 9.05013 99.3867 8.87695C99.4596 8.91341 99.5143 8.93164 99.5508 8.93164C99.5052 9.15951 99.2865 9.56055 98.8945 10.1348C98.8945 10.2259 98.7852 10.4629 98.5664 10.8457C98.5755 10.9186 98.4844 11.1374 98.293 11.502C97.7917 12.8691 97.418 13.9811 97.1719 14.8379C97.3542 14.9199 97.4499 15.0111 97.459 15.1113H97.5137C98.6257 13.6986 99.2363 12.9694 99.3457 12.9238H99.4004L99.5781 13.0332C99.5872 13.1061 99.25 13.8171 98.5664 15.166C98.4479 15.5397 97.9967 16.6335 97.2129 18.4473C96.4108 20.1608 95.8275 21.0176 95.4629 21.0176C95.2533 21.0905 95.153 21.1816 95.1621 21.291C95.2624 21.6191 95.3125 21.8014 95.3125 21.8379C95.3307 22.0475 95.1621 22.6126 94.8066 23.5332C94.8522 24.0527 94.5605 24.4355 93.9316 24.6816C93.6309 24.9186 93.3984 25.1738 93.2344 25.4473C93.2435 25.5931 93.0658 25.903 92.7012 26.377L91.2793 28.8379C90.86 29.5944 90.1491 31.0527 89.1465 33.2129C89.0827 33.4681 89.0052 33.5957 88.9141 33.5957L88.9688 33.7051C88.9779 33.8145 88.9049 34.015 88.75 34.3066C88.7865 34.3066 88.8092 34.3249 88.8184 34.3613C88.6725 34.3796 88.6042 34.4342 88.6133 34.5254C88.6497 34.5254 88.668 34.5436 88.668 34.5801H88.5586V34.6348L88.627 34.7441C88.4538 34.7441 88.3672 34.9993 88.3672 35.5098C88.2943 35.5189 88.2624 35.5553 88.2715 35.6191L88.3262 35.7285C88.2533 35.7376 88.2214 35.7741 88.2305 35.8379H88.2852C87.6836 37.4238 87.1823 39.1921 86.7812 41.1426L86.5078 41.7988C86.4167 41.7988 86.2982 42.1087 86.1523 42.7285H86.2617C86.2617 42.6738 86.4896 42.3457 86.9453 41.7441C86.9362 41.6712 87.3327 41.2155 88.1348 40.377C90.4225 37.7884 91.7487 36.4577 92.1133 36.3848C92.2956 36.166 92.7422 35.8743 93.4531 35.5098H93.6172C93.6719 35.5098 93.7311 35.5645 93.7949 35.6738C93.804 35.7923 93.4212 36.1934 92.6465 36.877C92.0723 37.4603 91.7988 37.8796 91.8262 38.1348C91.9538 37.9889 92.446 37.6061 93.3027 36.9863C94.9707 35.4824 96.388 34.3887 97.5547 33.7051C97.8828 33.5228 98.0788 33.4316 98.1426 33.4316L98.1289 33.377H97.9648C97.3359 33.6413 96.8711 33.9147 96.5703 34.1973V34.252H96.2422L94.9434 35.0176H94.8887L94.8613 34.7988C95.3535 34.3704 95.6406 34.097 95.7227 33.9785C95.7227 34.015 95.7409 34.0332 95.7773 34.0332C96.5885 33.4316 97.778 32.8118 99.3457 32.1738C99.765 31.8275 100.321 31.5358 101.014 31.2988V31.3535C101.506 31.1712 102.244 30.8249 103.229 30.3145C103.484 30.3509 103.616 30.4238 103.625 30.5332C103.634 30.6243 103.352 30.916 102.777 31.4082L102.723 31.5176H102.777C103.033 31.5176 103.156 31.4447 103.146 31.2988C103.183 31.2988 103.201 31.3171 103.201 31.3535C104.186 31.0618 105.188 30.6243 106.209 30.041C106.464 29.9681 107.398 29.5853 109.012 28.8926C109.303 28.9473 109.454 29.0384 109.463 29.166C109.481 29.3118 109.053 29.6035 108.178 30.041C108.187 30.1139 107.859 30.3145 107.193 30.6426C105.945 31.5267 104.655 32.6204 103.324 33.9238C102.285 35.0358 101.77 35.6191 101.779 35.6738H101.834C103.046 34.8262 104.35 34.0788 105.744 33.4316C105.735 33.3952 105.785 33.377 105.895 33.377C106.013 33.4134 106.072 33.4499 106.072 33.4863C106.045 33.5592 106.031 33.6139 106.031 33.6504C106.068 33.6504 106.086 33.6686 106.086 33.7051C105.539 34.0332 105.179 34.2702 105.006 34.416C103.475 35.7376 102.627 36.485 102.463 36.6582C102.335 36.8405 102.053 37.1322 101.615 37.5332C101.132 37.9342 100.781 38.2988 100.562 38.627C99.7695 39.2559 98.9128 40.0944 97.9922 41.1426H98.0469C99.4505 40.1947 100.544 39.5566 101.328 39.2285L101.451 39.3926C101.059 39.7389 100.476 40.1764 99.7012 40.7051C99.528 41.0059 99.2409 41.2793 98.8398 41.5254C98.849 41.5892 98.4297 41.972 97.582 42.6738C97.582 42.7103 97.2266 43.0202 96.5156 43.6035C96.2878 43.8861 95.9186 44.2689 95.4082 44.752L92.5781 48.0332L90.9922 49.9473C90.9375 49.9837 90.8691 50.002 90.7871 50.002H90.7324L90.7188 49.8926C90.7005 49.6374 91.3522 48.5254 92.6738 46.5566L92.5508 46.502C91.6667 47.2585 91.0286 47.8783 90.6367 48.3613C90.3451 48.571 89.7754 49.1361 88.9277 50.0566C88.9277 50.0931 88.5632 50.5124 87.834 51.3145C87.5059 51.8704 87.1003 52.4173 86.6172 52.9551C86.5625 52.9824 86.3848 53.2741 86.084 53.8301C85.5189 54.459 85.2454 54.8418 85.2637 54.9785L84.3887 56.3457C84.3158 56.3548 84.2839 56.3913 84.293 56.4551C84.1016 56.3822 84.0059 56.3275 84.0059 56.291C83.9238 55.4069 84.3522 54.2585 85.291 52.8457L85.3184 52.5723C84.2702 53.6296 83.5866 54.1582 83.2676 54.1582C83.1126 54.5046 82.7663 54.9056 82.2285 55.3613L81.9004 55.3066L81.8867 55.1973C81.8776 55.0514 81.987 54.6322 82.2148 53.9395V53.8848H82.1602C81.8047 53.8848 81.4036 54.14 80.957 54.6504C80.8203 54.6777 80.752 54.7142 80.752 54.7598C80.5697 54.7598 80.4147 54.6686 80.2871 54.4863L80.7109 53.0098C80.638 52.9733 80.5833 52.9551 80.5469 52.9551C80.3555 52.9551 79.8542 53.2832 79.043 53.9395C78.4232 54.0306 77.8353 54.4134 77.2793 55.0879C76.6048 55.6712 76.0352 56.2546 75.5703 56.8379C75.4336 56.9837 75.2969 57.0566 75.1602 57.0566C75.0872 57.0566 75.0462 57.0202 75.0371 56.9473C75.2376 56.127 75.7435 55.2155 76.5547 54.2129C77.0286 54.0033 77.3659 53.6934 77.5664 53.2832L77.5391 53.0098C77.5391 52.9733 77.5208 52.9551 77.4844 52.9551L77.5254 52.8457L77.0469 52.4629V52.4082C77.0195 52.071 77.3385 51.7428 78.0039 51.4238C78.1953 51.2051 78.3138 51.0957 78.3594 51.0957L78.3457 51.041L78.0723 50.9863L77.6895 51.041C77.6165 51.0046 77.5618 50.9863 77.5254 50.9863C77.5254 51.0228 77.5072 51.041 77.4707 51.041C77.3158 50.877 77.2292 50.7129 77.2109 50.5488C77.2018 50.4577 77.3613 50.2025 77.6895 49.7832C77.6803 49.6465 77.3613 49.5371 76.7324 49.4551L76.7461 49.5098C76.181 49.3639 75.8802 49.0905 75.8438 48.6895L75.7617 48.3066C75.7708 48.0605 75.7708 47.86 75.7617 47.7051H75.707L75.748 47.5957C75.748 47.5592 75.7298 47.541 75.6934 47.541C75.7025 47.2676 75.7207 47.0853 75.748 46.9941C75.7116 46.9212 75.6888 46.8665 75.6797 46.8301C75.7435 46.4928 76.0124 46.2194 76.4863 46.0098C76.7415 45.9551 76.8646 45.8822 76.8555 45.791L76.7461 45.1348C76.8008 45.0163 76.8236 44.9069 76.8145 44.8066C76.7871 44.8066 76.6504 44.6608 76.4043 44.3691C76.3678 43.9772 76.4635 43.6491 76.6914 43.3848H76.6367C76.7279 43.1387 76.9056 42.847 77.1699 42.5098C77.416 41.6712 77.8581 40.5046 78.4961 39.0098C78.4688 38.6725 78.7194 38.1803 79.248 37.5332C79.3301 37.2233 79.3665 37.0228 79.3574 36.9316H79.3027C79.3027 36.8952 79.321 36.877 79.3574 36.877L79.2754 36.6035C79.3301 36.0202 79.6126 35.7285 80.123 35.7285L80.0684 35.0176C80.0501 34.8353 80.0684 34.6165 80.123 34.3613C80.0319 34.2428 79.9818 34.1335 79.9727 34.0332V33.9785C80.1914 33.6868 80.4876 33.541 80.8613 33.541L80.8203 32.9941C80.9844 32.7936 81.0664 32.6842 81.0664 32.666C81.4128 32.8118 81.6178 32.8848 81.6816 32.8848C81.7181 32.2012 82.3561 30.3418 83.5957 27.3066C84.0697 26.1764 84.5938 25.2832 85.168 24.627C85.3867 24.2715 85.569 24.0527 85.7148 23.9707L85.7559 23.752H85.7012C85.3548 23.752 85.0495 24.0436 84.7852 24.627C84.4935 25.2467 84.0195 26.0671 83.3633 27.0879C83.3724 27.1882 82.9577 27.8809 82.1191 29.166C81.6634 30.196 81.3353 30.8158 81.1348 31.0254H81.0254L80.9434 30.752C80.9889 30.752 81.1803 30.2051 81.5176 29.1113L82.543 26.4863C82.6706 26.3314 82.8529 25.8939 83.0898 25.1738C83.3177 24.8822 83.6276 24.2624 84.0195 23.3145C84.293 23.0866 84.5208 22.5762 84.7031 21.7832C85.5326 20.8079 86.1842 19.696 86.6582 18.4473C86.7493 18.2832 86.7949 18.1738 86.7949 18.1191H87.0684L87.2461 18.2832C87.237 18.5749 87.1641 18.8118 87.0273 18.9941C87.1367 19.3496 87.1914 19.5501 87.1914 19.5957C87.2005 19.7142 87.1276 19.8965 86.9727 20.1426C87.0091 20.1426 87.0273 20.1608 87.0273 20.1973H86.9727C87.0365 20.3431 87.0957 20.416 87.1504 20.416C87.3874 20.0241 87.6198 19.5319 87.8477 18.9395C88.0208 18.9395 88.1348 18.8118 88.1895 18.5566H88.0801L88.1348 18.4473C88.1257 18.3379 88.0664 18.2832 87.957 18.2832L87.9297 18.0645C88.0391 18.0007 88.1211 17.6725 88.1758 17.0801C88.4401 16.6882 88.6406 16.0684 88.7773 15.2207C88.9414 15.1387 89.2604 14.5918 89.7344 13.5801C90.1081 13.4525 90.4134 13.2337 90.6504 12.9238C90.6686 12.778 90.86 12.6322 91.2246 12.4863C91.5072 12.0488 91.7988 11.4655 92.0996 10.7363C92.3548 10.4082 92.5599 10.2441 92.7148 10.2441H92.8789C92.888 10.3171 92.9473 10.3535 93.0566 10.3535L93.0703 10.5176C93.0977 10.791 92.9701 11.429 92.6875 12.4316L92.7012 12.541C93.1934 12.541 93.444 12.0488 93.4531 11.0645C93.6172 10.6816 94.0684 9.82487 94.8066 8.49414C94.8522 8.49414 95.0436 8.16602 95.3809 7.50977C95.5814 6.9082 95.9186 6.39779 96.3926 5.97852C96.5749 6.01497 96.6751 6.10612 96.6934 6.25195C96.2741 7.37305 96.0736 7.99284 96.0918 8.11133C96.0645 8.24805 96.0553 8.39388 96.0645 8.54883L96.0918 8.76758H96.1465C96.6387 7.91081 97.1445 7.2181 97.6641 6.68945C97.737 6.45247 98.2064 5.79622 99.0723 4.7207C99.2181 4.34701 99.3594 4.11003 99.4961 4.00977ZM75.3926 51.6426C75.429 51.6426 75.4518 51.6608 75.4609 51.6973L75.5566 51.6426C75.7116 51.6426 75.8483 51.7337 75.9668 51.916C75.429 52.6452 74.9688 53.0098 74.5859 53.0098C74.3945 52.9642 74.2988 52.9095 74.2988 52.8457L74.2852 52.6816C74.6315 51.9889 75.0007 51.6426 75.3926 51.6426ZM147.457 4.88477C147.457 4.92122 147.475 4.93945 147.512 4.93945V4.88477C147.694 4.88477 147.849 4.97591 147.977 5.1582C147.986 5.26758 147.826 5.35872 147.498 5.43164L147.512 5.48633C148.204 5.5957 148.61 5.65039 148.729 5.65039H148.947C149.558 5.57747 149.9 5.54102 149.973 5.54102C150.128 5.54102 150.647 5.61393 151.531 5.75977C151.568 5.73242 151.891 5.69596 152.502 5.65039L152.734 5.81445C152.762 6.16992 151.905 6.4069 150.164 6.52539C150.173 6.60742 149.458 6.7168 148.018 6.85352C147.525 7.25456 146.846 7.45508 145.98 7.45508C145.99 7.49154 145.976 7.50977 145.939 7.50977L145.926 7.45508C145.652 7.56445 145.475 7.61914 145.393 7.61914L145.406 7.67383L145.789 7.72852C145.871 7.72852 145.944 7.71029 146.008 7.67383L146.117 7.72852C148.341 7.47331 149.813 7.2181 150.533 6.96289C150.542 6.99935 150.565 7.01758 150.602 7.01758L150.588 6.96289C150.624 6.96289 150.647 6.98112 150.656 7.01758C151.203 6.94466 151.527 6.88997 151.627 6.85352V6.9082C152.01 6.83529 152.949 6.72591 154.443 6.58008V6.63477L154.553 6.58008C154.799 6.68945 154.967 6.74414 155.059 6.74414C155.059 6.70768 155.077 6.68945 155.113 6.68945C155.195 6.80794 155.236 6.89909 155.236 6.96289C154.881 7.18164 154.653 7.29102 154.553 7.29102C154.553 7.25456 154.535 7.23633 154.498 7.23633C154.507 7.30924 153.969 7.43685 152.885 7.61914C152.219 7.83789 151.559 7.98372 150.902 8.05664C149.225 8.71289 147.872 9.04102 146.842 9.04102C145.702 9.4056 144.508 9.73372 143.26 10.0254C141.856 10.5358 141.059 10.791 140.867 10.791V10.8457H141.086C141.122 10.8457 141.141 10.8275 141.141 10.791C141.177 10.791 141.195 10.8092 141.195 10.8457C142.854 10.6999 144.294 10.4811 145.516 10.1895L145.625 10.2441H145.68C145.716 10.2441 145.734 10.2259 145.734 10.1895L145.844 10.2441L145.953 10.1895C145.971 10.1895 146.044 10.2077 146.172 10.2441C146.299 10.2441 146.441 10.1895 146.596 10.0801L146.609 10.1348C146.737 10.0527 146.928 9.97982 147.184 9.91602C147.776 9.95247 148.077 10.0436 148.086 10.1895L148.1 10.2988C147.963 10.554 147.735 10.6816 147.416 10.6816C147.07 10.6816 146.637 10.7546 146.117 10.9004V10.8457C145.725 11.0645 144.832 11.2467 143.438 11.3926C143.401 11.3926 143.096 11.4655 142.521 11.6113V11.5566C139.14 12.2858 136.597 13.015 134.893 13.7441C134.646 13.8171 134.291 13.9629 133.826 14.1816L133.717 14.127C133.726 14.2272 133.361 14.4095 132.623 14.6738L132.76 14.4551H132.705L132.062 14.6191C131.999 14.5827 131.926 14.5645 131.844 14.5645V14.5098C131.816 14.1999 132.172 13.89 132.91 13.5801C133.047 13.3887 133.375 13.2246 133.895 13.0879V12.9785H133.73C132.464 13.5254 131.63 13.7988 131.229 13.7988L128.262 14.9473L128.275 15.0566L128.549 15.1113C128.585 15.1113 128.604 15.0931 128.604 15.0566C128.795 15.1296 128.927 15.166 129 15.166C129.027 15.4668 128.895 15.6491 128.604 15.7129C128.011 16.0046 127.227 16.2233 126.252 16.3691C125.805 16.4876 125.473 16.6152 125.254 16.752C125.217 16.752 125.199 16.7337 125.199 16.6973L124.652 16.752H124.324C123.951 17.2624 123.536 17.5176 123.08 17.5176L123.066 17.4629L122.971 17.5176C122.934 17.5176 122.911 17.4993 122.902 17.4629L122.643 17.5176H122.424C122.433 17.627 122.169 17.7363 121.631 17.8457C121.631 17.8822 121.367 18.0098 120.838 18.2285L120.852 18.3379L121.125 18.2832V18.3379C121.253 18.265 122.242 18.1191 124.092 17.9004L124.215 18.0645C124.233 18.2012 123.741 18.4017 122.738 18.666C121.827 18.8848 120.847 19.1582 119.799 19.4863V19.4316C119.124 19.6048 118.796 19.8236 118.814 20.0879C118.833 20.2793 118.696 20.571 118.404 20.9629L118.418 21.1816C118.427 21.2181 118.45 21.2363 118.486 21.2363L117.721 22.4941C117.721 22.5488 117.689 22.6217 117.625 22.7129L117.639 22.8223C118.669 22.2754 120.765 21.4733 123.928 20.416L125.691 19.8691L125.869 20.0879C125.34 20.5892 124.917 20.9355 124.598 21.127V21.0723C123.951 21.2728 123.636 21.4551 123.654 21.6191H123.6V21.6738H123.709C124.092 21.6738 124.607 21.4915 125.254 21.127C125.737 21.0085 126.074 20.8991 126.266 20.7988C126.302 20.7988 126.32 20.8171 126.32 20.8535C126.648 20.8535 126.922 20.6348 127.141 20.1973C127.35 20.0514 127.51 19.9785 127.619 19.9785H127.729C127.874 20.0879 128.007 20.1426 128.125 20.1426H128.508C128.49 19.9694 128.635 19.7871 128.945 19.5957V19.6504C129.374 19.5046 129.893 19.377 130.504 19.2676V19.3223C131.005 19.2493 131.561 19.14 132.172 18.9941L132.186 19.0488L133.525 18.7754V18.8301C133.854 18.7936 134.018 18.7572 134.018 18.7207L134.127 18.7754C134.163 18.7754 134.182 18.7572 134.182 18.7207C134.255 18.7572 134.309 18.7754 134.346 18.7754L134.455 18.7207C134.71 18.7845 134.842 18.8574 134.852 18.9395V18.9941C134.122 19.3223 133.097 19.6868 131.775 20.0879C131.785 20.1335 131.661 20.1882 131.406 20.252C131.406 20.2155 131.388 20.1973 131.352 20.1973C131.324 20.2884 130.426 20.653 128.658 21.291C128.585 21.4004 128.462 21.4551 128.289 21.4551L128.303 21.5645C128.913 21.4642 129.214 21.3913 129.205 21.3457C129.242 21.3457 129.264 21.3639 129.273 21.4004C130.039 21.2546 130.449 21.1816 130.504 21.1816L130.518 21.2363C130.919 21.1634 131.383 21.054 131.912 20.9082H132.131C132.131 20.9447 132.154 20.9993 132.199 21.0723C131.908 21.2454 131.096 21.5736 129.766 22.0566C128.909 22.4212 128.421 22.7129 128.303 22.9316C128.157 23.1139 128.002 23.2051 127.838 23.2051H127.674C127.592 23.2051 127.519 23.1868 127.455 23.1504C127.364 23.1504 127.163 23.3509 126.854 23.752C126.425 23.9707 126.07 24.0801 125.787 24.0801L125.773 24.0254L125.678 24.0801H125.568L125.445 24.0254C125.135 24.2533 124.921 24.472 124.803 24.6816V24.7363L124.912 24.6816C124.912 24.7181 124.93 24.7363 124.967 24.7363C124.967 24.6999 124.985 24.6816 125.021 24.6816V24.7363C125.386 24.6634 125.947 24.6087 126.703 24.5723C126.958 24.5723 127.095 24.6634 127.113 24.8457C127.113 24.9733 126.785 25.1921 126.129 25.502V25.4473C124.616 25.9212 123.276 26.4681 122.109 27.0879C121.799 27.3431 121.553 27.4707 121.371 27.4707C121.134 27.3978 120.988 27.3613 120.934 27.3613C120.688 27.3613 120.437 27.653 120.182 28.2363C120.2 28.3822 120.1 28.4551 119.881 28.4551L119.375 28.3457C118.837 28.7285 118.117 29.0566 117.215 29.3301C116.777 29.5306 116.107 29.7676 115.205 30.041C114.941 30.3327 114.645 30.4785 114.316 30.4785L114.193 30.4238H114.029C113.783 30.4238 113.619 30.6061 113.537 30.9707C113.045 31.6452 112.626 32.4655 112.279 33.4316C111.933 34.1061 111.536 35.0358 111.09 36.2207L110.844 36.4395H110.625C110.625 36.403 110.602 36.3483 110.557 36.2754C110.666 35.8379 110.926 35.054 111.336 33.9238L111.596 33.1035L111.582 33.0488H111.527L110.461 35.2363C109.941 36.2572 109.545 37.3327 109.271 38.4629L109.23 38.5723C109.267 38.5723 109.285 38.5905 109.285 38.627C109.185 38.6725 109.048 38.9824 108.875 39.5566C108.738 39.5566 108.592 39.9577 108.438 40.7598C108.328 40.7598 108.26 41.2702 108.232 42.291L108.355 42.3457C108.866 42.1452 109.495 41.6165 110.242 40.7598C110.324 40.7598 111.085 40.1217 112.525 38.8457C113.482 38.0801 114.444 37.4056 115.41 36.8223C115.41 36.7585 115.46 36.7038 115.561 36.6582C115.643 36.6947 115.702 36.7129 115.738 36.7129C115.747 36.8223 115.734 36.877 115.697 36.877L115.766 37.1504L115.807 37.4785H115.916C116.235 37.1686 116.805 36.804 117.625 36.3848C118.053 36.248 118.523 35.9928 119.033 35.6191C119.644 35.4186 120.391 35.0176 121.275 34.416C121.357 34.416 121.973 34.1608 123.121 33.6504C123.44 33.5592 123.6 33.5046 123.6 33.4863C123.782 33.5319 123.878 33.5866 123.887 33.6504C123.777 33.8965 123.194 34.3158 122.137 34.9082C121.553 35.2637 121.148 35.6465 120.92 36.0566C121.193 36.0566 121.95 35.7285 123.189 35.0723C123.682 34.6895 124.739 34.0514 126.361 33.1582L127.332 32.4473V32.3926C127.296 32.3926 127.241 32.3743 127.168 32.3379C126.147 32.7754 125.454 32.9941 125.09 32.9941C125.017 32.9941 124.976 32.9577 124.967 32.8848L124.953 32.7754C124.99 32.6751 125.286 32.4746 125.842 32.1738C125.814 31.9277 126.439 31.5996 127.715 31.1895C128.799 30.7155 130.741 30.2051 133.539 29.6582L133.553 29.7129L133.648 29.6582C133.73 29.6673 133.771 29.7038 133.771 29.7676C133.79 29.9863 133.603 30.1322 133.211 30.2051C132.737 30.2598 131.174 31.1712 128.521 32.9395C127.865 33.3678 127.373 33.7507 127.045 34.0879H127.154C128.895 33.3223 130.978 32.3561 133.402 31.1895C135.799 30.278 137.112 29.8223 137.34 29.8223L137.395 29.9316L137.408 29.9863C137.381 30.1322 136.975 30.3145 136.191 30.5332C136.064 30.6973 135.649 30.9342 134.947 31.2441C134.865 31.3535 134.273 31.6999 133.17 32.2832C132.997 32.4655 132.737 32.6113 132.391 32.7207C132.391 32.7845 131.68 33.2038 130.258 33.9785C129.674 34.3796 128.863 34.89 127.824 35.5098C127.533 35.6647 127.036 36.0111 126.334 36.5488C126.279 36.5488 125.865 36.8223 125.09 37.3691C125.044 37.3691 124.857 37.5514 124.529 37.916C124.229 38.1621 124.078 38.3079 124.078 38.3535V38.4082C125.372 37.6335 127.327 36.5944 129.943 35.291C130.891 34.6257 132.5 33.86 134.77 32.9941H134.988C134.988 33.0306 135.011 33.0853 135.057 33.1582C134.929 33.3314 134.063 33.8418 132.459 34.6895C131.283 35.4004 130.262 36.0384 129.396 36.6035C128.594 37.0319 127.446 37.8522 125.951 39.0645C125.705 39.0645 125.391 39.2467 125.008 39.6113H125.062C125.427 39.429 125.892 39.3379 126.457 39.3379L126.525 39.4473V39.502C126.544 39.6113 126.215 39.8118 125.541 40.1035C124.903 40.6504 124.247 41.0697 123.572 41.3613C123.572 41.3249 123.554 41.3066 123.518 41.3066C121.95 42.3639 120.897 43.0202 120.359 43.2754C119.257 43.9316 118.108 44.7702 116.914 45.791C116.24 46.4108 115.839 46.8301 115.711 47.0488C115.228 47.3223 114.307 48.252 112.949 49.8379C112.512 50.3848 112.243 50.6582 112.143 50.6582V50.7129C112.07 50.6764 112.015 50.6582 111.979 50.6582V50.6035C111.96 50.4486 112.261 49.9746 112.881 49.1816C112.881 49.127 113.286 48.5254 114.098 47.377H114.043C113.824 47.377 113.182 47.9603 112.115 49.127C111.295 49.8288 110.78 50.3939 110.57 50.8223C110.297 51.1595 109.786 51.5788 109.039 52.0801C108.501 52.1986 108.237 52.3262 108.246 52.4629C108.164 52.5358 108.005 52.791 107.768 53.2285C107.521 53.3743 107.262 53.7207 106.988 54.2676L106.729 54.4863H106.51C106.473 54.4863 106.414 54.4134 106.332 54.2676C106.414 53.9121 106.546 53.5658 106.729 53.2285C106.701 52.873 106.993 52.4173 107.604 51.8613C107.676 51.8613 107.704 51.7702 107.686 51.5879H107.631C107.157 51.5879 106.688 51.8431 106.223 52.3535H106.113C106.059 52.3535 105.999 52.2988 105.936 52.1895L105.922 52.1348L106.646 50.9316H106.592C106.373 51.1686 105.475 51.9525 103.898 53.2832C102.823 54.3952 102.29 54.9967 102.299 55.0879C102.153 55.0879 101.784 55.4525 101.191 56.1816C100.462 57.002 100.02 57.5671 99.8652 57.877C99.7194 58.0957 99.5645 58.2051 99.4004 58.2051C99.3184 58.1139 99.2773 58.0592 99.2773 58.041L99.2637 57.9316C99.2272 57.4668 99.7741 56.4277 100.904 54.8145C101.041 54.5592 101.647 53.7754 102.723 52.4629C102.714 52.3626 102.878 52.1439 103.215 51.8066C103.78 50.9134 104.828 49.765 106.359 48.3613L107.467 47.2676V47.2129C106.482 47.8418 105.225 48.9173 103.693 50.4395C103.639 50.4395 103.507 50.5671 103.297 50.8223C102.54 51.4147 101.52 52.472 100.234 53.9941C100.18 53.9941 100.12 53.9395 100.057 53.8301V53.7754C100.029 53.502 100.863 52.1895 102.559 49.8379C102.859 49.5553 103.169 49.1725 103.488 48.6895H103.543V48.5801C103.096 48.9811 102.8 49.1816 102.654 49.1816C102.663 49.2454 102.326 49.5189 101.643 50.002L100.385 51.2598H100.275C100.221 51.2598 100.161 51.2051 100.098 51.0957L100.084 51.041C100.275 50.5853 100.681 50.0202 101.301 49.3457C101.392 49.3457 101.647 49.0905 102.066 48.5801C102.167 48.5801 102.395 48.2884 102.75 47.7051L102.682 47.5957C102.718 47.5957 102.736 47.5775 102.736 47.541C102.627 47.541 102.563 47.4499 102.545 47.2676V47.2129C102.536 47.1217 102.695 46.4655 103.023 45.2441C102.987 44.8431 103.101 44.4603 103.365 44.0957L103.297 43.9863C103.005 44.0137 102.864 44.0501 102.873 44.0957C102.572 44.041 102.417 43.9681 102.408 43.877L102.395 43.6035L102.859 42.7832C102.823 42.7103 102.8 42.6556 102.791 42.6191C102.527 42.6191 102.189 43.0931 101.779 44.041C101.706 44.041 101.542 44.2962 101.287 44.8066L101.355 44.916C101.246 44.916 101.091 45.2441 100.891 45.9004L100.795 45.9551L100.562 45.8457C100.799 44.4147 101.087 43.3392 101.424 42.6191C101.852 41.6074 102.062 41.0605 102.053 40.9785H101.834C101.624 41.1152 101.351 41.5527 101.014 42.291C100.877 42.4733 100.74 42.5645 100.604 42.5645H100.549C100.494 42.5645 100.435 42.5098 100.371 42.4004L100.357 42.291C100.631 40.9694 100.913 40.0033 101.205 39.3926C101.378 38.6543 101.72 37.7793 102.23 36.7676C102.376 36.1296 102.782 35.3639 103.447 34.4707C103.538 34.2793 103.639 33.9694 103.748 33.541C103.93 33.3861 104.104 33.0397 104.268 32.502L104.145 32.4473L104.158 32.502L104.035 32.4473H103.926C102.24 32.9577 101.287 33.304 101.068 33.4863C101.068 33.4499 101.05 33.4316 101.014 33.4316C100.813 33.6595 100.266 33.8783 99.373 34.0879C99.1725 34.3158 98.9128 34.4616 98.5938 34.5254C98.3385 34.5254 98.2018 34.416 98.1836 34.1973C98.1562 33.9056 98.6074 33.6504 99.5371 33.4316C99.9382 32.9668 100.362 32.6387 100.809 32.4473C101.237 32.2012 101.656 32.0007 102.066 31.8457C102.23 31.6087 102.312 31.4629 102.312 31.4082L102.189 31.3535C101.661 31.3535 100.799 31.5176 99.6055 31.8457H99.4961C99.4414 31.8457 99.3822 31.791 99.3184 31.6816V31.5723C99.5007 31.2988 99.8926 31.0254 100.494 30.752C100.676 30.5332 100.904 30.4238 101.178 30.4238L101.191 30.4785H101.301L101.287 30.4238L101.232 30.3145C101.989 30.0228 102.668 29.6582 103.27 29.2207C103.388 29.2207 103.511 29.166 103.639 29.0566V29.1113C103.976 28.9382 104.176 28.7559 104.24 28.5645V28.4551C104.085 28.4551 103.98 28.3275 103.926 28.0723C103.917 27.9447 104.158 27.7624 104.65 27.5254C104.906 27.1699 105.771 26.6777 107.248 26.0488C107.248 25.985 107.435 25.8027 107.809 25.502C107.964 25.2559 108.396 24.3809 109.107 22.877C109.417 22.2389 109.563 21.8379 109.545 21.6738C109.9 21.0814 110.064 20.6621 110.037 20.416L109.928 20.3613C109.928 20.3978 109.91 20.416 109.873 20.416V20.3613C109.59 20.5345 109.299 20.7533 108.998 21.0176C108.943 21.054 108.875 21.0723 108.793 21.0723C108.374 20.9264 108.109 20.8535 108 20.8535H107.781C107.526 20.8626 107.403 20.8991 107.412 20.9629L107.193 20.9082C106.665 20.9082 106.09 21.054 105.471 21.3457H105.252C105.152 21.3457 105.056 21.2546 104.965 21.0723C104.947 20.9264 105.129 20.7441 105.512 20.5254C105.512 20.5618 105.53 20.5801 105.566 20.5801C105.712 20.4434 106.154 20.2611 106.893 20.0332C107.23 19.8053 107.809 19.5319 108.629 19.2129L108.67 19.1035C108.661 19.0124 108.469 18.9212 108.096 18.8301C108.032 18.8301 107.754 18.9759 107.262 19.2676V19.2129L107.152 19.2676H107.043C106.815 19.2676 106.637 19.1035 106.51 18.7754C105.717 19.2129 104.969 19.4316 104.268 19.4316H104.049L103.775 19.4863V19.4316C103.639 19.5046 103.534 19.541 103.461 19.541L103.447 19.4863C102.545 19.778 102.066 19.9238 102.012 19.9238V19.8691L101.369 20.0879C101.141 20.0059 101.027 19.9329 101.027 19.8691L101 19.541C101.228 19.3587 101.542 19.1947 101.943 19.0488C102.08 19.0488 102.996 18.7025 104.691 18.0098C105.138 17.791 105.881 17.5358 106.92 17.2441C107.631 16.916 108.588 16.5879 109.791 16.2598C109.855 16.2233 109.905 16.2051 109.941 16.2051V16.0957C109.932 16.0501 109.704 15.959 109.258 15.8223C109.212 15.7493 109.189 15.6947 109.189 15.6582C109.153 15.248 109.905 14.6829 111.445 13.9629C111.618 13.7806 111.969 13.6348 112.498 13.5254L112.867 13.3066C112.867 13.3431 112.885 13.3613 112.922 13.3613C112.995 13.2611 113.861 12.9329 115.52 12.377C117.188 11.9395 121.558 10.627 128.631 8.43945C129.123 8.2207 129.46 8.11133 129.643 8.11133L129.629 8.05664C129.41 8.05664 129.301 8.03841 129.301 8.00195C128.854 8.07487 128.426 8.16602 128.016 8.27539L128.002 8.2207L124.789 8.93164V8.87695C124.616 8.94987 124.01 9.11393 122.971 9.36914H122.916L122.889 9.15039C124.083 8.63997 125.145 8.25716 126.074 8.00195C126.493 7.85612 127.045 7.72852 127.729 7.61914C127.729 7.56445 128.367 7.3457 129.643 6.96289L129.656 7.01758C133.904 5.81445 136.529 5.21289 137.531 5.21289C138.233 5.06706 138.666 4.99414 138.83 4.99414L138.885 5.10352L138.898 5.1582C138.789 5.31315 138.183 5.45898 137.08 5.5957C136.442 5.82357 136.123 5.9694 136.123 6.0332C136.451 5.99674 136.652 5.96029 136.725 5.92383C136.725 5.96029 136.743 5.97852 136.779 5.97852V5.92383C136.816 5.92383 136.834 5.94206 136.834 5.97852L137.107 5.92383H137.326C137.682 6.0332 137.96 6.08789 138.16 6.08789H138.324C139.29 5.79622 139.969 5.65039 140.361 5.65039H140.416C140.452 5.65039 140.471 5.66862 140.471 5.70508L140.744 5.65039H141.346L141.455 5.5957V5.65039C141.783 5.54102 142.161 5.48633 142.59 5.48633H143.191C143.228 5.48633 143.242 5.4681 143.232 5.43164L143.355 5.48633H143.52C143.483 5.12174 143.574 4.93945 143.793 4.93945C144.139 5.04883 144.454 5.10352 144.736 5.10352H145.01C145.046 5.10352 145.069 5.12174 145.078 5.1582C145.178 5.12174 145.447 5.06706 145.885 4.99414C146.076 5.0306 146.258 5.04883 146.432 5.04883L147.457 4.88477ZM103.092 20.9629H103.146V21.0176C103.028 21.054 102.96 21.0723 102.941 21.0723V21.127H103.105C103.105 21.0905 103.124 21.0723 103.16 21.0723C103.16 21.1087 103.178 21.127 103.215 21.127C103.215 21.0905 103.233 21.0723 103.27 21.0723C103.27 21.1087 103.288 21.127 103.324 21.127L103.311 21.0176C103.611 21.1087 103.766 21.2181 103.775 21.3457C103.821 21.8014 103.538 22.0931 102.928 22.2207H102.764C102.718 22.2207 102.554 22.0384 102.271 21.6738C102.208 21.6738 102.167 21.5827 102.148 21.4004L102.135 21.3457C102.18 21.2546 102.499 21.127 103.092 20.9629ZM147.088 2.91602C147.161 2.95247 147.238 2.9707 147.32 2.9707L147.334 3.13477C146.906 4.91211 146.546 6.24284 146.254 7.12695C146.263 7.16341 146.145 7.85612 145.898 9.20508L145.953 9.31445L145.912 9.42383H145.967C145.93 9.81576 145.826 10.2897 145.652 10.8457V10.9004L145.734 11.1738H145.68C145.725 11.2467 145.748 11.3014 145.748 11.3379C145.693 11.4746 145.634 11.8027 145.57 12.3223C145.534 12.3223 145.516 12.3405 145.516 12.377V12.4316C145.716 12.2493 145.844 12.0306 145.898 11.7754C145.898 11.7389 145.88 11.7207 145.844 11.7207C146.108 10.9642 146.441 10.3991 146.842 10.0254H147.061L147.143 10.2988C147.161 10.5723 147.079 11.1374 146.896 11.9941L146.951 12.541L146.91 12.6504H146.965C146.91 12.86 146.833 13.4251 146.732 14.3457C146.86 14.291 147.051 13.9811 147.307 13.416C147.352 13.416 147.452 13.3249 147.607 13.1426H147.717C147.917 13.1426 148.049 13.2155 148.113 13.3613L148.141 13.6895C148.095 13.9902 147.799 15.1751 147.252 17.2441C147.261 17.39 147.229 17.4629 147.156 17.4629L147.225 17.5723C146.833 18.6204 146.577 19.459 146.459 20.0879C146.532 20.0879 146.714 19.8874 147.006 19.4863C147.252 19.0488 147.471 18.8301 147.662 18.8301H147.771L147.785 18.9395C147.794 19.0306 147.571 19.5957 147.115 20.6348C146.687 21.1816 146.491 21.6738 146.527 22.1113C146.655 22.321 146.728 22.5033 146.746 22.6582C146.691 22.9316 146.473 23.3691 146.09 23.9707L145.871 24.5723H145.926C145.716 24.9642 145.543 25.4746 145.406 26.1035H145.461C145.37 26.3132 145.256 26.8783 145.119 27.7988C144.837 28.3548 144.572 29.1204 144.326 30.0957L144.23 30.1504H144.121L144.094 29.8223L144.326 28.2363C144.363 28.2363 144.381 28.2181 144.381 28.1816V28.127C144.372 28.0905 144.349 28.0723 144.312 28.0723C144.312 27.9993 144.408 27.5983 144.6 26.8691C144.645 26.6322 144.668 26.4863 144.668 26.4316C144.404 26.7415 144.29 27.1243 144.326 27.5801C143.98 28.209 143.807 28.7012 143.807 29.0566C143.752 29.0658 143.615 29.3939 143.396 30.041H143.342L143.41 30.1504C143.41 30.1686 143.383 30.2962 143.328 30.5332L143.396 30.6426C143.014 31.4264 142.717 32.4108 142.508 33.5957C142.517 33.778 142.212 35.0723 141.592 37.4785C141.464 38.1712 141.414 38.6816 141.441 39.0098H141.496C141.569 39.0189 141.61 39.0553 141.619 39.1191C141.473 39.5293 141.405 39.7663 141.414 39.8301C141.478 39.8301 141.838 39.3926 142.494 38.5176C143.752 36.9408 144.504 35.9382 144.75 35.5098L146.24 33.8145V33.7598L146.076 33.8691C146.076 33.8327 146.058 33.8145 146.021 33.8145C145.329 34.4525 144.732 34.9264 144.23 35.2363C144.158 35.1999 144.103 35.1816 144.066 35.1816L144.053 35.0176C144.992 34.1061 145.652 33.3223 146.035 32.666C146.145 32.6569 146.577 32.2012 147.334 31.2988C147.762 30.9251 148.045 30.6335 148.182 30.4238C148.519 30.123 148.924 29.5397 149.398 28.6738C150.146 27.9264 150.606 27.3249 150.779 26.8691C151.773 25.8027 152.411 24.9642 152.693 24.3535C153.003 23.8066 153.34 23.2962 153.705 22.8223C154.143 22.248 154.589 21.7376 155.045 21.291C155.473 20.6712 156.02 20.0332 156.686 19.377C156.923 18.8939 157.46 18.3652 158.299 17.791C158.363 17.5723 158.495 17.4629 158.695 17.4629L158.832 17.627C158.832 17.6908 158.714 17.8184 158.477 18.0098C157.893 18.6842 157.538 19.1947 157.41 19.541C157.346 19.541 157.214 19.7051 157.014 20.0332C156.704 20.2975 156.49 20.571 156.371 20.8535C156.016 21.2819 155.724 21.6829 155.496 22.0566H155.551C155.587 22.0566 155.838 21.7832 156.303 21.2363C156.558 20.9355 156.936 20.6803 157.438 20.4707C157.702 20.2246 157.993 19.8236 158.312 19.2676C158.449 19.1947 158.796 18.7936 159.352 18.0645C159.862 17.6816 160.322 17.1165 160.732 16.3691C161.416 15.5488 161.922 15.0384 162.25 14.8379C162.396 14.6374 162.633 14.4368 162.961 14.2363C163.645 13.5618 164.064 13.179 164.219 13.0879V13.0332H164.055C163.544 13.3522 163.239 13.5892 163.139 13.7441C162.792 13.7441 162.227 13.9811 161.443 14.4551H161.334C161.252 14.3639 161.211 14.3092 161.211 14.291C161.658 13.9811 162.1 13.5983 162.537 13.1426C162.601 13.1426 162.706 13.0879 162.852 12.9785H162.906L162.838 12.8691L162.947 12.8145V12.9238C163.148 12.7507 163.444 12.5501 163.836 12.3223C164.073 12.1764 164.187 12.0488 164.178 11.9395L164.287 11.9941C164.287 11.9121 164.561 11.6934 165.107 11.3379C165.271 10.9368 165.691 10.4993 166.365 10.0254C167.441 8.82227 168.097 8.2207 168.334 8.2207C168.462 7.97461 168.867 7.61003 169.551 7.12695C169.806 6.94466 170.002 6.85352 170.139 6.85352C170.212 6.86263 170.248 6.89909 170.248 6.96289L170.262 7.07227C169.159 8.18424 168.617 8.87695 168.635 9.15039C168.58 9.15039 168.53 9.20508 168.484 9.31445L168.498 9.36914H168.553L169.742 8.60352C170.371 7.83789 170.913 7.36393 171.369 7.18164C172.764 6.16081 173.538 5.65039 173.693 5.65039C173.748 5.65039 173.807 5.70508 173.871 5.81445L173.885 5.92383C173.529 6.4707 173.356 6.7806 173.365 6.85352C174.286 6.30664 174.824 6.0332 174.979 6.0332C175.061 6.12435 175.106 6.19727 175.115 6.25195C174.86 6.97201 174.482 7.46419 173.98 7.72852C173.99 7.76497 173.912 7.91081 173.748 8.16602H173.912C174.268 8.03841 174.66 7.71029 175.088 7.18164C175.908 6.69857 176.56 6.22461 177.043 5.75977C177.125 5.75977 177.398 5.57747 177.863 5.21289L179.682 4.17383L179.996 3.95508C180.178 4.00065 180.274 4.05534 180.283 4.11914L180.297 4.2832C180.105 4.2832 179.477 4.79362 178.41 5.81445C178.082 6.14258 177.877 6.30664 177.795 6.30664C177.585 6.59831 177.453 6.74414 177.398 6.74414C176.943 7.11784 176.323 7.73763 175.539 8.60352C175.32 8.97721 174.969 9.36003 174.486 9.75195C173.712 10.4264 172.818 11.4473 171.807 12.8145C171.433 13.498 170.654 14.3913 169.469 15.4941C169.469 15.4577 169.451 15.4395 169.414 15.4395C169.423 15.5579 169.273 15.7402 168.963 15.9863C168.963 16.0319 168.803 16.2689 168.484 16.6973C168.466 16.7975 168.348 16.9251 168.129 17.0801C168.138 17.2168 167.673 17.7454 166.734 18.666C166.242 19.3223 165.96 19.6504 165.887 19.6504C165.896 19.7051 165.65 19.9785 165.148 20.4707C165.167 20.6803 164.684 21.2272 163.699 22.1113C163.708 22.1842 163.531 22.4577 163.166 22.9316C163.175 23.0046 163.125 23.041 163.016 23.041V23.0957H163.125C163.134 23.041 163.421 22.7676 163.986 22.2754V22.2207C164.023 22.2207 164.041 22.2389 164.041 22.2754C164.114 22.2754 164.501 21.8743 165.203 21.0723C165.267 21.0723 165.518 20.8535 165.955 20.416L167.049 19.7051C167.058 19.778 167.117 19.8145 167.227 19.8145V19.8691C166.497 20.4798 165.499 21.5736 164.232 23.1504C163.704 23.6608 163.257 24.1895 162.893 24.7363C162.82 24.7363 162.487 25.1191 161.895 25.8848C160.755 26.9967 160.19 27.5801 160.199 27.6348C159.98 27.8444 159.684 28.209 159.311 28.7285C159.037 29.0931 158.704 29.6947 158.312 30.5332C158.076 31.0345 157.588 31.709 156.85 32.5566C156.221 33.5775 155.811 34.3066 155.619 34.7441C155.008 35.61 154.288 36.5397 153.459 37.5332C153.441 37.834 153.236 38.1803 152.844 38.5723H152.68C152.671 38.4993 152.648 38.4629 152.611 38.4629C152.766 37.8704 153.067 37.1413 153.514 36.2754L153.5 36.166C152.762 36.8405 152.397 37.2598 152.406 37.4238C152.115 37.9069 151.786 38.3079 151.422 38.627C150.273 40.3314 149.458 41.4434 148.975 41.9629C148.984 42.0814 148.729 42.4824 148.209 43.166L148.072 43.4395H148.127C149.12 42.5189 149.695 42.0267 149.85 41.9629C149.859 41.9993 149.882 42.0176 149.918 42.0176L149.904 41.9629C149.986 41.9993 150.046 42.0176 150.082 42.0176L150.096 42.2363C149.968 42.2363 149.818 42.4004 149.645 42.7285C149.59 42.7285 149.512 42.8743 149.412 43.166C148.519 44.2598 148.018 44.8066 147.908 44.8066L147.977 44.916C147.339 45.6452 146.956 46.0462 146.828 46.1191C146.837 46.2012 146.632 46.3652 146.213 46.6113C145.994 46.8574 145.803 47.1491 145.639 47.4863C145.557 47.4863 145.128 48.0332 144.354 49.127C143.661 49.929 143.314 50.3483 143.314 50.3848C143.032 50.6035 142.695 51.1139 142.303 51.916C141.528 52.6087 141.154 53.1191 141.182 53.4473H141.127C141.027 53.3743 140.967 53.3379 140.949 53.3379H140.895C140.904 53.4837 140.84 53.5931 140.703 53.666L140.635 53.5566C141.018 52.472 141.492 51.3965 142.057 50.3301H142.002C140.945 51.4056 140.421 52.1165 140.43 52.4629C140.074 53.028 139.846 53.3379 139.746 53.3926C139.637 53.584 139.368 53.8027 138.939 54.0488C138.775 54.222 138.507 54.7324 138.133 55.5801C137.714 56.1178 137.504 56.4095 137.504 56.4551H137.285C137.176 56.4551 137.076 56.1452 136.984 55.5254H136.93C137.358 54.5592 137.545 53.7936 137.49 53.2285C137.59 52.9186 137.673 52.5723 137.736 52.1895H137.682C137.508 52.1986 137.18 52.8184 136.697 54.0488C136.633 54.0488 136.524 54.0853 136.369 54.1582C136.15 54.0944 136.032 53.9668 136.014 53.7754C136.178 52.3444 136.251 51.5059 136.232 51.2598L136.219 51.2051L135.686 51.3691C135.567 51.3691 135.444 51.1686 135.316 50.7676H135.371C135.362 50.7311 135.339 50.7129 135.303 50.7129C135.348 50.2754 135.385 50.0566 135.412 50.0566C135.348 49.8288 135.28 49.6465 135.207 49.5098C135.134 49.5098 134.838 49.6921 134.318 50.0566H134.264C134.072 50.0566 133.936 49.765 133.854 49.1816V49.127C133.799 48.498 133.812 48.0059 133.895 47.6504L133.621 46.3926C133.621 46.0098 133.612 45.6999 133.594 45.4629H133.648C133.512 44.8796 133.302 44.5879 133.02 44.5879C132.883 44.5514 132.769 44.4785 132.678 44.3691C132.915 42.9928 133.056 41.8991 133.102 41.0879C133.348 40.6686 133.516 40.14 133.607 39.502H133.553C133.617 38.9095 133.721 38.4173 133.867 38.0254C133.858 37.916 134.008 37.1322 134.318 35.6738C134.437 34.7441 134.678 33.9603 135.043 33.3223C135.189 33.3223 135.449 32.5566 135.822 31.0254C136.068 30.4967 136.301 29.6035 136.52 28.3457L136.629 28.291H136.738C136.793 28.291 136.852 28.3457 136.916 28.4551L136.861 28.5645H136.916L136.793 28.8926L136.848 29.002C136.757 29.002 136.711 29.0931 136.711 29.2754H136.766C136.483 30.6061 136.346 31.3535 136.355 31.5176L136.369 31.5723H136.424L136.848 30.2051C137.212 29.3301 137.385 28.8197 137.367 28.6738L137.271 28.1816C137.317 27.9082 137.34 27.7441 137.34 27.6895H137.285L137.326 27.5801V27.5254C137.317 27.4889 137.294 27.4707 137.258 27.4707C137.258 27.3887 137.463 26.8053 137.873 25.7207C138.119 25.0098 138.383 23.6426 138.666 21.6191C138.702 21.6191 138.73 21.5098 138.748 21.291H138.693C138.702 21.0267 138.766 20.6986 138.885 20.3066H138.775C138.693 20.8991 138.561 21.2637 138.379 21.4004V21.4551L138.447 21.5645C138.329 21.5645 138.26 21.8561 138.242 22.4395C138.042 22.877 137.864 23.3327 137.709 23.8066C137.654 24.1348 137.577 24.2988 137.477 24.2988L137.244 24.1895L137.518 22.877L137.449 22.7676C137.613 22.1113 137.75 21.3457 137.859 20.4707C137.823 20.4707 137.8 20.4525 137.791 20.416C138.201 19.6868 138.388 19.0853 138.352 18.6113C138.616 18.2741 138.721 17.8184 138.666 17.2441C139.222 16.041 139.55 15.2207 139.65 14.7832C139.933 14.3822 140.197 13.6165 140.443 12.4863C140.58 11.9668 140.899 11.2376 141.4 10.2988C141.902 8.80404 142.221 7.91081 142.357 7.61914C142.886 6.96289 143.169 6.63477 143.205 6.63477H143.314C143.469 6.70768 143.551 6.81706 143.561 6.96289C143.588 7.20898 143.469 7.73763 143.205 8.54883L143.232 8.76758H143.287L143.246 8.87695L143.26 9.0957C143.26 9.13216 143.278 9.15039 143.314 9.15039L143.273 9.25977L143.355 9.5332C143.319 9.5332 143.301 9.55143 143.301 9.58789H143.355C143.419 9.25065 143.788 8.68555 144.463 7.89258C144.554 7.06315 144.827 6.44336 145.283 6.0332C145.42 6.0332 145.657 5.57747 145.994 4.66602C146.176 4.2194 146.541 3.63607 147.088 2.91602ZM207.805 4.88477C207.805 4.92122 207.823 4.93945 207.859 4.93945V4.88477C208.042 4.88477 208.197 4.97591 208.324 5.1582C208.333 5.26758 208.174 5.35872 207.846 5.43164L207.859 5.48633C208.552 5.5957 208.958 5.65039 209.076 5.65039H209.295C209.906 5.57747 210.247 5.54102 210.32 5.54102C210.475 5.54102 210.995 5.61393 211.879 5.75977C211.915 5.73242 212.239 5.69596 212.85 5.65039L213.082 5.81445C213.109 6.16992 212.253 6.4069 210.512 6.52539C210.521 6.60742 209.805 6.7168 208.365 6.85352C207.873 7.25456 207.194 7.45508 206.328 7.45508C206.337 7.49154 206.324 7.50977 206.287 7.50977L206.273 7.45508C206 7.56445 205.822 7.61914 205.74 7.61914L205.754 7.67383L206.137 7.72852C206.219 7.72852 206.292 7.71029 206.355 7.67383L206.465 7.72852C208.689 7.47331 210.161 7.2181 210.881 6.96289C210.89 6.99935 210.913 7.01758 210.949 7.01758L210.936 6.96289C210.972 6.96289 210.995 6.98112 211.004 7.01758C211.551 6.94466 211.874 6.88997 211.975 6.85352V6.9082C212.357 6.83529 213.296 6.72591 214.791 6.58008V6.63477L214.9 6.58008C215.146 6.68945 215.315 6.74414 215.406 6.74414C215.406 6.70768 215.424 6.68945 215.461 6.68945C215.543 6.80794 215.584 6.89909 215.584 6.96289C215.229 7.18164 215.001 7.29102 214.9 7.29102C214.9 7.25456 214.882 7.23633 214.846 7.23633C214.855 7.30924 214.317 7.43685 213.232 7.61914C212.567 7.83789 211.906 7.98372 211.25 8.05664C209.573 8.71289 208.219 9.04102 207.189 9.04102C206.05 9.4056 204.856 9.73372 203.607 10.0254C202.204 10.5358 201.406 10.791 201.215 10.791V10.8457H201.434C201.47 10.8457 201.488 10.8275 201.488 10.791C201.525 10.791 201.543 10.8092 201.543 10.8457C203.202 10.6999 204.642 10.4811 205.863 10.1895L205.973 10.2441H206.027C206.064 10.2441 206.082 10.2259 206.082 10.1895L206.191 10.2441L206.301 10.1895C206.319 10.1895 206.392 10.2077 206.52 10.2441C206.647 10.2441 206.788 10.1895 206.943 10.0801L206.957 10.1348C207.085 10.0527 207.276 9.97982 207.531 9.91602C208.124 9.95247 208.424 10.0436 208.434 10.1895L208.447 10.2988C208.311 10.554 208.083 10.6816 207.764 10.6816C207.417 10.6816 206.984 10.7546 206.465 10.9004V10.8457C206.073 11.0645 205.18 11.2467 203.785 11.3926C203.749 11.3926 203.443 11.4655 202.869 11.6113V11.5566C199.488 12.2858 196.945 13.015 195.24 13.7441C194.994 13.8171 194.639 13.9629 194.174 14.1816L194.064 14.127C194.074 14.2272 193.709 14.4095 192.971 14.6738L193.107 14.4551H193.053L192.41 14.6191C192.346 14.5827 192.273 14.5645 192.191 14.5645V14.5098C192.164 14.1999 192.52 13.89 193.258 13.5801C193.395 13.3887 193.723 13.2246 194.242 13.0879V12.9785H194.078C192.811 13.5254 191.977 13.7988 191.576 13.7988L188.609 14.9473L188.623 15.0566L188.896 15.1113C188.933 15.1113 188.951 15.0931 188.951 15.0566C189.143 15.1296 189.275 15.166 189.348 15.166C189.375 15.4668 189.243 15.6491 188.951 15.7129C188.359 16.0046 187.575 16.2233 186.6 16.3691C186.153 16.4876 185.82 16.6152 185.602 16.752C185.565 16.752 185.547 16.7337 185.547 16.6973L185 16.752H184.672C184.298 17.2624 183.883 17.5176 183.428 17.5176L183.414 17.4629L183.318 17.5176C183.282 17.5176 183.259 17.4993 183.25 17.4629L182.99 17.5176H182.771C182.781 17.627 182.516 17.7363 181.979 17.8457C181.979 17.8822 181.714 18.0098 181.186 18.2285L181.199 18.3379L181.473 18.2832V18.3379C181.6 18.265 182.589 18.1191 184.439 17.9004L184.562 18.0645C184.581 18.2012 184.089 18.4017 183.086 18.666C182.174 18.8848 181.195 19.1582 180.146 19.4863V19.4316C179.472 19.6048 179.144 19.8236 179.162 20.0879C179.18 20.2793 179.044 20.571 178.752 20.9629L178.766 21.1816C178.775 21.2181 178.798 21.2363 178.834 21.2363L178.068 22.4941C178.068 22.5488 178.036 22.6217 177.973 22.7129L177.986 22.8223C179.016 22.2754 181.113 21.4733 184.275 20.416L186.039 19.8691L186.217 20.0879C185.688 20.5892 185.264 20.9355 184.945 21.127V21.0723C184.298 21.2728 183.984 21.4551 184.002 21.6191H183.947V21.6738H184.057C184.439 21.6738 184.954 21.4915 185.602 21.127C186.085 21.0085 186.422 20.8991 186.613 20.7988C186.65 20.7988 186.668 20.8171 186.668 20.8535C186.996 20.8535 187.27 20.6348 187.488 20.1973C187.698 20.0514 187.857 19.9785 187.967 19.9785H188.076C188.222 20.0879 188.354 20.1426 188.473 20.1426H188.855C188.837 19.9694 188.983 19.7871 189.293 19.5957V19.6504C189.721 19.5046 190.241 19.377 190.852 19.2676V19.3223C191.353 19.2493 191.909 19.14 192.52 18.9941L192.533 19.0488L193.873 18.7754V18.8301C194.201 18.7936 194.365 18.7572 194.365 18.7207L194.475 18.7754C194.511 18.7754 194.529 18.7572 194.529 18.7207C194.602 18.7572 194.657 18.7754 194.693 18.7754L194.803 18.7207C195.058 18.7845 195.19 18.8574 195.199 18.9395V18.9941C194.47 19.3223 193.445 19.6868 192.123 20.0879C192.132 20.1335 192.009 20.1882 191.754 20.252C191.754 20.2155 191.736 20.1973 191.699 20.1973C191.672 20.2884 190.774 20.653 189.006 21.291C188.933 21.4004 188.81 21.4551 188.637 21.4551L188.65 21.5645C189.261 21.4642 189.562 21.3913 189.553 21.3457C189.589 21.3457 189.612 21.3639 189.621 21.4004C190.387 21.2546 190.797 21.1816 190.852 21.1816L190.865 21.2363C191.266 21.1634 191.731 21.054 192.26 20.9082H192.479C192.479 20.9447 192.501 20.9993 192.547 21.0723C192.255 21.2454 191.444 21.5736 190.113 22.0566C189.257 22.4212 188.769 22.7129 188.65 22.9316C188.505 23.1139 188.35 23.2051 188.186 23.2051H188.021C187.939 23.2051 187.867 23.1868 187.803 23.1504C187.712 23.1504 187.511 23.3509 187.201 23.752C186.773 23.9707 186.417 24.0801 186.135 24.0801L186.121 24.0254L186.025 24.0801H185.916L185.793 24.0254C185.483 24.2533 185.269 24.472 185.15 24.6816V24.7363L185.26 24.6816C185.26 24.7181 185.278 24.7363 185.314 24.7363C185.314 24.6999 185.333 24.6816 185.369 24.6816V24.7363C185.734 24.6634 186.294 24.6087 187.051 24.5723C187.306 24.5723 187.443 24.6634 187.461 24.8457C187.461 24.9733 187.133 25.1921 186.477 25.502V25.4473C184.964 25.9212 183.624 26.4681 182.457 27.0879C182.147 27.3431 181.901 27.4707 181.719 27.4707C181.482 27.3978 181.336 27.3613 181.281 27.3613C181.035 27.3613 180.785 27.653 180.529 28.2363C180.548 28.3822 180.447 28.4551 180.229 28.4551L179.723 28.3457C179.185 28.7285 178.465 29.0566 177.562 29.3301C177.125 29.5306 176.455 29.7676 175.553 30.041C175.288 30.3327 174.992 30.4785 174.664 30.4785L174.541 30.4238H174.377C174.131 30.4238 173.967 30.6061 173.885 30.9707C173.393 31.6452 172.973 32.4655 172.627 33.4316C172.281 34.1061 171.884 35.0358 171.438 36.2207L171.191 36.4395H170.973C170.973 36.403 170.95 36.3483 170.904 36.2754C171.014 35.8379 171.273 35.054 171.684 33.9238L171.943 33.1035L171.93 33.0488H171.875L170.809 35.2363C170.289 36.2572 169.893 37.3327 169.619 38.4629L169.578 38.5723C169.615 38.5723 169.633 38.5905 169.633 38.627C169.533 38.6725 169.396 38.9824 169.223 39.5566C169.086 39.5566 168.94 39.9577 168.785 40.7598C168.676 40.7598 168.607 41.2702 168.58 42.291L168.703 42.3457C169.214 42.1452 169.842 41.6165 170.59 40.7598C170.672 40.7598 171.433 40.1217 172.873 38.8457C173.83 38.0801 174.792 37.4056 175.758 36.8223C175.758 36.7585 175.808 36.7038 175.908 36.6582C175.99 36.6947 176.049 36.7129 176.086 36.7129C176.095 36.8223 176.081 36.877 176.045 36.877L176.113 37.1504L176.154 37.4785H176.264C176.583 37.1686 177.152 36.804 177.973 36.3848C178.401 36.248 178.87 35.9928 179.381 35.6191C179.992 35.4186 180.739 35.0176 181.623 34.416C181.705 34.416 182.32 34.1608 183.469 33.6504C183.788 33.5592 183.947 33.5046 183.947 33.4863C184.13 33.5319 184.225 33.5866 184.234 33.6504C184.125 33.8965 183.542 34.3158 182.484 34.9082C181.901 35.2637 181.495 35.6465 181.268 36.0566C181.541 36.0566 182.298 35.7285 183.537 35.0723C184.029 34.6895 185.087 34.0514 186.709 33.1582L187.68 32.4473V32.3926C187.643 32.3926 187.589 32.3743 187.516 32.3379C186.495 32.7754 185.802 32.9941 185.438 32.9941C185.365 32.9941 185.324 32.9577 185.314 32.8848L185.301 32.7754C185.337 32.6751 185.633 32.4746 186.189 32.1738C186.162 31.9277 186.786 31.5996 188.062 31.1895C189.147 30.7155 191.089 30.2051 193.887 29.6582L193.9 29.7129L193.996 29.6582C194.078 29.6673 194.119 29.7038 194.119 29.7676C194.137 29.9863 193.951 30.1322 193.559 30.2051C193.085 30.2598 191.521 31.1712 188.869 32.9395C188.213 33.3678 187.721 33.7507 187.393 34.0879H187.502C189.243 33.3223 191.326 32.3561 193.75 31.1895C196.147 30.278 197.46 29.8223 197.688 29.8223L197.742 29.9316L197.756 29.9863C197.729 30.1322 197.323 30.3145 196.539 30.5332C196.411 30.6973 195.997 30.9342 195.295 31.2441C195.213 31.3535 194.62 31.6999 193.518 32.2832C193.344 32.4655 193.085 32.6113 192.738 32.7207C192.738 32.7845 192.027 33.2038 190.605 33.9785C190.022 34.3796 189.211 34.89 188.172 35.5098C187.88 35.6647 187.383 36.0111 186.682 36.5488C186.627 36.5488 186.212 36.8223 185.438 37.3691C185.392 37.3691 185.205 37.5514 184.877 37.916C184.576 38.1621 184.426 38.3079 184.426 38.3535V38.4082C185.72 37.6335 187.675 36.5944 190.291 35.291C191.239 34.6257 192.848 33.86 195.117 32.9941H195.336C195.336 33.0306 195.359 33.0853 195.404 33.1582C195.277 33.3314 194.411 33.8418 192.807 34.6895C191.631 35.4004 190.61 36.0384 189.744 36.6035C188.942 37.0319 187.794 37.8522 186.299 39.0645C186.053 39.0645 185.738 39.2467 185.355 39.6113H185.41C185.775 39.429 186.24 39.3379 186.805 39.3379L186.873 39.4473V39.502C186.891 39.6113 186.563 39.8118 185.889 40.1035C185.251 40.6504 184.594 41.0697 183.92 41.3613C183.92 41.3249 183.902 41.3066 183.865 41.3066C182.298 42.3639 181.245 43.0202 180.707 43.2754C179.604 43.9316 178.456 44.7702 177.262 45.791C176.587 46.4108 176.186 46.8301 176.059 47.0488C175.576 47.3223 174.655 48.252 173.297 49.8379C172.859 50.3848 172.59 50.6582 172.49 50.6582V50.7129C172.417 50.6764 172.363 50.6582 172.326 50.6582V50.6035C172.308 50.4486 172.609 49.9746 173.229 49.1816C173.229 49.127 173.634 48.5254 174.445 47.377H174.391C174.172 47.377 173.529 47.9603 172.463 49.127C171.643 49.8288 171.128 50.3939 170.918 50.8223C170.645 51.1595 170.134 51.5788 169.387 52.0801C168.849 52.1986 168.585 52.3262 168.594 52.4629C168.512 52.5358 168.352 52.791 168.115 53.2285C167.869 53.3743 167.609 53.7207 167.336 54.2676L167.076 54.4863H166.857C166.821 54.4863 166.762 54.4134 166.68 54.2676C166.762 53.9121 166.894 53.5658 167.076 53.2285C167.049 52.873 167.34 52.4173 167.951 51.8613C168.024 51.8613 168.051 51.7702 168.033 51.5879H167.979C167.505 51.5879 167.035 51.8431 166.57 52.3535H166.461C166.406 52.3535 166.347 52.2988 166.283 52.1895L166.27 52.1348L166.994 50.9316H166.939C166.721 51.1686 165.823 51.9525 164.246 53.2832C163.171 54.3952 162.637 54.9967 162.646 55.0879C162.501 55.0879 162.132 55.4525 161.539 56.1816C160.81 57.002 160.368 57.5671 160.213 57.877C160.067 58.0957 159.912 58.2051 159.748 58.2051C159.666 58.1139 159.625 58.0592 159.625 58.041L159.611 57.9316C159.575 57.4668 160.122 56.4277 161.252 54.8145C161.389 54.5592 161.995 53.7754 163.07 52.4629C163.061 52.3626 163.225 52.1439 163.562 51.8066C164.128 50.9134 165.176 49.765 166.707 48.3613L167.814 47.2676V47.2129C166.83 47.8418 165.572 48.9173 164.041 50.4395C163.986 50.4395 163.854 50.5671 163.645 50.8223C162.888 51.4147 161.867 52.472 160.582 53.9941C160.527 53.9941 160.468 53.9395 160.404 53.8301V53.7754C160.377 53.502 161.211 52.1895 162.906 49.8379C163.207 49.5553 163.517 49.1725 163.836 48.6895H163.891V48.5801C163.444 48.9811 163.148 49.1816 163.002 49.1816C163.011 49.2454 162.674 49.5189 161.99 50.002L160.732 51.2598H160.623C160.568 51.2598 160.509 51.2051 160.445 51.0957L160.432 51.041C160.623 50.5853 161.029 50.0202 161.648 49.3457C161.74 49.3457 161.995 49.0905 162.414 48.5801C162.514 48.5801 162.742 48.2884 163.098 47.7051L163.029 47.5957C163.066 47.5957 163.084 47.5775 163.084 47.541C162.975 47.541 162.911 47.4499 162.893 47.2676V47.2129C162.883 47.1217 163.043 46.4655 163.371 45.2441C163.335 44.8431 163.449 44.4603 163.713 44.0957L163.645 43.9863C163.353 44.0137 163.212 44.0501 163.221 44.0957C162.92 44.041 162.765 43.9681 162.756 43.877L162.742 43.6035L163.207 42.7832C163.171 42.7103 163.148 42.6556 163.139 42.6191C162.874 42.6191 162.537 43.0931 162.127 44.041C162.054 44.041 161.89 44.2962 161.635 44.8066L161.703 44.916C161.594 44.916 161.439 45.2441 161.238 45.9004L161.143 45.9551L160.91 45.8457C161.147 44.4147 161.434 43.3392 161.771 42.6191C162.2 41.6074 162.41 41.0605 162.4 40.9785H162.182C161.972 41.1152 161.699 41.5527 161.361 42.291C161.225 42.4733 161.088 42.5645 160.951 42.5645H160.896C160.842 42.5645 160.783 42.5098 160.719 42.4004L160.705 42.291C160.979 40.9694 161.261 40.0033 161.553 39.3926C161.726 38.6543 162.068 37.7793 162.578 36.7676C162.724 36.1296 163.13 35.3639 163.795 34.4707C163.886 34.2793 163.986 33.9694 164.096 33.541C164.278 33.3861 164.451 33.0397 164.615 32.502L164.492 32.4473L164.506 32.502L164.383 32.4473H164.273C162.587 32.9577 161.635 33.304 161.416 33.4863C161.416 33.4499 161.398 33.4316 161.361 33.4316C161.161 33.6595 160.614 33.8783 159.721 34.0879C159.52 34.3158 159.26 34.4616 158.941 34.5254C158.686 34.5254 158.549 34.416 158.531 34.1973C158.504 33.9056 158.955 33.6504 159.885 33.4316C160.286 32.9668 160.71 32.6387 161.156 32.4473C161.585 32.2012 162.004 32.0007 162.414 31.8457C162.578 31.6087 162.66 31.4629 162.66 31.4082L162.537 31.3535C162.008 31.3535 161.147 31.5176 159.953 31.8457H159.844C159.789 31.8457 159.73 31.791 159.666 31.6816V31.5723C159.848 31.2988 160.24 31.0254 160.842 30.752C161.024 30.5332 161.252 30.4238 161.525 30.4238L161.539 30.4785H161.648L161.635 30.4238L161.58 30.3145C162.337 30.0228 163.016 29.6582 163.617 29.2207C163.736 29.2207 163.859 29.166 163.986 29.0566V29.1113C164.324 28.9382 164.524 28.7559 164.588 28.5645V28.4551C164.433 28.4551 164.328 28.3275 164.273 28.0723C164.264 27.9447 164.506 27.7624 164.998 27.5254C165.253 27.1699 166.119 26.6777 167.596 26.0488C167.596 25.985 167.783 25.8027 168.156 25.502C168.311 25.2559 168.744 24.3809 169.455 22.877C169.765 22.2389 169.911 21.8379 169.893 21.6738C170.248 21.0814 170.412 20.6621 170.385 20.416L170.275 20.3613C170.275 20.3978 170.257 20.416 170.221 20.416V20.3613C169.938 20.5345 169.646 20.7533 169.346 21.0176C169.291 21.054 169.223 21.0723 169.141 21.0723C168.721 20.9264 168.457 20.8535 168.348 20.8535H168.129C167.874 20.8626 167.751 20.8991 167.76 20.9629L167.541 20.9082C167.012 20.9082 166.438 21.054 165.818 21.3457H165.6C165.499 21.3457 165.404 21.2546 165.312 21.0723C165.294 20.9264 165.477 20.7441 165.859 20.5254C165.859 20.5618 165.878 20.5801 165.914 20.5801C166.06 20.4434 166.502 20.2611 167.24 20.0332C167.577 19.8053 168.156 19.5319 168.977 19.2129L169.018 19.1035C169.008 19.0124 168.817 18.9212 168.443 18.8301C168.38 18.8301 168.102 18.9759 167.609 19.2676V19.2129L167.5 19.2676H167.391C167.163 19.2676 166.985 19.1035 166.857 18.7754C166.064 19.2129 165.317 19.4316 164.615 19.4316H164.396L164.123 19.4863V19.4316C163.986 19.5046 163.882 19.541 163.809 19.541L163.795 19.4863C162.893 19.778 162.414 19.9238 162.359 19.9238V19.8691L161.717 20.0879C161.489 20.0059 161.375 19.9329 161.375 19.8691L161.348 19.541C161.576 19.3587 161.89 19.1947 162.291 19.0488C162.428 19.0488 163.344 18.7025 165.039 18.0098C165.486 17.791 166.229 17.5358 167.268 17.2441C167.979 16.916 168.936 16.5879 170.139 16.2598C170.202 16.2233 170.253 16.2051 170.289 16.2051V16.0957C170.28 16.0501 170.052 15.959 169.605 15.8223C169.56 15.7493 169.537 15.6947 169.537 15.6582C169.501 15.248 170.253 14.6829 171.793 13.9629C171.966 13.7806 172.317 13.6348 172.846 13.5254L173.215 13.3066C173.215 13.3431 173.233 13.3613 173.27 13.3613C173.342 13.2611 174.208 12.9329 175.867 12.377C177.535 11.9395 181.906 10.627 188.979 8.43945C189.471 8.2207 189.808 8.11133 189.99 8.11133L189.977 8.05664C189.758 8.05664 189.648 8.03841 189.648 8.00195C189.202 8.07487 188.773 8.16602 188.363 8.27539L188.35 8.2207L185.137 8.93164V8.87695C184.964 8.94987 184.357 9.11393 183.318 9.36914H183.264L183.236 9.15039C184.43 8.63997 185.492 8.25716 186.422 8.00195C186.841 7.85612 187.393 7.72852 188.076 7.61914C188.076 7.56445 188.714 7.3457 189.99 6.96289L190.004 7.01758C194.251 5.81445 196.876 5.21289 197.879 5.21289C198.581 5.06706 199.014 4.99414 199.178 4.99414L199.232 5.10352L199.246 5.1582C199.137 5.31315 198.531 5.45898 197.428 5.5957C196.79 5.82357 196.471 5.9694 196.471 6.0332C196.799 5.99674 196.999 5.96029 197.072 5.92383C197.072 5.96029 197.09 5.97852 197.127 5.97852V5.92383C197.163 5.92383 197.182 5.94206 197.182 5.97852L197.455 5.92383H197.674C198.029 6.0332 198.307 6.08789 198.508 6.08789H198.672C199.638 5.79622 200.317 5.65039 200.709 5.65039H200.764C200.8 5.65039 200.818 5.66862 200.818 5.70508L201.092 5.65039H201.693L201.803 5.5957V5.65039C202.131 5.54102 202.509 5.48633 202.938 5.48633H203.539C203.576 5.48633 203.589 5.4681 203.58 5.43164L203.703 5.48633H203.867C203.831 5.12174 203.922 4.93945 204.141 4.93945C204.487 5.04883 204.801 5.10352 205.084 5.10352H205.357C205.394 5.10352 205.417 5.12174 205.426 5.1582C205.526 5.12174 205.795 5.06706 206.232 4.99414C206.424 5.0306 206.606 5.04883 206.779 5.04883L207.805 4.88477ZM163.439 20.9629H163.494V21.0176C163.376 21.054 163.307 21.0723 163.289 21.0723V21.127H163.453C163.453 21.0905 163.471 21.0723 163.508 21.0723C163.508 21.1087 163.526 21.127 163.562 21.127C163.562 21.0905 163.581 21.0723 163.617 21.0723C163.617 21.1087 163.635 21.127 163.672 21.127L163.658 21.0176C163.959 21.1087 164.114 21.2181 164.123 21.3457C164.169 21.8014 163.886 22.0931 163.275 22.2207H163.111C163.066 22.2207 162.902 22.0384 162.619 21.6738C162.555 21.6738 162.514 21.5827 162.496 21.4004L162.482 21.3457C162.528 21.2546 162.847 21.127 163.439 20.9629ZM214.805 4.00977H215.078L215.201 4.06445C215.247 4.66602 214.992 5.30404 214.436 5.97852C214.08 7.12695 213.606 8.36654 213.014 9.69727C213.05 9.69727 213.068 9.71549 213.068 9.75195C212.995 9.75195 212.964 9.80664 212.973 9.91602L212.986 10.0801C212.813 10.5176 212.576 10.7363 212.275 10.7363C212.285 10.7728 212.271 10.791 212.234 10.791L212.316 11.0645C212.316 11.1647 212.221 11.347 212.029 11.6113L212.057 11.9395L211.975 12.8145H212.029L213.465 10.5723C213.984 9.61523 214.395 9.05013 214.695 8.87695C214.768 8.91341 214.823 8.93164 214.859 8.93164C214.814 9.15951 214.595 9.56055 214.203 10.1348C214.203 10.2259 214.094 10.4629 213.875 10.8457C213.884 10.9186 213.793 11.1374 213.602 11.502C213.1 12.8691 212.727 13.9811 212.48 14.8379C212.663 14.9199 212.758 15.0111 212.768 15.1113H212.822C213.934 13.6986 214.545 12.9694 214.654 12.9238H214.709L214.887 13.0332C214.896 13.1061 214.559 13.8171 213.875 15.166C213.757 15.5397 213.305 16.6335 212.521 18.4473C211.719 20.1608 211.136 21.0176 210.771 21.0176C210.562 21.0905 210.462 21.1816 210.471 21.291C210.571 21.6191 210.621 21.8014 210.621 21.8379C210.639 22.0475 210.471 22.6126 210.115 23.5332C210.161 24.0527 209.869 24.4355 209.24 24.6816C208.939 24.9186 208.707 25.1738 208.543 25.4473C208.552 25.5931 208.374 25.903 208.01 26.377L206.588 28.8379C206.169 29.5944 205.458 31.0527 204.455 33.2129C204.391 33.4681 204.314 33.5957 204.223 33.5957L204.277 33.7051C204.286 33.8145 204.214 34.015 204.059 34.3066C204.095 34.3066 204.118 34.3249 204.127 34.3613C203.981 34.3796 203.913 34.4342 203.922 34.5254C203.958 34.5254 203.977 34.5436 203.977 34.5801H203.867V34.6348L203.936 34.7441C203.762 34.7441 203.676 34.9993 203.676 35.5098C203.603 35.5189 203.571 35.5553 203.58 35.6191L203.635 35.7285C203.562 35.7376 203.53 35.7741 203.539 35.8379H203.594C202.992 37.4238 202.491 39.1921 202.09 41.1426L201.816 41.7988C201.725 41.7988 201.607 42.1087 201.461 42.7285H201.57C201.57 42.6738 201.798 42.3457 202.254 41.7441C202.245 41.6712 202.641 41.2155 203.443 40.377C205.731 37.7884 207.057 36.4577 207.422 36.3848C207.604 36.166 208.051 35.8743 208.762 35.5098H208.926C208.98 35.5098 209.04 35.5645 209.104 35.6738C209.113 35.7923 208.73 36.1934 207.955 36.877C207.381 37.4603 207.107 37.8796 207.135 38.1348C207.262 37.9889 207.755 37.6061 208.611 36.9863C210.279 35.4824 211.697 34.3887 212.863 33.7051C213.191 33.5228 213.387 33.4316 213.451 33.4316L213.438 33.377H213.273C212.645 33.6413 212.18 33.9147 211.879 34.1973V34.252H211.551L210.252 35.0176H210.197L210.17 34.7988C210.662 34.3704 210.949 34.097 211.031 33.9785C211.031 34.015 211.049 34.0332 211.086 34.0332C211.897 33.4316 213.087 32.8118 214.654 32.1738C215.074 31.8275 215.63 31.5358 216.322 31.2988V31.3535C216.814 31.1712 217.553 30.8249 218.537 30.3145C218.792 30.3509 218.924 30.4238 218.934 30.5332C218.943 30.6243 218.66 30.916 218.086 31.4082L218.031 31.5176H218.086C218.341 31.5176 218.464 31.4447 218.455 31.2988C218.492 31.2988 218.51 31.3171 218.51 31.3535C219.494 31.0618 220.497 30.6243 221.518 30.041C221.773 29.9681 222.707 29.5853 224.32 28.8926C224.612 28.9473 224.762 29.0384 224.771 29.166C224.79 29.3118 224.361 29.6035 223.486 30.041C223.495 30.1139 223.167 30.3145 222.502 30.6426C221.253 31.5267 219.964 32.6204 218.633 33.9238C217.594 35.0358 217.079 35.6191 217.088 35.6738H217.143C218.355 34.8262 219.658 34.0788 221.053 33.4316C221.044 33.3952 221.094 33.377 221.203 33.377C221.322 33.4134 221.381 33.4499 221.381 33.4863C221.354 33.5592 221.34 33.6139 221.34 33.6504C221.376 33.6504 221.395 33.6686 221.395 33.7051C220.848 34.0332 220.488 34.2702 220.314 34.416C218.783 35.7376 217.936 36.485 217.771 36.6582C217.644 36.8405 217.361 37.1322 216.924 37.5332C216.441 37.9342 216.09 38.2988 215.871 38.627C215.078 39.2559 214.221 40.0944 213.301 41.1426H213.355C214.759 40.1947 215.853 39.5566 216.637 39.2285L216.76 39.3926C216.368 39.7389 215.785 40.1764 215.01 40.7051C214.837 41.0059 214.549 41.2793 214.148 41.5254C214.158 41.5892 213.738 41.972 212.891 42.6738C212.891 42.7103 212.535 43.0202 211.824 43.6035C211.596 43.8861 211.227 44.2689 210.717 44.752L207.887 48.0332L206.301 49.9473C206.246 49.9837 206.178 50.002 206.096 50.002H206.041L206.027 49.8926C206.009 49.6374 206.661 48.5254 207.982 46.5566L207.859 46.502C206.975 47.2585 206.337 47.8783 205.945 48.3613C205.654 48.571 205.084 49.1361 204.236 50.0566C204.236 50.0931 203.872 50.5124 203.143 51.3145C202.814 51.8704 202.409 52.4173 201.926 52.9551C201.871 52.9824 201.693 53.2741 201.393 53.8301C200.827 54.459 200.554 54.8418 200.572 54.9785L199.697 56.3457C199.624 56.3548 199.592 56.3913 199.602 56.4551C199.41 56.3822 199.314 56.3275 199.314 56.291C199.232 55.4069 199.661 54.2585 200.6 52.8457L200.627 52.5723C199.579 53.6296 198.895 54.1582 198.576 54.1582C198.421 54.5046 198.075 54.9056 197.537 55.3613L197.209 55.3066L197.195 55.1973C197.186 55.0514 197.296 54.6322 197.523 53.9395V53.8848H197.469C197.113 53.8848 196.712 54.14 196.266 54.6504C196.129 54.6777 196.061 54.7142 196.061 54.7598C195.878 54.7598 195.723 54.6686 195.596 54.4863L196.02 53.0098C195.947 52.9733 195.892 52.9551 195.855 52.9551C195.664 52.9551 195.163 53.2832 194.352 53.9395C193.732 54.0306 193.144 54.4134 192.588 55.0879C191.913 55.6712 191.344 56.2546 190.879 56.8379C190.742 56.9837 190.605 57.0566 190.469 57.0566C190.396 57.0566 190.355 57.0202 190.346 56.9473C190.546 56.127 191.052 55.2155 191.863 54.2129C192.337 54.0033 192.674 53.6934 192.875 53.2832L192.848 53.0098C192.848 52.9733 192.829 52.9551 192.793 52.9551L192.834 52.8457L192.355 52.4629V52.4082C192.328 52.071 192.647 51.7428 193.312 51.4238C193.504 51.2051 193.622 51.0957 193.668 51.0957L193.654 51.041L193.381 50.9863L192.998 51.041C192.925 51.0046 192.87 50.9863 192.834 50.9863C192.834 51.0228 192.816 51.041 192.779 51.041C192.624 50.877 192.538 50.7129 192.52 50.5488C192.51 50.4577 192.67 50.2025 192.998 49.7832C192.989 49.6465 192.67 49.5371 192.041 49.4551L192.055 49.5098C191.49 49.3639 191.189 49.0905 191.152 48.6895L191.07 48.3066C191.079 48.0605 191.079 47.86 191.07 47.7051H191.016L191.057 47.5957C191.057 47.5592 191.038 47.541 191.002 47.541C191.011 47.2676 191.029 47.0853 191.057 46.9941C191.02 46.9212 190.997 46.8665 190.988 46.8301C191.052 46.4928 191.321 46.2194 191.795 46.0098C192.05 45.9551 192.173 45.8822 192.164 45.791L192.055 45.1348C192.109 45.0163 192.132 44.9069 192.123 44.8066C192.096 44.8066 191.959 44.6608 191.713 44.3691C191.676 43.9772 191.772 43.6491 192 43.3848H191.945C192.036 43.1387 192.214 42.847 192.479 42.5098C192.725 41.6712 193.167 40.5046 193.805 39.0098C193.777 38.6725 194.028 38.1803 194.557 37.5332C194.639 37.2233 194.675 37.0228 194.666 36.9316H194.611C194.611 36.8952 194.63 36.877 194.666 36.877L194.584 36.6035C194.639 36.0202 194.921 35.7285 195.432 35.7285L195.377 35.0176C195.359 34.8353 195.377 34.6165 195.432 34.3613C195.34 34.2428 195.29 34.1335 195.281 34.0332V33.9785C195.5 33.6868 195.796 33.541 196.17 33.541L196.129 32.9941C196.293 32.7936 196.375 32.6842 196.375 32.666C196.721 32.8118 196.926 32.8848 196.99 32.8848C197.027 32.2012 197.665 30.3418 198.904 27.3066C199.378 26.1764 199.902 25.2832 200.477 24.627C200.695 24.2715 200.878 24.0527 201.023 23.9707L201.064 23.752H201.01C200.663 23.752 200.358 24.0436 200.094 24.627C199.802 25.2467 199.328 26.0671 198.672 27.0879C198.681 27.1882 198.266 27.8809 197.428 29.166C196.972 30.196 196.644 30.8158 196.443 31.0254H196.334L196.252 30.752C196.298 30.752 196.489 30.2051 196.826 29.1113L197.852 26.4863C197.979 26.3314 198.161 25.8939 198.398 25.1738C198.626 24.8822 198.936 24.2624 199.328 23.3145C199.602 23.0866 199.829 22.5762 200.012 21.7832C200.841 20.8079 201.493 19.696 201.967 18.4473C202.058 18.2832 202.104 18.1738 202.104 18.1191H202.377L202.555 18.2832C202.546 18.5749 202.473 18.8118 202.336 18.9941C202.445 19.3496 202.5 19.5501 202.5 19.5957C202.509 19.7142 202.436 19.8965 202.281 20.1426C202.318 20.1426 202.336 20.1608 202.336 20.1973H202.281C202.345 20.3431 202.404 20.416 202.459 20.416C202.696 20.0241 202.928 19.5319 203.156 18.9395C203.329 18.9395 203.443 18.8118 203.498 18.5566H203.389L203.443 18.4473C203.434 18.3379 203.375 18.2832 203.266 18.2832L203.238 18.0645C203.348 18.0007 203.43 17.6725 203.484 17.0801C203.749 16.6882 203.949 16.0684 204.086 15.2207C204.25 15.1387 204.569 14.5918 205.043 13.5801C205.417 13.4525 205.722 13.2337 205.959 12.9238C205.977 12.778 206.169 12.6322 206.533 12.4863C206.816 12.0488 207.107 11.4655 207.408 10.7363C207.663 10.4082 207.868 10.2441 208.023 10.2441H208.188C208.197 10.3171 208.256 10.3535 208.365 10.3535L208.379 10.5176C208.406 10.791 208.279 11.429 207.996 12.4316L208.01 12.541C208.502 12.541 208.753 12.0488 208.762 11.0645C208.926 10.6816 209.377 9.82487 210.115 8.49414C210.161 8.49414 210.352 8.16602 210.689 7.50977C210.89 6.9082 211.227 6.39779 211.701 5.97852C211.883 6.01497 211.984 6.10612 212.002 6.25195C211.583 7.37305 211.382 7.99284 211.4 8.11133C211.373 8.24805 211.364 8.39388 211.373 8.54883L211.4 8.76758H211.455C211.947 7.91081 212.453 7.2181 212.973 6.68945C213.046 6.45247 213.515 5.79622 214.381 4.7207C214.527 4.34701 214.668 4.11003 214.805 4.00977ZM190.701 51.6426C190.738 51.6426 190.76 51.6608 190.77 51.6973L190.865 51.6426C191.02 51.6426 191.157 51.7337 191.275 51.916C190.738 52.6452 190.277 53.0098 189.895 53.0098C189.703 52.9642 189.607 52.9095 189.607 52.8457L189.594 52.6816C189.94 51.9889 190.309 51.6426 190.701 51.6426ZM254.262 3.69531H254.59C254.645 3.69531 254.727 3.78646 254.836 3.96875C254.854 4.16016 254.713 4.61589 254.412 5.33594C254.321 5.59115 254.257 5.90104 254.221 6.26562L254.289 6.375C254.253 6.4388 254.239 6.51172 254.248 6.59375C254.512 7.03125 254.658 7.25 254.686 7.25C255.26 6.38411 255.57 5.94661 255.615 5.9375C255.606 5.84635 255.816 5.77344 256.244 5.71875C256.39 5.75521 256.508 5.82812 256.6 5.9375C256.636 6.41146 256.385 7.08594 255.848 7.96094C255.766 8.27083 255.729 8.48958 255.738 8.61719L255.424 9.49219C255.433 9.52865 255.456 9.54688 255.492 9.54688C255.501 9.62891 255.406 9.99349 255.205 10.6406C255.324 10.75 255.551 10.8776 255.889 11.0234C255.898 11.0599 255.921 11.0781 255.957 11.0781C255.93 11.2604 255.802 11.4792 255.574 11.7344V11.7891H256.012C256.03 11.7891 256.08 11.7526 256.162 11.6797H256.271C256.326 11.6797 256.385 11.7344 256.449 11.8438C256.385 12.2083 256.112 12.8099 255.629 13.6484C255.438 13.6484 255.15 14.1042 254.768 15.0156C254.394 15.6628 253.961 16.556 253.469 17.6953C253.378 17.7682 253.241 18.2969 253.059 19.2812C252.184 20.4844 251.509 21.724 251.035 23L250.611 23.8203C250.62 23.9023 250.511 24.1029 250.283 24.4219L249.873 25.4062H249.928C249.636 26.1172 249.344 26.7188 249.053 27.2109C248.852 27.4844 248.757 27.6667 248.766 27.7578C248.665 27.7578 248.483 28.1589 248.219 28.9609C248.109 29.4987 248.005 29.7721 247.904 29.7812C247.913 29.8177 247.936 29.8359 247.973 29.8359C247.982 29.9453 247.932 30 247.822 30V30.0547L247.891 30.1641L247.59 30.5469H247.426L247.412 30.3828C247.394 30.1094 247.822 28.9427 248.697 26.8828C248.661 26.8828 248.638 26.8646 248.629 26.8281C248.693 26.8281 248.848 26.2812 249.094 25.1875C249.13 25.1875 249.148 25.1693 249.148 25.1328L249.135 25.0781H249.08C248.752 25.5521 248.492 26.099 248.301 26.7188C248.191 26.7826 247.859 27.5664 247.303 29.0703L246.469 31.4766C246.396 31.4857 246.364 31.5221 246.373 31.5859H246.428C245.89 32.8711 245.416 33.9284 245.006 34.7578C245.015 34.8216 244.956 34.9857 244.828 35.25H244.883C245.12 34.9948 245.617 34.2109 246.373 32.8984C246.656 32.5339 246.824 32.3516 246.879 32.3516H247.043L247.057 32.5703C246.902 32.7891 246.669 33.2266 246.359 33.8828H246.414C245.794 35.2773 245.457 36.0065 245.402 36.0703C245.393 36.0339 245.37 36.0156 245.334 36.0156C244.742 37.319 244.418 37.9935 244.363 38.0391C244.245 38.1667 243.557 39.6615 242.299 42.5234C242.144 43.043 241.993 43.4076 241.848 43.6172C241.419 45.0482 241.16 45.8503 241.068 46.0234L240.18 49.5781C240.107 49.5781 240.07 49.5964 240.07 49.6328C239.888 49.6328 239.779 49.4323 239.742 49.0312H239.797C239.76 48.9583 239.738 48.9036 239.729 48.8672C239.71 48.5755 239.774 48.0286 239.92 47.2266H239.811C239.027 49.1042 238.521 50.8177 238.293 52.3672C238.074 52.7318 237.942 52.9141 237.896 52.9141C237.714 52.9141 237.623 52.8776 237.623 52.8047C237.596 52.5677 237.632 51.7656 237.732 50.3984V50.3438H237.678C237.532 50.9635 237.359 51.2734 237.158 51.2734C237.176 51.4557 237.062 51.6198 236.816 51.7656C236.643 51.9115 236.452 52.6224 236.242 53.8984C235.85 55.1198 235.399 56.013 234.889 56.5781H234.779C234.561 56.5781 234.41 56.1042 234.328 55.1562L234.314 55.1016C234.196 53.7435 234.292 52.7591 234.602 52.1484H234.547C234.465 52.1484 234.169 52.513 233.658 53.2422H233.549C233.476 53.2057 233.421 53.1875 233.385 53.1875L233.357 52.8047C233.312 52.3034 233.444 51.5378 233.754 50.5078H233.699C233.809 50.1159 233.882 49.4961 233.918 48.6484C234.109 48.3021 234.191 48.0104 234.164 47.7734C234.164 47.7005 234.128 47.6641 234.055 47.6641L233.672 47.7188L233.604 47.6094V47.5547C234.041 45.4857 234.342 44.1549 234.506 43.5625C234.715 43.0065 234.998 42.0586 235.354 40.7188L235.723 39.8438C235.823 39.862 235.9 39.9531 235.955 40.1172C235.691 40.7734 235.568 41.2292 235.586 41.4844L235.6 41.5391H235.654C235.636 41.3294 236.042 40.1628 236.871 38.0391C237.09 37.1823 237.231 36.7083 237.295 36.6172H237.24C237.386 36.207 237.459 35.9883 237.459 35.9609L236.734 37.0547L235.955 38.8047L235.846 38.8594H235.736C235.663 38.8594 235.627 38.8229 235.627 38.75C236.092 36.9818 236.589 35.6146 237.117 34.6484C237.363 33.8828 237.714 33.099 238.17 32.2969C238.316 32.0872 238.562 31.5586 238.908 30.7109C239.255 30.2005 239.578 29.526 239.879 28.6875L240.822 26.9375H240.986C241.059 26.9466 241.1 26.9831 241.109 27.0469C240.553 28.1953 240.285 28.888 240.303 29.125V29.1797H240.357C240.722 28.2682 241.191 27.375 241.766 26.5C241.738 26.2083 242.035 25.6068 242.654 24.6953L242.887 23.7109L242.873 23.4375C242.773 23.4375 242.24 23.8203 241.273 24.5859C241.273 24.6224 240.758 24.9688 239.729 25.625C239.729 25.6068 239.646 25.5156 239.482 25.3516C239.564 25.0417 239.605 24.8776 239.605 24.8594H239.551C238.184 25.8802 237.245 26.6276 236.734 27.1016C236.315 27.5026 236.005 27.7031 235.805 27.7031C235.622 27.6758 235.527 27.6211 235.518 27.5391C235.508 27.3932 235.636 27.1745 235.9 26.8828H235.955L235.928 26.6094C235.818 26.6094 235.755 26.5182 235.736 26.3359C235.727 26.181 235.805 25.9987 235.969 25.7891C235.896 25.7891 235.855 25.7708 235.846 25.7344C235.417 25.8529 234.766 26.2904 233.891 27.0469C233.435 27.3385 233.193 27.4844 233.166 27.4844C232.947 27.4844 232.829 27.3932 232.811 27.2109C232.801 27.0742 232.943 26.8008 233.234 26.3906C233.535 25.7344 233.977 25.1875 234.561 24.75C234.715 24.3854 234.775 24.0391 234.738 23.7109L234.629 23.6562C234.328 23.6562 233.936 23.7474 233.453 23.9297H233.398L233.111 23.875L233.098 23.7109C233.48 23.1823 233.913 22.7083 234.396 22.2891C234.661 21.9792 234.793 21.7969 234.793 21.7422C234.547 21.651 234.41 21.5599 234.383 21.4688L234.369 21.3047C234.652 20.7396 235.18 20.3203 235.955 20.0469L235.846 19.3906L237.322 18.1875C237.486 18.1875 238.165 17.6224 239.359 16.4922C239.624 15.8997 240.262 15.2617 241.273 14.5781C241.884 14.0404 242.285 13.6393 242.477 13.375H242.422C242.34 13.375 242.039 13.6484 241.52 14.1953C241.155 14.3867 240.435 14.9154 239.359 15.7812C239.141 15.8542 239.036 15.9089 239.045 15.9453C238.89 15.8906 238.812 15.8359 238.812 15.7812C239.077 15.362 239.364 15.1068 239.674 15.0156C239.984 14.7695 240.385 14.3685 240.877 13.8125C241.497 13.4115 241.98 12.8646 242.326 12.1719C242.372 12.1719 242.741 11.8255 243.434 11.1328C243.543 11.1328 243.917 10.8229 244.555 10.2031C245.348 9.23698 245.972 8.65365 246.428 8.45312C247.139 7.67839 247.708 7.11328 248.137 6.75781H248.191C248.264 6.76693 248.305 6.80339 248.314 6.86719C248.324 6.99479 248.068 7.41406 247.549 8.125C247.13 8.66276 246.915 8.95443 246.906 9H246.961C246.979 8.94531 247.654 8.30729 248.984 7.08594C250.233 5.70052 250.921 5.00781 251.049 5.00781H251.268L251.541 5.0625L251.555 5.22656C251.6 5.44531 251.664 5.55469 251.746 5.55469H251.801C253.168 4.3151 253.988 3.69531 254.262 3.69531Z" fill="white"/>
</g>
<defs>
<filter id="filter0_d_887_2" x="54.2852" y="-13.084" width="222.369" height="95.2891" filterUnits="userSpaceOnUse" color-interpolation-filters="sRGB">
<feFlood flood-opacity="0" result="BackgroundImageFix"/>
<feColorMatrix in="SourceAlpha" type="matrix" values="0 0 0 0 0 0 0 0 0 0 0 0 0 0 0 0 0 0 127 0" result="hardAlpha"/>
<feOffset dy="4"/>
<feGaussianBlur stdDeviation="10"/>
<feComposite in2="hardAlpha" operator="out"/>
<feColorMatrix type="matrix" values="0 0 0 0 0.921569 0 0 0 0 0.219608 0 0 0 0 0.811765 0 0 0 0.5 0"/>
<feBlend mode="normal" in2="BackgroundImageFix" result="effect1_dropShadow_887_2"/>
<feBlend mode="normal" in="SourceGraphic" in2="effect1_dropShadow_887_2" result="shape"/>
</filter>
<linearGradient id="paint0_linear_887_2" x1="577" y1="-64" x2="577" y2="2150" gradientUnits="userSpaceOnUse">
<stop stop-color="#EB38CF"/>
<stop offset="1" stop-color="#66FFC8"/>
</linearGradient>
</defs>
</svg>
