<svg width="41" height="36" viewBox="0 0 41 36" fill="none" xmlns="http://www.w3.org/2000/svg">
<path d="M40.4545 4.48C40.5967 4.55111 39.7434 5.54667 37.8945 7.46667C37.7523 7.60889 37.5389 7.78667 37.2545 8C37.0411 8.21333 36.8278 8.42667 36.6145 8.64C34.1256 10.7022 31.9567 12.48 30.1078 13.9733C28.33 15.4667 26.7656 16.7822 25.4145 17.92C24.4189 18.7733 23.6011 19.4844 22.9611 20.0533C22.3211 20.6222 21.7523 21.12 21.2545 21.5467C20.8278 21.9022 20.4011 22.2933 19.9745 22.72C19.6189 23.0756 19.1211 23.5378 18.4811 24.1067C17.4856 25.0311 16.4189 25.9911 15.2811 26.9867C14.2145 27.9822 13.1834 28.9067 12.1878 29.76C11.2634 30.5422 10.4811 31.1822 9.84115 31.68C9.20115 32.1778 8.84559 32.4267 8.77448 32.4267C8.77448 32.1422 8.41892 32.64 7.70781 33.92L6.74781 34.7733L6.10781 35.0933L5.68115 34.7733C5.32559 34.56 5.11226 34.3822 5.04115 34.24C5.04115 34.0978 5.11226 33.8133 5.25448 33.3867L5.68115 32.64L5.04115 32.96C4.47226 33.3867 4.15226 33.4933 4.08115 33.28C4.08115 33.1378 3.97448 33.1022 3.76115 33.1733C3.61892 33.1733 3.58337 33.1022 3.65448 32.96L4.18781 32.4267C4.33003 32.4267 4.40115 32.2844 4.40115 32C4.47226 31.7867 4.40115 31.7867 4.18781 32C4.04559 32.1422 3.93892 32.2133 3.86781 32.2133C3.7967 32.2133 3.7967 32.1422 3.86781 32C3.93892 31.8578 3.76115 31.7867 3.33448 31.7867H2.48115C2.33892 31.7867 2.26781 31.4667 2.26781 30.8267C2.33892 30.7556 2.37448 30.72 2.37448 30.72C2.30337 30.72 2.23226 30.7556 2.16115 30.8267C2.01892 31.1111 1.94781 31.04 1.94781 30.6133C1.80559 30.4711 1.73448 30.2578 1.73448 29.9733C1.73448 29.6889 1.62781 29.5467 1.41448 29.5467C1.13003 29.4044 1.09448 29.3333 1.30781 29.3333V28.6933C1.30781 28.1956 1.34337 27.9467 1.41448 27.9467C1.41448 27.8756 1.34337 27.84 1.20115 27.84C1.13003 27.9111 1.09448 27.8756 1.09448 27.7333C1.09448 27.6622 1.09448 27.6267 1.09448 27.6267C1.02337 27.6267 0.987813 27.5911 0.987813 27.52V27.4133C0.916701 27.4133 0.952257 27.2711 1.09448 26.9867C1.16559 26.6311 1.20115 26.24 1.20115 25.8133C1.20115 25.5289 1.27226 25.1733 1.41448 24.7467C1.48559 24.5333 1.5567 24.3556 1.62781 24.2133C1.69892 24.2133 1.73448 24 1.73448 23.5733L2.69448 21.3333C2.90781 20.9067 3.19226 20.5156 3.54781 20.16C3.83226 19.7333 4.01003 19.4489 4.08115 19.3067C4.08115 19.1644 4.25892 18.7378 4.61448 18.0267C5.04115 17.2444 5.50337 16.3911 6.00115 15.4667C6.49892 14.5422 6.9967 13.6178 7.49448 12.6933C7.99226 11.7689 8.38337 11.0222 8.66781 10.4533C8.66781 10.5244 8.63226 10.56 8.56115 10.56C8.56115 10.56 8.56115 10.5956 8.56115 10.6667L8.88115 10.0267V10.1333V10.0267L8.98781 9.92V9.81333V9.70667C8.98781 9.63556 8.95226 9.56444 8.88115 9.49333C8.88115 9.35111 8.95226 9.20889 9.09448 9.06667C9.2367 8.92444 9.34337 8.78222 9.41448 8.64C9.48559 8.42667 9.5567 8.24889 9.62781 8.10667L10.2678 7.14667C10.4811 6.93333 10.5878 6.75556 10.5878 6.61333C10.5878 6.47111 10.5878 6.36445 10.5878 6.29333C10.8011 6.08 10.9434 5.79556 11.0145 5.44C11.1567 5.29778 11.2634 5.15556 11.3345 5.01333C11.4767 4.8 11.5834 4.69333 11.6545 4.69333C11.6545 4.62222 11.7967 4.37333 12.0811 3.94667C12.1523 3.73333 12.2589 3.55556 12.4011 3.41333C12.5434 3.2 12.6856 3.02222 12.8278 2.88C12.8989 2.80889 12.9345 2.70222 12.9345 2.56V2.45333C12.9345 2.38222 13.0767 2.16889 13.3611 1.81333C13.7167 1.38667 13.9656 1.13778 14.1078 1.06667C14.1789 0.995557 14.1789 1.03111 14.1078 1.17333C14.1078 1.31556 14.0367 1.56444 13.8945 1.92C13.61 2.56 13.5745 2.88 13.7878 2.88C13.7878 2.80889 13.8234 2.77333 13.8945 2.77333C13.8945 2.77333 13.93 2.73778 14.0011 2.66667C13.93 2.45333 14.0723 2.16889 14.4278 1.81333C14.6411 1.45778 14.7123 1.28 14.6411 1.28C14.4989 1.28 14.57 1.20889 14.8545 1.06667C15.1389 0.924445 15.3523 0.853333 15.4945 0.853333C15.7789 0.853333 15.85 0.995555 15.7078 1.28C15.6367 1.56444 15.6723 1.70667 15.8145 1.70667C15.8856 1.70667 15.9923 1.6 16.1345 1.38667C16.1345 1.03111 16.2056 0.995555 16.3478 1.28C16.4189 1.35111 16.4545 1.49333 16.4545 1.70667C16.4545 1.92 16.4545 2.02667 16.4545 2.02667C16.6678 2.09778 16.6678 2.41778 16.4545 2.98667L16.1345 3.73333L16.6678 2.98667L17.0945 2.13333L17.4145 2.56C17.4145 2.70222 17.3789 2.88 17.3078 3.09333C17.2367 3.30667 17.1656 3.48444 17.0945 3.62667C17.0234 4.05333 17.0589 4.26667 17.2011 4.26667C17.3434 4.26667 17.3789 4.37333 17.3078 4.58667C17.5923 4.44444 18.0189 4.44444 18.5878 4.58667C19.2278 4.65778 19.5123 4.94222 19.4411 5.44C19.37 5.72445 19.37 5.93778 19.4411 6.08C19.5123 6.15111 19.5478 6.15111 19.5478 6.08C19.69 5.93778 19.69 6.00889 19.5478 6.29333C19.6189 6.43556 19.6189 6.61333 19.5478 6.82667C19.4767 7.04 19.4411 7.25333 19.4411 7.46667C19.4411 7.60889 19.4056 7.78667 19.3345 8C19.3345 8.14222 19.37 8.24889 19.4411 8.32C19.5123 8.53333 19.4056 8.71111 19.1211 8.85333L18.6945 9.38667C18.6234 9.67111 18.5523 9.99111 18.4811 10.3467C18.4811 10.7022 18.3745 11.0578 18.1611 11.4133L17.6278 12.3733C17.6278 12.5156 17.5211 12.7289 17.3078 13.0133C17.1656 13.2267 17.0234 13.4756 16.8811 13.76L16.0278 15.2533L15.1745 16.7467C14.6767 17.4578 14.4278 17.6711 14.4278 17.3867C14.4278 17.2444 14.3923 17.2444 14.3211 17.3867C14.25 17.5289 14.2856 17.6 14.4278 17.6C14.6411 17.6 14.8189 17.5289 14.9611 17.3867C15.1034 17.3156 15.6367 16.9244 16.5611 16.2133C17.5567 15.4311 18.5523 14.6489 19.5478 13.8667C21.8234 12.2311 24.2411 10.5244 26.8011 8.74667C29.4323 6.89778 31.6723 5.36889 33.5211 4.16L34.2678 3.62667C34.4811 3.48444 34.6234 3.41333 34.6945 3.41333C34.7656 3.41333 34.73 3.48444 34.5878 3.62667C34.4456 3.84 34.4456 3.87556 34.5878 3.73333C34.8011 3.66222 34.9078 3.52 34.9078 3.30667C34.8367 3.16444 35.05 2.95111 35.5478 2.66667C36.1167 2.31111 36.4367 2.20444 36.5078 2.34667L36.7211 2.13333C36.7211 1.92 36.7567 1.88444 36.8278 2.02667C36.8278 2.16889 36.8634 2.16889 36.9345 2.02667C36.9345 1.95556 37.0056 1.92 37.1478 1.92C37.1478 1.99111 37.2189 1.95556 37.3611 1.81333C37.5034 1.67111 37.61 1.63556 37.6811 1.70667C37.8945 1.70667 38.0367 1.67111 38.1078 1.6C38.5345 1.17333 38.7478 1.06667 38.7478 1.28C38.7478 1.49333 38.6411 1.63556 38.4278 1.70667C38.3567 1.70667 38.1434 1.81333 37.7878 2.02667C37.5034 2.24 37.2189 2.45333 36.9345 2.66667L35.2278 3.94667C34.73 4.30222 34.6234 4.40889 34.9078 4.26667C35.2634 4.12445 35.7967 3.76889 36.5078 3.2C37.5034 2.56 38.0367 2.24 38.1078 2.24C38.1789 2.38222 38.1789 2.48889 38.1078 2.56C37.7523 2.84444 37.61 3.02222 37.6811 3.09333C37.7523 3.16445 37.9656 3.05778 38.3211 2.77333C38.6767 2.41778 38.8545 2.34667 38.8545 2.56C38.8545 2.63111 38.4634 2.98667 37.6811 3.62667C36.97 4.26667 36.1167 4.97778 35.1211 5.76C33.13 7.39556 31.4234 8.81778 30.0011 10.0267C28.65 11.2356 27.9034 11.9467 27.7611 12.16C27.4767 12.5867 29.9656 10.6311 35.2278 6.29333C35.7256 5.93778 36.1523 5.58222 36.5078 5.22667C36.9345 4.87111 37.3256 4.55111 37.6811 4.26667C38.0367 3.98222 38.3923 3.69778 38.7478 3.41333C38.9611 3.41333 39.1389 3.37778 39.2811 3.30667C39.6367 3.16444 39.85 3.12889 39.9211 3.2C40.0634 3.27111 40.2056 3.59111 40.3478 4.16C40.3478 4.30222 40.3834 4.40889 40.4545 4.48ZM11.7611 17.7067C12.6856 15.7867 13.3611 14.3289 13.7878 13.3333C14.2856 12.3378 14.6411 11.5911 14.8545 11.0933C15.0678 10.5244 15.21 10.0267 15.2811 9.6C15.4234 9.17333 15.6367 8.56889 15.9211 7.78667C16.0634 7.43111 16.17 7.07556 16.2411 6.72C16.3123 6.36444 16.3478 6.15111 16.3478 6.08C16.2767 6.08 16.1345 6.29333 15.9211 6.72C15.7789 7.14667 15.5656 7.68 15.2811 8.32C14.8545 9.31556 14.6411 9.92 14.6411 10.1333C14.7123 10.2756 14.6056 10.6311 14.3211 11.2C14.3211 11.3422 14.3567 11.3422 14.4278 11.2C14.4989 11.1289 14.5345 11.1289 14.5345 11.2C14.4634 11.2 14.4278 11.2356 14.4278 11.3067C14.2856 11.4489 14.2145 11.52 14.2145 11.52L13.8945 12.48C13.7523 12.6933 13.6456 12.8711 13.5745 13.0133C13.5034 13.0844 13.5034 13.0844 13.5745 13.0133C13.4323 12.8711 13.3611 12.8711 13.3611 13.0133C13.29 13.0844 13.3611 13.1911 13.5745 13.3333C13.7878 13.3333 13.7523 13.4044 13.4678 13.5467C13.4678 13.5467 13.4323 13.5467 13.3611 13.5467C13.29 13.5467 13.2545 13.6533 13.2545 13.8667C13.1123 14.1511 13.0056 14.4356 12.9345 14.72C12.8634 15.0044 12.7923 15.1467 12.7211 15.1467C12.5789 15.0044 12.5078 15.1111 12.5078 15.4667C12.5078 15.7511 12.33 16.1778 11.9745 16.7467L11.3345 17.92C11.3345 18.1333 11.2989 18.2756 11.2278 18.3467C11.1567 18.4889 10.9789 18.8089 10.6945 19.3067C10.4811 19.7333 10.2323 20.2311 9.94781 20.8C9.66337 21.3689 9.37892 21.9022 9.09448 22.4C8.88115 22.8267 8.77448 23.0756 8.77448 23.1467C8.77448 23.2889 8.81003 23.3244 8.88115 23.2533C9.02337 23.1111 9.16559 22.9333 9.30781 22.72C9.59226 22.4356 9.73448 22.2222 9.73448 22.08C9.73448 22.0089 9.77003 21.9378 9.84115 21.8667C9.91226 21.7956 9.94781 21.7244 9.94781 21.6533C10.0189 21.6533 10.1967 21.2622 10.4811 20.48C10.8367 19.6978 11.2634 18.7733 11.7611 17.7067ZM13.6811 25.1733C13.7523 25.0311 13.8234 24.9244 13.8945 24.8533C14.0367 24.7822 14.1078 24.7111 14.1078 24.64C14.0367 24.64 13.9656 24.6756 13.8945 24.7467C13.6811 24.96 13.5745 25.1022 13.5745 25.1733C13.3611 25.3156 13.1123 25.4933 12.8278 25.7067C12.6145 25.92 12.4011 26.1333 12.1878 26.3467L11.3345 26.9867L12.1878 26.4533L13.0411 25.7067L13.6811 25.1733ZM33.7345 5.01333C33.45 5.29778 33.3434 5.44 33.4145 5.44L33.6278 5.22667C33.8411 5.01333 34.0545 4.87111 34.2678 4.8C34.6945 4.58667 34.8011 4.48 34.5878 4.48C34.5167 4.48 34.2323 4.65778 33.7345 5.01333ZM15.4945 2.13333C15.4234 2.13333 15.3523 2.24 15.2811 2.45333C15.4234 2.66667 15.53 2.63111 15.6011 2.34667C15.6011 2.13333 15.5656 2.06222 15.4945 2.13333ZM8.45448 10.88C8.45448 10.8089 8.49003 10.7378 8.56115 10.6667C8.41892 10.88 8.38337 10.9511 8.45448 10.88Z" fill="#FF3ADF"/>
</svg>
