<svg width="60" height="90" viewBox="0 0 60 90" fill="none" xmlns="http://www.w3.org/2000/svg">
<path d="M43.6364 27.2727L46.3637 27.2727L46.3637 24.5455L49.0909 24.5455L49.0909 19.0909L43.6364 19.0909L43.6364 21.8182L40.9091 21.8182L40.9091 24.5455L38.1819 24.5455L38.1819 27.2727L35.4546 27.2727L35.4546 30L32.7273 30L32.7273 32.7273L27.2728 32.7273L27.2728 30L24.5455 30L24.5455 27.2727L21.8182 27.2727L21.8182 24.5455L19.0909 24.5455L19.0909 21.8182L16.3637 21.8182L16.3637 19.0909L10.9091 19.0909L10.9091 24.5455L13.6364 24.5455L13.6364 27.2727L16.3637 27.2727L16.3637 30L19.0909 30L19.0909 32.7273L21.8182 32.7273L21.8182 35.4546L24.5455 35.4546L24.5455 38.1818L27.2728 38.1818L27.2728 40.9091L32.7273 40.9091L32.7273 38.1818L35.4546 38.1818L35.4546 35.4546L38.1819 35.4546L38.1819 32.7273L40.9091 32.7273L40.9091 30L43.6364 30" fill="#66FFC8"/>
<path d="M43.6364 57.2728L46.3637 57.2728L46.3637 54.5455L49.0909 54.5455L49.0909 49.0909L43.6364 49.0909L43.6364 51.8182L40.9091 51.8182L40.9091 54.5455L38.1819 54.5455L38.1819 57.2728L35.4546 57.2728L35.4546 60L32.7273 60L32.7273 62.7273L27.2728 62.7273L27.2728 60L24.5455 60L24.5455 57.2728L21.8182 57.2728L21.8182 54.5455L19.0909 54.5455L19.0909 51.8182L16.3637 51.8182L16.3637 49.0909L10.9091 49.0909L10.9091 54.5455L13.6364 54.5455L13.6364 57.2728L16.3637 57.2728L16.3637 60L19.0909 60L19.0909 62.7273L21.8182 62.7273L21.8182 65.4546L24.5455 65.4546L24.5455 68.1818L27.2728 68.1818L27.2728 70.9091L32.7273 70.9091L32.7273 68.1818L35.4546 68.1818L35.4546 65.4546L38.1819 65.4546L38.1819 62.7273L40.9091 62.7273L40.9091 60L43.6364 60" fill="#66FFC8"/>
</svg>
