<svg width="355" height="41" viewBox="0 0 355 41" fill="none" xmlns="http://www.w3.org/2000/svg">
<path opacity="0.2" d="M40.55 10.65C40.55 11.1833 40.4833 11.7833 40.35 12.45C40.25 13.1167 40.1 13.65 39.9 14.05H29.7C29.5667 14.1833 29.5 14.3167 29.5 14.45H38.45C38.15 14.65 37.7833 14.9 37.35 15.2C36.95 15.4667 36.55 15.7333 36.15 16C35.75 16.2667 35.4 16.5 35.1 16.7C34.8 16.8667 34.6167 16.95 34.55 16.95H28.8C28.6667 17.0833 28.6 17.1833 28.6 17.25H22.25C22.1833 17.1833 22.15 17.1333 22.15 17.1C22.15 17.0667 22.1167 17.0167 22.05 16.95H6.15V14.55H10.45C10.4833 14.45 10.5 14.3833 10.5 14.35C10.5333 14.2833 10.4833 14.1833 10.35 14.05H6.15V13.65L1.35 13.7C1.21667 13.7 1.11667 13.5667 1.05 13.3C0.983333 13.0333 0.95 12.7333 0.95 12.4C0.916667 12.0333 0.933333 11.6667 1 11.3C1.06667 10.9 1.18333 10.55 1.35 10.25H6.1V0.949999H12.35V1.8C12.9833 1.96666 13.7167 2.05 14.55 2.05C15.3833 2.05 16.05 2.05 16.55 2.05C16.6167 2.05 16.7833 2.05 17.05 2.05C17.35 2.01666 17.6667 2 18 2C18.3333 2 18.6333 2 18.9 2C19.2 1.96666 19.3833 1.95 19.45 1.95C19.55 1.95 19.6667 1.96666 19.8 2C19.9667 2.03333 20.1333 2.08333 20.3 2.15L32.7 2.05C32.9 2.08333 33.05 2.03333 33.15 1.9C33.25 1.76667 33.2833 1.61667 33.25 1.45C34.55 1.88333 35.6667 2.43333 36.6 3.1C37.5333 3.76666 38.2833 4.5 38.85 5.3C39.45 6.1 39.8833 6.96667 40.15 7.9C40.4167 8.8 40.55 9.71667 40.55 10.65ZM42.35 28.95C42.35 30.2833 42.1333 31.5833 41.7 32.85C41.2667 34.0833 40.6 35.2 39.7 36.2C38.8333 37.1667 37.7333 37.9667 36.4 38.6C35.1 39.2333 33.5667 39.6 31.8 39.7C31.6 39.7 31.2833 39.7333 30.85 39.8C30.45 39.8333 30.0333 39.8833 29.6 39.95C29.2 39.9833 28.8167 40.0167 28.45 40.05C28.1167 40.1167 27.9167 40.15 27.85 40.15H16.55L14.75 36.05H10.5C10.4 36.2833 10.2833 36.55 10.15 36.85C10.0167 37.1167 9.9 37.3833 9.8 37.65H6.15V17.65H11.05C11.1167 17.5833 11.15 17.5167 11.15 17.45C11.15 17.3833 11.15 17.3167 11.15 17.25H20.9V17.85H14.65C14.75 17.95 14.8667 18.0667 15 18.2C15.1333 18.3 15.2667 18.35 15.4 18.35H31.55C31.65 18.35 31.9167 18.2 32.35 17.9C32.7833 17.5667 33.1667 17.3667 33.5 17.3C33.6667 17.2333 33.95 17.2333 34.35 17.3C34.75 17.3667 35.0833 17.35 35.35 17.25C36.1167 16.8833 36.85 16.45 37.55 15.95C38.2833 15.4167 39 14.95 39.7 14.55C39.5 15.1167 39.1833 15.65 38.75 16.15C38.35 16.65 37.8833 17.1 37.35 17.5C36.85 17.9 36.3333 18.2667 35.8 18.6C35.2667 18.9 34.7833 19.1167 34.35 19.25V19.3C35.85 19.6333 37.1 20.1333 38.1 20.8C39.1333 21.4667 39.9667 22.2333 40.6 23.1C41.2333 23.9333 41.6833 24.8667 41.95 25.9C42.2167 26.9 42.35 27.9167 42.35 28.95ZM28.65 12.5C28.65 11.9333 28.5333 11.3667 28.3 10.8C28.1 10.2333 27.6333 9.76667 26.9 9.4C26.5667 9.23333 26.1333 9.1 25.6 9C25.1 8.9 24.7833 8.85 24.65 8.85H18.35V13.55H28.5C28.5667 13.3833 28.6 13.2 28.6 13C28.6333 12.8 28.65 12.6333 28.65 12.5ZM21.8 16.25C21.9 16.25 21.9 16.1333 21.8 15.9C21.7333 15.6333 21.6667 15.4167 21.6 15.25H18.35V16.25H21.8ZM30.25 27.65C30.25 26.9167 30.1 26.3 29.8 25.8C29.5 25.3 29.1 24.9 28.6 24.6C28.1333 24.3 27.6 24.0833 27 23.95C26.4333 23.8167 25.8833 23.75 25.35 23.75H18.35V28.05C18.7167 27.9833 19.05 28.0167 19.35 28.15C19.35 28.6167 19.3667 29.0667 19.4 29.5C19.4333 29.9333 19.4167 30.35 19.35 30.75H18.35V31.65H26.25C26.55 31.65 26.9 31.5833 27.3 31.45C27.7333 31.2833 28.15 31.0833 28.55 30.85C28.95 30.5833 29.3 30.2667 29.6 29.9C29.9 29.5333 30.0667 29.1333 30.1 28.7C30.1333 28.5333 30.1667 28.35 30.2 28.15C30.2333 27.95 30.25 27.7833 30.25 27.65ZM14.55 18.25C14.3833 18.0833 14.2333 17.9667 14.1 17.9H13.25C13.5167 18 13.75 18.0833 13.95 18.15C14.15 18.2167 14.35 18.25 14.55 18.25ZM13.05 18.2C12.9833 18.1333 12.9 18.0833 12.8 18.05C12.7333 17.9833 12.6667 17.9333 12.6 17.9H11.55C11.7167 18 11.9333 18.1 12.2 18.2C12.5 18.2667 12.7833 18.2667 13.05 18.2ZM6.1 11.05C6 11.2833 5.91667 11.55 5.85 11.85C5.78333 12.1167 5.75 12.3 5.75 12.4V12.85C5.88333 12.55 5.95 12.25 5.95 11.95C5.98333 11.6167 6.03333 11.3167 6.1 11.05ZM5.75 11.05H5.6L5.4 12.75H5.55L5.75 11.05ZM5.35 11.05C5.18333 11.6167 5.1 12.2167 5.1 12.85C5.16667 12.55 5.21667 12.25 5.25 11.95C5.28333 11.6167 5.31667 11.3167 5.35 11.05ZM5 11.05C4.9 11.2167 4.81667 11.45 4.75 11.75C4.68333 12.0167 4.65 12.2 4.65 12.3V12.85C4.78333 12.55 4.85 12.25 4.85 11.95C4.88333 11.6167 4.93333 11.3167 5 11.05ZM11.55 18.1C11.4833 18.0333 11.4167 18 11.35 18C11.3167 17.9667 11.2667 17.9167 11.2 17.85H10.25C10.3833 18.0167 10.6 18.1167 10.9 18.15C11.2333 18.1833 11.45 18.1667 11.55 18.1ZM4.6 11.05C4.53333 11.3167 4.48333 11.6 4.45 11.9C4.41667 12.2 4.4 12.4833 4.4 12.75C4.46667 12.4833 4.51667 12.2 4.55 11.9C4.58333 11.6 4.6 11.3167 4.6 11.05ZM4.2 11.05C4.13333 11.3167 4.08333 11.6167 4.05 11.95C4.01667 12.25 4 12.55 4 12.85C4.1 12.4833 4.15 12.15 4.15 11.85C4.18333 11.5167 4.2 11.25 4.2 11.05ZM3.9 11.05C3.8 11.2167 3.71667 11.4333 3.65 11.7C3.58333 11.9667 3.55 12.1667 3.55 12.3V12.85C3.68333 12.55 3.76667 12.25 3.8 11.95C3.8 11.6167 3.83333 11.3167 3.9 11.05ZM3.5 11.05C3.43333 11.3167 3.38333 11.6167 3.35 11.95C3.31667 12.25 3.3 12.55 3.3 12.85C3.36667 12.55 3.41667 12.25 3.45 11.95C3.48333 11.6167 3.5 11.3167 3.5 11.05ZM3.1 11.05C3.03333 11.3167 2.98333 11.6167 2.95 11.95C2.91667 12.25 2.9 12.55 2.9 12.85C3 12.5167 3.06667 12.1833 3.1 11.85C3.1 11.5167 3.1 11.25 3.1 11.05ZM2.8 11.05C2.7 11.2167 2.61667 11.4333 2.55 11.7C2.48333 11.9667 2.45 12.1667 2.45 12.3V12.85C2.58333 12.55 2.66667 12.25 2.7 11.95C2.7 11.6167 2.73333 11.3167 2.8 11.05ZM2.4 11.05C2.33333 11.3167 2.28333 11.6167 2.25 11.95C2.21667 12.25 2.2 12.55 2.2 12.85C2.26667 12.55 2.31667 12.25 2.35 11.95C2.38333 11.6167 2.4 11.3167 2.4 11.05ZM2 11.05C1.93333 11.3167 1.88333 11.6167 1.85 11.95C1.81667 12.25 1.8 12.55 1.8 12.85C1.9 12.4833 1.96667 12.15 2 11.85C2 11.5167 2 11.25 2 11.05ZM25.95 30.05H25.4V31.35H25.05V29.75C25.15 29.75 25.2667 29.7833 25.4 29.85C25.5667 29.9167 25.75 29.9833 25.95 30.05ZM23.4 30.1L19.55 30V29.8L23.4 29.9V30.1ZM79.2891 39.9H77.6891C77.5557 39.9333 77.5057 39.9333 77.5391 39.9C77.6057 39.8667 77.6057 39.8167 77.5391 39.75C77.3724 39.6833 77.1891 39.6333 76.9891 39.6C76.7891 39.5333 76.5724 39.4833 76.3391 39.45C76.1057 39.4167 75.8391 39.4333 75.5391 39.5C75.2391 39.5667 74.9391 39.5833 74.6391 39.55C74.4724 39.5167 74.2724 39.4833 74.0391 39.45C73.8391 39.3833 73.6724 39.35 73.5391 39.35H60.9891C60.9557 39.35 60.8724 39.3667 60.7391 39.4C60.6391 39.4 60.5057 39.4167 60.3391 39.45C60.2057 39.4833 60.0724 39.55 59.9391 39.65C59.8391 39.7167 59.7891 39.8 59.7891 39.9H46.2391V36.45C46.5057 36.45 46.7724 36.45 47.0391 36.45C47.3391 36.45 47.6391 36.4333 47.9391 36.4C48.0391 36.2667 48.1557 36.1167 48.2891 35.95C48.4557 35.75 48.5391 35.5833 48.5391 35.45V29.15H52.3391C52.4724 29.0167 52.5391 28.9333 52.5391 28.9C52.1391 28.8333 51.7391 28.8 51.3391 28.8C50.9391 28.8 50.5391 28.8 50.1391 28.8C50.1391 28.7333 50.1391 28.6833 50.1391 28.65C50.1724 28.5833 50.1557 28.5167 50.0891 28.45C50.0224 28.5167 49.9891 28.6333 49.9891 28.8H48.5391V26.45C48.7057 26.5167 48.9224 26.5667 49.1891 26.6C49.4557 26.6333 49.6724 26.5667 49.8391 26.4C49.6724 26.2333 49.4557 26.1667 49.1891 26.2C48.9224 26.2 48.7057 26.2333 48.5391 26.3V21C48.5391 20.9 48.4724 20.7333 48.3391 20.5C48.2391 20.2333 48.1391 20.0167 48.0391 19.85C47.7391 19.8167 47.4391 19.8167 47.1391 19.85C47.1391 19.7833 47.1724 19.7333 47.2391 19.7C47.3057 19.6667 47.3391 19.6167 47.3391 19.55L47.3891 19.6C47.3891 19.6333 47.4224 19.6833 47.4891 19.75C47.5557 19.6833 47.5891 19.6 47.5891 19.5C47.5891 19.6 47.6224 19.6833 47.6891 19.75C47.7557 19.6833 47.7891 19.6 47.7891 19.5C47.7891 19.6 47.8224 19.6833 47.8891 19.75C47.9557 19.6833 47.9891 19.5667 47.9891 19.4C47.9891 19.4667 47.9724 19.5333 47.9391 19.6C47.9391 19.6333 47.9724 19.6833 48.0391 19.75C48.1724 19.5833 48.2057 19.45 48.1391 19.35C48.0724 19.2167 48.0057 19.0833 47.9391 18.95C47.9057 18.9833 47.8891 19.0667 47.8891 19.2C47.8891 19.1 47.8557 19.0167 47.7891 18.95C47.7224 19.0167 47.6891 19.0833 47.6891 19.15C47.6891 19.1833 47.6724 19.2333 47.6391 19.3V19C47.5724 18.9333 47.4891 18.9167 47.3891 18.95C47.2891 18.95 47.2391 18.9167 47.2391 18.85C47.1724 18.95 47.1557 19.0333 47.1891 19.1C47.2557 19.1667 47.2891 19.25 47.2891 19.35C47.3224 19.25 47.3057 19.1667 47.2391 19.1C47.2057 19.0333 47.1557 18.95 47.0891 18.85C47.0891 18.8833 47.0724 18.9 47.0391 18.9C46.9724 18.9667 46.9391 19 46.9391 19V18.65H44.3391L42.8391 13.85H45.0391C45.1057 13.7833 45.1391 13.6167 45.1391 13.35C45.2057 13.4167 45.2724 13.5 45.3391 13.6C45.4057 13.6667 45.4891 13.75 45.5891 13.85L46.2391 13.75C46.1724 13.7167 46.1057 13.65 46.0391 13.55C46.0057 13.45 45.9391 13.35 45.8391 13.25H46.1891V0.749999H47.8891C47.7891 1.05 47.7891 1.28333 47.8891 1.45C48.0224 1.58333 48.1891 1.68333 48.3891 1.75C48.6224 1.81667 48.8557 1.85 49.0891 1.85C49.3557 1.85 49.5391 1.85 49.6391 1.85C49.7391 1.85 49.9391 1.83333 50.2391 1.8C50.5391 1.76666 50.7557 1.75 50.8891 1.75C51.0224 1.75 51.0891 1.78333 51.0891 1.85C51.0891 1.91667 51.1557 1.95 51.2891 1.95H59.6391C60.0391 1.95 60.3057 1.86666 60.4391 1.7C60.5724 1.53333 60.6057 1.21667 60.5391 0.749999H78.6891V9.05H58.3891V10.2H60.7891C60.7224 10.5333 60.6724 10.8667 60.6391 11.2C60.6057 11.5 60.5557 11.7833 60.4891 12.05H51.5891C51.5557 12.25 51.5891 12.5333 51.6891 12.9C51.8224 13.2667 52.0224 13.6167 52.2891 13.95C52.3891 13.8167 52.4391 13.7 52.4391 13.6C52.4391 13.5 52.4057 13.4 52.3391 13.3C52.3057 13.2 52.2724 13.1167 52.2391 13.05C52.2057 12.95 52.2391 12.85 52.3391 12.75H60.3891C60.4224 12.85 60.4224 12.9833 60.3891 13.15C60.3891 13.2833 60.3557 13.5333 60.2891 13.9H66.5891C66.6891 14.1333 66.7724 14.3667 66.8391 14.6C66.9057 14.8333 67.0224 15.0833 67.1891 15.35H75.9891C76.0557 15.5167 76.1057 15.7 76.1391 15.9C76.1724 16.0667 76.1891 16.2 76.1891 16.3L67.3891 16.4C67.4557 16.5 67.5057 16.6 67.5391 16.7C67.5724 16.7667 67.6224 16.85 67.6891 16.95L76.9391 16.85C76.8391 16.5833 76.7557 16.3333 76.6891 16.1C76.6224 15.8667 76.5391 15.6167 76.4391 15.35H77.1891V23.3H58.4891C58.4224 23.4 58.3891 23.5 58.3891 23.6H49.9891C49.9891 24.2667 50.0224 24.9167 50.0891 25.55C50.1557 26.15 50.2224 26.7833 50.2891 27.45L52.6391 27.55C52.6391 27.05 52.6557 26.55 52.6891 26.05C52.7224 25.5167 52.7057 24.95 52.6391 24.35H57.3891V27.1H60.8891C60.9557 27.5333 61.0057 28 61.0391 28.5C61.1057 28.9667 61.2557 29.4 61.4891 29.8C63.7557 29.8333 66.0224 29.8667 68.2891 29.9C70.5891 29.9 72.8891 29.9 75.1891 29.9H74.4891C74.4224 30.0667 74.3891 30.2333 74.3891 30.4C74.3891 30.5333 74.3557 30.7333 74.2891 31C74.3557 31 74.5557 31.0167 74.8891 31.05C75.2557 31.05 75.6891 31.05 76.1891 31.05C76.6891 31.05 77.2057 31.05 77.7391 31.05C78.3057 31.0167 78.8224 31 79.2891 31V32C78.7891 31.9 78.2224 31.9 77.5891 32C77.7557 32.2667 78.0057 32.3667 78.3391 32.3C78.7057 32.2333 79.0224 32.2167 79.2891 32.25V39.9ZM47.5391 19.3H47.3891V19.05H47.5391V19.3ZM47.1391 19.4H46.9891V19.15H47.1391V19.4ZM66.5891 15.3C66.5891 15.1333 66.5724 15 66.5391 14.9C66.5057 14.8 66.4891 14.7167 66.4891 14.65H60.4391V15.3H66.5891ZM77.6391 31.7V31.35H77.4891V31.7H77.6391ZM67.1891 16.9C67.1224 16.8 67.0891 16.7 67.0891 16.6C67.0891 16.5 67.0891 16.4167 67.0891 16.35H53.2891L52.6891 14.55H52.3391C52.4391 14.9167 52.5557 15.3 52.6891 15.7C52.8224 16.0667 52.9391 16.4333 53.0391 16.8C53.1391 16.8667 53.2557 16.9167 53.3891 16.95C53.5224 16.95 53.6224 17 53.6891 17.1C53.8557 17.4667 53.9724 17.8 54.0391 18.1H59.1891C59.2557 18 59.2891 17.9167 59.2891 17.85C59.3224 17.75 59.3891 17.6333 59.4891 17.5H62.3891C62.3891 17.3 62.4891 17.1 62.6891 16.9H67.1891ZM60.3391 18.1C60.5724 18 60.5724 17.8833 60.3391 17.75V18.1ZM60.0891 17.75C60.0224 17.75 59.9724 17.8 59.9391 17.9C59.9391 17.9667 59.9391 18.0333 59.9391 18.1C60.0391 18.0333 60.1057 17.9667 60.1391 17.9C60.1724 17.8 60.1557 17.75 60.0891 17.75ZM59.6891 17.75C59.6224 17.75 59.5557 17.8 59.4891 17.9C59.4557 18 59.4724 18.0833 59.5391 18.15C59.6391 18.0833 59.7057 18 59.7391 17.9C59.7724 17.8 59.7557 17.75 59.6891 17.75ZM76.0891 39.45V39.3H75.8391V39.45H76.0891ZM74.1891 39.45V39.3H73.9391V39.45H74.1891ZM57.2391 25.55H57.0891L56.9891 27.5H57.1391L57.2391 25.55ZM56.9391 25.55H56.7891L56.6891 27.5H56.8391L56.9391 25.55ZM56.6391 25.55H56.4891L56.4391 27.5H56.5891L56.6391 25.55ZM56.4391 25.55H56.2891L56.0891 27.5H56.2391L56.4391 25.55ZM56.1391 25.55H55.9891L55.8891 27.5H56.0391L56.1391 25.55ZM55.8391 25.55H55.6891L55.5891 27.5H55.7391L55.8391 25.55ZM55.5391 25.55H55.3891L55.2891 27.5H55.4391L55.5391 25.55ZM59.6891 31C59.6224 30.6333 59.5891 30.3833 59.5891 30.25C59.5891 30.1167 59.5891 30.0167 59.5891 29.95H58.4391V31H59.6891ZM55.1891 25.65C55.1891 26.3167 55.1391 26.95 55.0391 27.55C55.1057 27.0833 55.1391 26.7167 55.1391 26.45C55.1724 26.1833 55.1891 25.9167 55.1891 25.65ZM46.1891 18.1V17.05C46.1891 17.0167 46.1224 16.9333 45.9891 16.8C45.8891 16.6333 45.7557 16.45 45.5891 16.25C45.4557 16.05 45.3224 15.85 45.1891 15.65C45.0891 15.4167 45.0391 15.2333 45.0391 15.1C45.0391 14.9667 45.0391 14.8667 45.0391 14.8C45.0724 14.7 45.0891 14.6167 45.0891 14.55H43.4391L44.5391 18.1H46.1891ZM55.0391 25.55H54.8891L54.6891 27.5H54.8391L55.0391 25.55ZM54.7391 25.55H54.5891L54.4891 27.5H54.6391L54.7391 25.55ZM54.4391 25.55H54.2891L54.1891 27.5H54.3391L54.4391 25.55ZM54.1391 25.55H53.9891L53.8891 27.5H54.0391L54.1391 25.55ZM53.7891 25.55C53.7891 25.75 53.7724 26.0167 53.7391 26.35C53.7391 26.65 53.7057 27.05 53.6391 27.55C53.7057 27.2833 53.7391 26.9667 53.7391 26.6C53.7724 26.2 53.7891 25.85 53.7891 25.55ZM53.6391 25.55H53.4891L53.2891 27.5H53.4391L53.6391 25.55ZM53.3391 25.55H53.1891L53.0891 27.5H53.2391L53.3391 25.55ZM59.8891 32.2V31.9H50.4391V32.2H59.8891ZM49.9391 27.1V26.75H49.7891V27.1H49.9391ZM50.0391 28V27.55H49.8891V28H50.0391ZM50.2391 29.7V29.25H50.0891V29.7H50.2391ZM50.3391 30.5V30.15H50.1891V30.5H50.3391ZM50.4391 31.4V30.95H50.2891V31.4H50.4391ZM45.7891 17.5H44.9391V16.35C45.0391 16.5167 45.1724 16.7 45.3391 16.9C45.5057 17.1 45.6557 17.3 45.7891 17.5ZM128.805 5.6C128.638 5.53333 128.455 5.48333 128.255 5.45C128.055 5.41666 127.855 5.36667 127.655 5.3C127.721 4.73333 127.755 4.3 127.755 4C127.755 3.7 127.738 3.41666 127.705 3.15L128.805 5.6ZM127.505 2.3L122.355 0.749999H127.005C127.105 0.949998 127.188 1.2 127.255 1.5C127.355 1.8 127.438 2.06667 127.505 2.3ZM132.905 16.7H122.055C121.955 16.3667 121.838 16 121.705 15.6C121.571 15.1667 121.455 14.75 121.355 14.35H132.105C132.205 14.7167 132.321 15.0833 132.455 15.45C132.588 15.8167 132.738 16.2333 132.905 16.7ZM137.905 29.8H133.455L135.455 23.35L137.905 29.8ZM140.905 37.8H134.905C134.605 38.0333 134.405 38.2333 134.305 38.4C134.238 38.5667 134.188 38.7333 134.155 38.9C134.155 39.0667 134.171 39.2333 134.205 39.4C134.238 39.5333 134.238 39.7 134.205 39.9H130.355L132.155 34H135.255V33.55H132.355C132.455 33.2167 132.555 32.8833 132.655 32.55C132.755 32.1833 132.855 31.85 132.955 31.55H135.805C135.905 31.85 136.005 32.1667 136.105 32.5C136.205 32.8333 136.305 33.1833 136.405 33.55H139.305L140.905 37.8ZM135.255 22.75L133.005 29.85H127.755C127.655 29.5833 127.555 29.3167 127.455 29.05C127.355 28.75 127.255 28.4667 127.155 28.2H123.155V26.55H117.705C117.705 26.5833 117.688 26.6 117.655 26.6C117.588 26.6667 117.555 26.7 117.555 26.7C117.488 27.2 117.421 27.7 117.355 28.2C117.321 28.7 117.305 29.2 117.305 29.7C117.305 29.7333 117.271 29.7667 117.205 29.8C117.138 29.8 117.021 29.8 116.855 29.8C116.688 29.8 116.421 29.8167 116.055 29.85C115.721 29.85 115.255 29.8667 114.655 29.9H125.705C125.771 30.1667 125.838 30.45 125.905 30.75C126.005 31.0167 126.105 31.2833 126.205 31.55H132.505L131.905 33.45H113.405L111.405 39.9H102.755C102.921 39.5333 103.055 39.1833 103.155 38.85C103.288 38.5167 103.488 38.1667 103.755 37.8C103.621 37.6333 103.371 37.5167 103.005 37.45C102.838 37.85 102.688 38.2667 102.555 38.7C102.421 39.1333 102.305 39.5333 102.205 39.9H99.0547L100.355 36.5C100.255 36.4333 100.138 36.3833 100.005 36.35C99.8714 36.3167 99.7214 36.2667 99.5547 36.2C99.488 35.9333 99.438 35.6667 99.4047 35.4C99.3714 35.1333 99.3214 34.8833 99.2547 34.65L101.055 29.15H100.955C100.788 29.55 100.621 30 100.455 30.5C100.321 31 100.171 31.4833 100.005 31.95C99.9714 31.95 99.938 31.9333 99.9047 31.9C99.8714 31.9 99.8214 31.8667 99.7547 31.8L101.105 28.35C101.071 28.45 101.038 28.5667 101.005 28.7C101.005 28.8333 101.038 28.95 101.105 29.05C101.171 28.95 101.205 28.8333 101.205 28.7C101.238 28.5667 101.288 28.4167 101.355 28.25C101.555 28.0833 101.805 27.95 102.105 27.85C102.405 27.7167 102.671 27.5667 102.905 27.4C103.171 27.2333 103.388 27.0333 103.555 26.8C103.721 26.5333 103.788 26.1833 103.755 25.75C103.588 25.9167 103.388 26.05 103.155 26.15C102.955 26.25 102.755 26.35 102.555 26.45C102.488 26.0833 102.655 25.8167 103.055 25.65C103.455 25.45 103.755 25.3 103.955 25.2C104.021 25.1667 104.038 25.1333 104.005 25.1C104.005 25.0667 103.988 25.05 103.955 25.05C103.588 25.25 103.221 25.4167 102.855 25.55C102.855 25.4833 102.871 25.4 102.905 25.3C102.938 25.2 102.955 25.1167 102.955 25.05C103.121 24.95 103.321 24.8333 103.555 24.7C103.788 24.5333 103.971 24.45 104.105 24.45C104.238 24.45 104.288 24.45 104.255 24.45C104.221 24.45 104.238 24.4833 104.305 24.55C104.371 24.4833 104.388 24.4333 104.355 24.4C104.355 24.3333 104.355 24.2167 104.355 24.05C104.188 24.2167 103.988 24.35 103.755 24.45C103.555 24.55 103.355 24.65 103.155 24.75C103.155 24.5167 103.221 24.3333 103.355 24.2C103.488 24.0667 103.638 23.9667 103.805 23.9C104.005 23.8 104.171 23.7167 104.305 23.65C104.471 23.5833 104.588 23.5 104.655 23.4C104.455 23.4 104.255 23.45 104.055 23.55C103.855 23.65 103.655 23.75 103.455 23.85C103.388 23.4833 103.538 23.2333 103.905 23.1C104.271 22.9667 104.621 22.8167 104.955 22.65C104.955 22.5833 104.921 22.5167 104.855 22.45C104.655 22.5167 104.455 22.6167 104.255 22.75C104.055 22.85 103.855 22.95 103.655 23.05C103.655 22.8833 103.721 22.75 103.855 22.65C103.988 22.5167 104.121 22.4167 104.255 22.35C104.421 22.25 104.571 22.1667 104.705 22.1C104.838 22 104.938 21.8833 105.005 21.75C105.571 20.35 106.088 18.9167 106.555 17.45C107.055 15.9833 107.538 14.55 108.005 13.15C108.071 12.8833 108.155 12.5833 108.255 12.25C108.355 11.8833 108.488 11.5167 108.655 11.15C108.788 10.8833 108.921 10.5 109.055 10C109.188 9.46666 109.355 8.98333 109.555 8.55C109.621 8.31667 109.688 8.08333 109.755 7.85C109.821 7.58333 109.888 7.31667 109.955 7.05C110.021 7.15 110.088 7.26667 110.155 7.4C110.255 7.53333 110.338 7.68333 110.405 7.85C110.471 7.78333 110.488 7.76666 110.455 7.8C110.455 7.83333 110.455 7.78333 110.455 7.65C110.455 7.51667 110.388 7.36667 110.255 7.2C110.121 7 110.055 6.83333 110.055 6.7C110.055 6.63333 110.088 6.48333 110.155 6.25C110.255 6.01667 110.355 5.73333 110.455 5.4C110.555 5.06667 110.655 4.73333 110.755 4.4C110.888 4.06666 110.988 3.76666 111.055 3.5C111.221 3.43333 111.388 3.35 111.555 3.25C111.755 3.11667 111.921 3.05 112.055 3.05C112.155 3.05 112.238 3.06667 112.305 3.1C112.405 3.13333 112.555 3.18333 112.755 3.25C112.955 2.85 113.121 2.43333 113.255 2C113.421 1.56666 113.588 1.15 113.755 0.749999H115.205L113.555 3.5C113.688 3.66667 113.888 3.75 114.155 3.75C114.455 3.75 114.638 3.91667 114.705 4.25C115.071 3.68333 115.405 3.11666 115.705 2.55C116.038 1.95 116.388 1.35 116.755 0.749999C117.055 0.749999 117.371 0.749999 117.705 0.749999C118.038 0.716666 118.338 0.733332 118.605 0.799998C119.971 1.16666 121.321 1.58333 122.655 2.05C123.988 2.51666 125.338 2.95 126.705 3.35C126.738 3.75 126.721 4.25 126.655 4.85C126.621 5.45 126.571 6.08333 126.505 6.75C126.905 6.91667 127.421 7.03333 128.055 7.1C128.688 7.16667 129.171 7.4 129.505 7.8C130.205 8.63333 130.671 9.6 130.905 10.7C131.171 11.7667 131.505 12.8 131.905 13.8L122.355 13.95C122.221 13.95 122.038 13.95 121.805 13.95C121.605 13.95 121.421 13.9333 121.255 13.9C121.055 13.4667 120.871 13.0167 120.705 12.55C120.571 12.05 120.421 11.55 120.255 11.05C119.955 11.4167 119.771 11.8833 119.705 12.45C119.638 12.9833 119.471 13.4833 119.205 13.95H111.905C111.771 14.0833 111.705 14.2 111.705 14.3H119.105C119.005 14.6667 118.905 15.0667 118.805 15.5C118.705 15.9 118.605 16.3167 118.505 16.75H110.805C110.805 16.8833 110.838 16.9833 110.905 17.05H118.305L115.905 24.95H124.455L122.155 17.05H133.105L135.255 22.75ZM122.905 27.35C122.838 27.6167 122.788 27.9167 122.755 28.25C122.755 28.55 122.721 28.85 122.655 29.15C122.721 28.85 122.738 28.5167 122.705 28.15C122.671 27.7833 122.738 27.5167 122.905 27.35ZM122.555 27.35L122.355 29.1H122.205L122.405 27.35H122.555ZM122.205 27.35C122.205 27.6167 122.171 27.9167 122.105 28.25C122.071 28.55 122.021 28.85 121.955 29.15C121.955 28.85 121.971 28.55 122.005 28.25C122.071 27.9167 122.138 27.6167 122.205 27.35ZM121.905 27.35C121.838 27.6167 121.788 27.9167 121.755 28.25C121.755 28.55 121.721 28.85 121.655 29.15C121.721 28.85 121.738 28.5167 121.705 28.15C121.671 27.7833 121.738 27.5167 121.905 27.35ZM121.455 29.1H121.305V27.35H121.455V29.1ZM121.255 27.35L121.055 29.1H120.905L121.105 27.35H121.255ZM131.705 34.05L129.905 39.95H129.055L127.355 34.05H131.705ZM120.755 27.35C120.821 27.55 120.838 27.8333 120.805 28.2C120.771 28.5333 120.721 28.85 120.655 29.15C120.655 28.8833 120.655 28.6 120.655 28.3C120.655 27.9667 120.688 27.65 120.755 27.35ZM120.605 27.35C120.538 27.65 120.471 27.9667 120.405 28.3C120.371 28.6 120.321 28.8833 120.255 29.15V28.6C120.255 28.4667 120.288 28.2667 120.355 28C120.421 27.7333 120.505 27.5167 120.605 27.35ZM120.255 27.35L120.055 29.1H119.905L120.105 27.35H120.255ZM119.905 27.35C119.871 27.65 119.838 27.9833 119.805 28.35C119.805 28.7167 119.721 28.9333 119.555 29C119.621 28.7333 119.671 28.4667 119.705 28.2C119.771 27.9 119.838 27.6167 119.905 27.35ZM119.605 27.35C119.538 27.6167 119.488 27.9167 119.455 28.25C119.455 28.55 119.421 28.85 119.355 29.15C119.421 28.8167 119.421 28.4833 119.355 28.15C119.321 27.8167 119.405 27.55 119.605 27.35ZM119.255 27.35L119.055 29.1H118.905L119.105 27.35H119.255ZM118.905 27.35C118.905 27.6167 118.871 27.9167 118.805 28.25C118.771 28.55 118.721 28.85 118.655 29.15C118.655 28.85 118.671 28.55 118.705 28.25C118.771 27.9167 118.838 27.6167 118.905 27.35ZM118.605 27.35C118.538 27.5833 118.488 27.8833 118.455 28.25C118.455 28.5833 118.421 28.8833 118.355 29.15C118.421 28.85 118.438 28.5167 118.405 28.15C118.371 27.7833 118.438 27.5167 118.605 27.35ZM118.205 27.35C118.205 27.6167 118.171 27.9167 118.105 28.25C118.071 28.55 118.021 28.85 117.955 29.15C117.955 28.8833 117.971 28.6 118.005 28.3C118.071 27.9667 118.138 27.65 118.205 27.35ZM110.355 8.1V7.85H110.205V8.1H110.355ZM110.255 8.4V8.15H110.105V8.4H110.255ZM110.155 8.7V8.45H110.005V8.7H110.155ZM110.055 9V8.75H109.905V9H110.055ZM109.955 9.3V9.05H109.805V9.3H109.955ZM109.755 9.45C109.721 9.48333 109.705 9.5 109.705 9.5C109.671 9.5 109.655 9.48333 109.655 9.45C109.588 9.45 109.555 9.53333 109.555 9.7C109.555 9.86667 109.538 9.98333 109.505 10.05C109.271 10.7167 109.055 11.3667 108.855 12C108.655 12.6333 108.421 13.2833 108.155 13.95C108.055 13.85 108.005 13.7167 108.005 13.55C107.771 14.0167 107.655 14.3833 107.655 14.65C107.955 14.5167 108.138 14.4 108.205 14.3C108.471 13.5 108.738 12.7 109.005 11.9C109.271 11.0667 109.521 10.25 109.755 9.45ZM106.705 20.85C106.638 20.85 106.555 20.8333 106.455 20.8C106.388 20.7667 106.321 20.75 106.255 20.75L102.255 32.4C102.621 32.5 102.988 32.6333 103.355 32.8C103.721 32.9333 104.105 33.05 104.505 33.15L105.505 29.95C105.305 29.8833 105.055 29.8167 104.755 29.75C104.455 29.6833 104.288 29.5667 104.255 29.4L106.705 20.85ZM199.212 11.55C199.212 11.6833 199.178 12.0333 199.112 12.6C199.078 13.1667 199.028 13.6333 198.962 14C198.895 14.4 198.762 14.8833 198.562 15.45C198.395 15.9833 198.195 16.4833 197.962 16.95C197.862 17.1167 197.728 17.3333 197.562 17.6C197.395 17.8667 197.228 18.1167 197.062 18.35C196.928 18.5167 196.745 18.7333 196.512 19C196.278 19.2333 196.045 19.4667 195.812 19.7C195.612 19.9 195.412 20.0833 195.212 20.25C195.045 20.3833 194.928 20.45 194.862 20.45H165.312C165.245 20.25 165.195 20 165.162 19.7C165.128 19.3667 165.062 19.0833 164.962 18.85C164.895 18.5833 164.778 18.3833 164.612 18.25C164.445 18.1167 164.178 18.1167 163.812 18.25L163.712 15.15C163.612 15.2167 163.528 15.2667 163.462 15.3C163.395 15.3333 163.312 15.3833 163.212 15.45V29.6C163.345 29.7333 163.528 29.85 163.762 29.95V24.75H176.012V39.9H167.562C167.495 40.0667 167.462 40.2333 167.462 40.4C167.462 40.6 167.462 40.7833 167.462 40.95C167.328 40.7833 167.162 40.6167 166.962 40.45C166.762 40.3167 166.578 40.15 166.412 39.95H163.812V34.85C163.512 34.5833 163.195 34.35 162.862 34.15C162.528 33.9167 162.178 33.6667 161.812 33.4C161.912 33.3 162.045 33.1667 162.212 33C162.412 32.8333 162.578 32.75 162.712 32.75C162.812 32.75 162.962 32.8333 163.162 33C163.395 33.1667 163.595 33.2833 163.762 33.35L163.812 33.3V33C163.512 32.7333 163.212 32.5 162.912 32.3C162.612 32.1 162.312 31.9 162.012 31.7C162.178 31.6 162.345 31.4833 162.512 31.35C162.678 31.2167 162.828 31.15 162.962 31.15C163.062 31.15 163.178 31.2167 163.312 31.35C163.445 31.45 163.595 31.55 163.762 31.65L163.812 31.6V31.3C163.512 31.1333 163.212 30.95 162.912 30.75C162.612 30.55 162.312 30.35 162.012 30.15V5.7C162.345 5.5 162.645 5.3 162.912 5.1C163.212 4.9 163.512 4.7 163.812 4.5V0.649997H185.362C185.462 0.649997 185.762 0.683331 186.262 0.749999C186.795 0.783332 187.262 0.816664 187.662 0.849997C189.628 0.88333 191.328 1.18333 192.762 1.75C194.228 2.31667 195.428 3.08333 196.362 4.05C197.328 5.01666 198.045 6.15 198.512 7.45C198.978 8.71667 199.212 10.0833 199.212 11.55ZM202.312 39.95H188.712C188.078 38.8167 187.412 37.6333 186.712 36.4C186.045 35.1333 185.378 33.8833 184.712 32.65C184.045 31.4167 183.395 30.25 182.762 29.15C182.162 28.05 181.628 27.0833 181.162 26.25C181.028 25.9833 180.828 25.7167 180.562 25.45C180.295 25.1833 180.045 24.95 179.812 24.75H193.462C193.562 24.75 193.728 24.8833 193.962 25.15C194.228 25.4167 194.445 25.65 194.612 25.85C194.878 26.1833 195.162 26.55 195.462 26.95C195.762 27.3167 196.028 27.7 196.262 28.1C197.328 30.0333 198.345 32 199.312 34C200.312 35.9667 201.312 37.95 202.312 39.95ZM194.612 20.6C193.778 21.1667 192.978 21.5833 192.212 21.85C191.478 22.0833 190.678 22.3333 189.812 22.6C190.278 22.8 190.745 23.0167 191.212 23.25C191.678 23.45 192.145 23.6833 192.612 23.95H163.812V22.35L163.962 22.45H165.462C165.628 22.35 165.712 22.25 165.712 22.15C165.745 22.0167 165.728 21.8833 165.662 21.75C165.628 21.5833 165.578 21.4167 165.512 21.25C165.445 21.05 165.412 20.8333 165.412 20.6H194.612ZM187.012 12.45C187.012 11.6833 186.778 10.9333 186.312 10.2C185.845 9.46667 185.028 9.01667 183.862 8.85C183.695 8.81667 183.545 8.78333 183.412 8.75C183.278 8.68333 183.162 8.65 183.062 8.65H176.012V11.35H170.562C170.462 11.0833 170.362 10.8167 170.262 10.55C170.195 10.2833 170.128 10.0167 170.062 9.75H167.012V11.45C167.312 11.45 167.595 11.45 167.862 11.45C168.162 11.4167 168.445 11.4333 168.712 11.5C168.878 11.6667 168.978 11.9167 169.012 12.25C169.078 12.5833 169.112 12.85 169.112 13.05H175.812C175.945 13.2167 176.012 13.4167 176.012 13.65C176.012 13.85 176.012 14.0167 176.012 14.15C176.012 14.3167 176.012 14.5 176.012 14.7C176.012 14.9 175.945 15.0833 175.812 15.25H169.412V15.8H176.012V16.55H181.862C181.962 16.55 182.145 16.5167 182.412 16.45C182.678 16.3833 182.895 16.3333 183.062 16.3C184.362 16.1333 185.345 15.7167 186.012 15.05C186.678 14.3833 187.012 13.5167 187.012 12.45ZM238.322 39.9H236.722C236.589 39.9333 236.539 39.9333 236.572 39.9C236.639 39.8667 236.639 39.8167 236.572 39.75C236.406 39.6833 236.222 39.6333 236.022 39.6C235.822 39.5333 235.606 39.4833 235.372 39.45C235.139 39.4167 234.872 39.4333 234.572 39.5C234.272 39.5667 233.972 39.5833 233.672 39.55C233.506 39.5167 233.306 39.4833 233.072 39.45C232.872 39.3833 232.706 39.35 232.572 39.35H220.022C219.989 39.35 219.906 39.3667 219.772 39.4C219.672 39.4 219.539 39.4167 219.372 39.45C219.239 39.4833 219.106 39.55 218.972 39.65C218.872 39.7167 218.822 39.8 218.822 39.9H205.272V36.45C205.539 36.45 205.806 36.45 206.072 36.45C206.372 36.45 206.672 36.4333 206.972 36.4C207.072 36.2667 207.189 36.1167 207.322 35.95C207.489 35.75 207.572 35.5833 207.572 35.45V29.15H211.372C211.506 29.0167 211.572 28.9333 211.572 28.9C211.172 28.8333 210.772 28.8 210.372 28.8C209.972 28.8 209.572 28.8 209.172 28.8C209.172 28.7333 209.172 28.6833 209.172 28.65C209.206 28.5833 209.189 28.5167 209.122 28.45C209.056 28.5167 209.022 28.6333 209.022 28.8H207.572V26.45C207.739 26.5167 207.956 26.5667 208.222 26.6C208.489 26.6333 208.706 26.5667 208.872 26.4C208.706 26.2333 208.489 26.1667 208.222 26.2C207.956 26.2 207.739 26.2333 207.572 26.3V21C207.572 20.9 207.506 20.7333 207.372 20.5C207.272 20.2333 207.172 20.0167 207.072 19.85C206.772 19.8167 206.472 19.8167 206.172 19.85C206.172 19.7833 206.206 19.7333 206.272 19.7C206.339 19.6667 206.372 19.6167 206.372 19.55L206.422 19.6C206.422 19.6333 206.456 19.6833 206.522 19.75C206.589 19.6833 206.622 19.6 206.622 19.5C206.622 19.6 206.656 19.6833 206.722 19.75C206.789 19.6833 206.822 19.6 206.822 19.5C206.822 19.6 206.856 19.6833 206.922 19.75C206.989 19.6833 207.022 19.5667 207.022 19.4C207.022 19.4667 207.006 19.5333 206.972 19.6C206.972 19.6333 207.006 19.6833 207.072 19.75C207.206 19.5833 207.239 19.45 207.172 19.35C207.106 19.2167 207.039 19.0833 206.972 18.95C206.939 18.9833 206.922 19.0667 206.922 19.2C206.922 19.1 206.889 19.0167 206.822 18.95C206.756 19.0167 206.722 19.0833 206.722 19.15C206.722 19.1833 206.706 19.2333 206.672 19.3V19C206.606 18.9333 206.522 18.9167 206.422 18.95C206.322 18.95 206.272 18.9167 206.272 18.85C206.206 18.95 206.189 19.0333 206.222 19.1C206.289 19.1667 206.322 19.25 206.322 19.35C206.356 19.25 206.339 19.1667 206.272 19.1C206.239 19.0333 206.189 18.95 206.122 18.85C206.122 18.8833 206.106 18.9 206.072 18.9C206.006 18.9667 205.972 19 205.972 19V18.65H203.372L201.872 13.85H204.072C204.139 13.7833 204.172 13.6167 204.172 13.35C204.239 13.4167 204.306 13.5 204.372 13.6C204.439 13.6667 204.522 13.75 204.622 13.85L205.272 13.75C205.206 13.7167 205.139 13.65 205.072 13.55C205.039 13.45 204.972 13.35 204.872 13.25H205.222V0.749999H206.922C206.822 1.05 206.822 1.28333 206.922 1.45C207.056 1.58333 207.222 1.68333 207.422 1.75C207.656 1.81667 207.889 1.85 208.122 1.85C208.389 1.85 208.572 1.85 208.672 1.85C208.772 1.85 208.972 1.83333 209.272 1.8C209.572 1.76666 209.789 1.75 209.922 1.75C210.056 1.75 210.122 1.78333 210.122 1.85C210.122 1.91667 210.189 1.95 210.322 1.95H218.672C219.072 1.95 219.339 1.86666 219.472 1.7C219.606 1.53333 219.639 1.21667 219.572 0.749999H237.722V9.05H217.422V10.2H219.822C219.756 10.5333 219.706 10.8667 219.672 11.2C219.639 11.5 219.589 11.7833 219.522 12.05H210.622C210.589 12.25 210.622 12.5333 210.722 12.9C210.856 13.2667 211.056 13.6167 211.322 13.95C211.422 13.8167 211.472 13.7 211.472 13.6C211.472 13.5 211.439 13.4 211.372 13.3C211.339 13.2 211.306 13.1167 211.272 13.05C211.239 12.95 211.272 12.85 211.372 12.75H219.422C219.456 12.85 219.456 12.9833 219.422 13.15C219.422 13.2833 219.389 13.5333 219.322 13.9H225.622C225.722 14.1333 225.806 14.3667 225.872 14.6C225.939 14.8333 226.056 15.0833 226.222 15.35H235.022C235.089 15.5167 235.139 15.7 235.172 15.9C235.206 16.0667 235.222 16.2 235.222 16.3L226.422 16.4C226.489 16.5 226.539 16.6 226.572 16.7C226.606 16.7667 226.656 16.85 226.722 16.95L235.972 16.85C235.872 16.5833 235.789 16.3333 235.722 16.1C235.656 15.8667 235.572 15.6167 235.472 15.35H236.222V23.3H217.522C217.456 23.4 217.422 23.5 217.422 23.6H209.022C209.022 24.2667 209.056 24.9167 209.122 25.55C209.189 26.15 209.256 26.7833 209.322 27.45L211.672 27.55C211.672 27.05 211.689 26.55 211.722 26.05C211.756 25.5167 211.739 24.95 211.672 24.35H216.422V27.1H219.922C219.989 27.5333 220.039 28 220.072 28.5C220.139 28.9667 220.289 29.4 220.522 29.8C222.789 29.8333 225.056 29.8667 227.322 29.9C229.622 29.9 231.922 29.9 234.222 29.9H233.522C233.456 30.0667 233.422 30.2333 233.422 30.4C233.422 30.5333 233.389 30.7333 233.322 31C233.389 31 233.589 31.0167 233.922 31.05C234.289 31.05 234.722 31.05 235.222 31.05C235.722 31.05 236.239 31.05 236.772 31.05C237.339 31.0167 237.856 31 238.322 31V32C237.822 31.9 237.256 31.9 236.622 32C236.789 32.2667 237.039 32.3667 237.372 32.3C237.739 32.2333 238.056 32.2167 238.322 32.25V39.9ZM206.572 19.3H206.422V19.05H206.572V19.3ZM206.172 19.4H206.022V19.15H206.172V19.4ZM225.622 15.3C225.622 15.1333 225.606 15 225.572 14.9C225.539 14.8 225.522 14.7167 225.522 14.65H219.472V15.3H225.622ZM236.672 31.7V31.35H236.522V31.7H236.672ZM226.222 16.9C226.156 16.8 226.122 16.7 226.122 16.6C226.122 16.5 226.122 16.4167 226.122 16.35H212.322L211.722 14.55H211.372C211.472 14.9167 211.589 15.3 211.722 15.7C211.856 16.0667 211.972 16.4333 212.072 16.8C212.172 16.8667 212.289 16.9167 212.422 16.95C212.556 16.95 212.656 17 212.722 17.1C212.889 17.4667 213.006 17.8 213.072 18.1H218.222C218.289 18 218.322 17.9167 218.322 17.85C218.356 17.75 218.422 17.6333 218.522 17.5H221.422C221.422 17.3 221.522 17.1 221.722 16.9H226.222ZM219.372 18.1C219.606 18 219.606 17.8833 219.372 17.75V18.1ZM219.122 17.75C219.056 17.75 219.006 17.8 218.972 17.9C218.972 17.9667 218.972 18.0333 218.972 18.1C219.072 18.0333 219.139 17.9667 219.172 17.9C219.206 17.8 219.189 17.75 219.122 17.75ZM218.722 17.75C218.656 17.75 218.589 17.8 218.522 17.9C218.489 18 218.506 18.0833 218.572 18.15C218.672 18.0833 218.739 18 218.772 17.9C218.806 17.8 218.789 17.75 218.722 17.75ZM235.122 39.45V39.3H234.872V39.45H235.122ZM233.222 39.45V39.3H232.972V39.45H233.222ZM216.272 25.55H216.122L216.022 27.5H216.172L216.272 25.55ZM215.972 25.55H215.822L215.722 27.5H215.872L215.972 25.55ZM215.672 25.55H215.522L215.472 27.5H215.622L215.672 25.55ZM215.472 25.55H215.322L215.122 27.5H215.272L215.472 25.55ZM215.172 25.55H215.022L214.922 27.5H215.072L215.172 25.55ZM214.872 25.55H214.722L214.622 27.5H214.772L214.872 25.55ZM214.572 25.55H214.422L214.322 27.5H214.472L214.572 25.55ZM218.722 31C218.656 30.6333 218.622 30.3833 218.622 30.25C218.622 30.1167 218.622 30.0167 218.622 29.95H217.472V31H218.722ZM214.222 25.65C214.222 26.3167 214.172 26.95 214.072 27.55C214.139 27.0833 214.172 26.7167 214.172 26.45C214.206 26.1833 214.222 25.9167 214.222 25.65ZM205.222 18.1V17.05C205.222 17.0167 205.156 16.9333 205.022 16.8C204.922 16.6333 204.789 16.45 204.622 16.25C204.489 16.05 204.356 15.85 204.222 15.65C204.122 15.4167 204.072 15.2333 204.072 15.1C204.072 14.9667 204.072 14.8667 204.072 14.8C204.106 14.7 204.122 14.6167 204.122 14.55H202.472L203.572 18.1H205.222ZM214.072 25.55H213.922L213.722 27.5H213.872L214.072 25.55ZM213.772 25.55H213.622L213.522 27.5H213.672L213.772 25.55ZM213.472 25.55H213.322L213.222 27.5H213.372L213.472 25.55ZM213.172 25.55H213.022L212.922 27.5H213.072L213.172 25.55ZM212.822 25.55C212.822 25.75 212.806 26.0167 212.772 26.35C212.772 26.65 212.739 27.05 212.672 27.55C212.739 27.2833 212.772 26.9667 212.772 26.6C212.806 26.2 212.822 25.85 212.822 25.55ZM212.672 25.55H212.522L212.322 27.5H212.472L212.672 25.55ZM212.372 25.55H212.222L212.122 27.5H212.272L212.372 25.55ZM218.922 32.2V31.9H209.472V32.2H218.922ZM208.972 27.1V26.75H208.822V27.1H208.972ZM209.072 28V27.55H208.922V28H209.072ZM209.272 29.7V29.25H209.122V29.7H209.272ZM209.372 30.5V30.15H209.222V30.5H209.372ZM209.472 31.4V30.95H209.322V31.4H209.472ZM204.822 17.5H203.972V16.35C204.072 16.5167 204.206 16.7 204.372 16.9C204.539 17.1 204.689 17.3 204.822 17.5ZM278.392 10.65C278.392 11.1833 278.325 11.7833 278.192 12.45C278.092 13.1167 277.942 13.65 277.742 14.05H267.542C267.408 14.1833 267.342 14.3167 267.342 14.45H276.292C275.992 14.65 275.625 14.9 275.192 15.2C274.792 15.4667 274.392 15.7333 273.992 16C273.592 16.2667 273.242 16.5 272.942 16.7C272.642 16.8667 272.458 16.95 272.392 16.95H266.642C266.508 17.0833 266.442 17.1833 266.442 17.25H260.092C260.025 17.1833 259.992 17.1333 259.992 17.1C259.992 17.0667 259.958 17.0167 259.892 16.95H243.992V14.55H248.292C248.325 14.45 248.342 14.3833 248.342 14.35C248.375 14.2833 248.325 14.1833 248.192 14.05H243.992V13.65L239.192 13.7C239.058 13.7 238.958 13.5667 238.892 13.3C238.825 13.0333 238.792 12.7333 238.792 12.4C238.758 12.0333 238.775 11.6667 238.842 11.3C238.908 10.9 239.025 10.55 239.192 10.25H243.942V0.949999H250.192V1.8C250.825 1.96666 251.558 2.05 252.392 2.05C253.225 2.05 253.892 2.05 254.392 2.05C254.458 2.05 254.625 2.05 254.892 2.05C255.192 2.01666 255.508 2 255.842 2C256.175 2 256.475 2 256.742 2C257.042 1.96666 257.225 1.95 257.292 1.95C257.392 1.95 257.508 1.96666 257.642 2C257.808 2.03333 257.975 2.08333 258.142 2.15L270.542 2.05C270.742 2.08333 270.892 2.03333 270.992 1.9C271.092 1.76667 271.125 1.61667 271.092 1.45C272.392 1.88333 273.508 2.43333 274.442 3.1C275.375 3.76666 276.125 4.5 276.692 5.3C277.292 6.1 277.725 6.96667 277.992 7.9C278.258 8.8 278.392 9.71667 278.392 10.65ZM280.192 28.95C280.192 30.2833 279.975 31.5833 279.542 32.85C279.108 34.0833 278.442 35.2 277.542 36.2C276.675 37.1667 275.575 37.9667 274.242 38.6C272.942 39.2333 271.408 39.6 269.642 39.7C269.442 39.7 269.125 39.7333 268.692 39.8C268.292 39.8333 267.875 39.8833 267.442 39.95C267.042 39.9833 266.658 40.0167 266.292 40.05C265.958 40.1167 265.758 40.15 265.692 40.15H254.392L252.592 36.05H248.342C248.242 36.2833 248.125 36.55 247.992 36.85C247.858 37.1167 247.742 37.3833 247.642 37.65H243.992V17.65H248.892C248.958 17.5833 248.992 17.5167 248.992 17.45C248.992 17.3833 248.992 17.3167 248.992 17.25H258.742V17.85H252.492C252.592 17.95 252.708 18.0667 252.842 18.2C252.975 18.3 253.108 18.35 253.242 18.35H269.392C269.492 18.35 269.758 18.2 270.192 17.9C270.625 17.5667 271.008 17.3667 271.342 17.3C271.508 17.2333 271.792 17.2333 272.192 17.3C272.592 17.3667 272.925 17.35 273.192 17.25C273.958 16.8833 274.692 16.45 275.392 15.95C276.125 15.4167 276.842 14.95 277.542 14.55C277.342 15.1167 277.025 15.65 276.592 16.15C276.192 16.65 275.725 17.1 275.192 17.5C274.692 17.9 274.175 18.2667 273.642 18.6C273.108 18.9 272.625 19.1167 272.192 19.25V19.3C273.692 19.6333 274.942 20.1333 275.942 20.8C276.975 21.4667 277.808 22.2333 278.442 23.1C279.075 23.9333 279.525 24.8667 279.792 25.9C280.058 26.9 280.192 27.9167 280.192 28.95ZM266.492 12.5C266.492 11.9333 266.375 11.3667 266.142 10.8C265.942 10.2333 265.475 9.76667 264.742 9.4C264.408 9.23333 263.975 9.1 263.442 9C262.942 8.9 262.625 8.85 262.492 8.85H256.192V13.55H266.342C266.408 13.3833 266.442 13.2 266.442 13C266.475 12.8 266.492 12.6333 266.492 12.5ZM259.642 16.25C259.742 16.25 259.742 16.1333 259.642 15.9C259.575 15.6333 259.508 15.4167 259.442 15.25H256.192V16.25H259.642ZM268.092 27.65C268.092 26.9167 267.942 26.3 267.642 25.8C267.342 25.3 266.942 24.9 266.442 24.6C265.975 24.3 265.442 24.0833 264.842 23.95C264.275 23.8167 263.725 23.75 263.192 23.75H256.192V28.05C256.558 27.9833 256.892 28.0167 257.192 28.15C257.192 28.6167 257.208 29.0667 257.242 29.5C257.275 29.9333 257.258 30.35 257.192 30.75H256.192V31.65H264.092C264.392 31.65 264.742 31.5833 265.142 31.45C265.575 31.2833 265.992 31.0833 266.392 30.85C266.792 30.5833 267.142 30.2667 267.442 29.9C267.742 29.5333 267.908 29.1333 267.942 28.7C267.975 28.5333 268.008 28.35 268.042 28.15C268.075 27.95 268.092 27.7833 268.092 27.65ZM252.392 18.25C252.225 18.0833 252.075 17.9667 251.942 17.9H251.092C251.358 18 251.592 18.0833 251.792 18.15C251.992 18.2167 252.192 18.25 252.392 18.25ZM250.892 18.2C250.825 18.1333 250.742 18.0833 250.642 18.05C250.575 17.9833 250.508 17.9333 250.442 17.9H249.392C249.558 18 249.775 18.1 250.042 18.2C250.342 18.2667 250.625 18.2667 250.892 18.2ZM243.942 11.05C243.842 11.2833 243.758 11.55 243.692 11.85C243.625 12.1167 243.592 12.3 243.592 12.4V12.85C243.725 12.55 243.792 12.25 243.792 11.95C243.825 11.6167 243.875 11.3167 243.942 11.05ZM243.592 11.05H243.442L243.242 12.75H243.392L243.592 11.05ZM243.192 11.05C243.025 11.6167 242.942 12.2167 242.942 12.85C243.008 12.55 243.058 12.25 243.092 11.95C243.125 11.6167 243.158 11.3167 243.192 11.05ZM242.842 11.05C242.742 11.2167 242.658 11.45 242.592 11.75C242.525 12.0167 242.492 12.2 242.492 12.3V12.85C242.625 12.55 242.692 12.25 242.692 11.95C242.725 11.6167 242.775 11.3167 242.842 11.05ZM249.392 18.1C249.325 18.0333 249.258 18 249.192 18C249.158 17.9667 249.108 17.9167 249.042 17.85H248.092C248.225 18.0167 248.442 18.1167 248.742 18.15C249.075 18.1833 249.292 18.1667 249.392 18.1ZM242.442 11.05C242.375 11.3167 242.325 11.6 242.292 11.9C242.258 12.2 242.242 12.4833 242.242 12.75C242.308 12.4833 242.358 12.2 242.392 11.9C242.425 11.6 242.442 11.3167 242.442 11.05ZM242.042 11.05C241.975 11.3167 241.925 11.6167 241.892 11.95C241.858 12.25 241.842 12.55 241.842 12.85C241.942 12.4833 241.992 12.15 241.992 11.85C242.025 11.5167 242.042 11.25 242.042 11.05ZM241.742 11.05C241.642 11.2167 241.558 11.4333 241.492 11.7C241.425 11.9667 241.392 12.1667 241.392 12.3V12.85C241.525 12.55 241.608 12.25 241.642 11.95C241.642 11.6167 241.675 11.3167 241.742 11.05ZM241.342 11.05C241.275 11.3167 241.225 11.6167 241.192 11.95C241.158 12.25 241.142 12.55 241.142 12.85C241.208 12.55 241.258 12.25 241.292 11.95C241.325 11.6167 241.342 11.3167 241.342 11.05ZM240.942 11.05C240.875 11.3167 240.825 11.6167 240.792 11.95C240.758 12.25 240.742 12.55 240.742 12.85C240.842 12.5167 240.908 12.1833 240.942 11.85C240.942 11.5167 240.942 11.25 240.942 11.05ZM240.642 11.05C240.542 11.2167 240.458 11.4333 240.392 11.7C240.325 11.9667 240.292 12.1667 240.292 12.3V12.85C240.425 12.55 240.508 12.25 240.542 11.95C240.542 11.6167 240.575 11.3167 240.642 11.05ZM240.242 11.05C240.175 11.3167 240.125 11.6167 240.092 11.95C240.058 12.25 240.042 12.55 240.042 12.85C240.108 12.55 240.158 12.25 240.192 11.95C240.225 11.6167 240.242 11.3167 240.242 11.05ZM239.842 11.05C239.775 11.3167 239.725 11.6167 239.692 11.95C239.658 12.25 239.642 12.55 239.642 12.85C239.742 12.4833 239.808 12.15 239.842 11.85C239.842 11.5167 239.842 11.25 239.842 11.05ZM263.792 30.05H263.242V31.35H262.892V29.75C262.992 29.75 263.108 29.7833 263.242 29.85C263.408 29.9167 263.592 29.9833 263.792 30.05ZM261.242 30.1L257.392 30V29.8L261.242 29.9V30.1ZM317.131 39.9H315.531C315.398 39.9333 315.348 39.9333 315.381 39.9C315.448 39.8667 315.448 39.8167 315.381 39.75C315.214 39.6833 315.031 39.6333 314.831 39.6C314.631 39.5333 314.414 39.4833 314.181 39.45C313.948 39.4167 313.681 39.4333 313.381 39.5C313.081 39.5667 312.781 39.5833 312.481 39.55C312.314 39.5167 312.114 39.4833 311.881 39.45C311.681 39.3833 311.514 39.35 311.381 39.35H298.831C298.798 39.35 298.714 39.3667 298.581 39.4C298.481 39.4 298.348 39.4167 298.181 39.45C298.048 39.4833 297.914 39.55 297.781 39.65C297.681 39.7167 297.631 39.8 297.631 39.9H284.081V36.45C284.348 36.45 284.614 36.45 284.881 36.45C285.181 36.45 285.481 36.4333 285.781 36.4C285.881 36.2667 285.998 36.1167 286.131 35.95C286.298 35.75 286.381 35.5833 286.381 35.45V29.15H290.181C290.314 29.0167 290.381 28.9333 290.381 28.9C289.981 28.8333 289.581 28.8 289.181 28.8C288.781 28.8 288.381 28.8 287.981 28.8C287.981 28.7333 287.981 28.6833 287.981 28.65C288.014 28.5833 287.998 28.5167 287.931 28.45C287.864 28.5167 287.831 28.6333 287.831 28.8H286.381V26.45C286.548 26.5167 286.764 26.5667 287.031 26.6C287.298 26.6333 287.514 26.5667 287.681 26.4C287.514 26.2333 287.298 26.1667 287.031 26.2C286.764 26.2 286.548 26.2333 286.381 26.3V21C286.381 20.9 286.314 20.7333 286.181 20.5C286.081 20.2333 285.981 20.0167 285.881 19.85C285.581 19.8167 285.281 19.8167 284.981 19.85C284.981 19.7833 285.014 19.7333 285.081 19.7C285.148 19.6667 285.181 19.6167 285.181 19.55L285.231 19.6C285.231 19.6333 285.264 19.6833 285.331 19.75C285.398 19.6833 285.431 19.6 285.431 19.5C285.431 19.6 285.464 19.6833 285.531 19.75C285.598 19.6833 285.631 19.6 285.631 19.5C285.631 19.6 285.664 19.6833 285.731 19.75C285.798 19.6833 285.831 19.5667 285.831 19.4C285.831 19.4667 285.814 19.5333 285.781 19.6C285.781 19.6333 285.814 19.6833 285.881 19.75C286.014 19.5833 286.048 19.45 285.981 19.35C285.914 19.2167 285.848 19.0833 285.781 18.95C285.748 18.9833 285.731 19.0667 285.731 19.2C285.731 19.1 285.698 19.0167 285.631 18.95C285.564 19.0167 285.531 19.0833 285.531 19.15C285.531 19.1833 285.514 19.2333 285.481 19.3V19C285.414 18.9333 285.331 18.9167 285.231 18.95C285.131 18.95 285.081 18.9167 285.081 18.85C285.014 18.95 284.998 19.0333 285.031 19.1C285.098 19.1667 285.131 19.25 285.131 19.35C285.164 19.25 285.148 19.1667 285.081 19.1C285.048 19.0333 284.998 18.95 284.931 18.85C284.931 18.8833 284.914 18.9 284.881 18.9C284.814 18.9667 284.781 19 284.781 19V18.65H282.181L280.681 13.85H282.881C282.948 13.7833 282.981 13.6167 282.981 13.35C283.048 13.4167 283.114 13.5 283.181 13.6C283.248 13.6667 283.331 13.75 283.431 13.85L284.081 13.75C284.014 13.7167 283.948 13.65 283.881 13.55C283.848 13.45 283.781 13.35 283.681 13.25H284.031V0.749999H285.731C285.631 1.05 285.631 1.28333 285.731 1.45C285.864 1.58333 286.031 1.68333 286.231 1.75C286.464 1.81667 286.698 1.85 286.931 1.85C287.198 1.85 287.381 1.85 287.481 1.85C287.581 1.85 287.781 1.83333 288.081 1.8C288.381 1.76666 288.598 1.75 288.731 1.75C288.864 1.75 288.931 1.78333 288.931 1.85C288.931 1.91667 288.998 1.95 289.131 1.95H297.481C297.881 1.95 298.148 1.86666 298.281 1.7C298.414 1.53333 298.448 1.21667 298.381 0.749999H316.531V9.05H296.231V10.2H298.631C298.564 10.5333 298.514 10.8667 298.481 11.2C298.448 11.5 298.398 11.7833 298.331 12.05H289.431C289.398 12.25 289.431 12.5333 289.531 12.9C289.664 13.2667 289.864 13.6167 290.131 13.95C290.231 13.8167 290.281 13.7 290.281 13.6C290.281 13.5 290.248 13.4 290.181 13.3C290.148 13.2 290.114 13.1167 290.081 13.05C290.048 12.95 290.081 12.85 290.181 12.75H298.231C298.264 12.85 298.264 12.9833 298.231 13.15C298.231 13.2833 298.198 13.5333 298.131 13.9H304.431C304.531 14.1333 304.614 14.3667 304.681 14.6C304.748 14.8333 304.864 15.0833 305.031 15.35H313.831C313.898 15.5167 313.948 15.7 313.981 15.9C314.014 16.0667 314.031 16.2 314.031 16.3L305.231 16.4C305.298 16.5 305.348 16.6 305.381 16.7C305.414 16.7667 305.464 16.85 305.531 16.95L314.781 16.85C314.681 16.5833 314.598 16.3333 314.531 16.1C314.464 15.8667 314.381 15.6167 314.281 15.35H315.031V23.3H296.331C296.264 23.4 296.231 23.5 296.231 23.6H287.831C287.831 24.2667 287.864 24.9167 287.931 25.55C287.998 26.15 288.064 26.7833 288.131 27.45L290.481 27.55C290.481 27.05 290.498 26.55 290.531 26.05C290.564 25.5167 290.548 24.95 290.481 24.35H295.231V27.1H298.731C298.798 27.5333 298.848 28 298.881 28.5C298.948 28.9667 299.098 29.4 299.331 29.8C301.598 29.8333 303.864 29.8667 306.131 29.9C308.431 29.9 310.731 29.9 313.031 29.9H312.331C312.264 30.0667 312.231 30.2333 312.231 30.4C312.231 30.5333 312.198 30.7333 312.131 31C312.198 31 312.398 31.0167 312.731 31.05C313.098 31.05 313.531 31.05 314.031 31.05C314.531 31.05 315.048 31.05 315.581 31.05C316.148 31.0167 316.664 31 317.131 31V32C316.631 31.9 316.064 31.9 315.431 32C315.598 32.2667 315.848 32.3667 316.181 32.3C316.548 32.2333 316.864 32.2167 317.131 32.25V39.9ZM285.381 19.3H285.231V19.05H285.381V19.3ZM284.981 19.4H284.831V19.15H284.981V19.4ZM304.431 15.3C304.431 15.1333 304.414 15 304.381 14.9C304.348 14.8 304.331 14.7167 304.331 14.65H298.281V15.3H304.431ZM315.481 31.7V31.35H315.331V31.7H315.481ZM305.031 16.9C304.964 16.8 304.931 16.7 304.931 16.6C304.931 16.5 304.931 16.4167 304.931 16.35H291.131L290.531 14.55H290.181C290.281 14.9167 290.398 15.3 290.531 15.7C290.664 16.0667 290.781 16.4333 290.881 16.8C290.981 16.8667 291.098 16.9167 291.231 16.95C291.364 16.95 291.464 17 291.531 17.1C291.698 17.4667 291.814 17.8 291.881 18.1H297.031C297.098 18 297.131 17.9167 297.131 17.85C297.164 17.75 297.231 17.6333 297.331 17.5H300.231C300.231 17.3 300.331 17.1 300.531 16.9H305.031ZM298.181 18.1C298.414 18 298.414 17.8833 298.181 17.75V18.1ZM297.931 17.75C297.864 17.75 297.814 17.8 297.781 17.9C297.781 17.9667 297.781 18.0333 297.781 18.1C297.881 18.0333 297.948 17.9667 297.981 17.9C298.014 17.8 297.998 17.75 297.931 17.75ZM297.531 17.75C297.464 17.75 297.398 17.8 297.331 17.9C297.298 18 297.314 18.0833 297.381 18.15C297.481 18.0833 297.548 18 297.581 17.9C297.614 17.8 297.598 17.75 297.531 17.75ZM313.931 39.45V39.3H313.681V39.45H313.931ZM312.031 39.45V39.3H311.781V39.45H312.031ZM295.081 25.55H294.931L294.831 27.5H294.981L295.081 25.55ZM294.781 25.55H294.631L294.531 27.5H294.681L294.781 25.55ZM294.481 25.55H294.331L294.281 27.5H294.431L294.481 25.55ZM294.281 25.55H294.131L293.931 27.5H294.081L294.281 25.55ZM293.981 25.55H293.831L293.731 27.5H293.881L293.981 25.55ZM293.681 25.55H293.531L293.431 27.5H293.581L293.681 25.55ZM293.381 25.55H293.231L293.131 27.5H293.281L293.381 25.55ZM297.531 31C297.464 30.6333 297.431 30.3833 297.431 30.25C297.431 30.1167 297.431 30.0167 297.431 29.95H296.281V31H297.531ZM293.031 25.65C293.031 26.3167 292.981 26.95 292.881 27.55C292.948 27.0833 292.981 26.7167 292.981 26.45C293.014 26.1833 293.031 25.9167 293.031 25.65ZM284.031 18.1V17.05C284.031 17.0167 283.964 16.9333 283.831 16.8C283.731 16.6333 283.598 16.45 283.431 16.25C283.298 16.05 283.164 15.85 283.031 15.65C282.931 15.4167 282.881 15.2333 282.881 15.1C282.881 14.9667 282.881 14.8667 282.881 14.8C282.914 14.7 282.931 14.6167 282.931 14.55H281.281L282.381 18.1H284.031ZM292.881 25.55H292.731L292.531 27.5H292.681L292.881 25.55ZM292.581 25.55H292.431L292.331 27.5H292.481L292.581 25.55ZM292.281 25.55H292.131L292.031 27.5H292.181L292.281 25.55ZM291.981 25.55H291.831L291.731 27.5H291.881L291.981 25.55ZM291.631 25.55C291.631 25.75 291.614 26.0167 291.581 26.35C291.581 26.65 291.548 27.05 291.481 27.55C291.548 27.2833 291.581 26.9667 291.581 26.6C291.614 26.2 291.631 25.85 291.631 25.55ZM291.481 25.55H291.331L291.131 27.5H291.281L291.481 25.55ZM291.181 25.55H291.031L290.931 27.5H291.081L291.181 25.55ZM297.731 32.2V31.9H288.281V32.2H297.731ZM287.781 27.1V26.75H287.631V27.1H287.781ZM287.881 28V27.55H287.731V28H287.881ZM288.081 29.7V29.25H287.931V29.7H288.081ZM288.181 30.5V30.15H288.031V30.5H288.181ZM288.281 31.4V30.95H288.131V31.4H288.281ZM283.631 17.5H282.781V16.35C282.881 16.5167 283.014 16.7 283.181 16.9C283.348 17.1 283.498 17.3 283.631 17.5ZM323.379 15.25C323.412 15.3833 323.362 15.5167 323.229 15.65C323.129 15.7833 323.029 15.9 322.929 16V14.8C323.062 14.9333 323.162 15 323.229 15C323.162 14.5333 323.162 14.0667 323.229 13.6C323.329 13.1333 323.379 12.6167 323.379 12.05V15.25ZM322.879 24.5C322.712 24.6667 322.479 24.9 322.179 25.2C321.912 25.4667 321.829 25.7333 321.929 26C322.229 25.8 322.479 25.5667 322.679 25.3C322.879 25.0333 322.945 24.7667 322.879 24.5ZM322.879 25.4C322.645 25.7 322.412 25.9167 322.179 26.05C321.945 26.15 321.862 26.4333 321.929 26.9C322.162 26.7 322.412 26.4667 322.679 26.2C322.945 25.9333 323.012 25.6667 322.879 25.4ZM354.979 40.15H323.929V38.95C323.695 38.8833 323.429 38.8667 323.129 38.9C322.862 38.9 322.612 38.8833 322.379 38.85C322.245 38.6833 322.062 38.4333 321.829 38.1C321.629 37.7667 321.529 37.5333 321.529 37.4V30.7C321.795 30.4333 322.045 30.1667 322.279 29.9C322.512 29.6 322.762 29.2667 323.029 28.9L322.929 27.7C322.829 27.8 322.679 27.95 322.479 28.15C322.312 28.3167 322.129 28.4667 321.929 28.6V28.15C321.929 28.0167 322.062 27.8333 322.329 27.6C322.629 27.3667 322.862 27.15 323.029 26.95V26.9C323.029 26.8667 323.012 26.8333 322.979 26.8C322.879 26.9667 322.729 27.1333 322.529 27.3C322.329 27.4333 322.129 27.6 321.929 27.8C321.829 27.4333 321.895 27.1667 322.129 27C322.362 26.8 322.612 26.5667 322.879 26.3C322.879 26.3667 322.862 26.4167 322.829 26.45C322.829 26.4833 322.862 26.5333 322.929 26.6V18V24.05C322.862 24.2167 322.729 24.3833 322.529 24.55C322.329 24.7167 322.129 24.85 321.929 24.95V24.5C322.095 24.3667 322.262 24.2 322.429 24C322.595 23.8 322.729 23.6 322.829 23.4L322.729 11.4L322.979 11.6H323.029C323.062 11.6 323.095 11.5833 323.129 11.55C323.029 11.4167 322.929 11.3167 322.829 11.25C322.762 11.1833 322.695 11.1 322.629 11C322.762 11.1333 322.895 11.1667 323.029 11.1L322.629 10.7L322.879 10.9H322.929C322.962 10.9 322.995 10.8833 323.029 10.85L322.629 10.4L322.879 10.6H322.929C322.962 10.6 322.995 10.5833 323.029 10.55L322.629 10.1L322.879 10.3H322.929C322.962 10.3 322.995 10.2833 323.029 10.25L322.629 9.85V8C322.862 8.13333 322.995 8.28333 323.029 8.45C323.095 8.61666 323.129 8.8 323.129 9C323.129 9.16667 323.112 9.35 323.079 9.55C323.079 9.71667 323.129 9.86667 323.229 10C323.295 9.86667 323.329 9.73333 323.329 9.6C323.329 9.43333 323.329 9.28333 323.329 9.15C323.329 8.85 323.312 8.66666 323.279 8.6C323.245 8.5 323.195 8.43333 323.129 8.4C323.095 8.33333 323.029 8.26667 322.929 8.2C322.862 8.1 322.762 7.91666 322.629 7.65C322.529 7.48333 322.462 7.26667 322.429 7C322.429 6.73333 322.429 6.46666 322.429 6.2C322.462 5.93333 322.479 5.7 322.479 5.5C322.512 5.3 322.529 5.16667 322.529 5.1C322.529 4.73333 322.562 4.4 322.629 4.1C322.695 3.76666 323.095 3.56666 323.829 3.5C323.929 2.66666 323.929 1.83333 323.829 0.999998H336.079V3.75H331.879C331.679 4.51667 331.512 5.3 331.379 6.1C331.279 6.86667 331.145 7.66666 330.979 8.5H327.179V9.25H336.079V10.5C336.245 10.5667 336.412 10.6 336.579 10.6C336.779 10.6 337.079 10.5667 337.479 10.5V17.8L337.429 13.05C337.229 12.9833 337.012 12.9667 336.779 13C336.579 13.0333 336.379 13.05 336.179 13.05V27.3L337.229 27.4V22.9C337.262 24.2 337.262 25.4667 337.229 26.7C337.229 27.9 337.145 29.1333 336.979 30.4C336.979 30.4333 336.995 30.4667 337.029 30.5C337.095 30.5667 337.162 30.6 337.229 30.6H354.979V40.15ZM337.429 22.55H337.279V18H337.429V22.55ZM321.329 31L321.229 34.65H321.079L321.179 31H321.329ZM340.879 35C339.979 35 339.262 35 338.729 35C338.229 35 337.845 35 337.579 35C337.312 35 337.145 35.0167 337.079 35.05C337.012 35.05 336.962 35.0667 336.929 35.1C336.929 35.2667 336.929 35.4167 336.929 35.55C336.929 35.6833 336.895 35.8333 336.829 36H335.779C335.712 35.8333 335.679 35.6833 335.679 35.55C335.679 35.4167 335.679 35.3 335.679 35.2C335.612 35.2 335.529 35.1833 335.429 35.15C335.329 35.1167 335.279 35.0667 335.279 35H328.179C328.079 34.7333 327.979 34.4667 327.879 34.2C327.812 33.9333 327.745 33.6667 327.679 33.4H327.229V33.9C327.229 34.0333 327.262 34.15 327.329 34.25C327.395 34.35 327.445 34.45 327.479 34.55C327.512 34.9167 327.529 35.2833 327.529 35.65C327.529 35.9833 327.529 36.3333 327.529 36.7H334.829C334.895 37.0667 334.962 37.4333 335.029 37.8C335.095 38.1667 335.162 38.4833 335.229 38.75H339.979C340.179 37.45 340.479 36.2 340.879 35ZM334.279 39.25V38.8H327.129L327.029 39.25H334.279Z" fill="white"/>
</svg>
