<svg width="508" height="47" viewBox="0 0 508 47" fill="none" xmlns="http://www.w3.org/2000/svg">
<path opacity="0.2" d="M37.45 12.55C37.45 12.6833 37.4167 13.0333 37.35 13.6C37.3167 14.1667 37.2667 14.6333 37.2 15C37.1333 15.4 37 15.8833 36.8 16.45C36.6333 16.9833 36.4333 17.4833 36.2 17.95C36.1 18.1167 35.9667 18.3333 35.8 18.6C35.6333 18.8667 35.4667 19.1167 35.3 19.35C35.1667 19.5167 34.9833 19.7333 34.75 20C34.5167 20.2333 34.2833 20.4667 34.05 20.7C33.85 20.9 33.65 21.0833 33.45 21.25C33.2833 21.3833 33.1667 21.45 33.1 21.45H3.55C3.48333 21.25 3.43333 21 3.4 20.7C3.36667 20.3667 3.3 20.0833 3.2 19.85C3.13333 19.5833 3.01667 19.3833 2.85 19.25C2.68333 19.1167 2.41667 19.1167 2.05 19.25L1.95 16.15C1.85 16.2167 1.76667 16.2667 1.7 16.3C1.63333 16.3333 1.55 16.3833 1.45 16.45V30.6C1.58333 30.7333 1.76667 30.85 2 30.95V25.75H14.25V40.9H5.8C5.73333 41.0667 5.7 41.2333 5.7 41.4C5.7 41.6 5.7 41.7833 5.7 41.95C5.56667 41.7833 5.4 41.6167 5.2 41.45C5 41.3167 4.81667 41.15 4.65 40.95H2.05V35.85C1.75 35.5833 1.43333 35.35 1.1 35.15C0.766667 34.9167 0.416667 34.6667 0.0500001 34.4C0.15 34.3 0.283333 34.1667 0.45 34C0.65 33.8333 0.816667 33.75 0.95 33.75C1.05 33.75 1.2 33.8333 1.4 34C1.63333 34.1667 1.83333 34.2833 2 34.35L2.05 34.3V34C1.75 33.7333 1.45 33.5 1.15 33.3C0.85 33.1 0.55 32.9 0.25 32.7C0.416667 32.6 0.583333 32.4833 0.75 32.35C0.916667 32.2167 1.06667 32.15 1.2 32.15C1.3 32.15 1.41667 32.2167 1.55 32.35C1.68333 32.45 1.83333 32.55 2 32.65L2.05 32.6V32.3C1.75 32.1333 1.45 31.95 1.15 31.75C0.85 31.55 0.55 31.35 0.25 31.15V6.7C0.583333 6.5 0.883333 6.3 1.15 6.1C1.45 5.9 1.75 5.7 2.05 5.5V1.65H23.6C23.7 1.65 24 1.68333 24.5 1.75C25.0333 1.78333 25.5 1.81666 25.9 1.85C27.8667 1.88333 29.5667 2.18333 31 2.75C32.4667 3.31667 33.6667 4.08333 34.6 5.05C35.5667 6.01666 36.2833 7.15 36.75 8.45C37.2167 9.71667 37.45 11.0833 37.45 12.55ZM40.55 40.95H26.95C26.3167 39.8167 25.65 38.6333 24.95 37.4C24.2833 36.1333 23.6167 34.8833 22.95 33.65C22.2833 32.4167 21.6333 31.25 21 30.15C20.4 29.05 19.8667 28.0833 19.4 27.25C19.2667 26.9833 19.0667 26.7167 18.8 26.45C18.5333 26.1833 18.2833 25.95 18.05 25.75H31.7C31.8 25.75 31.9667 25.8833 32.2 26.15C32.4667 26.4167 32.6833 26.65 32.85 26.85C33.1167 27.1833 33.4 27.55 33.7 27.95C34 28.3167 34.2667 28.7 34.5 29.1C35.5667 31.0333 36.5833 33 37.55 35C38.55 36.9667 39.55 38.95 40.55 40.95ZM32.85 21.6C32.0167 22.1667 31.2167 22.5833 30.45 22.85C29.7167 23.0833 28.9167 23.3333 28.05 23.6C28.5167 23.8 28.9833 24.0167 29.45 24.25C29.9167 24.45 30.3833 24.6833 30.85 24.95H2.05V23.35L2.2 23.45H3.7C3.86667 23.35 3.95 23.25 3.95 23.15C3.98333 23.0167 3.96667 22.8833 3.9 22.75C3.86667 22.5833 3.81667 22.4167 3.75 22.25C3.68333 22.05 3.65 21.8333 3.65 21.6H32.85ZM25.25 13.45C25.25 12.6833 25.0167 11.9333 24.55 11.2C24.0833 10.4667 23.2667 10.0167 22.1 9.85C21.9333 9.81667 21.7833 9.78333 21.65 9.75C21.5167 9.68333 21.4 9.65 21.3 9.65H14.25V12.35H8.8C8.7 12.0833 8.6 11.8167 8.5 11.55C8.43333 11.2833 8.36667 11.0167 8.3 10.75H5.25V12.45C5.55 12.45 5.83333 12.45 6.1 12.45C6.4 12.4167 6.68333 12.4333 6.95 12.5C7.11667 12.6667 7.21667 12.9167 7.25 13.25C7.31667 13.5833 7.35 13.85 7.35 14.05H14.05C14.1833 14.2167 14.25 14.4167 14.25 14.65C14.25 14.85 14.25 15.0167 14.25 15.15C14.25 15.3167 14.25 15.5 14.25 15.7C14.25 15.9 14.1833 16.0833 14.05 16.25H7.65V16.8H14.25V17.55H20.1C20.2 17.55 20.3833 17.5167 20.65 17.45C20.9167 17.3833 21.1333 17.3333 21.3 17.3C22.6 17.1333 23.5833 16.7167 24.25 16.05C24.9167 15.3833 25.25 14.5167 25.25 13.45ZM76.5605 40.9H74.9605C74.8272 40.9333 74.7772 40.9333 74.8105 40.9C74.8772 40.8667 74.8772 40.8167 74.8105 40.75C74.6439 40.6833 74.4605 40.6333 74.2605 40.6C74.0605 40.5333 73.8439 40.4833 73.6105 40.45C73.3772 40.4167 73.1105 40.4333 72.8105 40.5C72.5105 40.5667 72.2105 40.5833 71.9105 40.55C71.7439 40.5167 71.5439 40.4833 71.3105 40.45C71.1105 40.3833 70.9439 40.35 70.8105 40.35H58.2605C58.2272 40.35 58.1439 40.3667 58.0105 40.4C57.9105 40.4 57.7772 40.4167 57.6105 40.45C57.4772 40.4833 57.3439 40.55 57.2105 40.65C57.1105 40.7167 57.0605 40.8 57.0605 40.9H43.5105V37.45C43.7772 37.45 44.0439 37.45 44.3105 37.45C44.6105 37.45 44.9105 37.4333 45.2105 37.4C45.3105 37.2667 45.4272 37.1167 45.5605 36.95C45.7272 36.75 45.8105 36.5833 45.8105 36.45V30.15H49.6105C49.7439 30.0167 49.8105 29.9333 49.8105 29.9C49.4105 29.8333 49.0105 29.8 48.6105 29.8C48.2105 29.8 47.8105 29.8 47.4105 29.8C47.4105 29.7333 47.4105 29.6833 47.4105 29.65C47.4439 29.5833 47.4272 29.5167 47.3605 29.45C47.2939 29.5167 47.2605 29.6333 47.2605 29.8H45.8105V27.45C45.9772 27.5167 46.1939 27.5667 46.4605 27.6C46.7272 27.6333 46.9439 27.5667 47.1105 27.4C46.9439 27.2333 46.7272 27.1667 46.4605 27.2C46.1939 27.2 45.9772 27.2333 45.8105 27.3V22C45.8105 21.9 45.7439 21.7333 45.6105 21.5C45.5105 21.2333 45.4105 21.0167 45.3105 20.85C45.0105 20.8167 44.7105 20.8167 44.4105 20.85C44.4105 20.7833 44.4439 20.7333 44.5105 20.7C44.5772 20.6667 44.6105 20.6167 44.6105 20.55L44.6605 20.6C44.6605 20.6333 44.6939 20.6833 44.7605 20.75C44.8272 20.6833 44.8605 20.6 44.8605 20.5C44.8605 20.6 44.8939 20.6833 44.9605 20.75C45.0272 20.6833 45.0605 20.6 45.0605 20.5C45.0605 20.6 45.0939 20.6833 45.1605 20.75C45.2272 20.6833 45.2605 20.5667 45.2605 20.4C45.2605 20.4667 45.2439 20.5333 45.2105 20.6C45.2105 20.6333 45.2439 20.6833 45.3105 20.75C45.4439 20.5833 45.4772 20.45 45.4105 20.35C45.3439 20.2167 45.2772 20.0833 45.2105 19.95C45.1772 19.9833 45.1605 20.0667 45.1605 20.2C45.1605 20.1 45.1272 20.0167 45.0605 19.95C44.9939 20.0167 44.9605 20.0833 44.9605 20.15C44.9605 20.1833 44.9439 20.2333 44.9105 20.3V20C44.8439 19.9333 44.7605 19.9167 44.6605 19.95C44.5605 19.95 44.5105 19.9167 44.5105 19.85C44.4439 19.95 44.4272 20.0333 44.4605 20.1C44.5272 20.1667 44.5605 20.25 44.5605 20.35C44.5939 20.25 44.5772 20.1667 44.5105 20.1C44.4772 20.0333 44.4272 19.95 44.3605 19.85C44.3605 19.8833 44.3439 19.9 44.3105 19.9C44.2439 19.9667 44.2105 20 44.2105 20V19.65H41.6105L40.1105 14.85H42.3105C42.3772 14.7833 42.4105 14.6167 42.4105 14.35C42.4772 14.4167 42.5439 14.5 42.6105 14.6C42.6772 14.6667 42.7605 14.75 42.8605 14.85L43.5105 14.75C43.4439 14.7167 43.3772 14.65 43.3105 14.55C43.2772 14.45 43.2105 14.35 43.1105 14.25H43.4605V1.75H45.1605C45.0605 2.05 45.0605 2.28333 45.1605 2.45C45.2939 2.58333 45.4605 2.68333 45.6605 2.75C45.8939 2.81667 46.1272 2.85 46.3605 2.85C46.6272 2.85 46.8105 2.85 46.9105 2.85C47.0105 2.85 47.2105 2.83333 47.5105 2.8C47.8105 2.76666 48.0272 2.75 48.1605 2.75C48.2939 2.75 48.3605 2.78333 48.3605 2.85C48.3605 2.91667 48.4272 2.95 48.5605 2.95H56.9105C57.3105 2.95 57.5772 2.86666 57.7105 2.7C57.8439 2.53333 57.8772 2.21667 57.8105 1.75H75.9605V10.05H55.6605V11.2H58.0605C57.9939 11.5333 57.9439 11.8667 57.9105 12.2C57.8772 12.5 57.8272 12.7833 57.7605 13.05H48.8605C48.8272 13.25 48.8605 13.5333 48.9605 13.9C49.0939 14.2667 49.2939 14.6167 49.5605 14.95C49.6605 14.8167 49.7105 14.7 49.7105 14.6C49.7105 14.5 49.6772 14.4 49.6105 14.3C49.5772 14.2 49.5439 14.1167 49.5105 14.05C49.4772 13.95 49.5105 13.85 49.6105 13.75H57.6605C57.6939 13.85 57.6939 13.9833 57.6605 14.15C57.6605 14.2833 57.6272 14.5333 57.5605 14.9H63.8605C63.9605 15.1333 64.0439 15.3667 64.1105 15.6C64.1772 15.8333 64.2939 16.0833 64.4605 16.35H73.2605C73.3272 16.5167 73.3772 16.7 73.4105 16.9C73.4439 17.0667 73.4605 17.2 73.4605 17.3L64.6605 17.4C64.7272 17.5 64.7772 17.6 64.8105 17.7C64.8439 17.7667 64.8939 17.85 64.9605 17.95L74.2105 17.85C74.1105 17.5833 74.0272 17.3333 73.9605 17.1C73.8939 16.8667 73.8105 16.6167 73.7105 16.35H74.4605V24.3H55.7605C55.6939 24.4 55.6605 24.5 55.6605 24.6H47.2605C47.2605 25.2667 47.2939 25.9167 47.3605 26.55C47.4272 27.15 47.4939 27.7833 47.5605 28.45L49.9105 28.55C49.9105 28.05 49.9272 27.55 49.9605 27.05C49.9939 26.5167 49.9772 25.95 49.9105 25.35H54.6605V28.1H58.1605C58.2272 28.5333 58.2772 29 58.3105 29.5C58.3772 29.9667 58.5272 30.4 58.7605 30.8C61.0272 30.8333 63.2939 30.8667 65.5605 30.9C67.8605 30.9 70.1605 30.9 72.4605 30.9H71.7605C71.6939 31.0667 71.6605 31.2333 71.6605 31.4C71.6605 31.5333 71.6272 31.7333 71.5605 32C71.6272 32 71.8272 32.0167 72.1605 32.05C72.5272 32.05 72.9605 32.05 73.4605 32.05C73.9605 32.05 74.4772 32.05 75.0105 32.05C75.5772 32.0167 76.0939 32 76.5605 32V33C76.0605 32.9 75.4939 32.9 74.8605 33C75.0272 33.2667 75.2772 33.3667 75.6105 33.3C75.9772 33.2333 76.2939 33.2167 76.5605 33.25V40.9ZM44.8105 20.3H44.6605V20.05H44.8105V20.3ZM44.4105 20.4H44.2605V20.15H44.4105V20.4ZM63.8605 16.3C63.8605 16.1333 63.8439 16 63.8105 15.9C63.7772 15.8 63.7605 15.7167 63.7605 15.65H57.7105V16.3H63.8605ZM74.9105 32.7V32.35H74.7605V32.7H74.9105ZM64.4605 17.9C64.3939 17.8 64.3605 17.7 64.3605 17.6C64.3605 17.5 64.3605 17.4167 64.3605 17.35H50.5605L49.9605 15.55H49.6105C49.7105 15.9167 49.8272 16.3 49.9605 16.7C50.0939 17.0667 50.2105 17.4333 50.3105 17.8C50.4105 17.8667 50.5272 17.9167 50.6605 17.95C50.7939 17.95 50.8939 18 50.9605 18.1C51.1272 18.4667 51.2439 18.8 51.3105 19.1H56.4605C56.5272 19 56.5605 18.9167 56.5605 18.85C56.5939 18.75 56.6605 18.6333 56.7605 18.5H59.6605C59.6605 18.3 59.7605 18.1 59.9605 17.9H64.4605ZM57.6105 19.1C57.8439 19 57.8439 18.8833 57.6105 18.75V19.1ZM57.3605 18.75C57.2939 18.75 57.2439 18.8 57.2105 18.9C57.2105 18.9667 57.2105 19.0333 57.2105 19.1C57.3105 19.0333 57.3772 18.9667 57.4105 18.9C57.4439 18.8 57.4272 18.75 57.3605 18.75ZM56.9605 18.75C56.8939 18.75 56.8272 18.8 56.7605 18.9C56.7272 19 56.7439 19.0833 56.8105 19.15C56.9105 19.0833 56.9772 19 57.0105 18.9C57.0439 18.8 57.0272 18.75 56.9605 18.75ZM73.3605 40.45V40.3H73.1105V40.45H73.3605ZM71.4605 40.45V40.3H71.2105V40.45H71.4605ZM54.5105 26.55H54.3605L54.2605 28.5H54.4105L54.5105 26.55ZM54.2105 26.55H54.0605L53.9605 28.5H54.1105L54.2105 26.55ZM53.9105 26.55H53.7605L53.7105 28.5H53.8605L53.9105 26.55ZM53.7105 26.55H53.5605L53.3605 28.5H53.5105L53.7105 26.55ZM53.4105 26.55H53.2605L53.1605 28.5H53.3105L53.4105 26.55ZM53.1105 26.55H52.9605L52.8605 28.5H53.0105L53.1105 26.55ZM52.8105 26.55H52.6605L52.5605 28.5H52.7105L52.8105 26.55ZM56.9605 32C56.8939 31.6333 56.8605 31.3833 56.8605 31.25C56.8605 31.1167 56.8605 31.0167 56.8605 30.95H55.7105V32H56.9605ZM52.4605 26.65C52.4605 27.3167 52.4105 27.95 52.3105 28.55C52.3772 28.0833 52.4105 27.7167 52.4105 27.45C52.4439 27.1833 52.4605 26.9167 52.4605 26.65ZM43.4605 19.1V18.05C43.4605 18.0167 43.3939 17.9333 43.2605 17.8C43.1605 17.6333 43.0272 17.45 42.8605 17.25C42.7272 17.05 42.5939 16.85 42.4605 16.65C42.3605 16.4167 42.3105 16.2333 42.3105 16.1C42.3105 15.9667 42.3105 15.8667 42.3105 15.8C42.3439 15.7 42.3605 15.6167 42.3605 15.55H40.7105L41.8105 19.1H43.4605ZM52.3105 26.55H52.1605L51.9605 28.5H52.1105L52.3105 26.55ZM52.0105 26.55H51.8605L51.7605 28.5H51.9105L52.0105 26.55ZM51.7105 26.55H51.5605L51.4605 28.5H51.6105L51.7105 26.55ZM51.4105 26.55H51.2605L51.1605 28.5H51.3105L51.4105 26.55ZM51.0605 26.55C51.0605 26.75 51.0439 27.0167 51.0105 27.35C51.0105 27.65 50.9772 28.05 50.9105 28.55C50.9772 28.2833 51.0105 27.9667 51.0105 27.6C51.0439 27.2 51.0605 26.85 51.0605 26.55ZM50.9105 26.55H50.7605L50.5605 28.5H50.7105L50.9105 26.55ZM50.6105 26.55H50.4605L50.3605 28.5H50.5105L50.6105 26.55ZM57.1605 33.2V32.9H47.7105V33.2H57.1605ZM47.2105 28.1V27.75H47.0605V28.1H47.2105ZM47.3105 29V28.55H47.1605V29H47.3105ZM47.5105 30.7V30.25H47.3605V30.7H47.5105ZM47.6105 31.5V31.15H47.4605V31.5H47.6105ZM47.7105 32.4V31.95H47.5605V32.4H47.7105ZM43.0605 18.5H42.2105V17.35C42.3105 17.5167 42.4439 17.7 42.6105 17.9C42.7772 18.1 42.9272 18.3 43.0605 18.5ZM116.63 11.65C116.63 12.1833 116.563 12.7833 116.43 13.45C116.33 14.1167 116.18 14.65 115.98 15.05H105.78C105.647 15.1833 105.58 15.3167 105.58 15.45H114.53C114.23 15.65 113.863 15.9 113.43 16.2C113.03 16.4667 112.63 16.7333 112.23 17C111.83 17.2667 111.48 17.5 111.18 17.7C110.88 17.8667 110.697 17.95 110.63 17.95H104.88C104.747 18.0833 104.68 18.1833 104.68 18.25H98.3301C98.2634 18.1833 98.2301 18.1333 98.2301 18.1C98.2301 18.0667 98.1967 18.0167 98.1301 17.95H82.2301V15.55H86.5301C86.5634 15.45 86.5801 15.3833 86.5801 15.35C86.6134 15.2833 86.5634 15.1833 86.4301 15.05H82.2301V14.65L77.4301 14.7C77.2967 14.7 77.1967 14.5667 77.1301 14.3C77.0634 14.0333 77.0301 13.7333 77.0301 13.4C76.9967 13.0333 77.0134 12.6667 77.0801 12.3C77.1467 11.9 77.2634 11.55 77.4301 11.25H82.1801V1.95H88.4301V2.8C89.0634 2.96666 89.7967 3.05 90.6301 3.05C91.4634 3.05 92.1301 3.05 92.6301 3.05C92.6967 3.05 92.8634 3.05 93.1301 3.05C93.4301 3.01666 93.7467 3 94.0801 3C94.4134 3 94.7134 3 94.9801 3C95.2801 2.96666 95.4634 2.95 95.5301 2.95C95.6301 2.95 95.7467 2.96666 95.8801 3C96.0467 3.03333 96.2134 3.08333 96.3801 3.15L108.78 3.05C108.98 3.08333 109.13 3.03333 109.23 2.9C109.33 2.76667 109.363 2.61667 109.33 2.45C110.63 2.88333 111.747 3.43333 112.68 4.1C113.613 4.76666 114.363 5.5 114.93 6.3C115.53 7.1 115.963 7.96667 116.23 8.9C116.497 9.8 116.63 10.7167 116.63 11.65ZM118.43 29.95C118.43 31.2833 118.213 32.5833 117.78 33.85C117.347 35.0833 116.68 36.2 115.78 37.2C114.913 38.1667 113.813 38.9667 112.48 39.6C111.18 40.2333 109.647 40.6 107.88 40.7C107.68 40.7 107.363 40.7333 106.93 40.8C106.53 40.8333 106.113 40.8833 105.68 40.95C105.28 40.9833 104.897 41.0167 104.53 41.05C104.197 41.1167 103.997 41.15 103.93 41.15H92.6301L90.8301 37.05H86.5801C86.4801 37.2833 86.3634 37.55 86.2301 37.85C86.0967 38.1167 85.9801 38.3833 85.8801 38.65H82.2301V18.65H87.1301C87.1967 18.5833 87.2301 18.5167 87.2301 18.45C87.2301 18.3833 87.2301 18.3167 87.2301 18.25H96.9801V18.85H90.7301C90.8301 18.95 90.9467 19.0667 91.0801 19.2C91.2134 19.3 91.3467 19.35 91.4801 19.35H107.63C107.73 19.35 107.997 19.2 108.43 18.9C108.863 18.5667 109.247 18.3667 109.58 18.3C109.747 18.2333 110.03 18.2333 110.43 18.3C110.83 18.3667 111.163 18.35 111.43 18.25C112.197 17.8833 112.93 17.45 113.63 16.95C114.363 16.4167 115.08 15.95 115.78 15.55C115.58 16.1167 115.263 16.65 114.83 17.15C114.43 17.65 113.963 18.1 113.43 18.5C112.93 18.9 112.413 19.2667 111.88 19.6C111.347 19.9 110.863 20.1167 110.43 20.25V20.3C111.93 20.6333 113.18 21.1333 114.18 21.8C115.213 22.4667 116.047 23.2333 116.68 24.1C117.313 24.9333 117.763 25.8667 118.03 26.9C118.297 27.9 118.43 28.9167 118.43 29.95ZM104.73 13.5C104.73 12.9333 104.613 12.3667 104.38 11.8C104.18 11.2333 103.713 10.7667 102.98 10.4C102.647 10.2333 102.213 10.1 101.68 10C101.18 9.9 100.863 9.85 100.73 9.85H94.4301V14.55H104.58C104.647 14.3833 104.68 14.2 104.68 14C104.713 13.8 104.73 13.6333 104.73 13.5ZM97.8801 17.25C97.9801 17.25 97.9801 17.1333 97.8801 16.9C97.8134 16.6333 97.7467 16.4167 97.6801 16.25H94.4301V17.25H97.8801ZM106.33 28.65C106.33 27.9167 106.18 27.3 105.88 26.8C105.58 26.3 105.18 25.9 104.68 25.6C104.213 25.3 103.68 25.0833 103.08 24.95C102.513 24.8167 101.963 24.75 101.43 24.75H94.4301V29.05C94.7967 28.9833 95.1301 29.0167 95.4301 29.15C95.4301 29.6167 95.4467 30.0667 95.4801 30.5C95.5134 30.9333 95.4967 31.35 95.4301 31.75H94.4301V32.65H102.33C102.63 32.65 102.98 32.5833 103.38 32.45C103.813 32.2833 104.23 32.0833 104.63 31.85C105.03 31.5833 105.38 31.2667 105.68 30.9C105.98 30.5333 106.147 30.1333 106.18 29.7C106.213 29.5333 106.247 29.35 106.28 29.15C106.313 28.95 106.33 28.7833 106.33 28.65ZM90.6301 19.25C90.4634 19.0833 90.3134 18.9667 90.1801 18.9H89.3301C89.5967 19 89.8301 19.0833 90.0301 19.15C90.2301 19.2167 90.4301 19.25 90.6301 19.25ZM89.1301 19.2C89.0634 19.1333 88.9801 19.0833 88.8801 19.05C88.8134 18.9833 88.7467 18.9333 88.6801 18.9H87.6301C87.7967 19 88.0134 19.1 88.2801 19.2C88.5801 19.2667 88.8634 19.2667 89.1301 19.2ZM82.1801 12.05C82.0801 12.2833 81.9967 12.55 81.9301 12.85C81.8634 13.1167 81.8301 13.3 81.8301 13.4V13.85C81.9634 13.55 82.0301 13.25 82.0301 12.95C82.0634 12.6167 82.1134 12.3167 82.1801 12.05ZM81.8301 12.05H81.6801L81.4801 13.75H81.6301L81.8301 12.05ZM81.4301 12.05C81.2634 12.6167 81.1801 13.2167 81.1801 13.85C81.2467 13.55 81.2967 13.25 81.3301 12.95C81.3634 12.6167 81.3967 12.3167 81.4301 12.05ZM81.0801 12.05C80.9801 12.2167 80.8967 12.45 80.8301 12.75C80.7634 13.0167 80.7301 13.2 80.7301 13.3V13.85C80.8634 13.55 80.9301 13.25 80.9301 12.95C80.9634 12.6167 81.0134 12.3167 81.0801 12.05ZM87.6301 19.1C87.5634 19.0333 87.4967 19 87.4301 19C87.3967 18.9667 87.3467 18.9167 87.2801 18.85H86.3301C86.4634 19.0167 86.6801 19.1167 86.9801 19.15C87.3134 19.1833 87.5301 19.1667 87.6301 19.1ZM80.6801 12.05C80.6134 12.3167 80.5634 12.6 80.5301 12.9C80.4967 13.2 80.4801 13.4833 80.4801 13.75C80.5467 13.4833 80.5967 13.2 80.6301 12.9C80.6634 12.6 80.6801 12.3167 80.6801 12.05ZM80.2801 12.05C80.2134 12.3167 80.1634 12.6167 80.1301 12.95C80.0967 13.25 80.0801 13.55 80.0801 13.85C80.1801 13.4833 80.2301 13.15 80.2301 12.85C80.2634 12.5167 80.2801 12.25 80.2801 12.05ZM79.9801 12.05C79.8801 12.2167 79.7967 12.4333 79.7301 12.7C79.6634 12.9667 79.6301 13.1667 79.6301 13.3V13.85C79.7634 13.55 79.8467 13.25 79.8801 12.95C79.8801 12.6167 79.9134 12.3167 79.9801 12.05ZM79.5801 12.05C79.5134 12.3167 79.4634 12.6167 79.4301 12.95C79.3967 13.25 79.3801 13.55 79.3801 13.85C79.4467 13.55 79.4967 13.25 79.5301 12.95C79.5634 12.6167 79.5801 12.3167 79.5801 12.05ZM79.1801 12.05C79.1134 12.3167 79.0634 12.6167 79.0301 12.95C78.9967 13.25 78.9801 13.55 78.9801 13.85C79.0801 13.5167 79.1467 13.1833 79.1801 12.85C79.1801 12.5167 79.1801 12.25 79.1801 12.05ZM78.8801 12.05C78.7801 12.2167 78.6967 12.4333 78.6301 12.7C78.5634 12.9667 78.5301 13.1667 78.5301 13.3V13.85C78.6634 13.55 78.7467 13.25 78.7801 12.95C78.7801 12.6167 78.8134 12.3167 78.8801 12.05ZM78.4801 12.05C78.4134 12.3167 78.3634 12.6167 78.3301 12.95C78.2967 13.25 78.2801 13.55 78.2801 13.85C78.3467 13.55 78.3967 13.25 78.4301 12.95C78.4634 12.6167 78.4801 12.3167 78.4801 12.05ZM78.0801 12.05C78.0134 12.3167 77.9634 12.6167 77.9301 12.95C77.8967 13.25 77.8801 13.55 77.8801 13.85C77.9801 13.4833 78.0467 13.15 78.0801 12.85C78.0801 12.5167 78.0801 12.25 78.0801 12.05ZM102.03 31.05H101.48V32.35H101.13V30.75C101.23 30.75 101.347 30.7833 101.48 30.85C101.647 30.9167 101.83 30.9833 102.03 31.05ZM99.4801 31.1L95.6301 31V30.8L99.4801 30.9V31.1ZM155.369 40.9H153.769C153.636 40.9333 153.586 40.9333 153.619 40.9C153.686 40.8667 153.686 40.8167 153.619 40.75C153.452 40.6833 153.269 40.6333 153.069 40.6C152.869 40.5333 152.652 40.4833 152.419 40.45C152.186 40.4167 151.919 40.4333 151.619 40.5C151.319 40.5667 151.019 40.5833 150.719 40.55C150.552 40.5167 150.352 40.4833 150.119 40.45C149.919 40.3833 149.752 40.35 149.619 40.35H137.069C137.036 40.35 136.952 40.3667 136.819 40.4C136.719 40.4 136.586 40.4167 136.419 40.45C136.286 40.4833 136.152 40.55 136.019 40.65C135.919 40.7167 135.869 40.8 135.869 40.9H122.319V37.45C122.586 37.45 122.852 37.45 123.119 37.45C123.419 37.45 123.719 37.4333 124.019 37.4C124.119 37.2667 124.236 37.1167 124.369 36.95C124.536 36.75 124.619 36.5833 124.619 36.45V30.15H128.419C128.552 30.0167 128.619 29.9333 128.619 29.9C128.219 29.8333 127.819 29.8 127.419 29.8C127.019 29.8 126.619 29.8 126.219 29.8C126.219 29.7333 126.219 29.6833 126.219 29.65C126.252 29.5833 126.236 29.5167 126.169 29.45C126.102 29.5167 126.069 29.6333 126.069 29.8H124.619V27.45C124.786 27.5167 125.002 27.5667 125.269 27.6C125.536 27.6333 125.752 27.5667 125.919 27.4C125.752 27.2333 125.536 27.1667 125.269 27.2C125.002 27.2 124.786 27.2333 124.619 27.3V22C124.619 21.9 124.552 21.7333 124.419 21.5C124.319 21.2333 124.219 21.0167 124.119 20.85C123.819 20.8167 123.519 20.8167 123.219 20.85C123.219 20.7833 123.252 20.7333 123.319 20.7C123.386 20.6667 123.419 20.6167 123.419 20.55L123.469 20.6C123.469 20.6333 123.502 20.6833 123.569 20.75C123.636 20.6833 123.669 20.6 123.669 20.5C123.669 20.6 123.702 20.6833 123.769 20.75C123.836 20.6833 123.869 20.6 123.869 20.5C123.869 20.6 123.902 20.6833 123.969 20.75C124.036 20.6833 124.069 20.5667 124.069 20.4C124.069 20.4667 124.052 20.5333 124.019 20.6C124.019 20.6333 124.052 20.6833 124.119 20.75C124.252 20.5833 124.286 20.45 124.219 20.35C124.152 20.2167 124.086 20.0833 124.019 19.95C123.986 19.9833 123.969 20.0667 123.969 20.2C123.969 20.1 123.936 20.0167 123.869 19.95C123.802 20.0167 123.769 20.0833 123.769 20.15C123.769 20.1833 123.752 20.2333 123.719 20.3V20C123.652 19.9333 123.569 19.9167 123.469 19.95C123.369 19.95 123.319 19.9167 123.319 19.85C123.252 19.95 123.236 20.0333 123.269 20.1C123.336 20.1667 123.369 20.25 123.369 20.35C123.402 20.25 123.386 20.1667 123.319 20.1C123.286 20.0333 123.236 19.95 123.169 19.85C123.169 19.8833 123.152 19.9 123.119 19.9C123.052 19.9667 123.019 20 123.019 20V19.65H120.419L118.919 14.85H121.119C121.186 14.7833 121.219 14.6167 121.219 14.35C121.286 14.4167 121.352 14.5 121.419 14.6C121.486 14.6667 121.569 14.75 121.669 14.85L122.319 14.75C122.252 14.7167 122.186 14.65 122.119 14.55C122.086 14.45 122.019 14.35 121.919 14.25H122.269V1.75H123.969C123.869 2.05 123.869 2.28333 123.969 2.45C124.102 2.58333 124.269 2.68333 124.469 2.75C124.702 2.81667 124.936 2.85 125.169 2.85C125.436 2.85 125.619 2.85 125.719 2.85C125.819 2.85 126.019 2.83333 126.319 2.8C126.619 2.76666 126.836 2.75 126.969 2.75C127.102 2.75 127.169 2.78333 127.169 2.85C127.169 2.91667 127.236 2.95 127.369 2.95H135.719C136.119 2.95 136.386 2.86666 136.519 2.7C136.652 2.53333 136.686 2.21667 136.619 1.75H154.769V10.05H134.469V11.2H136.869C136.802 11.5333 136.752 11.8667 136.719 12.2C136.686 12.5 136.636 12.7833 136.569 13.05H127.669C127.636 13.25 127.669 13.5333 127.769 13.9C127.902 14.2667 128.102 14.6167 128.369 14.95C128.469 14.8167 128.519 14.7 128.519 14.6C128.519 14.5 128.486 14.4 128.419 14.3C128.386 14.2 128.352 14.1167 128.319 14.05C128.286 13.95 128.319 13.85 128.419 13.75H136.469C136.502 13.85 136.502 13.9833 136.469 14.15C136.469 14.2833 136.436 14.5333 136.369 14.9H142.669C142.769 15.1333 142.852 15.3667 142.919 15.6C142.986 15.8333 143.102 16.0833 143.269 16.35H152.069C152.136 16.5167 152.186 16.7 152.219 16.9C152.252 17.0667 152.269 17.2 152.269 17.3L143.469 17.4C143.536 17.5 143.586 17.6 143.619 17.7C143.652 17.7667 143.702 17.85 143.769 17.95L153.019 17.85C152.919 17.5833 152.836 17.3333 152.769 17.1C152.702 16.8667 152.619 16.6167 152.519 16.35H153.269V24.3H134.569C134.502 24.4 134.469 24.5 134.469 24.6H126.069C126.069 25.2667 126.102 25.9167 126.169 26.55C126.236 27.15 126.302 27.7833 126.369 28.45L128.719 28.55C128.719 28.05 128.736 27.55 128.769 27.05C128.802 26.5167 128.786 25.95 128.719 25.35H133.469V28.1H136.969C137.036 28.5333 137.086 29 137.119 29.5C137.186 29.9667 137.336 30.4 137.569 30.8C139.836 30.8333 142.102 30.8667 144.369 30.9C146.669 30.9 148.969 30.9 151.269 30.9H150.569C150.502 31.0667 150.469 31.2333 150.469 31.4C150.469 31.5333 150.436 31.7333 150.369 32C150.436 32 150.636 32.0167 150.969 32.05C151.336 32.05 151.769 32.05 152.269 32.05C152.769 32.05 153.286 32.05 153.819 32.05C154.386 32.0167 154.902 32 155.369 32V33C154.869 32.9 154.302 32.9 153.669 33C153.836 33.2667 154.086 33.3667 154.419 33.3C154.786 33.2333 155.102 33.2167 155.369 33.25V40.9ZM123.619 20.3H123.469V20.05H123.619V20.3ZM123.219 20.4H123.069V20.15H123.219V20.4ZM142.669 16.3C142.669 16.1333 142.652 16 142.619 15.9C142.586 15.8 142.569 15.7167 142.569 15.65H136.519V16.3H142.669ZM153.719 32.7V32.35H153.569V32.7H153.719ZM143.269 17.9C143.202 17.8 143.169 17.7 143.169 17.6C143.169 17.5 143.169 17.4167 143.169 17.35H129.369L128.769 15.55H128.419C128.519 15.9167 128.636 16.3 128.769 16.7C128.902 17.0667 129.019 17.4333 129.119 17.8C129.219 17.8667 129.336 17.9167 129.469 17.95C129.602 17.95 129.702 18 129.769 18.1C129.936 18.4667 130.052 18.8 130.119 19.1H135.269C135.336 19 135.369 18.9167 135.369 18.85C135.402 18.75 135.469 18.6333 135.569 18.5H138.469C138.469 18.3 138.569 18.1 138.769 17.9H143.269ZM136.419 19.1C136.652 19 136.652 18.8833 136.419 18.75V19.1ZM136.169 18.75C136.102 18.75 136.052 18.8 136.019 18.9C136.019 18.9667 136.019 19.0333 136.019 19.1C136.119 19.0333 136.186 18.9667 136.219 18.9C136.252 18.8 136.236 18.75 136.169 18.75ZM135.769 18.75C135.702 18.75 135.636 18.8 135.569 18.9C135.536 19 135.552 19.0833 135.619 19.15C135.719 19.0833 135.786 19 135.819 18.9C135.852 18.8 135.836 18.75 135.769 18.75ZM152.169 40.45V40.3H151.919V40.45H152.169ZM150.269 40.45V40.3H150.019V40.45H150.269ZM133.319 26.55H133.169L133.069 28.5H133.219L133.319 26.55ZM133.019 26.55H132.869L132.769 28.5H132.919L133.019 26.55ZM132.719 26.55H132.569L132.519 28.5H132.669L132.719 26.55ZM132.519 26.55H132.369L132.169 28.5H132.319L132.519 26.55ZM132.219 26.55H132.069L131.969 28.5H132.119L132.219 26.55ZM131.919 26.55H131.769L131.669 28.5H131.819L131.919 26.55ZM131.619 26.55H131.469L131.369 28.5H131.519L131.619 26.55ZM135.769 32C135.702 31.6333 135.669 31.3833 135.669 31.25C135.669 31.1167 135.669 31.0167 135.669 30.95H134.519V32H135.769ZM131.269 26.65C131.269 27.3167 131.219 27.95 131.119 28.55C131.186 28.0833 131.219 27.7167 131.219 27.45C131.252 27.1833 131.269 26.9167 131.269 26.65ZM122.269 19.1V18.05C122.269 18.0167 122.202 17.9333 122.069 17.8C121.969 17.6333 121.836 17.45 121.669 17.25C121.536 17.05 121.402 16.85 121.269 16.65C121.169 16.4167 121.119 16.2333 121.119 16.1C121.119 15.9667 121.119 15.8667 121.119 15.8C121.152 15.7 121.169 15.6167 121.169 15.55H119.519L120.619 19.1H122.269ZM131.119 26.55H130.969L130.769 28.5H130.919L131.119 26.55ZM130.819 26.55H130.669L130.569 28.5H130.719L130.819 26.55ZM130.519 26.55H130.369L130.269 28.5H130.419L130.519 26.55ZM130.219 26.55H130.069L129.969 28.5H130.119L130.219 26.55ZM129.869 26.55C129.869 26.75 129.852 27.0167 129.819 27.35C129.819 27.65 129.786 28.05 129.719 28.55C129.786 28.2833 129.819 27.9667 129.819 27.6C129.852 27.2 129.869 26.85 129.869 26.55ZM129.719 26.55H129.569L129.369 28.5H129.519L129.719 26.55ZM129.419 26.55H129.269L129.169 28.5H129.319L129.419 26.55ZM135.969 33.2V32.9H126.519V33.2H135.969ZM126.019 28.1V27.75H125.869V28.1H126.019ZM126.119 29V28.55H125.969V29H126.119ZM126.319 30.7V30.25H126.169V30.7H126.319ZM126.419 31.5V31.15H126.269V31.5H126.419ZM126.519 32.4V31.95H126.369V32.4H126.519ZM121.869 18.5H121.019V17.35C121.119 17.5167 121.252 17.7 121.419 17.9C121.586 18.1 121.736 18.3 121.869 18.5ZM161.617 16.25C161.65 16.3833 161.6 16.5167 161.467 16.65C161.367 16.7833 161.267 16.9 161.167 17V15.8C161.3 15.9333 161.4 16 161.467 16C161.4 15.5333 161.4 15.0667 161.467 14.6C161.567 14.1333 161.617 13.6167 161.617 13.05V16.25ZM161.117 25.5C160.95 25.6667 160.717 25.9 160.417 26.2C160.15 26.4667 160.067 26.7333 160.167 27C160.467 26.8 160.717 26.5667 160.917 26.3C161.117 26.0333 161.183 25.7667 161.117 25.5ZM161.117 26.4C160.883 26.7 160.65 26.9167 160.417 27.05C160.183 27.15 160.1 27.4333 160.167 27.9C160.4 27.7 160.65 27.4667 160.917 27.2C161.183 26.9333 161.25 26.6667 161.117 26.4ZM193.217 41.15H162.167V39.95C161.933 39.8833 161.667 39.8667 161.367 39.9C161.1 39.9 160.85 39.8833 160.617 39.85C160.483 39.6833 160.3 39.4333 160.067 39.1C159.867 38.7667 159.767 38.5333 159.767 38.4V31.7C160.033 31.4333 160.283 31.1667 160.517 30.9C160.75 30.6 161 30.2667 161.267 29.9L161.167 28.7C161.067 28.8 160.917 28.95 160.717 29.15C160.55 29.3167 160.367 29.4667 160.167 29.6V29.15C160.167 29.0167 160.3 28.8333 160.567 28.6C160.867 28.3667 161.1 28.15 161.267 27.95V27.9C161.267 27.8667 161.25 27.8333 161.217 27.8C161.117 27.9667 160.967 28.1333 160.767 28.3C160.567 28.4333 160.367 28.6 160.167 28.8C160.067 28.4333 160.133 28.1667 160.367 28C160.6 27.8 160.85 27.5667 161.117 27.3C161.117 27.3667 161.1 27.4167 161.067 27.45C161.067 27.4833 161.1 27.5333 161.167 27.6V19V25.05C161.1 25.2167 160.967 25.3833 160.767 25.55C160.567 25.7167 160.367 25.85 160.167 25.95V25.5C160.333 25.3667 160.5 25.2 160.667 25C160.833 24.8 160.967 24.6 161.067 24.4L160.967 12.4L161.217 12.6H161.267C161.3 12.6 161.333 12.5833 161.367 12.55C161.267 12.4167 161.167 12.3167 161.067 12.25C161 12.1833 160.933 12.1 160.867 12C161 12.1333 161.133 12.1667 161.267 12.1L160.867 11.7L161.117 11.9H161.167C161.2 11.9 161.233 11.8833 161.267 11.85L160.867 11.4L161.117 11.6H161.167C161.2 11.6 161.233 11.5833 161.267 11.55L160.867 11.1L161.117 11.3H161.167C161.2 11.3 161.233 11.2833 161.267 11.25L160.867 10.85V9C161.1 9.13333 161.233 9.28333 161.267 9.45C161.333 9.61666 161.367 9.8 161.367 10C161.367 10.1667 161.35 10.35 161.317 10.55C161.317 10.7167 161.367 10.8667 161.467 11C161.533 10.8667 161.567 10.7333 161.567 10.6C161.567 10.4333 161.567 10.2833 161.567 10.15C161.567 9.85 161.55 9.66666 161.517 9.6C161.483 9.5 161.433 9.43333 161.367 9.4C161.333 9.33333 161.267 9.26667 161.167 9.2C161.1 9.1 161 8.91666 160.867 8.65C160.767 8.48333 160.7 8.26667 160.667 8C160.667 7.73333 160.667 7.46666 160.667 7.2C160.7 6.93333 160.717 6.7 160.717 6.5C160.75 6.3 160.767 6.16667 160.767 6.1C160.767 5.73333 160.8 5.4 160.867 5.1C160.933 4.76666 161.333 4.56666 162.067 4.5C162.167 3.66666 162.167 2.83333 162.067 2H174.317V4.75H170.117C169.917 5.51667 169.75 6.3 169.617 7.1C169.517 7.86667 169.383 8.66666 169.217 9.5H165.417V10.25H174.317V11.5C174.483 11.5667 174.65 11.6 174.817 11.6C175.017 11.6 175.317 11.5667 175.717 11.5V18.8L175.667 14.05C175.467 13.9833 175.25 13.9667 175.017 14C174.817 14.0333 174.617 14.05 174.417 14.05V28.3L175.467 28.4V23.9C175.5 25.2 175.5 26.4667 175.467 27.7C175.467 28.9 175.383 30.1333 175.217 31.4C175.217 31.4333 175.233 31.4667 175.267 31.5C175.333 31.5667 175.4 31.6 175.467 31.6H193.217V41.15ZM175.667 23.55H175.517V19H175.667V23.55ZM159.567 32L159.467 35.65H159.317L159.417 32H159.567ZM179.117 36C178.217 36 177.5 36 176.967 36C176.467 36 176.083 36 175.817 36C175.55 36 175.383 36.0167 175.317 36.05C175.25 36.05 175.2 36.0667 175.167 36.1C175.167 36.2667 175.167 36.4167 175.167 36.55C175.167 36.6833 175.133 36.8333 175.067 37H174.017C173.95 36.8333 173.917 36.6833 173.917 36.55C173.917 36.4167 173.917 36.3 173.917 36.2C173.85 36.2 173.767 36.1833 173.667 36.15C173.567 36.1167 173.517 36.0667 173.517 36H166.417C166.317 35.7333 166.217 35.4667 166.117 35.2C166.05 34.9333 165.983 34.6667 165.917 34.4H165.467V34.9C165.467 35.0333 165.5 35.15 165.567 35.25C165.633 35.35 165.683 35.45 165.717 35.55C165.75 35.9167 165.767 36.2833 165.767 36.65C165.767 36.9833 165.767 37.3333 165.767 37.7H173.067C173.133 38.0667 173.2 38.4333 173.267 38.8C173.333 39.1667 173.4 39.4833 173.467 39.75H178.217C178.417 38.45 178.717 37.2 179.117 36ZM172.517 40.25V39.8H165.367L165.267 40.25H172.517ZM248.617 7H234.017L235.517 1.45H247.117L248.617 7ZM271.817 1.85C271.717 2.18333 271.634 2.53333 271.567 2.9C271.534 3.23333 271.451 3.58333 271.317 3.95C270.917 4.05 270.467 4.15 269.967 4.25C269.501 4.35 268.984 4.43333 268.417 4.5C268.317 4.63333 268.234 4.78333 268.167 4.95C268.134 5.11667 268.084 5.3 268.017 5.5C268.517 5.6 269.017 5.58333 269.517 5.45C270.017 5.28333 270.534 5.16667 271.067 5.1C271.001 5.3 270.934 5.53333 270.867 5.8C270.834 6.06666 270.784 6.28333 270.717 6.45C270.317 6.58333 269.867 6.7 269.367 6.8C268.901 6.86667 268.384 6.95 267.817 7.05C267.751 7.18333 267.701 7.33333 267.667 7.5C267.634 7.63333 267.584 7.81667 267.517 8.05C267.851 8.15 268.301 8.13333 268.867 8C269.434 7.83333 269.934 7.71667 270.367 7.65C270.367 7.85 270.334 8.06667 270.267 8.3C270.234 8.53333 270.184 8.76667 270.117 9C269.884 9.16666 269.584 9.25 269.217 9.25C268.851 9.25 268.501 9.26666 268.167 9.3C267.834 9.33333 267.534 9.43333 267.267 9.6C267.034 9.76667 266.917 10.0833 266.917 10.55C267.284 10.5833 267.734 10.5667 268.267 10.5C268.801 10.4 269.317 10.3167 269.817 10.25C269.751 10.45 269.701 10.6667 269.667 10.9C269.634 11.1333 269.584 11.3833 269.517 11.65C269.117 11.6833 268.651 11.75 268.117 11.85C267.617 11.95 267.134 12.0333 266.667 12.1C266.601 12.1667 266.551 12.2667 266.517 12.4C266.517 12.5333 266.484 12.6833 266.417 12.85V13.1C266.517 13.1667 266.667 13.1833 266.867 13.15C267.101 13.1167 267.334 13.0833 267.567 13.05C267.834 12.9833 268.067 12.9333 268.267 12.9C268.467 12.8333 268.584 12.8 268.617 12.8H269.117C269.051 13.0667 269.001 13.3 268.967 13.5C268.934 13.7 268.884 13.9167 268.817 14.15C268.451 14.2167 268.017 14.3 267.517 14.4C267.051 14.4667 266.601 14.5333 266.167 14.6C266.101 14.7333 266.034 14.9 265.967 15.1C265.934 15.2667 265.884 15.45 265.817 15.65C265.917 15.7167 266.067 15.7333 266.267 15.7C266.501 15.6667 266.734 15.6333 266.967 15.6C267.201 15.5333 267.417 15.4667 267.617 15.4C267.817 15.3333 267.934 15.3 267.967 15.3H268.517V15.65C268.517 15.6833 268.451 15.9833 268.317 16.55C268.184 17.0833 268.001 17.8167 267.767 18.75C267.534 19.6833 267.267 20.75 266.967 21.95C266.667 23.1167 266.351 24.3333 266.017 25.6C265.717 26.8667 265.401 28.1167 265.067 29.35C264.767 30.5833 264.484 31.7167 264.217 32.75C264.017 32.8167 263.767 32.9 263.467 33C263.167 33.0667 262.867 33.1333 262.567 33.2C262.301 34.1 262.051 35 261.817 35.9C261.617 36.8 261.384 37.7 261.117 38.6C260.784 38.6667 260.584 38.9667 260.517 39.5C260.484 40.0333 260.384 40.55 260.217 41.05H248.267L243.917 25.6H238.717L234.367 41.05H222.367L220.367 32C220.534 31.9 220.717 31.85 220.917 31.85C221.151 31.8167 221.367 31.7833 221.567 31.75C221.767 31.6833 221.934 31.6 222.067 31.5C222.201 31.4 222.267 31.2167 222.267 30.95L219.267 17.9C219.034 17.9667 218.801 17.95 218.567 17.85C218.334 17.7167 218.117 17.55 217.917 17.35C217.717 17.1167 217.551 16.8667 217.417 16.6C217.284 16.3333 217.201 16.1 217.167 15.9V15.85H217.117C217.051 15.8167 217.017 15.8 217.017 15.8H216.817L214.917 7.15H224.267C224.334 7.65 224.401 8.16666 224.467 8.7C224.567 9.23333 224.667 9.78333 224.767 10.35C225.467 10.45 226.167 10.45 226.867 10.35L227.717 14.8H225.267V15.9H227.917L229.367 23.4L230.867 18.3H229.367V18.05H230.867C230.967 17.6833 231.067 17.3333 231.167 17C231.267 16.6333 231.367 16.2667 231.467 15.9H238.967V14.8H234.667C234.534 15 234.501 15.2333 234.567 15.5C234.501 15.4 234.451 15.2833 234.417 15.15C234.417 15.0167 234.384 14.9 234.317 14.8C234.251 14.9 234.217 15.0167 234.217 15.15C234.217 15.2833 234.184 15.4 234.117 15.5C234.117 15.4 234.101 15.2833 234.067 15.15C234.067 15.0167 234.034 14.9 233.967 14.8C233.901 14.9 233.851 15.0167 233.817 15.15C233.817 15.25 233.784 15.3333 233.717 15.4C233.717 15.3 233.701 15.2 233.667 15.1C233.667 14.9667 233.634 14.8667 233.567 14.8C233.467 14.9333 233.417 15.1333 233.417 15.4C233.417 15.1333 233.367 14.9333 233.267 14.8C233.201 14.9 233.151 15.0167 233.117 15.15C233.117 15.2833 233.084 15.4 233.017 15.5C233.017 15.4 233.001 15.2833 232.967 15.15C232.967 15.0167 232.934 14.9 232.867 14.8C232.801 14.9 232.751 15.0167 232.717 15.15C232.717 15.2833 232.717 15.4 232.717 15.5C232.651 15.4 232.601 15.3 232.567 15.2C232.567 15.0667 232.534 14.9333 232.467 14.8C232.401 14.8667 232.351 14.9667 232.317 15.1C232.317 15.2 232.317 15.3 232.317 15.4C232.351 15.2333 232.317 15.0833 232.217 14.95C232.151 14.7833 232.034 14.7333 231.867 14.8V14.45C231.867 14.35 231.917 14.15 232.017 13.85C232.117 13.55 232.184 13.2667 232.217 13C232.251 12.7333 232.267 12.4333 232.267 12.1C232.301 11.7333 232.317 11.4 232.317 11.1C232.317 11.3 232.317 11.5167 232.317 11.75C232.317 11.95 232.351 12.15 232.417 12.35C232.551 12.2167 232.617 12.0833 232.617 11.95C232.617 11.8167 232.601 11.6833 232.567 11.55C232.567 11.4167 232.567 11.3 232.567 11.2C232.601 11.1 232.701 11.0167 232.867 10.95V10.6H229.367V10.15H255.717L257.417 1.45H258.817L256.917 13.25V13.5C257.251 13.6 257.584 13.6833 257.917 13.75C258.284 13.8167 258.701 13.9 259.167 14C259.267 13.4333 259.367 12.8667 259.467 12.3C259.567 11.7333 259.667 11.1667 259.767 10.6C259.567 10.5333 259.334 10.4833 259.067 10.45C258.834 10.4167 258.584 10.3667 258.317 10.3C258.417 9.83333 258.501 9.33333 258.567 8.8C258.667 8.26666 258.751 7.75 258.817 7.25C258.851 7.18333 258.801 7.11666 258.667 7.05C258.567 6.98333 258.517 6.9 258.517 6.8C258.517 6.7 258.567 6.51666 258.667 6.25C258.801 5.95 258.884 5.71666 258.917 5.55C259.017 4.88333 259.117 4.2 259.217 3.5C259.317 2.8 259.367 2.11667 259.367 1.45H268.917C268.951 1.58333 268.934 1.73333 268.867 1.9C268.834 2.06667 268.784 2.23333 268.717 2.4C269.217 2.33333 269.717 2.26666 270.217 2.2C270.751 2.1 271.284 1.98333 271.817 1.85ZM225.467 3.45H220.267V1.45H225.167C225.234 1.75 225.301 2.08333 225.367 2.45C225.434 2.81666 225.467 3.15 225.467 3.45ZM231.167 15.5H231.017V11.05H231.167V15.5ZM230.867 15.5H230.717V11.05H230.867V15.5ZM230.667 11.15L230.567 15.4H230.417L230.517 11.15H230.667ZM230.317 15.5L230.167 15.35L230.317 11.05V15.5ZM230.067 15.5H229.917V11.05H230.067V15.5ZM229.767 15.5H229.617V11.05H229.767V15.5ZM219.917 2.5C219.851 2.96666 219.784 3.45 219.717 3.95C219.684 4.45 219.634 4.93333 219.567 5.4L219.417 4.15C219.484 3.71666 219.534 3.28333 219.567 2.85C219.634 2.38333 219.701 1.95 219.767 1.55L219.917 2.5ZM229.467 15.5H229.317V11.05H229.467V15.5ZM219.417 2.4C219.351 2.86667 219.284 3.36667 219.217 3.9C219.184 4.4 219.134 4.9 219.067 5.4L218.917 4.05C218.984 3.61667 219.034 3.18333 219.067 2.75C219.134 2.31666 219.201 1.91666 219.267 1.55L219.417 2.4ZM218.917 2.4C218.851 2.86667 218.784 3.36667 218.717 3.9C218.684 4.4 218.634 4.9 218.567 5.4L218.417 4.05C218.484 3.61667 218.534 3.18333 218.567 2.75C218.634 2.31666 218.701 1.91666 218.767 1.55L218.917 2.4ZM218.417 2.3C218.351 2.8 218.284 3.31666 218.217 3.85C218.184 4.38333 218.134 4.9 218.067 5.4L217.917 3.95C217.984 3.51667 218.034 3.1 218.067 2.7C218.134 2.3 218.201 1.91666 218.267 1.55L218.417 2.3ZM217.917 2.3C217.851 2.8 217.784 3.31666 217.717 3.85C217.684 4.38333 217.634 4.9 217.567 5.4L217.417 3.95C217.484 3.51667 217.534 3.1 217.567 2.7C217.634 2.3 217.701 1.91666 217.767 1.55L217.917 2.3ZM217.417 2.2C217.351 2.7 217.284 3.23333 217.217 3.8C217.184 4.36666 217.134 4.9 217.067 5.4C217.034 5.4 217.001 5.38333 216.967 5.35C216.934 5.35 216.884 5.31666 216.817 5.25C216.884 4.65 216.951 4.03333 217.017 3.4C217.084 2.73333 217.167 2.11667 217.267 1.55L217.417 2.2ZM216.917 2.2C216.851 2.7 216.784 3.23333 216.717 3.8C216.684 4.36666 216.634 4.9 216.567 5.4C216.534 5.4 216.501 5.38333 216.467 5.35C216.434 5.35 216.384 5.31666 216.317 5.25C216.384 4.65 216.451 4.03333 216.517 3.4C216.584 2.73333 216.667 2.11667 216.767 1.55L216.917 2.2ZM216.417 2.1C216.351 2.6 216.284 3.13333 216.217 3.7C216.151 4.26666 216.084 4.83333 216.017 5.4L215.867 5.3C215.867 4.66666 215.901 4.03333 215.967 3.4C216.067 2.73333 216.167 2.11667 216.267 1.55L216.417 2.1ZM215.917 2C215.851 2.5 215.784 3.03333 215.717 3.6C215.684 4.16667 215.667 4.73333 215.667 5.3C215.601 5.3 215.534 5.31666 215.467 5.35C215.434 5.38333 215.384 5.4 215.317 5.4C215.384 4.76667 215.451 4.11667 215.517 3.45C215.584 2.78333 215.667 2.15 215.767 1.55L215.917 2ZM213.817 2.15H213.617V1.55H213.817V2.15ZM215.417 2C215.351 2.5 215.284 3.01666 215.217 3.55C215.184 4.05 215.167 4.55 215.167 5.05C215.101 5.11667 215.051 5.18333 215.017 5.25C214.984 5.28333 214.917 5.33333 214.817 5.4V5.05C214.817 4.98333 214.817 4.81667 214.817 4.55C214.851 4.28333 214.884 3.98333 214.917 3.65C214.951 3.28333 214.984 2.91667 215.017 2.55C215.084 2.15 215.151 1.81667 215.217 1.55L215.417 2ZM214.317 2C214.317 2.33333 214.301 2.66666 214.267 3C214.234 3.33333 214.184 3.66666 214.117 4C214.017 3.2 214.017 2.38333 214.117 1.55C214.217 1.61666 214.284 1.7 214.317 1.8C214.351 1.86666 214.351 1.93333 214.317 2ZM214.867 1.9C214.801 2.46666 214.734 3.05 214.667 3.65C214.634 4.25 214.584 4.83333 214.517 5.4C214.451 4.8 214.434 4.18333 214.467 3.55C214.501 2.88333 214.551 2.21666 214.617 1.55C214.651 1.55 214.684 1.56666 214.717 1.6C214.751 1.66667 214.801 1.76667 214.867 1.9ZM243.267 31.85H239.567V31.35H243.267V31.85ZM255.367 12.25C255.367 11.9833 255.401 11.7667 255.467 11.6C255.534 11.4333 255.501 11.0833 255.367 10.55H240.167C240.001 11.0833 239.951 11.45 240.017 11.65C240.117 11.85 240.167 12.05 240.167 12.25C240.434 12.25 240.601 12.2833 240.667 12.35V14.55H241.417C241.417 13.75 241.401 13.1333 241.367 12.7C241.367 12.2333 241.351 11.8833 241.317 11.65C241.317 11.4167 241.317 11.2667 241.317 11.2C241.317 11.1333 241.334 11.0833 241.367 11.05L241.517 14.6L241.667 11.4C241.667 11.2667 241.717 11.15 241.817 11.05L242.017 14.6C242.017 13.8 242.017 13.1667 242.017 12.7C242.017 12.2333 242.017 11.8833 242.017 11.65C242.017 11.4167 242.017 11.2667 242.017 11.2C242.051 11.1333 242.084 11.0833 242.117 11.05C242.217 11.15 242.267 11.2667 242.267 11.4L242.417 14.6C242.417 13.8 242.417 13.1667 242.417 12.7C242.417 12.2333 242.417 11.8833 242.417 11.65C242.417 11.4167 242.417 11.2667 242.417 11.2C242.451 11.1333 242.484 11.0833 242.517 11.05L242.617 14.6L242.767 11.4C242.767 11.2667 242.817 11.15 242.917 11.05L243.117 14.8C243.117 13.9333 243.117 13.2667 243.117 12.8C243.117 12.3 243.117 11.9333 243.117 11.7C243.117 11.4333 243.117 11.2667 243.117 11.2C243.151 11.1333 243.184 11.0833 243.217 11.05C243.284 11.1167 243.317 11.1333 243.317 11.1C243.351 11.0333 243.384 11.0833 243.417 11.25V14.8C243.451 14.0333 243.467 13.4167 243.467 12.95C243.501 12.45 243.517 12.0667 243.517 11.8C243.517 11.5333 243.517 11.35 243.517 11.25C243.551 11.15 243.584 11.0833 243.617 11.05V14.75H244.067V11.05H249.067V14.75H249.467V11.05H251.667L250.967 15.5C251.067 15.7667 251.151 16.05 251.217 16.35C251.284 16.65 251.367 16.9333 251.467 17.2C251.634 17.2 251.784 17.2 251.917 17.2C252.051 17.1667 252.201 17.1833 252.367 17.25C252.201 17.3167 252.051 17.35 251.917 17.35C251.784 17.35 251.634 17.35 251.467 17.35L253.217 23.4L255.267 12.3C254.534 12.4 253.801 12.4 253.067 12.3C253.467 12.2333 253.851 12.2167 254.217 12.25C254.617 12.25 255.001 12.25 255.367 12.25ZM255.967 33.8C255.501 33.9 255.084 33.9833 254.717 34.05C254.351 34.0833 253.984 34.1333 253.617 34.2L252.967 37.75C254.034 37.7167 254.834 37.7167 255.367 37.75L255.967 33.8ZM243.767 25.05L243.067 22.5H239.567C239.467 22.9 239.351 23.3333 239.217 23.8C239.084 24.2333 238.967 24.65 238.867 25.05H243.767ZM241.167 12.3L241.067 14.25H240.917L241.017 12.3H241.167ZM240.867 14.25H240.717V12.3H240.867V14.25ZM300.49 6.6C300.324 6.53333 300.14 6.48333 299.94 6.45C299.74 6.41666 299.54 6.36667 299.34 6.3C299.407 5.73333 299.44 5.3 299.44 5C299.44 4.7 299.424 4.41666 299.39 4.15L300.49 6.6ZM299.19 3.3L294.04 1.75H298.69C298.79 1.95 298.874 2.2 298.94 2.5C299.04 2.8 299.124 3.06667 299.19 3.3ZM304.59 17.7H293.74C293.64 17.3667 293.524 17 293.39 16.6C293.257 16.1667 293.14 15.75 293.04 15.35H303.79C303.89 15.7167 304.007 16.0833 304.14 16.45C304.274 16.8167 304.424 17.2333 304.59 17.7ZM309.59 30.8H305.14L307.14 24.35L309.59 30.8ZM312.59 38.8H306.59C306.29 39.0333 306.09 39.2333 305.99 39.4C305.924 39.5667 305.874 39.7333 305.84 39.9C305.84 40.0667 305.857 40.2333 305.89 40.4C305.924 40.5333 305.924 40.7 305.89 40.9H302.04L303.84 35H306.94V34.55H304.04C304.14 34.2167 304.24 33.8833 304.34 33.55C304.44 33.1833 304.54 32.85 304.64 32.55H307.49C307.59 32.85 307.69 33.1667 307.79 33.5C307.89 33.8333 307.99 34.1833 308.09 34.55H310.99L312.59 38.8ZM306.94 23.75L304.69 30.85H299.44C299.34 30.5833 299.24 30.3167 299.14 30.05C299.04 29.75 298.94 29.4667 298.84 29.2H294.84V27.55H289.39C289.39 27.5833 289.374 27.6 289.34 27.6C289.274 27.6667 289.24 27.7 289.24 27.7C289.174 28.2 289.107 28.7 289.04 29.2C289.007 29.7 288.99 30.2 288.99 30.7C288.99 30.7333 288.957 30.7667 288.89 30.8C288.824 30.8 288.707 30.8 288.54 30.8C288.374 30.8 288.107 30.8167 287.74 30.85C287.407 30.85 286.94 30.8667 286.34 30.9H297.39C297.457 31.1667 297.524 31.45 297.59 31.75C297.69 32.0167 297.79 32.2833 297.89 32.55H304.19L303.59 34.45H285.09L283.09 40.9H274.44C274.607 40.5333 274.74 40.1833 274.84 39.85C274.974 39.5167 275.174 39.1667 275.44 38.8C275.307 38.6333 275.057 38.5167 274.69 38.45C274.524 38.85 274.374 39.2667 274.24 39.7C274.107 40.1333 273.99 40.5333 273.89 40.9H270.74L272.04 37.5C271.94 37.4333 271.824 37.3833 271.69 37.35C271.557 37.3167 271.407 37.2667 271.24 37.2C271.174 36.9333 271.124 36.6667 271.09 36.4C271.057 36.1333 271.007 35.8833 270.94 35.65L272.74 30.15H272.64C272.474 30.55 272.307 31 272.14 31.5C272.007 32 271.857 32.4833 271.69 32.95C271.657 32.95 271.624 32.9333 271.59 32.9C271.557 32.9 271.507 32.8667 271.44 32.8L272.79 29.35C272.757 29.45 272.724 29.5667 272.69 29.7C272.69 29.8333 272.724 29.95 272.79 30.05C272.857 29.95 272.89 29.8333 272.89 29.7C272.924 29.5667 272.974 29.4167 273.04 29.25C273.24 29.0833 273.49 28.95 273.79 28.85C274.09 28.7167 274.357 28.5667 274.59 28.4C274.857 28.2333 275.074 28.0333 275.24 27.8C275.407 27.5333 275.474 27.1833 275.44 26.75C275.274 26.9167 275.074 27.05 274.84 27.15C274.64 27.25 274.44 27.35 274.24 27.45C274.174 27.0833 274.34 26.8167 274.74 26.65C275.14 26.45 275.44 26.3 275.64 26.2C275.707 26.1667 275.724 26.1333 275.69 26.1C275.69 26.0667 275.674 26.05 275.64 26.05C275.274 26.25 274.907 26.4167 274.54 26.55C274.54 26.4833 274.557 26.4 274.59 26.3C274.624 26.2 274.64 26.1167 274.64 26.05C274.807 25.95 275.007 25.8333 275.24 25.7C275.474 25.5333 275.657 25.45 275.79 25.45C275.924 25.45 275.974 25.45 275.94 25.45C275.907 25.45 275.924 25.4833 275.99 25.55C276.057 25.4833 276.074 25.4333 276.04 25.4C276.04 25.3333 276.04 25.2167 276.04 25.05C275.874 25.2167 275.674 25.35 275.44 25.45C275.24 25.55 275.04 25.65 274.84 25.75C274.84 25.5167 274.907 25.3333 275.04 25.2C275.174 25.0667 275.324 24.9667 275.49 24.9C275.69 24.8 275.857 24.7167 275.99 24.65C276.157 24.5833 276.274 24.5 276.34 24.4C276.14 24.4 275.94 24.45 275.74 24.55C275.54 24.65 275.34 24.75 275.14 24.85C275.074 24.4833 275.224 24.2333 275.59 24.1C275.957 23.9667 276.307 23.8167 276.64 23.65C276.64 23.5833 276.607 23.5167 276.54 23.45C276.34 23.5167 276.14 23.6167 275.94 23.75C275.74 23.85 275.54 23.95 275.34 24.05C275.34 23.8833 275.407 23.75 275.54 23.65C275.674 23.5167 275.807 23.4167 275.94 23.35C276.107 23.25 276.257 23.1667 276.39 23.1C276.524 23 276.624 22.8833 276.69 22.75C277.257 21.35 277.774 19.9167 278.24 18.45C278.74 16.9833 279.224 15.55 279.69 14.15C279.757 13.8833 279.84 13.5833 279.94 13.25C280.04 12.8833 280.174 12.5167 280.34 12.15C280.474 11.8833 280.607 11.5 280.74 11C280.874 10.4667 281.04 9.98333 281.24 9.55C281.307 9.31667 281.374 9.08333 281.44 8.85C281.507 8.58333 281.574 8.31667 281.64 8.05C281.707 8.15 281.774 8.26667 281.84 8.4C281.94 8.53333 282.024 8.68333 282.09 8.85C282.157 8.78333 282.174 8.76666 282.14 8.8C282.14 8.83333 282.14 8.78333 282.14 8.65C282.14 8.51667 282.074 8.36667 281.94 8.2C281.807 8 281.74 7.83333 281.74 7.7C281.74 7.63333 281.774 7.48333 281.84 7.25C281.94 7.01667 282.04 6.73333 282.14 6.4C282.24 6.06667 282.34 5.73333 282.44 5.4C282.574 5.06666 282.674 4.76666 282.74 4.5C282.907 4.43333 283.074 4.35 283.24 4.25C283.44 4.11667 283.607 4.05 283.74 4.05C283.84 4.05 283.924 4.06667 283.99 4.1C284.09 4.13333 284.24 4.18333 284.44 4.25C284.64 3.85 284.807 3.43333 284.94 3C285.107 2.56666 285.274 2.15 285.44 1.75H286.89L285.24 4.5C285.374 4.66667 285.574 4.75 285.84 4.75C286.14 4.75 286.324 4.91667 286.39 5.25C286.757 4.68333 287.09 4.11666 287.39 3.55C287.724 2.95 288.074 2.35 288.44 1.75C288.74 1.75 289.057 1.75 289.39 1.75C289.724 1.71667 290.024 1.73333 290.29 1.8C291.657 2.16666 293.007 2.58333 294.34 3.05C295.674 3.51666 297.024 3.95 298.39 4.35C298.424 4.75 298.407 5.25 298.34 5.85C298.307 6.45 298.257 7.08333 298.19 7.75C298.59 7.91667 299.107 8.03333 299.74 8.1C300.374 8.16667 300.857 8.4 301.19 8.8C301.89 9.63333 302.357 10.6 302.59 11.7C302.857 12.7667 303.19 13.8 303.59 14.8L294.04 14.95C293.907 14.95 293.724 14.95 293.49 14.95C293.29 14.95 293.107 14.9333 292.94 14.9C292.74 14.4667 292.557 14.0167 292.39 13.55C292.257 13.05 292.107 12.55 291.94 12.05C291.64 12.4167 291.457 12.8833 291.39 13.45C291.324 13.9833 291.157 14.4833 290.89 14.95H283.59C283.457 15.0833 283.39 15.2 283.39 15.3H290.79C290.69 15.6667 290.59 16.0667 290.49 16.5C290.39 16.9 290.29 17.3167 290.19 17.75H282.49C282.49 17.8833 282.524 17.9833 282.59 18.05H289.99L287.59 25.95H296.14L293.84 18.05H304.79L306.94 23.75ZM294.59 28.35C294.524 28.6167 294.474 28.9167 294.44 29.25C294.44 29.55 294.407 29.85 294.34 30.15C294.407 29.85 294.424 29.5167 294.39 29.15C294.357 28.7833 294.424 28.5167 294.59 28.35ZM294.24 28.35L294.04 30.1H293.89L294.09 28.35H294.24ZM293.89 28.35C293.89 28.6167 293.857 28.9167 293.79 29.25C293.757 29.55 293.707 29.85 293.64 30.15C293.64 29.85 293.657 29.55 293.69 29.25C293.757 28.9167 293.824 28.6167 293.89 28.35ZM293.59 28.35C293.524 28.6167 293.474 28.9167 293.44 29.25C293.44 29.55 293.407 29.85 293.34 30.15C293.407 29.85 293.424 29.5167 293.39 29.15C293.357 28.7833 293.424 28.5167 293.59 28.35ZM293.14 30.1H292.99V28.35H293.14V30.1ZM292.94 28.35L292.74 30.1H292.59L292.79 28.35H292.94ZM303.39 35.05L301.59 40.95H300.74L299.04 35.05H303.39ZM292.44 28.35C292.507 28.55 292.524 28.8333 292.49 29.2C292.457 29.5333 292.407 29.85 292.34 30.15C292.34 29.8833 292.34 29.6 292.34 29.3C292.34 28.9667 292.374 28.65 292.44 28.35ZM292.29 28.35C292.224 28.65 292.157 28.9667 292.09 29.3C292.057 29.6 292.007 29.8833 291.94 30.15V29.6C291.94 29.4667 291.974 29.2667 292.04 29C292.107 28.7333 292.19 28.5167 292.29 28.35ZM291.94 28.35L291.74 30.1H291.59L291.79 28.35H291.94ZM291.59 28.35C291.557 28.65 291.524 28.9833 291.49 29.35C291.49 29.7167 291.407 29.9333 291.24 30C291.307 29.7333 291.357 29.4667 291.39 29.2C291.457 28.9 291.524 28.6167 291.59 28.35ZM291.29 28.35C291.224 28.6167 291.174 28.9167 291.14 29.25C291.14 29.55 291.107 29.85 291.04 30.15C291.107 29.8167 291.107 29.4833 291.04 29.15C291.007 28.8167 291.09 28.55 291.29 28.35ZM290.94 28.35L290.74 30.1H290.59L290.79 28.35H290.94ZM290.59 28.35C290.59 28.6167 290.557 28.9167 290.49 29.25C290.457 29.55 290.407 29.85 290.34 30.15C290.34 29.85 290.357 29.55 290.39 29.25C290.457 28.9167 290.524 28.6167 290.59 28.35ZM290.29 28.35C290.224 28.5833 290.174 28.8833 290.14 29.25C290.14 29.5833 290.107 29.8833 290.04 30.15C290.107 29.85 290.124 29.5167 290.09 29.15C290.057 28.7833 290.124 28.5167 290.29 28.35ZM289.89 28.35C289.89 28.6167 289.857 28.9167 289.79 29.25C289.757 29.55 289.707 29.85 289.64 30.15C289.64 29.8833 289.657 29.6 289.69 29.3C289.757 28.9667 289.824 28.65 289.89 28.35ZM282.04 9.1V8.85H281.89V9.1H282.04ZM281.94 9.4V9.15H281.79V9.4H281.94ZM281.84 9.7V9.45H281.69V9.7H281.84ZM281.74 10V9.75H281.59V10H281.74ZM281.64 10.3V10.05H281.49V10.3H281.64ZM281.44 10.45C281.407 10.4833 281.39 10.5 281.39 10.5C281.357 10.5 281.34 10.4833 281.34 10.45C281.274 10.45 281.24 10.5333 281.24 10.7C281.24 10.8667 281.224 10.9833 281.19 11.05C280.957 11.7167 280.74 12.3667 280.54 13C280.34 13.6333 280.107 14.2833 279.84 14.95C279.74 14.85 279.69 14.7167 279.69 14.55C279.457 15.0167 279.34 15.3833 279.34 15.65C279.64 15.5167 279.824 15.4 279.89 15.3C280.157 14.5 280.424 13.7 280.69 12.9C280.957 12.0667 281.207 11.25 281.44 10.45ZM278.39 21.85C278.324 21.85 278.24 21.8333 278.14 21.8C278.074 21.7667 278.007 21.75 277.94 21.75L273.94 33.4C274.307 33.5 274.674 33.6333 275.04 33.8C275.407 33.9333 275.79 34.05 276.19 34.15L277.19 30.95C276.99 30.8833 276.74 30.8167 276.44 30.75C276.14 30.6833 275.974 30.5667 275.94 30.4L278.39 21.85ZM352.977 12.55C352.977 12.6833 352.944 13.0333 352.877 13.6C352.844 14.1667 352.794 14.6333 352.727 15C352.661 15.4 352.527 15.8833 352.327 16.45C352.161 16.9833 351.961 17.4833 351.727 17.95C351.627 18.1167 351.494 18.3333 351.327 18.6C351.161 18.8667 350.994 19.1167 350.827 19.35C350.694 19.5167 350.511 19.7333 350.277 20C350.044 20.2333 349.811 20.4667 349.577 20.7C349.377 20.9 349.177 21.0833 348.977 21.25C348.811 21.3833 348.694 21.45 348.627 21.45H319.077C319.011 21.25 318.961 21 318.927 20.7C318.894 20.3667 318.827 20.0833 318.727 19.85C318.661 19.5833 318.544 19.3833 318.377 19.25C318.211 19.1167 317.944 19.1167 317.577 19.25L317.477 16.15C317.377 16.2167 317.294 16.2667 317.227 16.3C317.161 16.3333 317.077 16.3833 316.977 16.45V30.6C317.111 30.7333 317.294 30.85 317.527 30.95V25.75H329.777V40.9H321.327C321.261 41.0667 321.227 41.2333 321.227 41.4C321.227 41.6 321.227 41.7833 321.227 41.95C321.094 41.7833 320.927 41.6167 320.727 41.45C320.527 41.3167 320.344 41.15 320.177 40.95H317.577V35.85C317.277 35.5833 316.961 35.35 316.627 35.15C316.294 34.9167 315.944 34.6667 315.577 34.4C315.677 34.3 315.811 34.1667 315.977 34C316.177 33.8333 316.344 33.75 316.477 33.75C316.577 33.75 316.727 33.8333 316.927 34C317.161 34.1667 317.361 34.2833 317.527 34.35L317.577 34.3V34C317.277 33.7333 316.977 33.5 316.677 33.3C316.377 33.1 316.077 32.9 315.777 32.7C315.944 32.6 316.111 32.4833 316.277 32.35C316.444 32.2167 316.594 32.15 316.727 32.15C316.827 32.15 316.944 32.2167 317.077 32.35C317.211 32.45 317.361 32.55 317.527 32.65L317.577 32.6V32.3C317.277 32.1333 316.977 31.95 316.677 31.75C316.377 31.55 316.077 31.35 315.777 31.15V6.7C316.111 6.5 316.411 6.3 316.677 6.1C316.977 5.9 317.277 5.7 317.577 5.5V1.65H339.127C339.227 1.65 339.527 1.68333 340.027 1.75C340.561 1.78333 341.027 1.81666 341.427 1.85C343.394 1.88333 345.094 2.18333 346.527 2.75C347.994 3.31667 349.194 4.08333 350.127 5.05C351.094 6.01666 351.811 7.15 352.277 8.45C352.744 9.71667 352.977 11.0833 352.977 12.55ZM356.077 40.95H342.477C341.844 39.8167 341.177 38.6333 340.477 37.4C339.811 36.1333 339.144 34.8833 338.477 33.65C337.811 32.4167 337.161 31.25 336.527 30.15C335.927 29.05 335.394 28.0833 334.927 27.25C334.794 26.9833 334.594 26.7167 334.327 26.45C334.061 26.1833 333.811 25.95 333.577 25.75H347.227C347.327 25.75 347.494 25.8833 347.727 26.15C347.994 26.4167 348.211 26.65 348.377 26.85C348.644 27.1833 348.927 27.55 349.227 27.95C349.527 28.3167 349.794 28.7 350.027 29.1C351.094 31.0333 352.111 33 353.077 35C354.077 36.9667 355.077 38.95 356.077 40.95ZM348.377 21.6C347.544 22.1667 346.744 22.5833 345.977 22.85C345.244 23.0833 344.444 23.3333 343.577 23.6C344.044 23.8 344.511 24.0167 344.977 24.25C345.444 24.45 345.911 24.6833 346.377 24.95H317.577V23.35L317.727 23.45H319.227C319.394 23.35 319.477 23.25 319.477 23.15C319.511 23.0167 319.494 22.8833 319.427 22.75C319.394 22.5833 319.344 22.4167 319.277 22.25C319.211 22.05 319.177 21.8333 319.177 21.6H348.377ZM340.777 13.45C340.777 12.6833 340.544 11.9333 340.077 11.2C339.611 10.4667 338.794 10.0167 337.627 9.85C337.461 9.81667 337.311 9.78333 337.177 9.75C337.044 9.68333 336.927 9.65 336.827 9.65H329.777V12.35H324.327C324.227 12.0833 324.127 11.8167 324.027 11.55C323.961 11.2833 323.894 11.0167 323.827 10.75H320.777V12.45C321.077 12.45 321.361 12.45 321.627 12.45C321.927 12.4167 322.211 12.4333 322.477 12.5C322.644 12.6667 322.744 12.9167 322.777 13.25C322.844 13.5833 322.877 13.85 322.877 14.05H329.577C329.711 14.2167 329.777 14.4167 329.777 14.65C329.777 14.85 329.777 15.0167 329.777 15.15C329.777 15.3167 329.777 15.5 329.777 15.7C329.777 15.9 329.711 16.0833 329.577 16.25H323.177V16.8H329.777V17.55H335.627C335.727 17.55 335.911 17.5167 336.177 17.45C336.444 17.3833 336.661 17.3333 336.827 17.3C338.127 17.1333 339.111 16.7167 339.777 16.05C340.444 15.3833 340.777 14.5167 340.777 13.45ZM396.288 12.55C396.288 12.6833 396.255 13.0333 396.188 13.6C396.155 14.1667 396.105 14.6333 396.038 15C395.971 15.4 395.838 15.8833 395.638 16.45C395.471 16.9833 395.271 17.4833 395.038 17.95C394.938 18.1167 394.805 18.3333 394.638 18.6C394.471 18.8667 394.305 19.1167 394.138 19.35C394.005 19.5167 393.821 19.7333 393.588 20C393.355 20.2333 393.121 20.4667 392.888 20.7C392.688 20.9 392.488 21.0833 392.288 21.25C392.121 21.3833 392.005 21.45 391.938 21.45H362.388C362.321 21.25 362.271 21 362.238 20.7C362.205 20.3667 362.138 20.0833 362.038 19.85C361.971 19.5833 361.855 19.3833 361.688 19.25C361.521 19.1167 361.255 19.1167 360.888 19.25L360.788 16.15C360.688 16.2167 360.605 16.2667 360.538 16.3C360.471 16.3333 360.388 16.3833 360.288 16.45V30.6C360.421 30.7333 360.605 30.85 360.838 30.95V25.75H373.088V40.9H364.638C364.571 41.0667 364.538 41.2333 364.538 41.4C364.538 41.6 364.538 41.7833 364.538 41.95C364.405 41.7833 364.238 41.6167 364.038 41.45C363.838 41.3167 363.655 41.15 363.488 40.95H360.888V35.85C360.588 35.5833 360.271 35.35 359.938 35.15C359.605 34.9167 359.255 34.6667 358.888 34.4C358.988 34.3 359.121 34.1667 359.288 34C359.488 33.8333 359.655 33.75 359.788 33.75C359.888 33.75 360.038 33.8333 360.238 34C360.471 34.1667 360.671 34.2833 360.838 34.35L360.888 34.3V34C360.588 33.7333 360.288 33.5 359.988 33.3C359.688 33.1 359.388 32.9 359.088 32.7C359.255 32.6 359.421 32.4833 359.588 32.35C359.755 32.2167 359.905 32.15 360.038 32.15C360.138 32.15 360.255 32.2167 360.388 32.35C360.521 32.45 360.671 32.55 360.838 32.65L360.888 32.6V32.3C360.588 32.1333 360.288 31.95 359.988 31.75C359.688 31.55 359.388 31.35 359.088 31.15V6.7C359.421 6.5 359.721 6.3 359.988 6.1C360.288 5.9 360.588 5.7 360.888 5.5V1.65H382.438C382.538 1.65 382.838 1.68333 383.338 1.75C383.871 1.78333 384.338 1.81666 384.738 1.85C386.705 1.88333 388.405 2.18333 389.838 2.75C391.305 3.31667 392.505 4.08333 393.438 5.05C394.405 6.01666 395.121 7.15 395.588 8.45C396.055 9.71667 396.288 11.0833 396.288 12.55ZM399.388 40.95H385.788C385.155 39.8167 384.488 38.6333 383.788 37.4C383.121 36.1333 382.455 34.8833 381.788 33.65C381.121 32.4167 380.471 31.25 379.838 30.15C379.238 29.05 378.705 28.0833 378.238 27.25C378.105 26.9833 377.905 26.7167 377.638 26.45C377.371 26.1833 377.121 25.95 376.888 25.75H390.538C390.638 25.75 390.805 25.8833 391.038 26.15C391.305 26.4167 391.521 26.65 391.688 26.85C391.955 27.1833 392.238 27.55 392.538 27.95C392.838 28.3167 393.105 28.7 393.338 29.1C394.405 31.0333 395.421 33 396.388 35C397.388 36.9667 398.388 38.95 399.388 40.95ZM391.688 21.6C390.855 22.1667 390.055 22.5833 389.288 22.85C388.555 23.0833 387.755 23.3333 386.888 23.6C387.355 23.8 387.821 24.0167 388.288 24.25C388.755 24.45 389.221 24.6833 389.688 24.95H360.888V23.35L361.038 23.45H362.538C362.705 23.35 362.788 23.25 362.788 23.15C362.821 23.0167 362.805 22.8833 362.738 22.75C362.705 22.5833 362.655 22.4167 362.588 22.25C362.521 22.05 362.488 21.8333 362.488 21.6H391.688ZM384.088 13.45C384.088 12.6833 383.855 11.9333 383.388 11.2C382.921 10.4667 382.105 10.0167 380.938 9.85C380.771 9.81667 380.621 9.78333 380.488 9.75C380.355 9.68333 380.238 9.65 380.138 9.65H373.088V12.35H367.638C367.538 12.0833 367.438 11.8167 367.338 11.55C367.271 11.2833 367.205 11.0167 367.138 10.75H364.088V12.45C364.388 12.45 364.671 12.45 364.938 12.45C365.238 12.4167 365.521 12.4333 365.788 12.5C365.955 12.6667 366.055 12.9167 366.088 13.25C366.155 13.5833 366.188 13.85 366.188 14.05H372.888C373.021 14.2167 373.088 14.4167 373.088 14.65C373.088 14.85 373.088 15.0167 373.088 15.15C373.088 15.3167 373.088 15.5 373.088 15.7C373.088 15.9 373.021 16.0833 372.888 16.25H366.488V16.8H373.088V17.55H378.938C379.038 17.55 379.221 17.5167 379.488 17.45C379.755 17.3833 379.971 17.3333 380.138 17.3C381.438 17.1333 382.421 16.7167 383.088 16.05C383.755 15.3833 384.088 14.5167 384.088 13.45ZM416.198 23.95L415.698 28.9H412.498C412.532 28.9333 412.582 28.95 412.648 28.95C412.715 28.95 412.865 28.95 413.098 28.95C413.365 28.9167 413.732 28.9 414.198 28.9C414.665 28.8667 415.332 28.85 416.198 28.85V40.7H404.048V35.8C403.748 36.0667 403.448 36.3667 403.148 36.7C402.848 37 402.548 37.3 402.248 37.6C402.248 37.2333 402.198 36.8333 402.098 36.4C402.032 35.9667 402.082 35.6167 402.248 35.35C402.415 34.9833 402.665 34.65 402.998 34.35C403.365 34.05 403.732 33.7167 404.098 33.35L404.048 32.3L402.248 34.2C402.248 33.8333 402.198 33.4333 402.098 33C402.032 32.5667 402.082 32.2167 402.248 31.95C402.448 31.5167 402.732 31.15 403.098 30.85C403.465 30.55 403.798 30.2167 404.098 29.85L404.048 28.9L402.248 30.8C402.248 30.4333 402.215 30.0333 402.148 29.6C402.082 29.1667 402.115 28.8167 402.248 28.55C402.415 28.1167 402.682 27.75 403.048 27.45C403.448 27.15 403.798 26.8167 404.098 26.45L404.048 25.5L402.248 27.4C402.248 27.0333 402.215 26.6333 402.148 26.2C402.082 25.7667 402.115 25.4167 402.248 25.15C402.415 24.7167 402.682 24.35 403.048 24.05C403.448 23.75 403.798 23.4167 404.098 23.05L404.048 22.1L402.248 24C402.248 23.6333 402.198 23.25 402.098 22.85C402.032 22.4167 402.082 22.0167 402.248 21.65C402.415 21.25 402.682 20.9167 403.048 20.65C403.448 20.35 403.798 20.0167 404.098 19.65L404.048 18.7C403.782 18.9667 403.482 19.2667 403.148 19.6C402.848 19.9 402.548 20.2333 402.248 20.6C402.248 20.2333 402.198 19.85 402.098 19.45C402.032 19.0167 402.082 18.6167 402.248 18.25C402.415 17.85 402.665 17.5167 402.998 17.25C403.365 16.95 403.732 16.6167 404.098 16.25L404.048 15.3C403.782 15.5667 403.482 15.8667 403.148 16.2C402.848 16.5 402.548 16.8333 402.248 17.2C402.248 16.8333 402.198 16.45 402.098 16.05C402.032 15.6167 402.082 15.2167 402.248 14.85C402.315 14.6833 402.565 14.4 402.998 14C403.432 13.6 403.798 13.2167 404.098 12.85C404.165 12.7833 404.182 12.6667 404.148 12.5C404.115 12.3333 404.115 12.1667 404.148 12C404.515 12.1 404.815 12.0167 405.048 11.75C405.315 11.4833 405.632 11.1833 405.998 10.85L405.948 9.8L402.248 13.7C402.248 13.3333 402.198 12.9333 402.098 12.5C402.032 12.0667 402.082 11.7167 402.248 11.45C402.448 11.0167 402.748 10.6333 403.148 10.3C403.548 9.96667 403.932 9.61667 404.298 9.25C404.232 9.18333 404.182 9.08333 404.148 8.95C404.148 8.78333 404.115 8.6 404.048 8.4L402.248 10.3C402.248 9.93333 402.232 9.55 402.198 9.15C402.198 8.75 402.215 8.38333 402.248 8.05C402.248 8.05 402.348 7.95 402.548 7.75C402.748 7.55 402.948 7.31667 403.148 7.05C403.382 6.78333 403.598 6.53333 403.798 6.3C403.998 6.03333 404.098 5.85 404.098 5.75V1.5H416.198V9.1H415.698C415.598 9.33333 415.565 9.61666 415.598 9.95C415.665 10.2833 415.732 10.6 415.798 10.9C415.898 11.2 415.982 11.4667 416.048 11.7C416.148 11.9333 416.198 12.05 416.198 12.05V13H406.148L405.598 13.55H416.198V23.95ZM415.798 12C415.698 11.2667 415.615 10.7 415.548 10.3C415.515 9.9 415.465 9.5 415.398 9.1H414.398L414.898 12H415.798ZM414.698 12L414.198 9.1H413.298C413.365 9.6 413.432 10.1 413.498 10.6C413.565 11.0667 413.632 11.5333 413.698 12H414.698ZM413.498 12L413.098 9.1H412.098L412.598 12H413.498ZM412.398 12L411.898 9.1H410.998C411.098 9.7 411.165 10.2333 411.198 10.7C411.265 11.1667 411.332 11.6 411.398 12H412.398ZM411.198 12C411.098 11.2667 411.015 10.7 410.948 10.3C410.915 9.9 410.865 9.5 410.798 9.1H409.798L410.298 12H411.198ZM410.098 12L409.598 9.1H408.698C408.798 9.7 408.865 10.2333 408.898 10.7C408.965 11.1667 409.032 11.6 409.098 12H410.098ZM408.898 12C408.798 11.4333 408.715 10.9167 408.648 10.45C408.615 9.95 408.565 9.5 408.498 9.1H407.498L407.998 12H408.898ZM454.502 1.7H453.402V0.649998H454.502V1.7ZM462.602 20.65C462.602 23.35 462.302 25.9 461.702 28.3H449.202C449.769 27 450.119 25.7333 450.252 24.5C450.419 23.2667 450.502 21.95 450.502 20.55C450.502 19.3167 450.402 18.0667 450.202 16.8C450.002 15.5333 449.602 14.3833 449.002 13.35C448.402 12.2833 447.552 11.4167 446.452 10.75C445.385 10.0833 443.985 9.75 442.252 9.75C441.585 9.75 440.902 9.81667 440.202 9.95C439.502 10.0833 438.869 10.3333 438.302 10.7V28.25H440.152V11.15H440.702V32C441.635 32.0667 442.585 32.0667 443.552 32C443.719 32 443.919 31.9667 444.152 31.9C444.419 31.8 444.619 31.75 444.752 31.75H448.502V31.35H446.102C446.802 30.95 447.269 30.6333 447.502 30.4C447.735 30.1667 447.902 30 448.002 29.9C448.102 29.8 448.202 29.7333 448.302 29.7C448.435 29.6667 448.735 29.65 449.202 29.65C449.502 29.65 449.719 29.65 449.852 29.65C449.985 29.6167 450.102 29.65 450.202 29.75C450.335 29.85 450.519 30.0167 450.752 30.25C450.985 30.4833 451.352 30.85 451.852 31.35H460.502C459.469 33.3833 458.235 35.05 456.802 36.35C455.402 37.6167 453.902 38.6167 452.302 39.35C450.702 40.05 449.069 40.5333 447.402 40.8C445.769 41.0333 444.185 41.15 442.652 41.15C442.519 41.15 442.252 41.1333 441.852 41.1C441.452 41.1 441.085 41.1 440.752 41.1V46.8H440.202V41.1C439.902 41.0333 439.585 41 439.252 41C438.952 40.9667 438.652 40.9167 438.352 40.85C438.319 40.8833 438.302 40.9333 438.302 41C438.302 41.0667 438.302 41.2333 438.302 41.5C438.302 41.8 438.302 42.25 438.302 42.85C438.335 43.45 438.352 44.2667 438.352 45.3H437.702V40.8C437.702 40.8333 437.702 40.8833 437.702 40.95C437.702 41.0167 437.702 41.2 437.702 41.5C437.702 41.8 437.702 42.25 437.702 42.85C437.735 43.45 437.752 44.2667 437.752 45.3H436.502V40.5V40.55C436.502 40.5833 436.469 40.6333 436.402 40.7C436.402 41.3 436.385 42.0333 436.352 42.9C436.352 43.7667 436.335 44.5833 436.302 45.35V40.55C436.235 41.35 436.185 42.15 436.152 42.95C436.152 43.75 436.135 44.55 436.102 45.35V40.5C436.035 40.5333 436.002 40.6 436.002 40.7C436.002 40.7667 436.002 40.95 436.002 41.25C436.002 41.55 436.002 42.0167 436.002 42.65C436.035 43.2833 436.069 44.1667 436.102 45.3H435.502V40.4C434.402 40.0333 433.319 39.65 432.252 39.25C431.185 38.85 430.119 38.2167 429.052 37.35C429.019 37.3833 429.002 37.5333 429.002 37.8H427.902C427.902 37.6333 427.902 37.4667 427.902 37.3C427.902 37.1 427.919 36.9333 427.952 36.8C427.985 36.7667 428.019 36.7667 428.052 36.8C428.085 36.8 428.135 36.7667 428.202 36.7C427.235 35.8 426.469 34.9833 425.902 34.25C425.369 33.5167 424.902 32.75 424.502 31.95C424.535 31.95 424.619 31.95 424.752 31.95C424.885 31.9167 425.019 31.85 425.152 31.75H426.002C425.969 31.8833 425.985 32.1167 426.052 32.45H426.602C426.702 32.25 426.752 32.05 426.752 31.85C426.752 32.1167 426.785 32.3167 426.852 32.45L427.552 32.35V30H426.752V31.35L426.702 30H425.952C426.019 30.4333 426.019 30.8667 425.952 31.3H424.102C424.035 31.1 423.952 30.9167 423.852 30.75C423.752 30.55 423.652 30.35 423.552 30.15C423.485 30.2167 423.419 30.2833 423.352 30.35C423.285 30.3833 423.202 30.4 423.102 30.4C423.102 30.3333 423.119 30.2667 423.152 30.2C423.219 30.1333 423.219 30.05 423.152 29.95C422.985 30.05 422.935 30.2 423.002 30.4H422.702C422.569 30.4333 422.519 30.4333 422.552 30.4C422.619 30.3667 422.619 30.3167 422.552 30.25L422.502 30.3V30.4H422.102C422.169 30.3 422.219 30.2167 422.252 30.15C422.319 30.05 422.319 29.95 422.252 29.85C422.152 29.9167 422.085 30 422.052 30.1C422.052 30.2 422.019 30.3 421.952 30.4C421.852 30.4 421.752 30.35 421.652 30.25C421.585 30.2833 421.552 30.35 421.552 30.45C421.552 30.5167 421.519 30.6 421.452 30.7H420.502C420.602 30.6333 420.652 30.4833 420.652 30.25C420.685 30.0167 420.685 29.7667 420.652 29.5C420.652 29.2333 420.619 28.9833 420.552 28.75C420.519 28.4833 420.502 28.2833 420.502 28.15V15.2C420.502 15.0667 420.519 14.75 420.552 14.25C420.585 13.75 420.635 13.3167 420.702 12.95C421.069 12.95 421.435 12.95 421.802 12.95C422.202 12.95 422.602 12.9333 423.002 12.9C423.235 12.4667 423.435 12.0333 423.602 11.6C423.802 11.1667 424.002 10.7333 424.202 10.3C424.269 10.2333 424.335 10.2167 424.402 10.25C424.502 10.25 424.602 10.25 424.702 10.25C424.769 10.1167 424.785 9.95 424.752 9.75C424.719 9.51667 424.752 9.31667 424.852 9.15C425.852 7.35 427.085 5.88333 428.552 4.75C430.052 3.61666 431.602 2.75 433.202 2.15C434.835 1.51666 436.435 1.1 438.002 0.899998C439.602 0.666665 441.019 0.549999 442.252 0.549999C443.452 0.549999 444.585 0.599999 445.652 0.699997C446.719 0.799998 447.785 0.983332 448.852 1.25C449.119 1.31666 449.452 1.41666 449.852 1.55C450.252 1.68333 450.635 1.83333 451.002 2C451.402 2.13333 451.735 2.26667 452.002 2.4C452.302 2.5 452.485 2.55 452.552 2.55C452.685 2.55 452.719 2.51666 452.652 2.45C452.619 2.38333 452.669 2.35 452.802 2.35H454.502C454.502 2.51667 454.519 2.71667 454.552 2.95C454.585 3.18333 454.602 3.38333 454.602 3.55C454.769 3.71667 455.019 3.9 455.352 4.1C455.685 4.3 455.952 4.41666 456.152 4.45C456.385 4.71666 456.669 5.06666 457.002 5.5C457.335 5.9 457.669 6.3 458.002 6.7C458.335 7.1 458.619 7.45 458.852 7.75C459.119 8.01667 459.285 8.15 459.352 8.15C459.485 8.15 459.519 8.13333 459.452 8.1C459.419 8.06666 459.469 8.05 459.602 8.05C459.735 8.05 459.785 8.06666 459.752 8.1C459.752 8.13333 459.785 8.18333 459.852 8.25V8.2C459.852 8.16667 459.852 8.15 459.852 8.15C459.885 8.11666 459.902 8.08333 459.902 8.05H460.302C460.235 8.11667 460.169 8.21667 460.102 8.35C460.069 8.45 460.085 8.55 460.152 8.65C460.252 8.55 460.302 8.45 460.302 8.35C460.335 8.25 460.369 8.15 460.402 8.05C460.502 8.05 460.619 8.11666 460.752 8.25C460.785 8.18333 460.802 8.11667 460.802 8.05C460.802 7.95 460.835 7.85 460.902 7.75H461.902C461.802 7.81666 461.735 7.96666 461.702 8.2C461.702 8.43333 461.719 8.68333 461.752 8.95C461.785 9.21667 461.819 9.48333 461.852 9.75C461.885 9.98333 461.902 10.15 461.902 10.25V14.3C461.902 14.4 461.952 14.6167 462.052 14.95C462.152 15.2833 462.219 15.5833 462.252 15.85C462.319 16.6167 462.385 17.4167 462.452 18.25C462.552 19.0833 462.602 19.8833 462.602 20.65ZM460.752 8.7V8.45H460.552V8.7H460.752ZM459.852 8.5V8.25H459.652V8.5H459.852ZM460.752 10V9.05H460.552V10H460.752ZM437.852 11.3V11.05H437.652V11.3H437.852ZM435.452 13.65C434.919 14.7833 434.552 16.0167 434.352 17.35C434.185 18.65 434.119 19.8833 434.152 21.05C434.319 20.45 434.469 19.8167 434.602 19.15C434.735 18.4833 434.869 17.8667 435.002 17.3C435.135 16.7333 435.252 16.1333 435.352 15.5C435.485 14.8667 435.519 14.25 435.452 13.65ZM435.452 27.7V17.85H435.252V27.7H435.452ZM437.852 30.7V24.35H437.652V30.7H437.852ZM424.952 17V14.85H424.752V17H424.952ZM440.202 31.75V29.75H438.302V31.75C438.935 31.6833 439.569 31.6833 440.202 31.75ZM429.602 32.4V30.05C429.435 30.05 429.319 30.0833 429.252 30.15V7.85C428.985 7.91667 428.752 7.95 428.552 7.95C428.352 7.95 428.202 7.98333 428.102 8.05V22.65C427.902 22.7833 427.785 22.95 427.752 23.15C427.719 23.3167 427.702 23.5167 427.702 23.75C427.702 23.95 427.702 24.1833 427.702 24.45C427.735 24.7167 427.702 25 427.602 25.3C427.669 25.3 427.719 25.3167 427.752 25.35C427.819 25.35 427.919 25.35 428.052 25.35C428.185 25.35 428.302 25.2833 428.402 25.15C428.535 24.9833 428.685 24.8667 428.852 24.8V32.5C429.085 32.5 429.252 32.4833 429.352 32.45C429.452 32.4167 429.535 32.4 429.602 32.4ZM436.652 29.7V28.85H436.452V29.7H436.652ZM423.802 16.05H423.102V16.5H423.652L423.802 16.05ZM436.352 29.6V28.85H436.152V29.6H436.352ZM436.152 29.6V28.85H435.952V29.6H436.152ZM437.852 31.7V31.35H437.652V31.7H437.852ZM436.652 31.35H436.502L436.352 31.7L436.502 31.75L436.652 31.35ZM436.352 31.7V31.35H436.152V31.7H436.352ZM436.152 31.7V31.35H435.952V31.7H436.152ZM435.502 29.6V28.85C435.369 28.7833 435.302 28.6167 435.302 28.35C435.235 28.35 435.185 28.4167 435.152 28.55C435.119 28.65 435.069 28.75 435.002 28.85H430.102V29.6H435.502ZM427.602 23.7V23.35C427.502 23.3833 427.369 23.5167 427.202 23.75C427.035 23.9833 426.952 24.1667 426.952 24.3L427.602 23.7ZM426.852 25.5V24.15H426.652V25.5H426.852ZM425.902 24.7V22.35H424.952V24.7H425.902ZM435.502 31.7V31.35H430.102V31.7H435.502ZM426.352 26.9C426.385 26.8 426.402 26.5333 426.402 26.1C426.402 25.6333 426.385 25.15 426.352 24.65C426.352 24.1167 426.335 23.6333 426.302 23.2C426.302 22.7667 426.285 22.5167 426.252 22.45C426.252 22.5167 426.269 22.5667 426.302 22.6C426.335 22.6333 426.285 22.65 426.152 22.65C426.052 22.65 426.002 22.6167 426.002 22.55V22.45V27.45C425.969 27.2833 426.019 27.0833 426.152 26.85H426.302C426.335 26.85 426.352 26.8667 426.352 26.9ZM423.752 24.7V22.35H423.102V24.7H423.752ZM428.802 31.9V31.45H427.802L427.702 31.9H428.802ZM427.402 29.6C426.602 29.5667 425.969 29.5333 425.502 29.5C425.069 29.4667 424.735 29.4333 424.502 29.4C424.269 29.3667 424.119 29.35 424.052 29.35C423.985 29.3167 423.935 29.2833 423.902 29.25C423.835 28.95 423.802 28.65 423.802 28.35C423.802 28.0167 423.819 27.7167 423.852 27.45H421.802V27.85C422.435 27.7833 423.035 27.7833 423.602 27.85C423.602 28.5833 423.585 29.05 423.552 29.25C423.519 29.4167 423.535 29.5333 423.602 29.6H427.402ZM421.852 29.4V28.45H421.652V29.4H421.852ZM422.752 30.2V29.95H422.552V30.2H422.752ZM421.852 30V29.75H421.652V30H421.852ZM504.149 12.55C504.149 12.6833 504.116 13.0333 504.049 13.6C504.016 14.1667 503.966 14.6333 503.899 15C503.833 15.4 503.699 15.8833 503.499 16.45C503.333 16.9833 503.133 17.4833 502.899 17.95C502.799 18.1167 502.666 18.3333 502.499 18.6C502.333 18.8667 502.166 19.1167 501.999 19.35C501.866 19.5167 501.683 19.7333 501.449 20C501.216 20.2333 500.983 20.4667 500.749 20.7C500.549 20.9 500.349 21.0833 500.149 21.25C499.983 21.3833 499.866 21.45 499.799 21.45H470.249C470.183 21.25 470.133 21 470.099 20.7C470.066 20.3667 469.999 20.0833 469.899 19.85C469.833 19.5833 469.716 19.3833 469.549 19.25C469.383 19.1167 469.116 19.1167 468.749 19.25L468.649 16.15C468.549 16.2167 468.466 16.2667 468.399 16.3C468.333 16.3333 468.249 16.3833 468.149 16.45V30.6C468.283 30.7333 468.466 30.85 468.699 30.95V25.75H480.949V40.9H472.499C472.433 41.0667 472.399 41.2333 472.399 41.4C472.399 41.6 472.399 41.7833 472.399 41.95C472.266 41.7833 472.099 41.6167 471.899 41.45C471.699 41.3167 471.516 41.15 471.349 40.95H468.749V35.85C468.449 35.5833 468.133 35.35 467.799 35.15C467.466 34.9167 467.116 34.6667 466.749 34.4C466.849 34.3 466.983 34.1667 467.149 34C467.349 33.8333 467.516 33.75 467.649 33.75C467.749 33.75 467.899 33.8333 468.099 34C468.333 34.1667 468.533 34.2833 468.699 34.35L468.749 34.3V34C468.449 33.7333 468.149 33.5 467.849 33.3C467.549 33.1 467.249 32.9 466.949 32.7C467.116 32.6 467.283 32.4833 467.449 32.35C467.616 32.2167 467.766 32.15 467.899 32.15C467.999 32.15 468.116 32.2167 468.249 32.35C468.383 32.45 468.533 32.55 468.699 32.65L468.749 32.6V32.3C468.449 32.1333 468.149 31.95 467.849 31.75C467.549 31.55 467.249 31.35 466.949 31.15V6.7C467.283 6.5 467.583 6.3 467.849 6.1C468.149 5.9 468.449 5.7 468.749 5.5V1.65H490.299C490.399 1.65 490.699 1.68333 491.199 1.75C491.733 1.78333 492.199 1.81666 492.599 1.85C494.566 1.88333 496.266 2.18333 497.699 2.75C499.166 3.31667 500.366 4.08333 501.299 5.05C502.266 6.01666 502.983 7.15 503.449 8.45C503.916 9.71667 504.149 11.0833 504.149 12.55ZM507.249 40.95H493.649C493.016 39.8167 492.349 38.6333 491.649 37.4C490.983 36.1333 490.316 34.8833 489.649 33.65C488.983 32.4167 488.333 31.25 487.699 30.15C487.099 29.05 486.566 28.0833 486.099 27.25C485.966 26.9833 485.766 26.7167 485.499 26.45C485.233 26.1833 484.983 25.95 484.749 25.75H498.399C498.499 25.75 498.666 25.8833 498.899 26.15C499.166 26.4167 499.383 26.65 499.549 26.85C499.816 27.1833 500.099 27.55 500.399 27.95C500.699 28.3167 500.966 28.7 501.199 29.1C502.266 31.0333 503.283 33 504.249 35C505.249 36.9667 506.249 38.95 507.249 40.95ZM499.549 21.6C498.716 22.1667 497.916 22.5833 497.149 22.85C496.416 23.0833 495.616 23.3333 494.749 23.6C495.216 23.8 495.683 24.0167 496.149 24.25C496.616 24.45 497.083 24.6833 497.549 24.95H468.749V23.35L468.899 23.45H470.399C470.566 23.35 470.649 23.25 470.649 23.15C470.683 23.0167 470.666 22.8833 470.599 22.75C470.566 22.5833 470.516 22.4167 470.449 22.25C470.383 22.05 470.349 21.8333 470.349 21.6H499.549ZM491.949 13.45C491.949 12.6833 491.716 11.9333 491.249 11.2C490.783 10.4667 489.966 10.0167 488.799 9.85C488.633 9.81667 488.483 9.78333 488.349 9.75C488.216 9.68333 488.099 9.65 487.999 9.65H480.949V12.35H475.499C475.399 12.0833 475.299 11.8167 475.199 11.55C475.133 11.2833 475.066 11.0167 474.999 10.75H471.949V12.45C472.249 12.45 472.533 12.45 472.799 12.45C473.099 12.4167 473.383 12.4333 473.649 12.5C473.816 12.6667 473.916 12.9167 473.949 13.25C474.016 13.5833 474.049 13.85 474.049 14.05H480.749C480.883 14.2167 480.949 14.4167 480.949 14.65C480.949 14.85 480.949 15.0167 480.949 15.15C480.949 15.3167 480.949 15.5 480.949 15.7C480.949 15.9 480.883 16.0833 480.749 16.25H474.349V16.8H480.949V17.55H486.799C486.899 17.55 487.083 17.5167 487.349 17.45C487.616 17.3833 487.833 17.3333 487.999 17.3C489.299 17.1333 490.283 16.7167 490.949 16.05C491.616 15.3833 491.949 14.5167 491.949 13.45Z" fill="#CACACA"/>
</svg>
