<svg width="463" height="42" viewBox="0 0 463 42" fill="none" xmlns="http://www.w3.org/2000/svg">
<path opacity="0.2" d="M10.65 2.2H10.4V2.05H10.65V2.2ZM43.7 28.05C43.7 28.1167 43.6833 28.2667 43.65 28.5C43.65 28.7333 43.6333 29 43.6 29.3C43.5667 29.6 43.5167 29.9167 43.45 30.25C43.4167 30.55 43.3833 30.8167 43.35 31.05C43.2833 31.35 43.1667 31.6833 43 32.05C42.8667 32.4167 42.7333 32.7833 42.6 33.15C42.3667 33.85 41.9667 34.5667 41.4 35.3C40.8667 36.0333 40.2333 36.7333 39.5 37.4C38.8 38.0333 38.05 38.6 37.25 39.1C36.4833 39.5667 35.7833 39.9 35.15 40.1C34.95 40.1667 34.8167 40.2833 34.75 40.45C34.7167 40.5833 34.7 40.7333 34.7 40.9C34.7333 41.0667 34.75 41.2333 34.75 41.4C34.7833 41.6 34.7833 41.75 34.75 41.85H28.9C28.9 41.75 28.9167 41.6333 28.95 41.5C28.9833 41.4 28.9333 41.35 28.8 41.35C28.7333 41.35 28.5667 41.35 28.3 41.35C28.0333 41.3833 27.75 41.4 27.45 41.4C27.15 41.4 26.8667 41.4 26.6 41.4C26.3667 41.4333 26.2167 41.45 26.15 41.45C24.25 41.45 22.3167 41.3167 20.35 41.05C18.3833 40.7833 16.55 40.2 14.85 39.3C13.1833 38.3667 11.7333 37.0333 10.5 35.3C9.3 33.5333 8.5 31.1667 8.1 28.2V27.9L19.65 27.2C19.6167 27.7333 19.7 28.35 19.9 29.05C20.1333 29.7167 20.4667 30.3667 20.9 31C21.3333 31.6333 21.8333 32.1833 22.4 32.65C23 33.1167 23.65 33.4 24.35 33.5C24.4833 33.5333 24.6667 33.5833 24.9 33.65C25.1333 33.7167 25.3167 33.75 25.45 33.75H26.9C26.9667 33.4167 26.9833 33.0667 26.95 32.7C26.9167 32.3333 26.9 31.95 26.9 31.55C26.5333 31.4167 26.1167 31.4167 25.65 31.55V29.2H21.9C21.8667 28.5333 21.8333 27.75 21.8 26.85C21.7667 25.9167 21.7167 25.0167 21.65 24.15C20.6833 23.7833 19.6167 23.4 18.45 23C17.3167 22.6 16.2667 22.1 15.3 21.5L21.6 21.4L15.15 21.35C14.05 20.8833 13.15 20.3 12.45 19.6C11.75 18.8667 11.1833 18.1 10.75 17.3C10.3167 16.4667 10.0167 15.6333 9.85 14.8C9.68333 13.9667 9.6 13.1833 9.6 12.45C9.6 12.35 9.6 12.1 9.6 11.7C9.6 11.2667 9.63333 10.9 9.7 10.6C9.86667 10.4333 9.83333 10.3 9.6 10.2H10.55V3.25H15C15.1333 3.25 15.45 3.11666 15.95 2.85C16.4833 2.55 16.9 2.33333 17.2 2.2C18.7667 1.63333 20.2667 1.28333 21.7 1.15C23.1667 1.01666 24.6333 0.949997 26.1 0.949997C27.2667 0.949997 28.5333 0.999997 29.9 1.1C31.2667 1.2 32.6167 1.46667 33.95 1.9C35.3167 2.3 36.6 2.95 37.8 3.85C39 4.71667 40.0333 5.93333 40.9 7.5C40.9333 7.56666 41.0333 7.8 41.2 8.2C41.3667 8.56667 41.5333 9 41.7 9.5C41.8667 9.96666 42.0167 10.4667 42.15 11C42.3167 11.5 42.4 11.9 42.4 12.2V12.65L31 13.25C30.9333 13.0833 30.8833 12.9 30.85 12.7C30.8167 12.5 30.8 12.3333 30.8 12.2C30.8 12.0667 30.8333 11.8 30.9 11.4C31 10.9667 31.1 10.5667 31.2 10.2C31.3667 10.2 31.5167 10.2 31.65 10.2C31.7833 10.2 31.9333 10.1667 32.1 10.1C31.7333 10.0333 31.3167 10.0167 30.85 10.05C30.4167 10.05 30.0167 10.05 29.65 10.05C28.9833 9.28333 28.2667 8.8 27.5 8.6C26.7333 8.36667 25.9167 8.25 25.05 8.25C24.6167 8.25 24.2333 8.26666 23.9 8.3C23.6 8.3 23.1667 8.45 22.6 8.75C22.6333 9.21666 22.6667 9.68333 22.7 10.15C22.7667 10.5833 22.85 11.0167 22.95 11.45C23.2167 11.4833 23.4833 11.5 23.75 11.5C24.05 11.5 24.35 11.5 24.65 11.5C24.65 11.7667 24.6667 12.05 24.7 12.35C24.7333 12.6167 24.7167 12.9167 24.65 13.25H30.45C30.5167 13.5167 30.5667 13.8667 30.6 14.3C30.6667 14.7333 30.7 15.1333 30.7 15.5C31.2667 15.8333 31.85 16.0667 32.45 16.2C33.05 16.3 33.65 16.4667 34.25 16.7C35.1833 17.0667 36.05 17.45 36.85 17.85C37.6833 18.25 38.5333 18.75 39.4 19.35H33.8C33.7333 19.9833 33.7333 20.65 33.8 21.35L21.7 21.45H33.75V23.45H42.75C42.8167 23.6167 42.8833 23.8167 42.95 24.05C43.0167 24.2833 43.0833 24.55 43.15 24.85H24.85C24.7167 24.85 24.3 24.7667 23.6 24.6C22.9333 24.4 22.3167 24.25 21.75 24.15V24.65H23.35C23.35 24.9833 23.35 25.3167 23.35 25.65C23.3833 25.9833 23.4 26.3 23.4 26.6C23.7667 26.7 24.1667 26.7 24.6 26.6V28H26.3V26H27V33.7C27.1667 33.7667 27.3333 33.7833 27.5 33.75C27.7 33.7167 27.9 33.7 28.1 33.7C28.1667 33.5333 28.2167 33.3667 28.25 33.2C28.2833 33 28.3 32.8 28.3 32.6H28.75C28.75 32.7667 28.75 32.9167 28.75 33.05C28.75 33.15 28.7833 33.2833 28.85 33.45V27.5C29.5833 27.6 30.3 27.6 31 27.5C30.8667 27.2667 30.65 27.05 30.35 26.85C30.0833 26.6167 29.8 26.4333 29.5 26.3C29.2 26.1333 28.9 26 28.6 25.9C28.3333 25.8 28.1333 25.7333 28 25.7H43.65L43.55 25.85C43.55 26.2167 43.5667 26.65 43.6 27.15C43.6667 27.6167 43.7 27.9167 43.7 28.05ZM10.4 8.6L10.3 9.15H10.15L10.25 8.6H10.4ZM0.7 40.85H0.55V40.4H0.7V40.85ZM26.25 14.55V14.2H24.3C24.3 14.2667 24.3167 14.3333 24.35 14.4C24.3833 14.4333 24.4 14.4833 24.4 14.55H26.25ZM22.55 13.55V9.5H21.5C21.3333 9.63333 21.2 9.76666 21.1 9.9C21 10 20.8667 10.0667 20.7 10.1C20.7 10.3667 20.6667 10.5167 20.6 10.55H19.95C19.8833 10.4833 19.8333 10.4 19.8 10.3C19.8 10.2 19.7667 10.1167 19.7 10.05V12.05C19.9 12.05 20.1 12.05 20.3 12.05C20.5 12.0167 20.7 12.0333 20.9 12.1C21.0667 12.3 21.3 12.55 21.6 12.85C21.9333 13.15 22.25 13.3833 22.55 13.55ZM22.75 15.15C22.75 15.05 22.7333 14.95 22.7 14.85C22.6667 14.7167 22.65 14.6333 22.65 14.6H14.3V15.15H22.75ZM76.4824 6.6C76.3158 6.53333 76.1324 6.48333 75.9324 6.45C75.7324 6.41666 75.5324 6.36667 75.3324 6.3C75.3991 5.73333 75.4324 5.3 75.4324 5C75.4324 4.7 75.4158 4.41666 75.3824 4.15L76.4824 6.6ZM75.1824 3.3L70.0324 1.75H74.6824C74.7824 1.95 74.8658 2.2 74.9324 2.5C75.0324 2.8 75.1158 3.06667 75.1824 3.3ZM80.5824 17.7H69.7324C69.6324 17.3667 69.5158 17 69.3824 16.6C69.2491 16.1667 69.1324 15.75 69.0324 15.35H79.7824C79.8824 15.7167 79.9991 16.0833 80.1324 16.45C80.2658 16.8167 80.4158 17.2333 80.5824 17.7ZM85.5824 30.8H81.1324L83.1324 24.35L85.5824 30.8ZM88.5824 38.8H82.5824C82.2824 39.0333 82.0824 39.2333 81.9824 39.4C81.9158 39.5667 81.8658 39.7333 81.8324 39.9C81.8324 40.0667 81.8491 40.2333 81.8824 40.4C81.9158 40.5333 81.9158 40.7 81.8824 40.9H78.0324L79.8324 35H82.9324V34.55H80.0324C80.1324 34.2167 80.2324 33.8833 80.3324 33.55C80.4324 33.1833 80.5324 32.85 80.6324 32.55H83.4824C83.5824 32.85 83.6824 33.1667 83.7824 33.5C83.8824 33.8333 83.9824 34.1833 84.0824 34.55H86.9824L88.5824 38.8ZM82.9324 23.75L80.6824 30.85H75.4324C75.3324 30.5833 75.2324 30.3167 75.1324 30.05C75.0324 29.75 74.9324 29.4667 74.8324 29.2H70.8324V27.55H65.3824C65.3824 27.5833 65.3658 27.6 65.3324 27.6C65.2658 27.6667 65.2324 27.7 65.2324 27.7C65.1658 28.2 65.0991 28.7 65.0324 29.2C64.9991 29.7 64.9824 30.2 64.9824 30.7C64.9824 30.7333 64.9491 30.7667 64.8824 30.8C64.8158 30.8 64.6991 30.8 64.5324 30.8C64.3658 30.8 64.0991 30.8167 63.7324 30.85C63.3991 30.85 62.9324 30.8667 62.3324 30.9H73.3824C73.4491 31.1667 73.5158 31.45 73.5824 31.75C73.6824 32.0167 73.7824 32.2833 73.8824 32.55H80.1824L79.5824 34.45H61.0824L59.0824 40.9H50.4324C50.5991 40.5333 50.7324 40.1833 50.8324 39.85C50.9658 39.5167 51.1658 39.1667 51.4324 38.8C51.2991 38.6333 51.0491 38.5167 50.6824 38.45C50.5158 38.85 50.3658 39.2667 50.2324 39.7C50.0991 40.1333 49.9824 40.5333 49.8824 40.9H46.7324L48.0324 37.5C47.9324 37.4333 47.8158 37.3833 47.6824 37.35C47.5491 37.3167 47.3991 37.2667 47.2324 37.2C47.1658 36.9333 47.1158 36.6667 47.0824 36.4C47.0491 36.1333 46.9991 35.8833 46.9324 35.65L48.7324 30.15H48.6324C48.4658 30.55 48.2991 31 48.1324 31.5C47.9991 32 47.8491 32.4833 47.6824 32.95C47.6491 32.95 47.6158 32.9333 47.5824 32.9C47.5491 32.9 47.4991 32.8667 47.4324 32.8L48.7824 29.35C48.7491 29.45 48.7158 29.5667 48.6824 29.7C48.6824 29.8333 48.7158 29.95 48.7824 30.05C48.8491 29.95 48.8824 29.8333 48.8824 29.7C48.9158 29.5667 48.9658 29.4167 49.0324 29.25C49.2324 29.0833 49.4824 28.95 49.7824 28.85C50.0824 28.7167 50.3491 28.5667 50.5824 28.4C50.8491 28.2333 51.0658 28.0333 51.2324 27.8C51.3991 27.5333 51.4658 27.1833 51.4324 26.75C51.2658 26.9167 51.0658 27.05 50.8324 27.15C50.6324 27.25 50.4324 27.35 50.2324 27.45C50.1658 27.0833 50.3324 26.8167 50.7324 26.65C51.1324 26.45 51.4324 26.3 51.6324 26.2C51.6991 26.1667 51.7158 26.1333 51.6824 26.1C51.6824 26.0667 51.6658 26.05 51.6324 26.05C51.2658 26.25 50.8991 26.4167 50.5324 26.55C50.5324 26.4833 50.5491 26.4 50.5824 26.3C50.6158 26.2 50.6324 26.1167 50.6324 26.05C50.7991 25.95 50.9991 25.8333 51.2324 25.7C51.4658 25.5333 51.6491 25.45 51.7824 25.45C51.9158 25.45 51.9658 25.45 51.9324 25.45C51.8991 25.45 51.9158 25.4833 51.9824 25.55C52.0491 25.4833 52.0658 25.4333 52.0324 25.4C52.0324 25.3333 52.0324 25.2167 52.0324 25.05C51.8658 25.2167 51.6658 25.35 51.4324 25.45C51.2324 25.55 51.0324 25.65 50.8324 25.75C50.8324 25.5167 50.8991 25.3333 51.0324 25.2C51.1658 25.0667 51.3158 24.9667 51.4824 24.9C51.6824 24.8 51.8491 24.7167 51.9824 24.65C52.1491 24.5833 52.2658 24.5 52.3324 24.4C52.1324 24.4 51.9324 24.45 51.7324 24.55C51.5324 24.65 51.3324 24.75 51.1324 24.85C51.0658 24.4833 51.2158 24.2333 51.5824 24.1C51.9491 23.9667 52.2991 23.8167 52.6324 23.65C52.6324 23.5833 52.5991 23.5167 52.5324 23.45C52.3324 23.5167 52.1324 23.6167 51.9324 23.75C51.7324 23.85 51.5324 23.95 51.3324 24.05C51.3324 23.8833 51.3991 23.75 51.5324 23.65C51.6658 23.5167 51.7991 23.4167 51.9324 23.35C52.0991 23.25 52.2491 23.1667 52.3824 23.1C52.5158 23 52.6158 22.8833 52.6824 22.75C53.2491 21.35 53.7658 19.9167 54.2324 18.45C54.7324 16.9833 55.2158 15.55 55.6824 14.15C55.7491 13.8833 55.8324 13.5833 55.9324 13.25C56.0324 12.8833 56.1658 12.5167 56.3324 12.15C56.4658 11.8833 56.5991 11.5 56.7324 11C56.8658 10.4667 57.0324 9.98333 57.2324 9.55C57.2991 9.31667 57.3658 9.08333 57.4324 8.85C57.4991 8.58333 57.5658 8.31667 57.6324 8.05C57.6991 8.15 57.7658 8.26667 57.8324 8.4C57.9324 8.53333 58.0158 8.68333 58.0824 8.85C58.1491 8.78333 58.1658 8.76666 58.1324 8.8C58.1324 8.83333 58.1324 8.78333 58.1324 8.65C58.1324 8.51667 58.0658 8.36667 57.9324 8.2C57.7991 8 57.7324 7.83333 57.7324 7.7C57.7324 7.63333 57.7658 7.48333 57.8324 7.25C57.9324 7.01667 58.0324 6.73333 58.1324 6.4C58.2324 6.06667 58.3324 5.73333 58.4324 5.4C58.5658 5.06666 58.6658 4.76666 58.7324 4.5C58.8991 4.43333 59.0658 4.35 59.2324 4.25C59.4324 4.11667 59.5991 4.05 59.7324 4.05C59.8324 4.05 59.9158 4.06667 59.9824 4.1C60.0824 4.13333 60.2324 4.18333 60.4324 4.25C60.6324 3.85 60.7991 3.43333 60.9324 3C61.0991 2.56666 61.2658 2.15 61.4324 1.75H62.8824L61.2324 4.5C61.3658 4.66667 61.5658 4.75 61.8324 4.75C62.1324 4.75 62.3158 4.91667 62.3824 5.25C62.7491 4.68333 63.0824 4.11666 63.3824 3.55C63.7158 2.95 64.0658 2.35 64.4324 1.75C64.7324 1.75 65.0491 1.75 65.3824 1.75C65.7158 1.71667 66.0158 1.73333 66.2824 1.8C67.6491 2.16666 68.9991 2.58333 70.3324 3.05C71.6658 3.51666 73.0158 3.95 74.3824 4.35C74.4158 4.75 74.3991 5.25 74.3324 5.85C74.2991 6.45 74.2491 7.08333 74.1824 7.75C74.5824 7.91667 75.0991 8.03333 75.7324 8.1C76.3658 8.16667 76.8491 8.4 77.1824 8.8C77.8824 9.63333 78.3491 10.6 78.5824 11.7C78.8491 12.7667 79.1824 13.8 79.5824 14.8L70.0324 14.95C69.8991 14.95 69.7158 14.95 69.4824 14.95C69.2824 14.95 69.0991 14.9333 68.9324 14.9C68.7324 14.4667 68.5491 14.0167 68.3824 13.55C68.2491 13.05 68.0991 12.55 67.9324 12.05C67.6324 12.4167 67.4491 12.8833 67.3824 13.45C67.3158 13.9833 67.1491 14.4833 66.8824 14.95H59.5824C59.4491 15.0833 59.3824 15.2 59.3824 15.3H66.7824C66.6824 15.6667 66.5824 16.0667 66.4824 16.5C66.3824 16.9 66.2824 17.3167 66.1824 17.75H58.4824C58.4824 17.8833 58.5158 17.9833 58.5824 18.05H65.9824L63.5824 25.95H72.1324L69.8324 18.05H80.7824L82.9324 23.75ZM70.5824 28.35C70.5158 28.6167 70.4658 28.9167 70.4324 29.25C70.4324 29.55 70.3991 29.85 70.3324 30.15C70.3991 29.85 70.4158 29.5167 70.3824 29.15C70.3491 28.7833 70.4158 28.5167 70.5824 28.35ZM70.2324 28.35L70.0324 30.1H69.8824L70.0824 28.35H70.2324ZM69.8824 28.35C69.8824 28.6167 69.8491 28.9167 69.7824 29.25C69.7491 29.55 69.6991 29.85 69.6324 30.15C69.6324 29.85 69.6491 29.55 69.6824 29.25C69.7491 28.9167 69.8158 28.6167 69.8824 28.35ZM69.5824 28.35C69.5158 28.6167 69.4658 28.9167 69.4324 29.25C69.4324 29.55 69.3991 29.85 69.3324 30.15C69.3991 29.85 69.4158 29.5167 69.3824 29.15C69.3491 28.7833 69.4158 28.5167 69.5824 28.35ZM69.1324 30.1H68.9824V28.35H69.1324V30.1ZM68.9324 28.35L68.7324 30.1H68.5824L68.7824 28.35H68.9324ZM79.3824 35.05L77.5824 40.95H76.7324L75.0324 35.05H79.3824ZM68.4324 28.35C68.4991 28.55 68.5158 28.8333 68.4824 29.2C68.4491 29.5333 68.3991 29.85 68.3324 30.15C68.3324 29.8833 68.3324 29.6 68.3324 29.3C68.3324 28.9667 68.3658 28.65 68.4324 28.35ZM68.2824 28.35C68.2158 28.65 68.1491 28.9667 68.0824 29.3C68.0491 29.6 67.9991 29.8833 67.9324 30.15V29.6C67.9324 29.4667 67.9658 29.2667 68.0324 29C68.0991 28.7333 68.1824 28.5167 68.2824 28.35ZM67.9324 28.35L67.7324 30.1H67.5824L67.7824 28.35H67.9324ZM67.5824 28.35C67.5491 28.65 67.5158 28.9833 67.4824 29.35C67.4824 29.7167 67.3991 29.9333 67.2324 30C67.2991 29.7333 67.3491 29.4667 67.3824 29.2C67.4491 28.9 67.5158 28.6167 67.5824 28.35ZM67.2824 28.35C67.2158 28.6167 67.1658 28.9167 67.1324 29.25C67.1324 29.55 67.0991 29.85 67.0324 30.15C67.0991 29.8167 67.0991 29.4833 67.0324 29.15C66.9991 28.8167 67.0824 28.55 67.2824 28.35ZM66.9324 28.35L66.7324 30.1H66.5824L66.7824 28.35H66.9324ZM66.5824 28.35C66.5824 28.6167 66.5491 28.9167 66.4824 29.25C66.4491 29.55 66.3991 29.85 66.3324 30.15C66.3324 29.85 66.3491 29.55 66.3824 29.25C66.4491 28.9167 66.5158 28.6167 66.5824 28.35ZM66.2824 28.35C66.2158 28.5833 66.1658 28.8833 66.1324 29.25C66.1324 29.5833 66.0991 29.8833 66.0324 30.15C66.0991 29.85 66.1158 29.5167 66.0824 29.15C66.0491 28.7833 66.1158 28.5167 66.2824 28.35ZM65.8824 28.35C65.8824 28.6167 65.8491 28.9167 65.7824 29.25C65.7491 29.55 65.6991 29.85 65.6324 30.15C65.6324 29.8833 65.6491 29.6 65.6824 29.3C65.7491 28.9667 65.8158 28.65 65.8824 28.35ZM58.0324 9.1V8.85H57.8824V9.1H58.0324ZM57.9324 9.4V9.15H57.7824V9.4H57.9324ZM57.8324 9.7V9.45H57.6824V9.7H57.8324ZM57.7324 10V9.75H57.5824V10H57.7324ZM57.6324 10.3V10.05H57.4824V10.3H57.6324ZM57.4324 10.45C57.3991 10.4833 57.3824 10.5 57.3824 10.5C57.3491 10.5 57.3324 10.4833 57.3324 10.45C57.2658 10.45 57.2324 10.5333 57.2324 10.7C57.2324 10.8667 57.2158 10.9833 57.1824 11.05C56.9491 11.7167 56.7324 12.3667 56.5324 13C56.3324 13.6333 56.0991 14.2833 55.8324 14.95C55.7324 14.85 55.6824 14.7167 55.6824 14.55C55.4491 15.0167 55.3324 15.3833 55.3324 15.65C55.6324 15.5167 55.8158 15.4 55.8824 15.3C56.1491 14.5 56.4158 13.7 56.6824 12.9C56.9491 12.0667 57.1991 11.25 57.4324 10.45ZM54.3824 21.85C54.3158 21.85 54.2324 21.8333 54.1324 21.8C54.0658 21.7667 53.9991 21.75 53.9324 21.75L49.9324 33.4C50.2991 33.5 50.6658 33.6333 51.0324 33.8C51.3991 33.9333 51.7824 34.05 52.1824 34.15L53.1824 30.95C52.9824 30.8833 52.7324 30.8167 52.4324 30.75C52.1324 30.6833 51.9658 30.5667 51.9324 30.4L54.3824 21.85ZM94.5914 16.25C94.6247 16.3833 94.5747 16.5167 94.4414 16.65C94.3414 16.7833 94.2414 16.9 94.1414 17V15.8C94.2747 15.9333 94.3747 16 94.4414 16C94.3747 15.5333 94.3747 15.0667 94.4414 14.6C94.5414 14.1333 94.5914 13.6167 94.5914 13.05V16.25ZM94.0914 25.5C93.9247 25.6667 93.6914 25.9 93.3914 26.2C93.1247 26.4667 93.0414 26.7333 93.1414 27C93.4414 26.8 93.6914 26.5667 93.8914 26.3C94.0914 26.0333 94.1581 25.7667 94.0914 25.5ZM94.0914 26.4C93.8581 26.7 93.6247 26.9167 93.3914 27.05C93.1581 27.15 93.0747 27.4333 93.1414 27.9C93.3747 27.7 93.6247 27.4667 93.8914 27.2C94.1581 26.9333 94.2247 26.6667 94.0914 26.4ZM126.191 41.15H95.1414V39.95C94.9081 39.8833 94.6414 39.8667 94.3414 39.9C94.0747 39.9 93.8247 39.8833 93.5914 39.85C93.4581 39.6833 93.2747 39.4333 93.0414 39.1C92.8414 38.7667 92.7414 38.5333 92.7414 38.4V31.7C93.0081 31.4333 93.2581 31.1667 93.4914 30.9C93.7247 30.6 93.9747 30.2667 94.2414 29.9L94.1414 28.7C94.0414 28.8 93.8914 28.95 93.6914 29.15C93.5247 29.3167 93.3414 29.4667 93.1414 29.6V29.15C93.1414 29.0167 93.2747 28.8333 93.5414 28.6C93.8414 28.3667 94.0747 28.15 94.2414 27.95V27.9C94.2414 27.8667 94.2247 27.8333 94.1914 27.8C94.0914 27.9667 93.9414 28.1333 93.7414 28.3C93.5414 28.4333 93.3414 28.6 93.1414 28.8C93.0414 28.4333 93.1081 28.1667 93.3414 28C93.5747 27.8 93.8247 27.5667 94.0914 27.3C94.0914 27.3667 94.0747 27.4167 94.0414 27.45C94.0414 27.4833 94.0747 27.5333 94.1414 27.6V19V25.05C94.0747 25.2167 93.9414 25.3833 93.7414 25.55C93.5414 25.7167 93.3414 25.85 93.1414 25.95V25.5C93.3081 25.3667 93.4747 25.2 93.6414 25C93.8081 24.8 93.9414 24.6 94.0414 24.4L93.9414 12.4L94.1914 12.6H94.2414C94.2747 12.6 94.3081 12.5833 94.3414 12.55C94.2414 12.4167 94.1414 12.3167 94.0414 12.25C93.9747 12.1833 93.9081 12.1 93.8414 12C93.9747 12.1333 94.1081 12.1667 94.2414 12.1L93.8414 11.7L94.0914 11.9H94.1414C94.1747 11.9 94.2081 11.8833 94.2414 11.85L93.8414 11.4L94.0914 11.6H94.1414C94.1747 11.6 94.2081 11.5833 94.2414 11.55L93.8414 11.1L94.0914 11.3H94.1414C94.1747 11.3 94.2081 11.2833 94.2414 11.25L93.8414 10.85V9C94.0747 9.13333 94.2081 9.28333 94.2414 9.45C94.3081 9.61666 94.3414 9.8 94.3414 10C94.3414 10.1667 94.3247 10.35 94.2914 10.55C94.2914 10.7167 94.3414 10.8667 94.4414 11C94.5081 10.8667 94.5414 10.7333 94.5414 10.6C94.5414 10.4333 94.5414 10.2833 94.5414 10.15C94.5414 9.85 94.5247 9.66666 94.4914 9.6C94.4581 9.5 94.4081 9.43333 94.3414 9.4C94.3081 9.33333 94.2414 9.26667 94.1414 9.2C94.0747 9.1 93.9747 8.91666 93.8414 8.65C93.7414 8.48333 93.6747 8.26667 93.6414 8C93.6414 7.73333 93.6414 7.46666 93.6414 7.2C93.6747 6.93333 93.6914 6.7 93.6914 6.5C93.7247 6.3 93.7414 6.16667 93.7414 6.1C93.7414 5.73333 93.7747 5.4 93.8414 5.1C93.9081 4.76666 94.3081 4.56666 95.0414 4.5C95.1414 3.66666 95.1414 2.83333 95.0414 2H107.291V4.75H103.091C102.891 5.51667 102.725 6.3 102.591 7.1C102.491 7.86667 102.358 8.66666 102.191 9.5H98.3914V10.25H107.291V11.5C107.458 11.5667 107.625 11.6 107.791 11.6C107.991 11.6 108.291 11.5667 108.691 11.5V18.8L108.641 14.05C108.441 13.9833 108.225 13.9667 107.991 14C107.791 14.0333 107.591 14.05 107.391 14.05V28.3L108.441 28.4V23.9C108.475 25.2 108.475 26.4667 108.441 27.7C108.441 28.9 108.358 30.1333 108.191 31.4C108.191 31.4333 108.208 31.4667 108.241 31.5C108.308 31.5667 108.375 31.6 108.441 31.6H126.191V41.15ZM108.641 23.55H108.491V19H108.641V23.55ZM92.5414 32L92.4414 35.65H92.2914L92.3914 32H92.5414ZM112.091 36C111.191 36 110.475 36 109.941 36C109.441 36 109.058 36 108.791 36C108.525 36 108.358 36.0167 108.291 36.05C108.225 36.05 108.175 36.0667 108.141 36.1C108.141 36.2667 108.141 36.4167 108.141 36.55C108.141 36.6833 108.108 36.8333 108.041 37H106.991C106.925 36.8333 106.891 36.6833 106.891 36.55C106.891 36.4167 106.891 36.3 106.891 36.2C106.825 36.2 106.741 36.1833 106.641 36.15C106.541 36.1167 106.491 36.0667 106.491 36H99.3914C99.2914 35.7333 99.1914 35.4667 99.0914 35.2C99.0247 34.9333 98.9581 34.6667 98.8914 34.4H98.4414V34.9C98.4414 35.0333 98.4747 35.15 98.5414 35.25C98.6081 35.35 98.6581 35.45 98.6914 35.55C98.7247 35.9167 98.7414 36.2833 98.7414 36.65C98.7414 36.9833 98.7414 37.3333 98.7414 37.7H106.041C106.108 38.0667 106.175 38.4333 106.241 38.8C106.308 39.1667 106.375 39.4833 106.441 39.75H111.191C111.391 38.45 111.691 37.2 112.091 36ZM105.491 40.25V39.8H98.3414L98.2414 40.25H105.491ZM163.344 40.9H161.744C161.61 40.9333 161.56 40.9333 161.594 40.9C161.66 40.8667 161.66 40.8167 161.594 40.75C161.427 40.6833 161.244 40.6333 161.044 40.6C160.844 40.5333 160.627 40.4833 160.394 40.45C160.16 40.4167 159.894 40.4333 159.594 40.5C159.294 40.5667 158.994 40.5833 158.694 40.55C158.527 40.5167 158.327 40.4833 158.094 40.45C157.894 40.3833 157.727 40.35 157.594 40.35H145.044C145.01 40.35 144.927 40.3667 144.794 40.4C144.694 40.4 144.56 40.4167 144.394 40.45C144.26 40.4833 144.127 40.55 143.994 40.65C143.894 40.7167 143.844 40.8 143.844 40.9H130.294V37.45C130.56 37.45 130.827 37.45 131.094 37.45C131.394 37.45 131.694 37.4333 131.994 37.4C132.094 37.2667 132.21 37.1167 132.344 36.95C132.51 36.75 132.594 36.5833 132.594 36.45V30.15H136.394C136.527 30.0167 136.594 29.9333 136.594 29.9C136.194 29.8333 135.794 29.8 135.394 29.8C134.994 29.8 134.594 29.8 134.194 29.8C134.194 29.7333 134.194 29.6833 134.194 29.65C134.227 29.5833 134.21 29.5167 134.144 29.45C134.077 29.5167 134.044 29.6333 134.044 29.8H132.594V27.45C132.76 27.5167 132.977 27.5667 133.244 27.6C133.51 27.6333 133.727 27.5667 133.894 27.4C133.727 27.2333 133.51 27.1667 133.244 27.2C132.977 27.2 132.76 27.2333 132.594 27.3V22C132.594 21.9 132.527 21.7333 132.394 21.5C132.294 21.2333 132.194 21.0167 132.094 20.85C131.794 20.8167 131.494 20.8167 131.194 20.85C131.194 20.7833 131.227 20.7333 131.294 20.7C131.36 20.6667 131.394 20.6167 131.394 20.55L131.444 20.6C131.444 20.6333 131.477 20.6833 131.544 20.75C131.61 20.6833 131.644 20.6 131.644 20.5C131.644 20.6 131.677 20.6833 131.744 20.75C131.81 20.6833 131.844 20.6 131.844 20.5C131.844 20.6 131.877 20.6833 131.944 20.75C132.01 20.6833 132.044 20.5667 132.044 20.4C132.044 20.4667 132.027 20.5333 131.994 20.6C131.994 20.6333 132.027 20.6833 132.094 20.75C132.227 20.5833 132.26 20.45 132.194 20.35C132.127 20.2167 132.06 20.0833 131.994 19.95C131.96 19.9833 131.944 20.0667 131.944 20.2C131.944 20.1 131.91 20.0167 131.844 19.95C131.777 20.0167 131.744 20.0833 131.744 20.15C131.744 20.1833 131.727 20.2333 131.694 20.3V20C131.627 19.9333 131.544 19.9167 131.444 19.95C131.344 19.95 131.294 19.9167 131.294 19.85C131.227 19.95 131.21 20.0333 131.244 20.1C131.31 20.1667 131.344 20.25 131.344 20.35C131.377 20.25 131.36 20.1667 131.294 20.1C131.26 20.0333 131.21 19.95 131.144 19.85C131.144 19.8833 131.127 19.9 131.094 19.9C131.027 19.9667 130.994 20 130.994 20V19.65H128.394L126.894 14.85H129.094C129.16 14.7833 129.194 14.6167 129.194 14.35C129.26 14.4167 129.327 14.5 129.394 14.6C129.46 14.6667 129.544 14.75 129.644 14.85L130.294 14.75C130.227 14.7167 130.16 14.65 130.094 14.55C130.06 14.45 129.994 14.35 129.894 14.25H130.244V1.75H131.944C131.844 2.05 131.844 2.28333 131.944 2.45C132.077 2.58333 132.244 2.68333 132.444 2.75C132.677 2.81667 132.91 2.85 133.144 2.85C133.41 2.85 133.594 2.85 133.694 2.85C133.794 2.85 133.994 2.83333 134.294 2.8C134.594 2.76666 134.81 2.75 134.944 2.75C135.077 2.75 135.144 2.78333 135.144 2.85C135.144 2.91667 135.21 2.95 135.344 2.95H143.694C144.094 2.95 144.36 2.86666 144.494 2.7C144.627 2.53333 144.66 2.21667 144.594 1.75H162.744V10.05H142.444V11.2H144.844C144.777 11.5333 144.727 11.8667 144.694 12.2C144.66 12.5 144.61 12.7833 144.544 13.05H135.644C135.61 13.25 135.644 13.5333 135.744 13.9C135.877 14.2667 136.077 14.6167 136.344 14.95C136.444 14.8167 136.494 14.7 136.494 14.6C136.494 14.5 136.46 14.4 136.394 14.3C136.36 14.2 136.327 14.1167 136.294 14.05C136.26 13.95 136.294 13.85 136.394 13.75H144.444C144.477 13.85 144.477 13.9833 144.444 14.15C144.444 14.2833 144.41 14.5333 144.344 14.9H150.644C150.744 15.1333 150.827 15.3667 150.894 15.6C150.96 15.8333 151.077 16.0833 151.244 16.35H160.044C160.11 16.5167 160.16 16.7 160.194 16.9C160.227 17.0667 160.244 17.2 160.244 17.3L151.444 17.4C151.51 17.5 151.56 17.6 151.594 17.7C151.627 17.7667 151.677 17.85 151.744 17.95L160.994 17.85C160.894 17.5833 160.81 17.3333 160.744 17.1C160.677 16.8667 160.594 16.6167 160.494 16.35H161.244V24.3H142.544C142.477 24.4 142.444 24.5 142.444 24.6H134.044C134.044 25.2667 134.077 25.9167 134.144 26.55C134.21 27.15 134.277 27.7833 134.344 28.45L136.694 28.55C136.694 28.05 136.71 27.55 136.744 27.05C136.777 26.5167 136.76 25.95 136.694 25.35H141.444V28.1H144.944C145.01 28.5333 145.06 29 145.094 29.5C145.16 29.9667 145.31 30.4 145.544 30.8C147.81 30.8333 150.077 30.8667 152.344 30.9C154.644 30.9 156.944 30.9 159.244 30.9H158.544C158.477 31.0667 158.444 31.2333 158.444 31.4C158.444 31.5333 158.41 31.7333 158.344 32C158.41 32 158.61 32.0167 158.944 32.05C159.31 32.05 159.744 32.05 160.244 32.05C160.744 32.05 161.26 32.05 161.794 32.05C162.36 32.0167 162.877 32 163.344 32V33C162.844 32.9 162.277 32.9 161.644 33C161.81 33.2667 162.06 33.3667 162.394 33.3C162.76 33.2333 163.077 33.2167 163.344 33.25V40.9ZM131.594 20.3H131.444V20.05H131.594V20.3ZM131.194 20.4H131.044V20.15H131.194V20.4ZM150.644 16.3C150.644 16.1333 150.627 16 150.594 15.9C150.56 15.8 150.544 15.7167 150.544 15.65H144.494V16.3H150.644ZM161.694 32.7V32.35H161.544V32.7H161.694ZM151.244 17.9C151.177 17.8 151.144 17.7 151.144 17.6C151.144 17.5 151.144 17.4167 151.144 17.35H137.344L136.744 15.55H136.394C136.494 15.9167 136.61 16.3 136.744 16.7C136.877 17.0667 136.994 17.4333 137.094 17.8C137.194 17.8667 137.31 17.9167 137.444 17.95C137.577 17.95 137.677 18 137.744 18.1C137.91 18.4667 138.027 18.8 138.094 19.1H143.244C143.31 19 143.344 18.9167 143.344 18.85C143.377 18.75 143.444 18.6333 143.544 18.5H146.444C146.444 18.3 146.544 18.1 146.744 17.9H151.244ZM144.394 19.1C144.627 19 144.627 18.8833 144.394 18.75V19.1ZM144.144 18.75C144.077 18.75 144.027 18.8 143.994 18.9C143.994 18.9667 143.994 19.0333 143.994 19.1C144.094 19.0333 144.16 18.9667 144.194 18.9C144.227 18.8 144.21 18.75 144.144 18.75ZM143.744 18.75C143.677 18.75 143.61 18.8 143.544 18.9C143.51 19 143.527 19.0833 143.594 19.15C143.694 19.0833 143.76 19 143.794 18.9C143.827 18.8 143.81 18.75 143.744 18.75ZM160.144 40.45V40.3H159.894V40.45H160.144ZM158.244 40.45V40.3H157.994V40.45H158.244ZM141.294 26.55H141.144L141.044 28.5H141.194L141.294 26.55ZM140.994 26.55H140.844L140.744 28.5H140.894L140.994 26.55ZM140.694 26.55H140.544L140.494 28.5H140.644L140.694 26.55ZM140.494 26.55H140.344L140.144 28.5H140.294L140.494 26.55ZM140.194 26.55H140.044L139.944 28.5H140.094L140.194 26.55ZM139.894 26.55H139.744L139.644 28.5H139.794L139.894 26.55ZM139.594 26.55H139.444L139.344 28.5H139.494L139.594 26.55ZM143.744 32C143.677 31.6333 143.644 31.3833 143.644 31.25C143.644 31.1167 143.644 31.0167 143.644 30.95H142.494V32H143.744ZM139.244 26.65C139.244 27.3167 139.194 27.95 139.094 28.55C139.16 28.0833 139.194 27.7167 139.194 27.45C139.227 27.1833 139.244 26.9167 139.244 26.65ZM130.244 19.1V18.05C130.244 18.0167 130.177 17.9333 130.044 17.8C129.944 17.6333 129.81 17.45 129.644 17.25C129.51 17.05 129.377 16.85 129.244 16.65C129.144 16.4167 129.094 16.2333 129.094 16.1C129.094 15.9667 129.094 15.8667 129.094 15.8C129.127 15.7 129.144 15.6167 129.144 15.55H127.494L128.594 19.1H130.244ZM139.094 26.55H138.944L138.744 28.5H138.894L139.094 26.55ZM138.794 26.55H138.644L138.544 28.5H138.694L138.794 26.55ZM138.494 26.55H138.344L138.244 28.5H138.394L138.494 26.55ZM138.194 26.55H138.044L137.944 28.5H138.094L138.194 26.55ZM137.844 26.55C137.844 26.75 137.827 27.0167 137.794 27.35C137.794 27.65 137.76 28.05 137.694 28.55C137.76 28.2833 137.794 27.9667 137.794 27.6C137.827 27.2 137.844 26.85 137.844 26.55ZM137.694 26.55H137.544L137.344 28.5H137.494L137.694 26.55ZM137.394 26.55H137.244L137.144 28.5H137.294L137.394 26.55ZM143.944 33.2V32.9H134.494V33.2H143.944ZM133.994 28.1V27.75H133.844V28.1H133.994ZM134.094 29V28.55H133.944V29H134.094ZM134.294 30.7V30.25H134.144V30.7H134.294ZM134.394 31.5V31.15H134.244V31.5H134.394ZM134.494 32.4V31.95H134.344V32.4H134.494ZM129.844 18.5H128.994V17.35C129.094 17.5167 129.227 17.7 129.394 17.9C129.56 18.1 129.71 18.3 129.844 18.5ZM168.511 2.2H168.261V2.05H168.511V2.2ZM201.561 28.05C201.561 28.1167 201.545 28.2667 201.511 28.5C201.511 28.7333 201.495 29 201.461 29.3C201.428 29.6 201.378 29.9167 201.311 30.25C201.278 30.55 201.245 30.8167 201.211 31.05C201.145 31.35 201.028 31.6833 200.861 32.05C200.728 32.4167 200.595 32.7833 200.461 33.15C200.228 33.85 199.828 34.5667 199.261 35.3C198.728 36.0333 198.095 36.7333 197.361 37.4C196.661 38.0333 195.911 38.6 195.111 39.1C194.345 39.5667 193.645 39.9 193.011 40.1C192.811 40.1667 192.678 40.2833 192.611 40.45C192.578 40.5833 192.561 40.7333 192.561 40.9C192.595 41.0667 192.611 41.2333 192.611 41.4C192.645 41.6 192.645 41.75 192.611 41.85H186.761C186.761 41.75 186.778 41.6333 186.811 41.5C186.845 41.4 186.795 41.35 186.661 41.35C186.595 41.35 186.428 41.35 186.161 41.35C185.895 41.3833 185.611 41.4 185.311 41.4C185.011 41.4 184.728 41.4 184.461 41.4C184.228 41.4333 184.078 41.45 184.011 41.45C182.111 41.45 180.178 41.3167 178.211 41.05C176.245 40.7833 174.411 40.2 172.711 39.3C171.045 38.3667 169.595 37.0333 168.361 35.3C167.161 33.5333 166.361 31.1667 165.961 28.2V27.9L177.511 27.2C177.478 27.7333 177.561 28.35 177.761 29.05C177.995 29.7167 178.328 30.3667 178.761 31C179.195 31.6333 179.695 32.1833 180.261 32.65C180.861 33.1167 181.511 33.4 182.211 33.5C182.345 33.5333 182.528 33.5833 182.761 33.65C182.995 33.7167 183.178 33.75 183.311 33.75H184.761C184.828 33.4167 184.845 33.0667 184.811 32.7C184.778 32.3333 184.761 31.95 184.761 31.55C184.395 31.4167 183.978 31.4167 183.511 31.55V29.2H179.761C179.728 28.5333 179.695 27.75 179.661 26.85C179.628 25.9167 179.578 25.0167 179.511 24.15C178.545 23.7833 177.478 23.4 176.311 23C175.178 22.6 174.128 22.1 173.161 21.5L179.461 21.4L173.011 21.35C171.911 20.8833 171.011 20.3 170.311 19.6C169.611 18.8667 169.045 18.1 168.611 17.3C168.178 16.4667 167.878 15.6333 167.711 14.8C167.545 13.9667 167.461 13.1833 167.461 12.45C167.461 12.35 167.461 12.1 167.461 11.7C167.461 11.2667 167.495 10.9 167.561 10.6C167.728 10.4333 167.695 10.3 167.461 10.2H168.411V3.25H172.861C172.995 3.25 173.311 3.11666 173.811 2.85C174.345 2.55 174.761 2.33333 175.061 2.2C176.628 1.63333 178.128 1.28333 179.561 1.15C181.028 1.01666 182.495 0.949997 183.961 0.949997C185.128 0.949997 186.395 0.999997 187.761 1.1C189.128 1.2 190.478 1.46667 191.811 1.9C193.178 2.3 194.461 2.95 195.661 3.85C196.861 4.71667 197.895 5.93333 198.761 7.5C198.795 7.56666 198.895 7.8 199.061 8.2C199.228 8.56667 199.395 9 199.561 9.5C199.728 9.96666 199.878 10.4667 200.011 11C200.178 11.5 200.261 11.9 200.261 12.2V12.65L188.861 13.25C188.795 13.0833 188.745 12.9 188.711 12.7C188.678 12.5 188.661 12.3333 188.661 12.2C188.661 12.0667 188.695 11.8 188.761 11.4C188.861 10.9667 188.961 10.5667 189.061 10.2C189.228 10.2 189.378 10.2 189.511 10.2C189.645 10.2 189.795 10.1667 189.961 10.1C189.595 10.0333 189.178 10.0167 188.711 10.05C188.278 10.05 187.878 10.05 187.511 10.05C186.845 9.28333 186.128 8.8 185.361 8.6C184.595 8.36667 183.778 8.25 182.911 8.25C182.478 8.25 182.095 8.26666 181.761 8.3C181.461 8.3 181.028 8.45 180.461 8.75C180.495 9.21666 180.528 9.68333 180.561 10.15C180.628 10.5833 180.711 11.0167 180.811 11.45C181.078 11.4833 181.345 11.5 181.611 11.5C181.911 11.5 182.211 11.5 182.511 11.5C182.511 11.7667 182.528 12.05 182.561 12.35C182.595 12.6167 182.578 12.9167 182.511 13.25H188.311C188.378 13.5167 188.428 13.8667 188.461 14.3C188.528 14.7333 188.561 15.1333 188.561 15.5C189.128 15.8333 189.711 16.0667 190.311 16.2C190.911 16.3 191.511 16.4667 192.111 16.7C193.045 17.0667 193.911 17.45 194.711 17.85C195.545 18.25 196.395 18.75 197.261 19.35H191.661C191.595 19.9833 191.595 20.65 191.661 21.35L179.561 21.45H191.611V23.45H200.611C200.678 23.6167 200.745 23.8167 200.811 24.05C200.878 24.2833 200.945 24.55 201.011 24.85H182.711C182.578 24.85 182.161 24.7667 181.461 24.6C180.795 24.4 180.178 24.25 179.611 24.15V24.65H181.211C181.211 24.9833 181.211 25.3167 181.211 25.65C181.245 25.9833 181.261 26.3 181.261 26.6C181.628 26.7 182.028 26.7 182.461 26.6V28H184.161V26H184.861V33.7C185.028 33.7667 185.195 33.7833 185.361 33.75C185.561 33.7167 185.761 33.7 185.961 33.7C186.028 33.5333 186.078 33.3667 186.111 33.2C186.145 33 186.161 32.8 186.161 32.6H186.611C186.611 32.7667 186.611 32.9167 186.611 33.05C186.611 33.15 186.645 33.2833 186.711 33.45V27.5C187.445 27.6 188.161 27.6 188.861 27.5C188.728 27.2667 188.511 27.05 188.211 26.85C187.945 26.6167 187.661 26.4333 187.361 26.3C187.061 26.1333 186.761 26 186.461 25.9C186.195 25.8 185.995 25.7333 185.861 25.7H201.511L201.411 25.85C201.411 26.2167 201.428 26.65 201.461 27.15C201.528 27.6167 201.561 27.9167 201.561 28.05ZM168.261 8.6L168.161 9.15H168.011L168.111 8.6H168.261ZM158.561 40.85H158.411V40.4H158.561V40.85ZM184.111 14.55V14.2H182.161C182.161 14.2667 182.178 14.3333 182.211 14.4C182.245 14.4333 182.261 14.4833 182.261 14.55H184.111ZM180.411 13.55V9.5H179.361C179.195 9.63333 179.061 9.76666 178.961 9.9C178.861 10 178.728 10.0667 178.561 10.1C178.561 10.3667 178.528 10.5167 178.461 10.55H177.811C177.745 10.4833 177.695 10.4 177.661 10.3C177.661 10.2 177.628 10.1167 177.561 10.05V12.05C177.761 12.05 177.961 12.05 178.161 12.05C178.361 12.0167 178.561 12.0333 178.761 12.1C178.928 12.3 179.161 12.55 179.461 12.85C179.795 13.15 180.111 13.3833 180.411 13.55ZM180.611 15.15C180.611 15.05 180.595 14.95 180.561 14.85C180.528 14.7167 180.511 14.6333 180.511 14.6H172.161V15.15H180.611ZM223.937 16.25C223.97 16.3833 223.92 16.5167 223.787 16.65C223.687 16.7833 223.587 16.9 223.487 17V15.8C223.62 15.9333 223.72 16 223.787 16C223.72 15.5333 223.72 15.0667 223.787 14.6C223.887 14.1333 223.937 13.6167 223.937 13.05V16.25ZM223.437 25.5C223.27 25.6667 223.037 25.9 222.737 26.2C222.47 26.4667 222.387 26.7333 222.487 27C222.787 26.8 223.037 26.5667 223.237 26.3C223.437 26.0333 223.504 25.7667 223.437 25.5ZM223.437 26.4C223.204 26.7 222.97 26.9167 222.737 27.05C222.504 27.15 222.42 27.4333 222.487 27.9C222.72 27.7 222.97 27.4667 223.237 27.2C223.504 26.9333 223.57 26.6667 223.437 26.4ZM255.537 41.15H224.487V39.95C224.254 39.8833 223.987 39.8667 223.687 39.9C223.42 39.9 223.17 39.8833 222.937 39.85C222.804 39.6833 222.62 39.4333 222.387 39.1C222.187 38.7667 222.087 38.5333 222.087 38.4V31.7C222.354 31.4333 222.604 31.1667 222.837 30.9C223.07 30.6 223.32 30.2667 223.587 29.9L223.487 28.7C223.387 28.8 223.237 28.95 223.037 29.15C222.87 29.3167 222.687 29.4667 222.487 29.6V29.15C222.487 29.0167 222.62 28.8333 222.887 28.6C223.187 28.3667 223.42 28.15 223.587 27.95V27.9C223.587 27.8667 223.57 27.8333 223.537 27.8C223.437 27.9667 223.287 28.1333 223.087 28.3C222.887 28.4333 222.687 28.6 222.487 28.8C222.387 28.4333 222.454 28.1667 222.687 28C222.92 27.8 223.17 27.5667 223.437 27.3C223.437 27.3667 223.42 27.4167 223.387 27.45C223.387 27.4833 223.42 27.5333 223.487 27.6V19V25.05C223.42 25.2167 223.287 25.3833 223.087 25.55C222.887 25.7167 222.687 25.85 222.487 25.95V25.5C222.654 25.3667 222.82 25.2 222.987 25C223.154 24.8 223.287 24.6 223.387 24.4L223.287 12.4L223.537 12.6H223.587C223.62 12.6 223.654 12.5833 223.687 12.55C223.587 12.4167 223.487 12.3167 223.387 12.25C223.32 12.1833 223.254 12.1 223.187 12C223.32 12.1333 223.454 12.1667 223.587 12.1L223.187 11.7L223.437 11.9H223.487C223.52 11.9 223.554 11.8833 223.587 11.85L223.187 11.4L223.437 11.6H223.487C223.52 11.6 223.554 11.5833 223.587 11.55L223.187 11.1L223.437 11.3H223.487C223.52 11.3 223.554 11.2833 223.587 11.25L223.187 10.85V9C223.42 9.13333 223.554 9.28333 223.587 9.45C223.654 9.61666 223.687 9.8 223.687 10C223.687 10.1667 223.67 10.35 223.637 10.55C223.637 10.7167 223.687 10.8667 223.787 11C223.854 10.8667 223.887 10.7333 223.887 10.6C223.887 10.4333 223.887 10.2833 223.887 10.15C223.887 9.85 223.87 9.66666 223.837 9.6C223.804 9.5 223.754 9.43333 223.687 9.4C223.654 9.33333 223.587 9.26667 223.487 9.2C223.42 9.1 223.32 8.91666 223.187 8.65C223.087 8.48333 223.02 8.26667 222.987 8C222.987 7.73333 222.987 7.46666 222.987 7.2C223.02 6.93333 223.037 6.7 223.037 6.5C223.07 6.3 223.087 6.16667 223.087 6.1C223.087 5.73333 223.12 5.4 223.187 5.1C223.254 4.76666 223.654 4.56666 224.387 4.5C224.487 3.66666 224.487 2.83333 224.387 2H236.637V4.75H232.437C232.237 5.51667 232.07 6.3 231.937 7.1C231.837 7.86667 231.704 8.66666 231.537 9.5H227.737V10.25H236.637V11.5C236.804 11.5667 236.97 11.6 237.137 11.6C237.337 11.6 237.637 11.5667 238.037 11.5V18.8L237.987 14.05C237.787 13.9833 237.57 13.9667 237.337 14C237.137 14.0333 236.937 14.05 236.737 14.05V28.3L237.787 28.4V23.9C237.82 25.2 237.82 26.4667 237.787 27.7C237.787 28.9 237.704 30.1333 237.537 31.4C237.537 31.4333 237.554 31.4667 237.587 31.5C237.654 31.5667 237.72 31.6 237.787 31.6H255.537V41.15ZM237.987 23.55H237.837V19H237.987V23.55ZM221.887 32L221.787 35.65H221.637L221.737 32H221.887ZM241.437 36C240.537 36 239.82 36 239.287 36C238.787 36 238.404 36 238.137 36C237.87 36 237.704 36.0167 237.637 36.05C237.57 36.05 237.52 36.0667 237.487 36.1C237.487 36.2667 237.487 36.4167 237.487 36.55C237.487 36.6833 237.454 36.8333 237.387 37H236.337C236.27 36.8333 236.237 36.6833 236.237 36.55C236.237 36.4167 236.237 36.3 236.237 36.2C236.17 36.2 236.087 36.1833 235.987 36.15C235.887 36.1167 235.837 36.0667 235.837 36H228.737C228.637 35.7333 228.537 35.4667 228.437 35.2C228.37 34.9333 228.304 34.6667 228.237 34.4H227.787V34.9C227.787 35.0333 227.82 35.15 227.887 35.25C227.954 35.35 228.004 35.45 228.037 35.55C228.07 35.9167 228.087 36.2833 228.087 36.65C228.087 36.9833 228.087 37.3333 228.087 37.7H235.387C235.454 38.0667 235.52 38.4333 235.587 38.8C235.654 39.1667 235.72 39.4833 235.787 39.75H240.537C240.737 38.45 241.037 37.2 241.437 36ZM234.837 40.25V39.8H227.687L227.587 40.25H234.837ZM292.689 40.9H291.089C290.956 40.9333 290.906 40.9333 290.939 40.9C291.006 40.8667 291.006 40.8167 290.939 40.75C290.773 40.6833 290.589 40.6333 290.389 40.6C290.189 40.5333 289.973 40.4833 289.739 40.45C289.506 40.4167 289.239 40.4333 288.939 40.5C288.639 40.5667 288.339 40.5833 288.039 40.55C287.873 40.5167 287.673 40.4833 287.439 40.45C287.239 40.3833 287.073 40.35 286.939 40.35H274.389C274.356 40.35 274.273 40.3667 274.139 40.4C274.039 40.4 273.906 40.4167 273.739 40.45C273.606 40.4833 273.473 40.55 273.339 40.65C273.239 40.7167 273.189 40.8 273.189 40.9H259.639V37.45C259.906 37.45 260.173 37.45 260.439 37.45C260.739 37.45 261.039 37.4333 261.339 37.4C261.439 37.2667 261.556 37.1167 261.689 36.95C261.856 36.75 261.939 36.5833 261.939 36.45V30.15H265.739C265.873 30.0167 265.939 29.9333 265.939 29.9C265.539 29.8333 265.139 29.8 264.739 29.8C264.339 29.8 263.939 29.8 263.539 29.8C263.539 29.7333 263.539 29.6833 263.539 29.65C263.573 29.5833 263.556 29.5167 263.489 29.45C263.423 29.5167 263.389 29.6333 263.389 29.8H261.939V27.45C262.106 27.5167 262.323 27.5667 262.589 27.6C262.856 27.6333 263.073 27.5667 263.239 27.4C263.073 27.2333 262.856 27.1667 262.589 27.2C262.323 27.2 262.106 27.2333 261.939 27.3V22C261.939 21.9 261.873 21.7333 261.739 21.5C261.639 21.2333 261.539 21.0167 261.439 20.85C261.139 20.8167 260.839 20.8167 260.539 20.85C260.539 20.7833 260.573 20.7333 260.639 20.7C260.706 20.6667 260.739 20.6167 260.739 20.55L260.789 20.6C260.789 20.6333 260.823 20.6833 260.889 20.75C260.956 20.6833 260.989 20.6 260.989 20.5C260.989 20.6 261.023 20.6833 261.089 20.75C261.156 20.6833 261.189 20.6 261.189 20.5C261.189 20.6 261.223 20.6833 261.289 20.75C261.356 20.6833 261.389 20.5667 261.389 20.4C261.389 20.4667 261.373 20.5333 261.339 20.6C261.339 20.6333 261.373 20.6833 261.439 20.75C261.573 20.5833 261.606 20.45 261.539 20.35C261.473 20.2167 261.406 20.0833 261.339 19.95C261.306 19.9833 261.289 20.0667 261.289 20.2C261.289 20.1 261.256 20.0167 261.189 19.95C261.123 20.0167 261.089 20.0833 261.089 20.15C261.089 20.1833 261.073 20.2333 261.039 20.3V20C260.973 19.9333 260.889 19.9167 260.789 19.95C260.689 19.95 260.639 19.9167 260.639 19.85C260.573 19.95 260.556 20.0333 260.589 20.1C260.656 20.1667 260.689 20.25 260.689 20.35C260.723 20.25 260.706 20.1667 260.639 20.1C260.606 20.0333 260.556 19.95 260.489 19.85C260.489 19.8833 260.473 19.9 260.439 19.9C260.373 19.9667 260.339 20 260.339 20V19.65H257.739L256.239 14.85H258.439C258.506 14.7833 258.539 14.6167 258.539 14.35C258.606 14.4167 258.673 14.5 258.739 14.6C258.806 14.6667 258.889 14.75 258.989 14.85L259.639 14.75C259.573 14.7167 259.506 14.65 259.439 14.55C259.406 14.45 259.339 14.35 259.239 14.25H259.589V1.75H261.289C261.189 2.05 261.189 2.28333 261.289 2.45C261.423 2.58333 261.589 2.68333 261.789 2.75C262.023 2.81667 262.256 2.85 262.489 2.85C262.756 2.85 262.939 2.85 263.039 2.85C263.139 2.85 263.339 2.83333 263.639 2.8C263.939 2.76666 264.156 2.75 264.289 2.75C264.423 2.75 264.489 2.78333 264.489 2.85C264.489 2.91667 264.556 2.95 264.689 2.95H273.039C273.439 2.95 273.706 2.86666 273.839 2.7C273.973 2.53333 274.006 2.21667 273.939 1.75H292.089V10.05H271.789V11.2H274.189C274.123 11.5333 274.073 11.8667 274.039 12.2C274.006 12.5 273.956 12.7833 273.889 13.05H264.989C264.956 13.25 264.989 13.5333 265.089 13.9C265.223 14.2667 265.423 14.6167 265.689 14.95C265.789 14.8167 265.839 14.7 265.839 14.6C265.839 14.5 265.806 14.4 265.739 14.3C265.706 14.2 265.673 14.1167 265.639 14.05C265.606 13.95 265.639 13.85 265.739 13.75H273.789C273.823 13.85 273.823 13.9833 273.789 14.15C273.789 14.2833 273.756 14.5333 273.689 14.9H279.989C280.089 15.1333 280.173 15.3667 280.239 15.6C280.306 15.8333 280.423 16.0833 280.589 16.35H289.389C289.456 16.5167 289.506 16.7 289.539 16.9C289.573 17.0667 289.589 17.2 289.589 17.3L280.789 17.4C280.856 17.5 280.906 17.6 280.939 17.7C280.973 17.7667 281.023 17.85 281.089 17.95L290.339 17.85C290.239 17.5833 290.156 17.3333 290.089 17.1C290.023 16.8667 289.939 16.6167 289.839 16.35H290.589V24.3H271.889C271.823 24.4 271.789 24.5 271.789 24.6H263.389C263.389 25.2667 263.423 25.9167 263.489 26.55C263.556 27.15 263.623 27.7833 263.689 28.45L266.039 28.55C266.039 28.05 266.056 27.55 266.089 27.05C266.123 26.5167 266.106 25.95 266.039 25.35H270.789V28.1H274.289C274.356 28.5333 274.406 29 274.439 29.5C274.506 29.9667 274.656 30.4 274.889 30.8C277.156 30.8333 279.423 30.8667 281.689 30.9C283.989 30.9 286.289 30.9 288.589 30.9H287.889C287.823 31.0667 287.789 31.2333 287.789 31.4C287.789 31.5333 287.756 31.7333 287.689 32C287.756 32 287.956 32.0167 288.289 32.05C288.656 32.05 289.089 32.05 289.589 32.05C290.089 32.05 290.606 32.05 291.139 32.05C291.706 32.0167 292.223 32 292.689 32V33C292.189 32.9 291.623 32.9 290.989 33C291.156 33.2667 291.406 33.3667 291.739 33.3C292.106 33.2333 292.423 33.2167 292.689 33.25V40.9ZM260.939 20.3H260.789V20.05H260.939V20.3ZM260.539 20.4H260.389V20.15H260.539V20.4ZM279.989 16.3C279.989 16.1333 279.973 16 279.939 15.9C279.906 15.8 279.889 15.7167 279.889 15.65H273.839V16.3H279.989ZM291.039 32.7V32.35H290.889V32.7H291.039ZM280.589 17.9C280.523 17.8 280.489 17.7 280.489 17.6C280.489 17.5 280.489 17.4167 280.489 17.35H266.689L266.089 15.55H265.739C265.839 15.9167 265.956 16.3 266.089 16.7C266.223 17.0667 266.339 17.4333 266.439 17.8C266.539 17.8667 266.656 17.9167 266.789 17.95C266.923 17.95 267.023 18 267.089 18.1C267.256 18.4667 267.373 18.8 267.439 19.1H272.589C272.656 19 272.689 18.9167 272.689 18.85C272.723 18.75 272.789 18.6333 272.889 18.5H275.789C275.789 18.3 275.889 18.1 276.089 17.9H280.589ZM273.739 19.1C273.973 19 273.973 18.8833 273.739 18.75V19.1ZM273.489 18.75C273.423 18.75 273.373 18.8 273.339 18.9C273.339 18.9667 273.339 19.0333 273.339 19.1C273.439 19.0333 273.506 18.9667 273.539 18.9C273.573 18.8 273.556 18.75 273.489 18.75ZM273.089 18.75C273.023 18.75 272.956 18.8 272.889 18.9C272.856 19 272.873 19.0833 272.939 19.15C273.039 19.0833 273.106 19 273.139 18.9C273.173 18.8 273.156 18.75 273.089 18.75ZM289.489 40.45V40.3H289.239V40.45H289.489ZM287.589 40.45V40.3H287.339V40.45H287.589ZM270.639 26.55H270.489L270.389 28.5H270.539L270.639 26.55ZM270.339 26.55H270.189L270.089 28.5H270.239L270.339 26.55ZM270.039 26.55H269.889L269.839 28.5H269.989L270.039 26.55ZM269.839 26.55H269.689L269.489 28.5H269.639L269.839 26.55ZM269.539 26.55H269.389L269.289 28.5H269.439L269.539 26.55ZM269.239 26.55H269.089L268.989 28.5H269.139L269.239 26.55ZM268.939 26.55H268.789L268.689 28.5H268.839L268.939 26.55ZM273.089 32C273.023 31.6333 272.989 31.3833 272.989 31.25C272.989 31.1167 272.989 31.0167 272.989 30.95H271.839V32H273.089ZM268.589 26.65C268.589 27.3167 268.539 27.95 268.439 28.55C268.506 28.0833 268.539 27.7167 268.539 27.45C268.573 27.1833 268.589 26.9167 268.589 26.65ZM259.589 19.1V18.05C259.589 18.0167 259.523 17.9333 259.389 17.8C259.289 17.6333 259.156 17.45 258.989 17.25C258.856 17.05 258.723 16.85 258.589 16.65C258.489 16.4167 258.439 16.2333 258.439 16.1C258.439 15.9667 258.439 15.8667 258.439 15.8C258.473 15.7 258.489 15.6167 258.489 15.55H256.839L257.939 19.1H259.589ZM268.439 26.55H268.289L268.089 28.5H268.239L268.439 26.55ZM268.139 26.55H267.989L267.889 28.5H268.039L268.139 26.55ZM267.839 26.55H267.689L267.589 28.5H267.739L267.839 26.55ZM267.539 26.55H267.389L267.289 28.5H267.439L267.539 26.55ZM267.189 26.55C267.189 26.75 267.173 27.0167 267.139 27.35C267.139 27.65 267.106 28.05 267.039 28.55C267.106 28.2833 267.139 27.9667 267.139 27.6C267.173 27.2 267.189 26.85 267.189 26.55ZM267.039 26.55H266.889L266.689 28.5H266.839L267.039 26.55ZM266.739 26.55H266.589L266.489 28.5H266.639L266.739 26.55ZM273.289 33.2V32.9H263.839V33.2H273.289ZM263.339 28.1V27.75H263.189V28.1H263.339ZM263.439 29V28.55H263.289V29H263.439ZM263.639 30.7V30.25H263.489V30.7H263.639ZM263.739 31.5V31.15H263.589V31.5H263.739ZM263.839 32.4V31.95H263.689V32.4H263.839ZM259.189 18.5H258.339V17.35C258.439 17.5167 258.573 17.7 258.739 17.9C258.906 18.1 259.056 18.3 259.189 18.5ZM328.007 13.85C327.807 13.9167 327.574 13.9833 327.307 14.05C327.04 14.0833 326.774 14.1333 326.507 14.2C326.507 14.1333 326.507 14.0667 326.507 14C326.54 13.9 326.524 13.85 326.457 13.85H328.007ZM338.807 24.8C338.674 24.8 338.574 24.8333 338.507 24.9C338.44 25.3 338.357 25.75 338.257 26.25C338.157 26.7167 338.19 27.2 338.357 27.7L338.807 27.3V35.3C337.14 36.5 335.507 37.5167 333.907 38.35C332.307 39.15 330.707 39.8 329.107 40.3C327.54 40.7667 325.957 41.1 324.357 41.3C322.757 41.5 321.14 41.6 319.507 41.6C318.407 41.6 317.174 41.5333 315.807 41.4C314.474 41.2667 313.09 41 311.657 40.6C310.257 40.1667 308.874 39.5833 307.507 38.85C306.14 38.0833 304.924 37.1 303.857 35.9C303.79 36 303.74 36.1 303.707 36.2C303.707 36.2667 303.674 36.3333 303.607 36.4C303.54 36.3 303.507 36.1833 303.507 36.05C303.507 35.9167 303.49 35.7667 303.457 35.6C303.324 35.4667 303.224 35.3 303.157 35.1C303.09 35.1667 303.057 35.3 303.057 35.5C303.057 35.4 303.057 35.3 303.057 35.2C303.057 35.1 303.024 34.9667 302.957 34.8C302.89 34.9 302.857 35.0167 302.857 35.15C302.857 35.2833 302.857 35.4333 302.857 35.6C302.857 35.4333 302.857 35.2667 302.857 35.1C302.857 34.9333 302.824 34.7667 302.757 34.6C302.69 34.7667 302.657 34.9167 302.657 35.05C302.657 35.1833 302.657 35.3333 302.657 35.5V35.45H302.607C302.574 35.45 302.54 35.45 302.507 35.45C302.507 35.4167 302.49 35.4 302.457 35.4C302.324 35.4 302.274 35.4 302.307 35.4C302.34 35.4 302.357 35.4333 302.357 35.5C302.357 35.2 302.34 34.9167 302.307 34.65C302.307 34.35 302.257 34.0667 302.157 33.8C302.09 33.6333 301.957 33.3667 301.757 33C301.557 32.6333 301.34 32.2333 301.107 31.8C300.874 31.3333 300.64 30.8667 300.407 30.4C300.207 29.9 300.074 29.45 300.007 29.05C300.074 29.05 300.14 29.05 300.207 29.05C300.307 29.05 300.407 29.0167 300.507 28.95V28.6C300.44 28.5667 300.357 28.55 300.257 28.55C300.157 28.55 300.057 28.55 299.957 28.55C299.89 28.55 299.824 28.5167 299.757 28.45C299.69 28.3833 299.64 28.2667 299.607 28.1H296.707L296.407 23.9C296.407 23.8 296.424 23.45 296.457 22.85C296.49 22.25 296.524 21.75 296.557 21.35C296.557 21.1833 296.557 20.9833 296.557 20.75C296.557 20.4833 296.557 20.2333 296.557 20C296.59 19.7333 296.64 19.5167 296.707 19.35C296.807 19.15 296.957 19.0167 297.157 18.95V11.65H300.657C300.724 11.5833 300.757 11.5167 300.757 11.45C300.79 11.3833 300.84 11.3167 300.907 11.25C300.84 11.1833 300.757 11.1667 300.657 11.2C300.59 11.2 300.507 11.2 300.407 11.2C300.474 11.0333 300.507 10.8833 300.507 10.75C300.507 10.5833 300.507 10.4167 300.507 10.25C300.674 10.25 300.84 10.2667 301.007 10.3C301.174 10.3 301.307 10.2333 301.407 10.1C301.507 10 301.64 9.85 301.807 9.65C301.974 9.41667 302.157 9.16667 302.357 8.9C302.557 8.63333 302.757 8.35 302.957 8.05C303.157 7.71667 303.324 7.41666 303.457 7.15C303.524 7.05 303.54 6.78333 303.507 6.35C303.507 5.91667 303.507 5.51667 303.507 5.15H304.757C304.824 5.21667 304.857 5.31667 304.857 5.45C304.857 5.55 304.89 5.63333 304.957 5.7C306.09 4.66666 307.29 3.85 308.557 3.25C309.857 2.61666 311.157 2.13333 312.457 1.8C313.757 1.46667 315.057 1.25 316.357 1.15C317.657 1.05 318.924 0.999999 320.157 0.999999C321.657 0.999999 323.307 1.08333 325.107 1.25C326.907 1.41667 328.657 1.86667 330.357 2.6C332.09 3.3 333.657 4.4 335.057 5.9C336.49 7.4 337.54 9.46667 338.207 12.1L330.857 13.4C330.724 13.4333 330.557 13.3833 330.357 13.25C330.19 13.0833 330.057 13 329.957 13H326.007C325.807 12.5 325.49 12.05 325.057 11.65C324.624 11.2167 324.14 10.85 323.607 10.55C323.074 10.25 322.54 10.0167 322.007 9.85C321.474 9.68333 321.024 9.6 320.657 9.6H320.007V16.4C320.007 16.5333 320.04 16.6 320.107 16.6C320.174 16.5667 320.224 16.5833 320.257 16.65C320.324 16.95 320.34 17.25 320.307 17.55C320.307 17.85 320.307 18.15 320.307 18.45L330.157 18.5C330.357 18.5667 330.607 18.7 330.907 18.9C331.24 19.0667 331.524 19.1667 331.757 19.2C332.424 19.3 333.074 19.3333 333.707 19.3C334.34 19.2667 334.99 19.2667 335.657 19.3H332.157C332.09 19.3667 332.074 19.4167 332.107 19.45C332.174 19.45 332.24 19.45 332.307 19.45L329.107 20.9C329.14 21.0333 329.24 21.1167 329.407 21.15C329.574 21.1833 329.757 21.2 329.957 21.2C330.157 21.1667 330.357 21.1333 330.557 21.1C330.757 21.0667 330.924 21.05 331.057 21.05C331.59 21.0167 332.224 21 332.957 21C333.69 20.9667 334.39 20.9333 335.057 20.9C335.757 20.8667 336.357 20.85 336.857 20.85C337.357 20.8167 337.64 20.8 337.707 20.8C337.807 20.8 337.924 20.8167 338.057 20.85C338.224 20.85 338.357 20.85 338.457 20.85C338.457 20.8833 338.49 20.95 338.557 21.05C338.624 21.1167 338.707 21.15 338.807 21.15V24.8ZM328.207 24.85H326.207L325.907 28.7H327.907V25.2C327.974 25.1333 328.024 25.0833 328.057 25.05C328.09 24.9833 328.14 24.9167 328.207 24.85ZM334.107 33.25C329.774 33.25 325.44 33.25 321.107 33.25C316.807 33.25 312.49 33.2333 308.157 33.2C308.09 33.1333 308.024 33.0833 307.957 33.05C307.924 32.9833 307.907 32.9167 307.907 32.85H305.057C304.99 32.7167 304.907 32.6167 304.807 32.55C304.74 32.4833 304.707 32.4 304.707 32.3V29H312.407C312.974 29.8333 313.574 30.5167 314.207 31.05C314.84 31.55 315.474 31.95 316.107 32.25C316.774 32.55 317.44 32.75 318.107 32.85C318.774 32.95 319.424 33 320.057 33C321.357 33 322.707 32.7833 324.107 32.35C325.507 31.8833 326.774 31.2667 327.907 30.5V29.7H325.607L326.007 24.8H320.007V19.45C320.007 19.3167 319.974 19.25 319.907 19.25C319.84 19.25 319.774 19.2167 319.707 19.15V18.25C319.707 18.1167 319.69 17.9833 319.657 17.85C319.657 17.7167 319.674 17.5667 319.707 17.4C319.774 17.3333 319.824 17.3167 319.857 17.35C319.89 17.3833 319.907 17.3333 319.907 17.2V9.6H318.857C318.39 9.6 317.857 9.7 317.257 9.9C316.69 10.0667 316.124 10.3 315.557 10.6C314.99 10.9 314.457 11.2667 313.957 11.7C313.49 12.1 313.107 12.5333 312.807 13H307.657C307.59 13.0667 307.524 13.15 307.457 13.25C307.424 13.3167 307.374 13.3833 307.307 13.45C307.407 13.55 307.49 13.65 307.557 13.75C307.624 13.85 307.69 13.9333 307.757 14C308.824 14 309.657 14 310.257 14C310.857 14 311.307 14 311.607 14C311.907 14 312.09 14 312.157 14C312.224 14 312.274 14.0167 312.307 14.05C311.774 15.1167 311.424 16.2667 311.257 17.5C311.09 18.7 311.007 19.9333 311.007 21.2C311.007 21.2667 311.007 21.4333 311.007 21.7C311.04 21.9667 311.057 22.2833 311.057 22.65C311.09 22.9833 311.107 23.35 311.107 23.75C311.14 24.1167 311.157 24.45 311.157 24.75L311.057 24.8H304.457V22.45C304.457 22.85 304.457 23.25 304.457 23.65C304.457 24.0167 304.424 24.3833 304.357 24.75C304.324 24.85 304.274 24.9333 304.207 25C304.174 25.0333 304.14 25.0833 304.107 25.15C304.074 25.35 304.057 25.5833 304.057 25.85C304.057 26.0833 304.09 26.2833 304.157 26.45C304.39 26.6167 304.474 26.9333 304.407 27.4C304.374 27.8333 304.357 28.1833 304.357 28.45C304.324 28.5167 304.274 28.55 304.207 28.55C304.14 28.55 304.09 28.55 304.057 28.55C304.024 28.6167 304.007 28.7 304.007 28.8C304.007 28.8667 303.974 28.9333 303.907 29C303.974 29 304.057 29 304.157 29C304.257 29 304.34 29.0333 304.407 29.1C304.407 29.2667 304.374 29.4167 304.307 29.55C304.24 29.6833 304.207 29.8 304.207 29.9V33.1C304.207 33.2333 304.224 33.3167 304.257 33.35C304.324 33.3833 304.307 33.4333 304.207 33.5L334.107 33.25ZM302.457 34.8V34.05H302.257V34.8H302.457ZM302.657 35.3V34.35H302.457V35.3H302.657ZM312.207 28.5H304.507V26.55H311.607C311.674 26.85 311.757 27.1833 311.857 27.55C311.99 27.8833 312.107 28.2 312.207 28.5ZM376.43 40.9H374.83C374.696 40.9333 374.646 40.9333 374.68 40.9C374.746 40.8667 374.746 40.8167 374.68 40.75C374.513 40.6833 374.33 40.6333 374.13 40.6C373.93 40.5333 373.713 40.4833 373.48 40.45C373.246 40.4167 372.98 40.4333 372.68 40.5C372.38 40.5667 372.08 40.5833 371.78 40.55C371.613 40.5167 371.413 40.4833 371.18 40.45C370.98 40.3833 370.813 40.35 370.68 40.35H358.13C358.096 40.35 358.013 40.3667 357.88 40.4C357.78 40.4 357.646 40.4167 357.48 40.45C357.346 40.4833 357.213 40.55 357.08 40.65C356.98 40.7167 356.93 40.8 356.93 40.9H343.38V37.45C343.646 37.45 343.913 37.45 344.18 37.45C344.48 37.45 344.78 37.4333 345.08 37.4C345.18 37.2667 345.296 37.1167 345.43 36.95C345.596 36.75 345.68 36.5833 345.68 36.45V30.15H349.48C349.613 30.0167 349.68 29.9333 349.68 29.9C349.28 29.8333 348.88 29.8 348.48 29.8C348.08 29.8 347.68 29.8 347.28 29.8C347.28 29.7333 347.28 29.6833 347.28 29.65C347.313 29.5833 347.296 29.5167 347.23 29.45C347.163 29.5167 347.13 29.6333 347.13 29.8H345.68V27.45C345.846 27.5167 346.063 27.5667 346.33 27.6C346.596 27.6333 346.813 27.5667 346.98 27.4C346.813 27.2333 346.596 27.1667 346.33 27.2C346.063 27.2 345.846 27.2333 345.68 27.3V22C345.68 21.9 345.613 21.7333 345.48 21.5C345.38 21.2333 345.28 21.0167 345.18 20.85C344.88 20.8167 344.58 20.8167 344.28 20.85C344.28 20.7833 344.313 20.7333 344.38 20.7C344.446 20.6667 344.48 20.6167 344.48 20.55L344.53 20.6C344.53 20.6333 344.563 20.6833 344.63 20.75C344.696 20.6833 344.73 20.6 344.73 20.5C344.73 20.6 344.763 20.6833 344.83 20.75C344.896 20.6833 344.93 20.6 344.93 20.5C344.93 20.6 344.963 20.6833 345.03 20.75C345.096 20.6833 345.13 20.5667 345.13 20.4C345.13 20.4667 345.113 20.5333 345.08 20.6C345.08 20.6333 345.113 20.6833 345.18 20.75C345.313 20.5833 345.346 20.45 345.28 20.35C345.213 20.2167 345.146 20.0833 345.08 19.95C345.046 19.9833 345.03 20.0667 345.03 20.2C345.03 20.1 344.996 20.0167 344.93 19.95C344.863 20.0167 344.83 20.0833 344.83 20.15C344.83 20.1833 344.813 20.2333 344.78 20.3V20C344.713 19.9333 344.63 19.9167 344.53 19.95C344.43 19.95 344.38 19.9167 344.38 19.85C344.313 19.95 344.296 20.0333 344.33 20.1C344.396 20.1667 344.43 20.25 344.43 20.35C344.463 20.25 344.446 20.1667 344.38 20.1C344.346 20.0333 344.296 19.95 344.23 19.85C344.23 19.8833 344.213 19.9 344.18 19.9C344.113 19.9667 344.08 20 344.08 20V19.65H341.48L339.98 14.85H342.18C342.246 14.7833 342.28 14.6167 342.28 14.35C342.346 14.4167 342.413 14.5 342.48 14.6C342.546 14.6667 342.63 14.75 342.73 14.85L343.38 14.75C343.313 14.7167 343.246 14.65 343.18 14.55C343.146 14.45 343.08 14.35 342.98 14.25H343.33V1.75H345.03C344.93 2.05 344.93 2.28333 345.03 2.45C345.163 2.58333 345.33 2.68333 345.53 2.75C345.763 2.81667 345.996 2.85 346.23 2.85C346.496 2.85 346.68 2.85 346.78 2.85C346.88 2.85 347.08 2.83333 347.38 2.8C347.68 2.76666 347.896 2.75 348.03 2.75C348.163 2.75 348.23 2.78333 348.23 2.85C348.23 2.91667 348.296 2.95 348.43 2.95H356.78C357.18 2.95 357.446 2.86666 357.58 2.7C357.713 2.53333 357.746 2.21667 357.68 1.75H375.83V10.05H355.53V11.2H357.93C357.863 11.5333 357.813 11.8667 357.78 12.2C357.746 12.5 357.696 12.7833 357.63 13.05H348.73C348.696 13.25 348.73 13.5333 348.83 13.9C348.963 14.2667 349.163 14.6167 349.43 14.95C349.53 14.8167 349.58 14.7 349.58 14.6C349.58 14.5 349.546 14.4 349.48 14.3C349.446 14.2 349.413 14.1167 349.38 14.05C349.346 13.95 349.38 13.85 349.48 13.75H357.53C357.563 13.85 357.563 13.9833 357.53 14.15C357.53 14.2833 357.496 14.5333 357.43 14.9H363.73C363.83 15.1333 363.913 15.3667 363.98 15.6C364.046 15.8333 364.163 16.0833 364.33 16.35H373.13C373.196 16.5167 373.246 16.7 373.28 16.9C373.313 17.0667 373.33 17.2 373.33 17.3L364.53 17.4C364.596 17.5 364.646 17.6 364.68 17.7C364.713 17.7667 364.763 17.85 364.83 17.95L374.08 17.85C373.98 17.5833 373.896 17.3333 373.83 17.1C373.763 16.8667 373.68 16.6167 373.58 16.35H374.33V24.3H355.63C355.563 24.4 355.53 24.5 355.53 24.6H347.13C347.13 25.2667 347.163 25.9167 347.23 26.55C347.296 27.15 347.363 27.7833 347.43 28.45L349.78 28.55C349.78 28.05 349.796 27.55 349.83 27.05C349.863 26.5167 349.846 25.95 349.78 25.35H354.53V28.1H358.03C358.096 28.5333 358.146 29 358.18 29.5C358.246 29.9667 358.396 30.4 358.63 30.8C360.896 30.8333 363.163 30.8667 365.43 30.9C367.73 30.9 370.03 30.9 372.33 30.9H371.63C371.563 31.0667 371.53 31.2333 371.53 31.4C371.53 31.5333 371.496 31.7333 371.43 32C371.496 32 371.696 32.0167 372.03 32.05C372.396 32.05 372.83 32.05 373.33 32.05C373.83 32.05 374.346 32.05 374.88 32.05C375.446 32.0167 375.963 32 376.43 32V33C375.93 32.9 375.363 32.9 374.73 33C374.896 33.2667 375.146 33.3667 375.48 33.3C375.846 33.2333 376.163 33.2167 376.43 33.25V40.9ZM344.68 20.3H344.53V20.05H344.68V20.3ZM344.28 20.4H344.13V20.15H344.28V20.4ZM363.73 16.3C363.73 16.1333 363.713 16 363.68 15.9C363.646 15.8 363.63 15.7167 363.63 15.65H357.58V16.3H363.73ZM374.78 32.7V32.35H374.63V32.7H374.78ZM364.33 17.9C364.263 17.8 364.23 17.7 364.23 17.6C364.23 17.5 364.23 17.4167 364.23 17.35H350.43L349.83 15.55H349.48C349.58 15.9167 349.696 16.3 349.83 16.7C349.963 17.0667 350.08 17.4333 350.18 17.8C350.28 17.8667 350.396 17.9167 350.53 17.95C350.663 17.95 350.763 18 350.83 18.1C350.996 18.4667 351.113 18.8 351.18 19.1H356.33C356.396 19 356.43 18.9167 356.43 18.85C356.463 18.75 356.53 18.6333 356.63 18.5H359.53C359.53 18.3 359.63 18.1 359.83 17.9H364.33ZM357.48 19.1C357.713 19 357.713 18.8833 357.48 18.75V19.1ZM357.23 18.75C357.163 18.75 357.113 18.8 357.08 18.9C357.08 18.9667 357.08 19.0333 357.08 19.1C357.18 19.0333 357.246 18.9667 357.28 18.9C357.313 18.8 357.296 18.75 357.23 18.75ZM356.83 18.75C356.763 18.75 356.696 18.8 356.63 18.9C356.596 19 356.613 19.0833 356.68 19.15C356.78 19.0833 356.846 19 356.88 18.9C356.913 18.8 356.896 18.75 356.83 18.75ZM373.23 40.45V40.3H372.98V40.45H373.23ZM371.33 40.45V40.3H371.08V40.45H371.33ZM354.38 26.55H354.23L354.13 28.5H354.28L354.38 26.55ZM354.08 26.55H353.93L353.83 28.5H353.98L354.08 26.55ZM353.78 26.55H353.63L353.58 28.5H353.73L353.78 26.55ZM353.58 26.55H353.43L353.23 28.5H353.38L353.58 26.55ZM353.28 26.55H353.13L353.03 28.5H353.18L353.28 26.55ZM352.98 26.55H352.83L352.73 28.5H352.88L352.98 26.55ZM352.68 26.55H352.53L352.43 28.5H352.58L352.68 26.55ZM356.83 32C356.763 31.6333 356.73 31.3833 356.73 31.25C356.73 31.1167 356.73 31.0167 356.73 30.95H355.58V32H356.83ZM352.33 26.65C352.33 27.3167 352.28 27.95 352.18 28.55C352.246 28.0833 352.28 27.7167 352.28 27.45C352.313 27.1833 352.33 26.9167 352.33 26.65ZM343.33 19.1V18.05C343.33 18.0167 343.263 17.9333 343.13 17.8C343.03 17.6333 342.896 17.45 342.73 17.25C342.596 17.05 342.463 16.85 342.33 16.65C342.23 16.4167 342.18 16.2333 342.18 16.1C342.18 15.9667 342.18 15.8667 342.18 15.8C342.213 15.7 342.23 15.6167 342.23 15.55H340.58L341.68 19.1H343.33ZM352.18 26.55H352.03L351.83 28.5H351.98L352.18 26.55ZM351.88 26.55H351.73L351.63 28.5H351.78L351.88 26.55ZM351.58 26.55H351.43L351.33 28.5H351.48L351.58 26.55ZM351.28 26.55H351.13L351.03 28.5H351.18L351.28 26.55ZM350.93 26.55C350.93 26.75 350.913 27.0167 350.88 27.35C350.88 27.65 350.846 28.05 350.78 28.55C350.846 28.2833 350.88 27.9667 350.88 27.6C350.913 27.2 350.93 26.85 350.93 26.55ZM350.78 26.55H350.63L350.43 28.5H350.58L350.78 26.55ZM350.48 26.55H350.33L350.23 28.5H350.38L350.48 26.55ZM357.03 33.2V32.9H347.58V33.2H357.03ZM347.08 28.1V27.75H346.93V28.1H347.08ZM347.18 29V28.55H347.03V29H347.18ZM347.38 30.7V30.25H347.23V30.7H347.38ZM347.48 31.5V31.15H347.33V31.5H347.48ZM347.58 32.4V31.95H347.43V32.4H347.58ZM342.93 18.5H342.08V17.35C342.18 17.5167 342.313 17.7 342.48 17.9C342.646 18.1 342.796 18.3 342.93 18.5ZM420.99 28.25C420.824 28.85 420.674 29.4833 420.54 30.15C420.407 30.8167 420.257 31.5 420.09 32.2H418.84V40.9H407.34L398.64 28.2H395.34L395.64 24.5C395.74 24.5667 395.89 24.55 396.09 24.45L392.74 19.5V40.9H383.99V38.65C383.99 38.55 384.074 38.25 384.24 37.75C384.44 37.2167 384.59 36.7167 384.69 36.25C384.757 35.9833 384.774 35.6333 384.74 35.2C384.707 34.7667 384.69 34.4667 384.69 34.3C384.69 33.8 384.674 33.3 384.64 32.8C384.607 32.3 384.507 31.8 384.34 31.3C384.274 31.1667 384.224 31 384.19 30.8C384.157 30.6 384.107 30.4 384.04 30.2C383.84 30.3333 383.707 30.6 383.64 31C383.574 31.4 383.507 31.7333 383.44 32C383.407 32.0667 383.374 32.1167 383.34 32.15C383.307 32.15 383.29 32.2167 383.29 32.35V40.9H381.29V32.7C381.057 32.5333 380.807 32.3833 380.54 32.25C380.307 32.0833 380.057 31.9167 379.79 31.75C379.924 31.7167 380.107 31.6167 380.34 31.45C380.607 31.2833 380.79 31.2 380.89 31.2C381.157 31.2 381.29 31.2667 381.29 31.4V31.35V31.05C381.09 30.9167 380.874 30.7833 380.64 30.65C380.407 30.4833 380.19 30.35 379.99 30.25C380.19 30.1833 380.407 30.1 380.64 30C380.874 29.8667 381.09 29.75 381.29 29.65C381.124 29.45 380.924 29.3 380.69 29.2C380.49 29.1 380.274 28.9667 380.04 28.8V6.25C380.274 6.15 380.474 6.05 380.64 5.95C380.807 5.85 381.024 5.71666 381.29 5.55V1.7H383.39V29.9C383.524 29.4333 383.657 28.9167 383.79 28.35C383.924 27.75 383.99 27.3833 383.99 27.25V12.65C383.99 12.55 384.107 12.3333 384.34 12C384.574 11.6333 384.69 11.3833 384.69 11.25V3.45C384.69 3.31666 384.774 3.06666 384.94 2.7C385.107 2.33333 385.24 2 385.34 1.7H392.59L407.29 23.2V1.7H418.79V5.8C418.624 5.76666 418.474 5.76666 418.34 5.8C418.207 5.8 418.057 5.81666 417.89 5.85C417.79 6.01667 417.69 6.23333 417.59 6.5C417.524 6.73333 417.49 6.91667 417.49 7.05V22.65C417.49 22.9167 417.59 23.1667 417.79 23.4C417.857 23.4333 417.924 23.45 417.99 23.45C418.09 23.4167 418.174 23.4167 418.24 23.45V23.55C418.24 23.5833 418.24 23.6167 418.24 23.65C418.274 23.65 418.29 23.6667 418.29 23.7C418.19 23.7333 418.09 23.7333 417.99 23.7C417.89 23.6333 417.79 23.6833 417.69 23.85C417.99 24.05 418.224 24.1 418.39 24C418.424 24.0667 418.424 24.15 418.39 24.25C418.39 24.35 418.39 24.4667 418.39 24.6C418.39 24.7 418.407 24.8 418.44 24.9C418.507 24.9667 418.624 25.0167 418.79 25.05V26.1H405.49C405.424 26.1667 405.374 26.2167 405.34 26.25C405.307 26.2833 405.29 26.3833 405.29 26.55C405.29 26.75 405.34 27.0833 405.44 27.55C405.574 27.9833 405.774 28.2 406.04 28.2C406.307 28.2 406.474 28.0333 406.54 27.7C406.64 27.3333 406.774 27 406.94 26.7H407.39C407.39 26.9 407.324 27.1167 407.19 27.35C407.057 27.5833 407.024 27.8667 407.09 28.2C407.324 28.2 407.474 28.0167 407.54 27.65C407.64 27.2833 407.74 26.9667 407.84 26.7H408.39C408.324 26.9667 408.24 27.2 408.14 27.4C408.04 27.5667 408.024 27.8333 408.09 28.2C408.324 28.1667 408.474 27.9833 408.54 27.65C408.607 27.3167 408.707 27.0167 408.84 26.75H409.39C409.324 26.9167 409.24 27.1333 409.14 27.4C409.074 27.6333 408.99 27.8833 408.89 28.15V28.2H409.04C409.14 28.2 409.24 28.1333 409.34 28C409.44 27.8667 409.524 27.7167 409.59 27.55C409.657 27.3833 409.707 27.2167 409.74 27.05C409.774 26.8833 409.807 26.7667 409.84 26.7H410.29C410.29 26.9 410.224 27.1167 410.09 27.35C409.957 27.5833 409.924 27.8667 409.99 28.2C410.324 28.1667 410.49 27.9833 410.49 27.65C410.524 27.2833 410.64 26.9667 410.84 26.7H411.29C411.224 26.9667 411.14 27.2 411.04 27.4C410.94 27.5667 410.924 27.8333 410.99 28.2C411.257 28.2 411.407 28.0167 411.44 27.65C411.474 27.2833 411.574 26.9833 411.74 26.75H412.29C412.224 26.9167 412.14 27.1333 412.04 27.4C411.974 27.6667 411.89 27.8833 411.79 28.05L411.99 28.2C412.157 28.2333 412.29 28.0667 412.39 27.7C412.524 27.3 412.64 26.9833 412.74 26.75H413.19C413.124 26.95 413.057 27.1833 412.99 27.45C412.924 27.6833 412.89 27.95 412.89 28.25C413.124 28.2833 413.274 28.1167 413.34 27.75C413.44 27.3833 413.574 27.0333 413.74 26.7H414.19C414.19 26.9 414.124 27.1167 413.99 27.35C413.857 27.5833 413.824 27.8667 413.89 28.2C414.124 28.2 414.274 28.0167 414.34 27.65C414.44 27.2833 414.54 26.9667 414.64 26.7H415.19C415.124 26.9667 415.04 27.2 414.94 27.4C414.84 27.5667 414.824 27.8333 414.89 28.2C415.124 28.1667 415.274 27.9833 415.34 27.65C415.407 27.3167 415.507 27.0167 415.64 26.75H416.19C416.09 26.95 416.007 27.1833 415.94 27.45C415.907 27.6833 415.857 27.95 415.79 28.25C416.09 28.2167 416.257 28.0167 416.29 27.65C416.357 27.2833 416.474 26.9667 416.64 26.7H417.09C417.09 26.9 417.024 27.1167 416.89 27.35C416.757 27.5833 416.724 27.8667 416.79 28.2C417.124 28.1667 417.29 27.9833 417.29 27.65C417.324 27.2833 417.44 26.9667 417.64 26.7H418.09C418.024 26.9667 417.94 27.2 417.84 27.4C417.74 27.5667 417.724 27.8333 417.79 28.2C417.924 28.1667 418.024 28.1 418.09 28C418.157 27.8667 418.207 27.7167 418.24 27.55C418.307 27.3833 418.374 27.2333 418.44 27.1C418.507 26.9333 418.607 26.8 418.74 26.7C418.774 26.9 418.774 27.1333 418.74 27.4C418.707 27.6333 418.657 27.85 418.59 28.05C418.957 28.2167 419.34 28.2833 419.74 28.25C420.174 28.1833 420.59 28.1833 420.99 28.25ZM397.74 27.3V26.85H397.59V27.3H397.74ZM397.54 26.45H397.39L397.24 27.3H397.44L397.54 26.45ZM397.24 26.05H397.09L396.94 27.3H397.14L397.24 26.05ZM396.84 25.5C396.774 25.8 396.74 26.1167 396.74 26.45C396.74 26.75 396.724 27.0333 396.69 27.3C396.757 27 396.79 26.7 396.79 26.4C396.824 26.0667 396.84 25.7667 396.84 25.5ZM396.64 25.35H396.49L396.29 27.3H396.49L396.64 25.35ZM396.34 25.35H396.19L395.94 27.3H396.14L396.34 25.35ZM461.215 15.15L461.115 15.2L460.665 14.55L460.815 14.45L461.215 15.15ZM438.265 5.9C438.198 6.2 438.148 6.53333 438.115 6.9C438.082 7.26667 438.015 7.6 437.915 7.9V7.15C437.915 7.01666 437.948 6.81666 438.015 6.55C438.082 6.28333 438.165 6.06667 438.265 5.9ZM437.865 5.9C437.865 6.13333 437.848 6.46666 437.815 6.9C437.815 7.3 437.715 7.63333 437.515 7.9V7.25C437.515 7.15 437.548 6.96666 437.615 6.7C437.682 6.4 437.765 6.13333 437.865 5.9ZM437.465 5.9C437.432 6.16667 437.398 6.51667 437.365 6.95C437.365 7.38333 437.282 7.7 437.115 7.9V7.35C437.115 7.21666 437.148 7 437.215 6.7C437.282 6.36666 437.365 6.1 437.465 5.9ZM436.915 5.9C437.048 6.03333 437.082 6.31667 437.015 6.75C436.948 7.18333 436.882 7.56666 436.815 7.9C436.848 7.5 436.848 7.15 436.815 6.85C436.815 6.51667 436.848 6.2 436.915 5.9ZM436.665 5.9C436.632 6.3 436.598 6.65 436.565 6.95C436.565 7.25 436.482 7.56666 436.315 7.9V7.55C436.315 7.45 436.348 7.21666 436.415 6.85C436.515 6.48333 436.598 6.16667 436.665 5.9ZM436.265 5.9C436.265 6.2 436.248 6.53333 436.215 6.9C436.182 7.26667 436.132 7.6 436.065 7.9C436.065 7.5 436.082 7.13333 436.115 6.8C436.148 6.46667 436.198 6.16667 436.265 5.9ZM435.865 5.9C435.832 6.2 435.798 6.53333 435.765 6.9C435.765 7.26667 435.732 7.6 435.665 7.9C435.665 7.6 435.682 7.26667 435.715 6.9C435.748 6.53333 435.798 6.2 435.865 5.9ZM435.615 6.05C435.548 6.35 435.482 6.66666 435.415 7C435.382 7.3 435.332 7.6 435.265 7.9C435.265 7.63333 435.265 7.31667 435.265 6.95C435.298 6.58333 435.315 6.23333 435.315 5.9C435.348 5.93333 435.382 5.95 435.415 5.95C435.448 5.98333 435.482 6 435.515 6C435.548 6 435.582 6.01666 435.615 6.05ZM435.215 6.05C435.148 6.35 435.082 6.66666 435.015 7C434.982 7.3 434.932 7.6 434.865 7.9C434.865 7.66666 434.865 7.36667 434.865 7C434.898 6.6 434.915 6.23333 434.915 5.9C434.948 5.93333 434.982 5.95 435.015 5.95C435.048 5.98333 435.082 6 435.115 6C435.148 6 435.182 6.01666 435.215 6.05ZM434.715 6.25C434.682 6.41666 434.665 6.63333 434.665 6.9C434.698 7.13333 434.682 7.38333 434.615 7.65C434.615 7.81666 434.548 7.9 434.415 7.9C434.482 7.33333 434.515 6.91667 434.515 6.65C434.515 6.35 434.515 6.1 434.515 5.9C434.748 6.03333 434.815 6.15 434.715 6.25ZM434.365 5.9C434.298 6.16667 434.248 6.5 434.215 6.9C434.182 7.3 434.115 7.63333 434.015 7.9V7.05C434.015 6.91667 434.048 6.73333 434.115 6.5C434.182 6.26666 434.265 6.06667 434.365 5.9ZM462.815 18.8H461.315C461.148 18.4667 460.948 18.15 460.715 17.85C460.482 17.5167 460.265 17.2 460.065 16.9C460.032 16.9333 460.015 17.0333 460.015 17.2C460.015 17.5333 460.065 17.8167 460.165 18.05C460.298 18.2833 460.432 18.5333 460.565 18.8H460.215V25.25H448.115V19.45C448.115 19.0167 448.048 18.4833 447.915 17.85C447.815 17.2167 447.665 16.6 447.465 16C447.298 15.3667 447.115 14.8167 446.915 14.35C446.715 13.85 446.515 13.5333 446.315 13.4H452.915V12.8H445.715C444.815 11.9667 443.798 11.45 442.665 11.25C441.565 11.0167 440.498 10.8667 439.465 10.8C438.698 10.8 438.098 10.8167 437.665 10.85C437.265 10.85 436.965 10.85 436.765 10.85C436.565 10.85 436.432 10.85 436.365 10.85C436.332 10.85 436.298 10.8333 436.265 10.8V16.75H441.065V17.8H436.365L436.315 17.85V18.95C436.382 18.9833 436.498 19 436.665 19V29C436.465 29 436.332 29.1 436.265 29.3H424.215V27.05H429.115V25.35H424.215V21.55C424.115 21.4833 423.998 21.4667 423.865 21.5C423.732 21.5 423.615 21.4833 423.515 21.45C423.415 21.2833 423.248 21.05 423.015 20.75C422.815 20.4167 422.715 20.1833 422.715 20.05V7.05C422.715 6.95 422.815 6.75 423.015 6.45C423.248 6.15 423.448 5.88333 423.615 5.65C423.682 5.61667 423.748 5.6 423.815 5.6C423.915 5.6 424.015 5.58333 424.115 5.55C424.182 5.51666 424.215 5.51666 424.215 5.55C424.215 5.55 424.215 5.48333 424.215 5.35V2H444.415C445.315 2 446.365 2.13333 447.565 2.4C448.765 2.66666 449.965 3.08333 451.165 3.65C452.365 4.18333 453.498 4.88333 454.565 5.75C455.632 6.61667 456.482 7.63333 457.115 8.8H444.015C443.915 8.5 443.815 8.2 443.715 7.9C443.615 7.56666 443.482 7.26666 443.315 7C442.948 7 442.532 6.98333 442.065 6.95C441.632 6.91666 441.348 6.9 441.215 6.9H438.515V5.1H432.065C431.965 5.7 431.865 6.3 431.765 6.9C431.698 7.5 431.632 8.11666 431.565 8.75H441.565C441.665 9.08333 441.748 9.41666 441.815 9.75C441.915 10.05 442.032 10.3333 442.165 10.6H453.565C453.698 10.9667 453.798 11.3333 453.865 11.7C453.965 12.0667 454.098 12.4333 454.265 12.8H458.965C459.232 13.3 459.415 13.8333 459.515 14.4C459.548 14.4667 459.598 14.5 459.665 14.5C459.765 14.5 459.848 14.5167 459.915 14.55C460.382 15.2167 460.865 15.9167 461.365 16.65C461.865 17.35 462.348 18.0667 462.815 18.8ZM433.965 5.9C433.898 6.2 433.848 6.53333 433.815 6.9C433.782 7.26667 433.715 7.6 433.615 7.9V7.15C433.615 7.01666 433.648 6.81666 433.715 6.55C433.782 6.28333 433.865 6.06667 433.965 5.9ZM433.565 5.9C433.498 6.2 433.448 6.53333 433.415 6.9C433.382 7.26667 433.315 7.6 433.215 7.9V7.25C433.215 7.11667 433.248 6.91667 433.315 6.65C433.382 6.35 433.465 6.1 433.565 5.9ZM433.165 5.9C433.132 6.16667 433.098 6.51667 433.065 6.95C433.065 7.38333 432.982 7.7 432.815 7.9V7.35C432.815 7.21666 432.848 7 432.915 6.7C432.982 6.36666 433.065 6.1 433.165 5.9ZM432.615 5.9C432.748 6.03333 432.782 6.31667 432.715 6.75C432.648 7.18333 432.582 7.56666 432.515 7.9C432.515 7.5 432.515 7.16667 432.515 6.9C432.515 6.6 432.548 6.26666 432.615 5.9ZM441.065 21.85L438.215 21.75V21.55L441.065 21.65V21.85ZM437.615 19.45C437.615 19.5167 437.598 19.75 437.565 20.15C437.565 20.5167 437.548 20.9333 437.515 21.4C437.515 21.8333 437.498 22.25 437.465 22.65C437.465 23.05 437.465 23.2833 437.465 23.35V29H436.815V19H437.465L437.565 19.2C437.632 19.3333 437.648 19.4167 437.615 19.45ZM459.565 29C459.498 29.2 459.415 29.4333 459.315 29.7C459.248 29.9333 459.182 30.1833 459.115 30.45C458.815 31.55 458.298 32.65 457.565 33.75C456.865 34.8167 456.048 35.8 455.115 36.7C454.182 37.6 453.198 38.3667 452.165 39C451.165 39.6 450.232 39.9833 449.365 40.15C449.265 40.15 449.148 40.1667 449.015 40.2C448.882 40.2333 448.732 40.2833 448.565 40.35C448.265 40.4167 447.965 40.4833 447.665 40.55C447.365 40.6167 447.065 40.6833 446.765 40.75C446.498 40.7833 446.182 40.8333 445.815 40.9C445.448 40.9333 445.098 40.9667 444.765 41C444.432 41.0667 444.132 41.1167 443.865 41.15C443.632 41.1833 443.482 41.2 443.415 41.2H424.215V29.9H436.265V32.3H440.515C441.048 32.3 441.632 32.25 442.265 32.15C442.932 32.0167 443.565 31.8333 444.165 31.6C444.765 31.3667 445.298 31.0667 445.765 30.7C446.232 30.3 446.582 29.8333 446.815 29.3H459.215C459.282 29.2333 459.332 29.1833 459.365 29.15C459.432 29.1167 459.498 29.0667 459.565 29ZM434.815 25.3H434.665L434.565 27.1H434.715L434.815 25.3ZM434.415 27.1V25.3H434.265V27.1H434.415ZM434.115 25.3H433.965L433.865 27.1H434.015L434.115 25.3ZM433.665 27.05V25.35C433.665 25.75 433.615 26.1 433.515 26.4H431.265C431.198 26.2 431.165 26.0167 431.165 25.85C431.165 25.65 431.165 25.4667 431.165 25.3C431.132 25.3 431.115 25.4 431.115 25.6C431.115 25.7667 431.115 25.9667 431.115 26.2V27.05H433.665ZM430.915 25.3H430.765L430.665 27.1H430.815L430.915 25.3ZM430.515 27.1V25.3H430.365V27.1H430.515ZM430.165 27.1V25.3H429.815V27.1H430.165Z" fill="#727272"/>
</svg>
